####
#
# OBJ File Generated by Meshlab
#
####
# Object attach.obj
#
# Vertices: 463
# Faces: 804
#
####
v -0.007102 0.211682 0.061033
v -0.025699 0.212830 0.059678
v -0.042738 0.216053 0.054399
v -0.058485 0.221718 0.046603
v -0.070074 0.231579 0.034562
v -0.079127 0.242231 0.020696
v -0.081170 0.252540 0.005680
v -0.095835 0.248632 0.010766
v -0.109384 0.247846 0.017820
v -0.121473 0.243929 0.025739
v -0.133468 0.237246 0.033263
v -0.146863 0.227070 0.037721
v -0.160223 0.216830 0.041734
v -0.176684 0.207244 0.047758
v -0.193394 0.194066 0.052713
v 0.177288 0.185884 0.050773
v 0.160700 0.200664 0.049369
v 0.147579 0.217063 0.046076
v 0.136276 0.229468 0.042213
v 0.124414 0.239560 0.034489
v 0.113277 0.246353 0.025381
v 0.102019 0.251419 0.015227
v 0.091200 0.254596 0.006515
v 0.078069 0.260443 0.002972
v 0.072836 0.249177 0.019018
v 0.063326 0.237067 0.036276
v 0.050534 0.226027 0.048118
v 0.033479 0.218225 0.056646
v 0.013534 0.213091 0.060618
v -0.094415 0.197797 0.058777
v -0.095054 0.223621 0.038421
v 0.083960 0.203276 0.058535
v 0.084595 0.238690 0.027447
v -0.067795 0.205058 0.055826
v -0.117168 0.213859 0.046287
v -0.088076 0.233261 0.028727
v -0.106616 0.236017 0.028856
v -0.075428 0.220239 0.042500
v 0.109814 0.217489 0.047124
v 0.056801 0.210103 0.057629
v 0.090706 0.247575 0.017093
v 0.074224 0.241213 0.027919
v 0.098252 0.239539 0.027860
v 0.085812 0.220777 0.044288
v 0.089247 0.230757 0.035671
v 0.071187 0.226132 0.042369
v 0.101708 0.226511 0.039926
v -0.019775 0.191057 0.073094
v -0.058065 0.212416 0.052908
v -0.042672 0.200349 0.063771
v -0.046613 0.208291 0.058292
v -0.130039 0.224187 0.040656
v -0.137193 0.208583 0.047582
v -0.113785 0.226211 0.038364
v -0.090052 0.240855 0.019420
v -0.084582 0.211707 0.048606
v 0.121477 0.226773 0.041722
v 0.125449 0.211411 0.052113
v 0.048165 0.216819 0.054803
v 0.062907 0.218236 0.050568
v 0.031190 0.202838 0.066050
v 0.043620 0.208776 0.060690
v 0.110968 0.235854 0.034005
v -0.017602 0.202703 0.065813
v -0.154801 0.203069 0.050367
v -0.101732 0.214451 0.045961
v -0.081463 0.202022 0.056595
v -0.063410 0.177435 0.078094
v -0.064589 0.191349 0.066448
v 0.145721 0.185370 0.057342
v 0.026897 0.210897 0.061641
v -0.031067 0.204676 0.063336
v 0.006508 0.196294 0.071283
v 0.014399 0.204854 0.065869
v -0.166324 0.188983 0.047494
v -0.124735 0.179905 0.062773
v -0.105227 0.205554 0.052208
v -0.112128 0.192449 0.059164
v -0.002592 0.203658 0.066210
v -0.136345 0.193537 0.054706
v -0.148655 0.180355 0.061420
v -0.123959 0.200512 0.052884
v -0.093464 0.179792 0.071179
v -0.108982 0.178671 0.068431
v 0.105732 0.200664 0.058399
v -0.043552 0.185272 0.073839
v -0.057233 0.199017 0.061837
v 0.139750 0.201752 0.053115
v 0.121075 0.188468 0.063867
v 0.125009 0.200183 0.057611
v -0.098832 0.189162 0.063800
v -0.080818 0.188615 0.067769
v -0.078442 0.177845 0.075831
v 0.112792 0.209560 0.052434
v 0.097927 0.208418 0.053814
v 0.095833 0.217051 0.047149
v -0.056630 0.184660 0.072765
v -0.033960 0.192865 0.070118
v -0.029037 0.178526 0.080446
v 0.075003 0.211389 0.053325
v 0.054632 0.184557 0.076015
v 0.049589 0.196958 0.067483
v 0.067290 0.195229 0.066486
v 0.065272 0.203913 0.060157
v 0.085151 0.190187 0.068633
v 0.070756 0.180521 0.077446
v 0.092465 0.198026 0.061788
v 0.102160 0.187510 0.067351
v 0.057803 0.175464 0.082962
v 0.039101 0.175823 0.083601
v 0.013116 0.178623 0.082223
v -0.008053 0.177042 0.083013
v 0.031543 0.188753 0.075094
v 0.044190 0.188782 0.074110
v 0.001547 0.185931 0.077629
v -0.017699 0.182693 0.078663
v 0.021063 0.195050 0.071692
v 0.327178 0.191980 0.021509
v 0.329772 0.215323 0.019234
v 0.330577 0.235494 0.004095
v 0.328471 0.253667 -0.013800
v 0.324388 0.270039 -0.032019
v 0.315293 0.278575 -0.049689
v 0.313210 0.260789 -0.062629
v 0.326767 0.252994 -0.044891
v 0.331125 0.233666 -0.060281
v 0.124027 0.215185 -0.088953
v 0.110488 0.227762 -0.087839
v 0.095860 0.239081 -0.084786
v 0.080848 0.247762 -0.080893
v 0.065191 0.255552 -0.077410
v 0.048442 0.261918 -0.074919
v 0.064691 0.267714 -0.066130
v 0.076794 0.273832 -0.049879
v 0.081963 0.275152 -0.031671
v 0.081873 0.270050 -0.013142
v 0.121186 0.269930 -0.034006
v 0.099673 0.270878 -0.037643
v 0.088958 0.272664 -0.042056
v 0.087448 0.262978 -0.063657
v 0.078111 0.268410 -0.061180
v 0.266513 0.194502 0.030489
v 0.215519 0.255168 -0.028560
v 0.121535 0.265065 0.001799
v 0.142072 0.245481 -0.057666
v 0.101004 0.254279 -0.068505
v 0.078014 0.256991 -0.073836
v 0.231231 0.221794 0.029587
v 0.198402 0.210174 -0.065611
v 0.179451 0.250757 0.010748
v 0.106944 0.263921 -0.004175
v 0.098519 0.268189 -0.021350
v 0.116367 0.257802 0.013549
v 0.133823 0.257931 0.019771
v 0.129667 0.233725 -0.075400
v 0.093356 0.247524 -0.077867
v 0.198246 0.217304 0.041545
v 0.162443 0.239893 0.033647
v 0.100795 0.257055 0.005042
v 0.095732 0.262721 -0.006610
v 0.124384 0.249279 0.026895
v 0.145074 0.248300 0.032063
v 0.122177 0.226322 -0.083988
v 0.180930 0.202201 0.046005
v 0.206640 0.195031 0.044639
v 0.173572 0.222224 0.039765
v 0.150628 0.229907 0.040721
v 0.156147 0.262636 0.005601
v 0.161331 0.213846 0.045311
v 0.146270 0.257865 0.019440
v 0.162265 0.252286 0.020394
v 0.297492 0.197634 0.025501
v 0.286311 0.239313 0.013468
v 0.266366 0.244801 -0.034775
v 0.101863 0.264629 -0.053012
v 0.110441 0.269010 -0.039413
v 0.113595 0.268718 -0.016550
v 0.116323 0.260653 -0.054488
v 0.105607 0.268258 -0.023482
v 0.135751 0.260413 -0.043729
v 0.115963 0.246901 -0.071257
v 0.108681 0.238466 -0.081412
v 0.249268 0.191691 0.045869
v 0.260631 0.218642 0.024238
v 0.236007 0.204803 0.044703
v 0.246740 0.206982 0.033827
v 0.222184 0.212253 0.042715
v 0.195713 0.237590 0.021975
v 0.142718 0.218680 -0.077565
v 0.173918 0.211009 -0.067185
v 0.137794 0.268404 -0.000980
v 0.127096 0.269347 -0.014559
v 0.141782 0.267337 -0.024831
v 0.315637 0.201154 0.023284
v 0.306054 0.222432 0.020135
v 0.279444 0.191059 0.028217
v 0.309182 0.239196 0.000952
v 0.295846 0.250671 -0.017939
v 0.297851 0.232033 0.015826
v 0.283999 0.213525 0.024187
v 0.296260 0.242695 -0.004111
v 0.296058 0.255857 -0.034111
v 0.305051 0.215305 -0.063488
v 0.277413 0.209926 -0.066941
v 0.127339 0.254078 -0.058760
v 0.131287 0.244354 -0.065969
v 0.257802 0.245482 0.007008
v 0.278570 0.249711 0.002967
v 0.266550 0.236195 0.014346
v 0.248158 0.227771 0.019331
v 0.272197 0.247720 -0.020270
v 0.280966 0.246902 -0.011990
v 0.178835 0.237024 0.028417
v 0.189975 0.227756 0.034844
v 0.143300 0.232424 -0.067928
v 0.163584 0.236170 -0.050944
v 0.157748 0.221328 -0.066785
v 0.152662 0.237273 -0.057106
v 0.156992 0.254299 -0.036522
v 0.168719 0.223759 -0.059935
v 0.146276 0.260202 -0.035420
v 0.130228 0.263757 0.008466
v 0.313219 0.259581 -0.016774
v 0.300750 0.273444 -0.028474
v 0.307791 0.266570 -0.038031
v 0.276495 0.224446 0.018966
v 0.304583 0.238376 -0.042639
v 0.322218 0.219263 -0.068261
v 0.307307 0.241107 -0.064749
v 0.277182 0.261594 -0.033810
v 0.241898 0.259203 -0.014942
v 0.218845 0.232126 -0.049951
v 0.188544 0.236103 -0.046531
v 0.302753 0.253274 -0.048155
v 0.282514 0.242773 -0.046913
v 0.252521 0.239937 -0.043048
v 0.244249 0.222309 -0.060585
v 0.265523 0.255818 -0.047882
v 0.281169 0.237535 -0.048830
v 0.241643 0.259795 -0.037997
v 0.292642 0.251270 -0.050181
v 0.286128 0.260944 -0.023356
v 0.254583 0.247049 -0.020889
v 0.254903 0.257962 -0.004813
v 0.227213 0.242098 0.007598
v 0.237148 0.235548 0.013077
v 0.267697 0.254969 -0.004433
v 0.239462 0.254169 -0.000497
v 0.219880 0.256099 -0.007564
v 0.214031 0.219456 -0.061291
v 0.197981 0.225955 -0.056466
v 0.229034 0.226544 -0.057886
v 0.182871 0.224924 -0.056482
v 0.257391 0.211750 -0.066402
v 0.262796 0.228399 -0.055977
v 0.291027 0.225278 -0.057266
v 0.232725 0.240895 -0.038757
v 0.217494 0.241286 -0.037253
v 0.198764 0.245343 -0.031513
v 0.227429 0.254298 -0.036518
v 0.177806 0.248326 -0.029741
v 0.189096 0.241983 -0.034415
v 0.210665 0.243765 0.008362
v 0.196742 0.254561 -0.009126
v 0.187226 0.250424 -0.019786
v 0.173925 0.256850 -0.009248
v 0.203245 0.252927 -0.021391
v 0.197585 0.245873 0.007357
v 0.228257 0.259529 -0.022536
v 0.184411 0.252638 -0.003963
v 0.166994 0.255599 -0.023598
v 0.168284 0.257184 0.004832
v 0.212347 0.231428 0.024764
v 0.214411 0.221815 0.037791
v 0.166552 0.246077 -0.038910
v 0.154419 0.264852 -0.014969
v -0.126596 0.220032 -0.086422
v -0.114008 0.231707 -0.083895
v -0.100991 0.241159 -0.080211
v -0.086974 0.247920 -0.077719
v -0.071209 0.253623 -0.075207
v -0.053725 0.259478 -0.075011
v -0.036194 0.258847 -0.078635
v -0.018694 0.258209 -0.079529
v -0.000844 0.259776 -0.079141
v 0.014821 0.258485 -0.079761
v 0.032228 0.257765 -0.079341
v -0.008691 0.236895 -0.088926
v -0.009143 0.249527 -0.083716
v 0.019210 0.239102 -0.087823
v -0.031182 0.243040 -0.086462
v 0.005119 0.244096 -0.086124
v 0.021674 0.249857 -0.083349
v 0.043428 0.245519 -0.085715
v -0.026541 0.224463 -0.093376
v -0.051672 0.247179 -0.083572
v -0.040272 0.250994 -0.083164
v -0.044288 0.233648 -0.090482
v -0.043733 0.217710 -0.096249
v -0.066629 0.238099 -0.088221
v -0.064605 0.246461 -0.082705
v 0.052182 0.254307 -0.080203
v 0.061575 0.240354 -0.088188
v -0.021998 0.234371 -0.089854
v -0.056272 0.227339 -0.093694
v -0.083421 0.235488 -0.087807
v 0.093779 0.225349 -0.093806
v 0.074064 0.229107 -0.093807
v -0.108948 0.216005 -0.094693
v -0.095694 0.226621 -0.091688
v -0.077038 0.219998 -0.097172
v -0.070126 0.228735 -0.093541
v 0.111832 0.216504 -0.093574
v 0.041711 0.215498 -0.097068
v 0.058876 0.219898 -0.096909
v 0.048627 0.229346 -0.092874
v 0.027485 0.225494 -0.093252
v 0.032319 0.236541 -0.089206
v 0.006447 0.225159 -0.092903
v 0.082942 0.238217 -0.087360
v -0.009085 0.224587 -0.093119
v -0.332717 0.196754 0.018128
v -0.337012 0.219960 0.011050
v -0.342076 0.238176 -0.007501
v -0.346371 0.250952 -0.028603
v -0.346991 0.257591 -0.050007
v -0.344903 0.241723 -0.064747
v -0.343193 0.219829 -0.064036
v -0.068500 0.265328 -0.063217
v -0.080178 0.268911 -0.047898
v -0.084023 0.268871 -0.026678
v -0.084501 0.262253 -0.009341
v -0.127762 0.266483 -0.031701
v -0.105184 0.267707 -0.035420
v -0.092794 0.267862 -0.037706
v -0.090968 0.260681 -0.059994
v -0.224306 0.248710 -0.042398
v -0.127588 0.263935 0.003017
v -0.124926 0.253100 -0.059333
v -0.083623 0.255312 -0.069922
v -0.106484 0.255495 -0.064643
v -0.200902 0.241766 0.009132
v -0.120631 0.254752 0.014438
v -0.109036 0.260831 -0.001781
v -0.141447 0.255355 0.017731
v -0.100091 0.263669 -0.018823
v -0.116649 0.243720 -0.073253
v -0.134565 0.236219 -0.070665
v -0.098701 0.248690 -0.073457
v -0.175847 0.221547 -0.076008
v -0.211493 0.197045 0.034765
v -0.183812 0.226029 0.028873
v -0.105443 0.253448 0.008172
v -0.132856 0.247907 0.026651
v -0.153467 0.244536 0.027159
v -0.096861 0.257141 -0.003415
v -0.125907 0.230688 -0.079673
v -0.144018 0.220701 -0.077903
v -0.200084 0.187424 0.043059
v -0.194983 0.208622 0.033812
v -0.175336 0.219295 0.039830
v -0.172872 0.253799 -0.023208
v -0.155110 0.233858 -0.061027
v -0.163598 0.256920 0.003540
v -0.145561 0.231192 -0.068601
v -0.158615 0.219883 -0.072085
v -0.154494 0.253355 0.016738
v -0.301776 0.205563 0.020581
v -0.283303 0.250912 -0.046480
v -0.119160 0.261369 -0.049221
v -0.114731 0.266266 -0.039738
v -0.117648 0.266301 -0.017903
v -0.129957 0.266728 -0.014135
v -0.151108 0.262213 -0.024880
v -0.146426 0.264517 -0.005090
v -0.139964 0.266437 -0.023603
v -0.134772 0.260259 -0.041800
v -0.118083 0.265710 -0.003447
v -0.156691 0.261891 -0.010497
v -0.139018 0.262301 0.007303
v -0.141190 0.247492 -0.055106
v -0.149205 0.255123 -0.041559
v -0.161704 0.254318 -0.032444
v -0.160980 0.243515 -0.047795
v -0.173196 0.231423 -0.059023
v -0.208799 0.224416 -0.064668
v -0.179540 0.243155 -0.043027
v -0.189516 0.224097 -0.066208
v -0.195871 0.236180 -0.052418
v -0.202219 0.218534 -0.074488
v -0.183090 0.234368 -0.053916
v -0.213731 0.237005 -0.052597
v -0.198474 0.248485 -0.027952
v -0.254058 0.230278 -0.067575
v -0.191621 0.245318 -0.040385
v -0.208983 0.246868 -0.041086
v -0.237010 0.236401 -0.055237
v -0.230791 0.221205 -0.068918
v -0.260756 0.238755 -0.047448
v -0.223876 0.230248 -0.060270
v -0.244230 0.250108 -0.045086
v -0.244815 0.218715 -0.076571
v -0.226527 0.214432 -0.087006
v -0.234335 0.242847 -0.008833
v -0.218147 0.219601 -0.075942
v -0.234231 0.246112 -0.027860
v -0.214832 0.247365 -0.023141
v -0.261169 0.246977 -0.028963
v -0.203210 0.247320 -0.009174
v -0.245542 0.244159 -0.021192
v -0.266282 0.228020 0.009651
v -0.260914 0.239408 -0.007931
v -0.260553 0.252550 -0.042571
v -0.216473 0.243353 -0.004090
v -0.181000 0.248566 0.006727
v -0.167127 0.247931 0.016223
v -0.174909 0.237451 0.022709
v -0.222960 0.228807 0.019178
v -0.188172 0.252125 -0.012024
v -0.187295 0.241688 0.013776
v -0.161799 0.229994 0.033186
v -0.214549 0.236208 0.011843
v -0.205908 0.223356 0.023910
v -0.213898 0.213848 0.027636
v -0.239754 0.213297 0.026976
v -0.176234 0.253165 -0.003739
v -0.184447 0.250592 -0.027595
v -0.265281 0.206121 0.024216
v -0.303024 0.214178 -0.068438
v -0.320993 0.208848 0.018312
v -0.313550 0.228080 0.007466
v -0.314749 0.250745 -0.051791
v -0.103512 0.261455 -0.053489
v -0.195681 0.232039 0.020216
v -0.228131 0.198211 0.031738
v -0.242861 0.230550 0.009493
v -0.230890 0.235767 0.005362
v -0.245584 0.239564 -0.003614
v -0.250813 0.223438 0.016427
v -0.282340 0.202766 0.022775
v -0.247479 0.199608 0.029641
v -0.286123 0.230670 -0.056562
v -0.330535 0.229485 0.003918
v -0.298042 0.240261 -0.015751
v -0.334008 0.251517 -0.056856
v -0.321566 0.254702 -0.032387
v -0.319791 0.229715 -0.055248
v -0.277754 0.237972 -0.047461
v -0.298982 0.239664 -0.046476
v -0.278219 0.237696 -0.005594
v -0.282422 0.244624 -0.025399
v -0.292899 0.231093 0.004134
v -0.280739 0.218727 0.015881
v -0.276366 0.252588 -0.033644
v -0.301442 0.249995 -0.028884
v -0.322547 0.240065 -0.015585
v -0.301824 0.225136 -0.060011
v -0.322616 0.218857 -0.064078
v -0.297531 0.218330 0.015252
v -0.269622 0.222460 -0.079621
v -0.281585 0.211104 -0.071367
v -0.271259 0.231096 -0.066756
v -0.299186 0.257066 -0.041362
# 463 vertices, 0 vertices normals

f 59 27 28
f 10 11 54
f 35 52 53
f 36 55 9
f 96 32 95
f 66 77 67
f 87 51 34
f 38 49 4
f 45 33 46
f 6 55 36
f 67 30 92
f 98 64 72
f 4 49 3
f 36 37 31
f 43 47 63
f 46 44 45
f 82 80 78
f 44 96 47
f 52 11 12
f 13 65 53
f 29 71 28
f 56 38 31
f 38 5 36
f 52 54 11
f 5 38 4
f 37 54 31
f 9 37 36
f 9 10 37
f 43 45 47
f 47 39 57
f 41 43 22
f 7 8 55
f 38 36 31
f 49 38 34
f 36 5 6
f 27 59 60
f 26 27 46
f 33 42 46
f 12 53 52
f 87 86 50
f 45 43 33
f 69 34 67
f 40 104 100
f 63 20 21
f 3 51 2
f 41 42 33
f 91 30 78
f 46 42 26
f 53 65 80
f 62 102 40
f 19 20 57
f 43 21 22
f 104 102 103
f 25 41 23
f 44 47 45
f 1 2 64
f 29 79 74
f 26 42 25
f 24 25 23
f 25 42 41
f 41 22 23
f 44 46 60
f 43 41 33
f 88 18 58
f 57 58 19
f 58 18 19
f 88 89 70
f 56 34 38
f 64 79 1
f 49 51 3
f 59 62 40
f 34 51 49
f 51 50 72
f 53 12 13
f 54 52 35
f 65 13 14
f 81 80 65
f 54 35 66
f 54 37 10
f 7 55 6
f 9 55 8
f 31 54 66
f 67 56 66
f 57 20 63
f 39 94 57
f 94 95 85
f 28 71 62
f 60 59 40
f 60 40 100
f 27 60 46
f 74 61 71
f 28 62 59
f 113 102 61
f 43 63 21
f 57 63 47
f 65 14 75
f 72 64 2
f 73 79 48
f 14 15 75
f 76 80 81
f 77 66 35
f 31 66 56
f 30 91 92
f 34 56 67
f 76 84 78
f 69 92 97
f 69 97 87
f 70 16 17
f 17 88 70
f 57 94 58
f 74 71 29
f 62 71 61
f 51 72 2
f 72 50 98
f 48 99 116
f 79 29 1
f 74 73 117
f 53 80 82
f 67 77 30
f 30 77 78
f 77 35 82
f 48 79 64
f 74 79 73
f 81 65 75
f 78 80 76
f 77 82 78
f 35 53 82
f 68 92 93
f 68 97 92
f 84 83 91
f 95 107 85
f 90 88 58
f 98 86 99
f 51 87 50
f 34 69 87
f 18 88 17
f 90 85 89
f 103 105 32
f 90 58 94
f 89 88 90
f 84 91 78
f 92 91 83
f 92 83 93
f 92 69 67
f 95 94 39
f 90 94 85
f 39 47 96
f 107 95 32
f 96 44 100
f 39 96 95
f 87 97 86
f 98 48 64
f 50 86 98
f 108 89 85
f 98 99 48
f 108 85 107
f 96 100 32
f 60 100 44
f 114 110 101
f 61 102 62
f 103 102 101
f 105 103 106
f 104 32 100
f 102 104 40
f 32 104 103
f 106 103 101
f 106 101 109
f 32 105 107
f 107 105 108
f 109 101 110
f 114 101 102
f 117 111 113
f 48 116 115
f 117 113 61
f 102 113 114
f 110 114 113
f 117 115 111
f 48 115 73
f 99 112 116
f 115 116 112
f 74 117 61
f 117 73 115
f 177 137 176
f 150 158 213
f 146 175 178
f 162 20 19
f 118 119 194
f 192 144 222
f 224 198 223
f 195 172 194
f 201 208 173
f 152 135 136
f 151 177 179
f 197 201 173
f 130 131 147
f 139 141 134
f 205 178 180
f 139 138 140
f 126 228 229
f 164 16 165
f 205 181 178
f 21 161 153
f 21 153 22
f 159 153 151
f 138 139 152
f 23 160 24
f 152 160 151
f 22 159 23
f 135 152 139
f 169 164 166
f 141 147 131
f 18 167 19
f 129 130 156
f 234 225 124
f 154 162 170
f 175 140 138
f 172 200 196
f 230 235 174
f 151 153 144
f 182 146 181
f 161 21 20
f 140 175 146
f 147 156 130
f 190 220 253
f 140 141 139
f 141 131 133
f 154 161 162
f 134 141 133
f 132 133 131
f 146 147 140
f 222 153 154
f 135 139 134
f 141 140 147
f 197 120 121
f 191 222 170
f 146 156 147
f 128 163 127
f 156 146 182
f 258 259 143
f 163 189 127
f 160 23 159
f 189 155 215
f 164 17 16
f 128 129 182
f 165 187 274
f 244 248 246
f 158 166 213
f 18 17 169
f 171 170 162
f 153 159 22
f 160 159 151
f 152 136 160
f 24 160 136
f 162 161 20
f 153 161 154
f 167 162 19
f 170 171 168
f 163 128 182
f 189 163 155
f 166 164 157
f 157 164 165
f 166 157 214
f 158 167 166
f 167 18 169
f 162 167 158
f 262 259 233
f 191 192 222
f 164 169 17
f 167 169 166
f 171 162 158
f 191 170 168
f 158 150 171
f 272 171 150
f 195 119 120
f 197 223 201
f 184 186 142
f 234 227 202
f 246 148 210
f 138 176 175
f 175 176 178
f 138 152 179
f 178 176 137
f 176 138 179
f 151 144 177
f 180 178 137
f 206 181 205
f 151 179 152
f 176 179 177
f 137 192 193
f 180 193 221
f 163 182 155
f 146 178 181
f 156 182 129
f 182 181 155
f 200 142 196
f 185 183 186
f 173 208 209
f 210 185 186
f 187 185 148
f 142 186 183
f 186 184 210
f 148 273 274
f 165 185 187
f 148 246 273
f 264 268 263
f 155 206 215
f 217 216 220
f 193 180 137
f 177 192 137
f 144 192 177
f 192 191 193
f 168 276 191
f 275 218 219
f 195 194 119
f 197 195 120
f 142 200 184
f 200 172 195
f 223 121 122
f 199 197 173
f 224 122 123
f 184 209 210
f 173 209 226
f 195 197 199
f 195 199 200
f 199 173 226
f 223 197 121
f 208 207 209
f 227 124 125
f 235 230 202
f 235 202 227
f 180 145 205
f 206 205 145
f 215 206 145
f 181 206 155
f 212 247 208
f 230 243 211
f 201 198 208
f 212 208 198
f 210 209 207
f 209 184 226
f 246 245 273
f 148 185 210
f 230 211 242
f 174 238 240
f 242 198 224
f 211 244 247
f 214 213 166
f 150 213 188
f 273 214 157
f 213 214 188
f 218 215 145
f 218 145 219
f 251 232 250
f 189 215 217
f 217 215 218
f 180 221 145
f 217 218 216
f 219 276 271
f 270 266 272
f 233 253 216
f 190 217 220
f 221 193 276
f 145 221 219
f 238 174 235
f 153 222 144
f 170 222 154
f 224 223 122
f 201 223 198
f 123 225 224
f 225 230 224
f 124 225 123
f 230 225 202
f 184 200 226
f 199 226 200
f 126 229 125
f 236 238 239
f 229 228 203
f 229 256 239
f 227 125 229
f 243 230 174
f 211 212 242
f 248 249 245
f 243 244 211
f 236 237 252
f 216 253 220
f 240 231 243
f 218 275 216
f 233 259 258
f 225 234 202
f 124 227 234
f 241 229 239
f 260 257 258
f 241 238 235
f 236 239 255
f 235 227 241
f 238 236 240
f 256 229 203
f 204 254 255
f 257 240 236
f 240 260 269
f 229 241 227
f 238 241 239
f 198 242 212
f 224 230 242
f 240 243 174
f 244 243 231
f 244 231 248
f 244 207 247
f 231 249 248
f 273 188 214
f 210 207 246
f 244 246 207
f 208 247 207
f 211 247 212
f 231 269 249
f 246 248 245
f 143 259 267
f 273 263 188
f 251 250 149
f 252 250 232
f 149 190 253
f 232 251 233
f 252 232 257
f 233 251 253
f 253 251 149
f 255 254 237
f 236 255 237
f 255 239 256
f 255 256 204
f 252 257 236
f 258 257 232
f 233 258 232
f 260 258 143
f 275 262 216
f 264 263 249
f 143 249 269
f 240 257 260
f 276 266 271
f 270 265 266
f 216 262 233
f 265 262 261
f 245 249 263
f 267 249 143
f 259 262 265
f 263 268 188
f 265 261 266
f 265 264 267
f 271 266 261
f 168 272 266
f 265 267 259
f 249 267 264
f 270 268 264
f 150 188 268
f 240 269 231
f 143 269 260
f 268 270 150
f 265 270 264
f 275 271 261
f 221 276 219
f 171 272 168
f 270 272 150
f 273 157 274
f 263 273 245
f 165 274 157
f 148 274 187
f 271 275 219
f 262 275 261
f 191 276 193
f 266 276 168
f 290 317 319
f 293 287 294
f 303 308 316
f 294 302 303
f 290 318 317
f 289 292 288
f 292 285 286
f 293 292 286
f 288 304 291
f 280 300 306
f 279 306 310
f 293 286 287
f 285 289 284
f 297 283 284
f 297 284 291
f 281 282 296
f 129 128 307
f 309 277 278
f 301 281 296
f 291 284 289
f 289 288 291
f 132 131 302
f 293 294 318
f 288 319 321
f 282 283 297
f 292 289 285
f 319 292 290
f 287 132 302
f 292 293 290
f 130 303 131
f 320 307 308
f 291 298 296
f 291 304 298
f 300 301 298
f 291 296 297
f 282 297 296
f 295 299 298
f 280 281 301
f 298 305 300
f 305 298 299
f 280 306 279
f 298 301 296
f 280 301 300
f 303 302 131
f 287 302 294
f 320 130 129
f 315 316 308
f 313 307 128
f 321 304 288
f 298 304 295
f 312 300 305
f 313 128 127
f 303 130 320
f 310 309 278
f 279 310 278
f 310 306 311
f 306 300 312
f 306 312 311
f 318 316 317
f 315 314 316
f 316 314 317
f 294 303 316
f 319 288 292
f 293 318 290
f 316 318 294
f 307 320 129
f 303 320 308
f 304 321 295
f 334 371 372
f 340 349 341
f 372 346 334
f 425 435 424
f 358 348 357
f 419 426 362
f 399 401 397
f 341 349 347
f 344 356 346
f 11 354 355
f 358 365 348
f 278 357 347
f 433 370 371
f 341 336 340
f 345 354 343
f 370 341 339
f 282 281 329
f 281 340 329
f 334 335 336
f 339 347 348
f 12 11 355
f 343 9 353
f 326 445 327
f 364 367 375
f 330 329 336
f 280 279 349
f 377 339 381
f 323 443 324
f 336 335 330
f 278 347 279
f 323 322 430
f 435 425 441
f 341 347 339
f 338 380 343
f 351 359 360
f 331 346 332
f 357 278 277
f 335 334 346
f 330 335 331
f 335 346 331
f 356 7 332
f 414 407 404
f 329 340 336
f 344 378 343
f 336 341 433
f 372 373 378
f 10 9 343
f 281 280 340
f 381 382 377
f 10 354 11
f 340 280 349
f 14 13 361
f 353 9 8
f 344 353 356
f 452 456 431
f 347 349 279
f 367 416 355
f 395 387 389
f 395 427 387
f 360 15 14
f 337 401 406
f 421 416 417
f 422 342 414
f 356 353 8
f 343 353 344
f 343 354 10
f 355 354 345
f 355 345 367
f 416 421 355
f 7 356 8
f 332 346 356
f 358 357 277
f 347 357 348
f 366 363 365
f 360 359 15
f 361 360 14
f 434 422 423
f 361 13 421
f 360 361 352
f 373 338 378
f 385 387 384
f 384 387 383
f 375 379 364
f 375 338 373
f 409 419 393
f 366 365 358
f 381 365 363
f 363 366 350
f 367 345 380
f 364 426 416
f 328 327 447
f 412 438 410
f 431 443 430
f 432 445 446
f 392 397 337
f 377 370 339
f 371 370 333
f 372 371 333
f 433 334 336
f 372 333 373
f 372 344 346
f 373 333 376
f 376 375 373
f 376 333 377
f 374 382 383
f 375 374 379
f 380 375 367
f 333 370 377
f 375 376 374
f 339 348 381
f 374 376 377
f 343 378 338
f 344 372 378
f 383 379 374
f 426 379 362
f 343 380 345
f 338 375 380
f 365 381 348
f 377 382 374
f 363 384 381
f 383 362 379
f 384 382 381
f 383 382 384
f 350 385 363
f 363 385 384
f 388 385 350
f 362 383 387
f 386 388 390
f 402 394 398
f 391 388 389
f 391 389 387
f 388 386 389
f 386 392 389
f 395 389 396
f 350 390 388
f 387 385 391
f 388 391 385
f 397 400 398
f 396 392 337
f 407 396 337
f 409 415 419
f 394 397 398
f 442 461 457
f 396 389 392
f 393 419 427
f 407 337 406
f 395 396 393
f 400 386 398
f 399 397 394
f 405 386 390
f 460 394 402
f 397 401 337
f 397 392 400
f 386 400 392
f 413 369 454
f 406 410 404
f 403 402 398
f 403 398 405
f 401 413 410
f 423 352 434
f 386 405 398
f 401 399 413
f 396 407 393
f 406 404 407
f 407 414 409
f 444 452 450
f 420 409 342
f 393 407 409
f 401 410 406
f 412 410 408
f 455 446 444
f 428 441 439
f 450 451 444
f 436 412 439
f 369 413 399
f 410 413 408
f 422 414 437
f 342 409 414
f 417 420 352
f 417 416 415
f 364 416 367
f 415 420 417
f 421 352 361
f 12 421 13
f 438 436 437
f 423 424 360
f 426 419 415
f 427 419 362
f 409 420 415
f 420 342 434
f 355 421 12
f 421 417 352
f 437 414 404
f 423 422 418
f 424 423 418
f 352 423 360
f 424 418 425
f 360 424 351
f 436 425 418
f 416 426 415
f 426 364 379
f 387 427 362
f 393 427 395
f 440 428 453
f 327 445 447
f 448 369 399
f 431 430 368
f 440 453 459
f 411 412 450
f 446 326 325
f 448 449 369
f 370 433 341
f 334 433 371
f 420 434 352
f 422 434 342
f 424 435 351
f 437 436 418
f 439 412 411
f 422 437 418
f 438 437 404
f 410 438 404
f 412 436 438
f 428 439 411
f 425 436 439
f 411 452 453
f 439 441 425
f 399 462 448
f 457 447 449
f 430 443 323
f 456 443 431
f 450 412 451
f 324 456 325
f 446 445 326
f 447 445 432
f 456 446 325
f 444 451 455
f 447 432 449
f 458 447 457
f 462 399 394
f 449 448 442
f 449 442 457
f 449 432 463
f 451 412 408
f 444 456 452
f 408 454 451
f 449 463 369
f 431 368 459
f 411 450 452
f 411 453 428
f 459 452 431
f 413 454 408
f 454 369 463
f 451 454 463
f 446 455 463
f 456 324 443
f 446 456 444
f 442 462 461
f 458 457 429
f 328 447 458
f 440 459 368
f 452 459 453
f 462 460 461
f 457 461 429
f 448 462 442
f 394 460 462
f 446 463 432
f 463 455 451
# 804 faces, 0 coords texture

# End of File
