####
#
# OBJ File Generated by Meshlab
#
####
# Object downpart.obj
#
# Vertices: 263
# Faces: 423
#
####
v -0.180066 -0.250945 -0.007086
v -0.186126 -0.277869 -0.010142
v -0.186842 -0.305443 -0.013193
v -0.191556 -0.332472 -0.016294
v -0.192404 -0.335237 0.007335
v -0.194009 -0.335471 0.030136
v -0.185078 -0.335927 0.050317
v -0.175563 -0.335229 0.069737
v -0.165692 -0.333934 0.089564
v -0.147952 -0.333489 0.104083
v -0.127379 -0.333516 0.115588
v -0.104148 -0.334408 0.122765
v -0.079091 -0.335387 0.125639
v -0.053540 -0.335938 0.131364
v -0.027579 -0.336291 0.137657
v -0.001578 -0.336674 0.143506
v 0.024840 -0.336960 0.146385
v 0.050324 -0.336768 0.140613
v 0.074935 -0.336279 0.134368
v 0.098369 -0.336100 0.126916
v 0.120839 -0.336190 0.119859
v 0.141513 -0.336961 0.109544
v 0.159161 -0.338192 0.096152
v 0.169991 -0.339520 0.077584
v 0.183102 -0.340039 0.061543
v 0.188745 -0.340689 0.041656
v 0.188775 -0.310864 0.040432
v 0.184842 -0.281465 0.038427
v 0.180844 -0.252474 0.036675
v -0.188944 -0.320513 -0.002956
v -0.180871 -0.267600 0.044330
v 0.160055 -0.268052 0.085957
v 0.184349 -0.325680 0.050306
v -0.185264 -0.303263 0.041010
v -0.192093 -0.309157 0.018847
v -0.163921 -0.278823 0.082116
v 0.079590 -0.256424 0.129686
v 0.163580 -0.304953 0.086781
v 0.176337 -0.312879 0.068757
v 0.125495 -0.279745 0.112355
v -0.103641 -0.270368 0.115294
v -0.036670 -0.267304 0.142931
v -0.186654 -0.322664 0.039952
v -0.179513 -0.310191 0.061163
v -0.152434 -0.300795 0.097553
v 0.083181 -0.297801 0.128425
v 0.165003 -0.325012 0.087269
v 0.148640 -0.311665 0.102539
v -0.110585 -0.303870 0.117240
v -0.038802 -0.303492 0.138296
v 0.012290 -0.280438 0.150903
v -0.155912 -0.320142 0.097803
v 0.085424 -0.319612 0.129864
v 0.107433 -0.308762 0.121429
v 0.060782 -0.309076 0.137362
v -0.114135 -0.321994 0.119105
v -0.087787 -0.310521 0.122015
v -0.134638 -0.308840 0.110560
v -0.039941 -0.322880 0.135351
v -0.013934 -0.311118 0.143430
v 0.175190 -0.265092 0.062462
v -0.187565 -0.285498 0.028528
v -0.183553 -0.261117 0.026191
v -0.187682 -0.288951 0.007698
v -0.182845 -0.251870 0.010664
v -0.185521 -0.270377 0.012108
v 0.180450 -0.295604 0.054487
v 0.179448 -0.277156 0.051532
v 0.173702 -0.287133 0.072032
v -0.179252 -0.284791 0.057421
v -0.172670 -0.292110 0.069942
v -0.168723 -0.312173 0.080080
v 0.151243 -0.285633 0.097941
v 0.139367 -0.293132 0.107131
v 0.125216 -0.303301 0.115787
v 0.131158 -0.322710 0.116182
v 0.099898 -0.277223 0.120498
v 0.062978 -0.277320 0.137940
v -0.092143 -0.287649 0.119392
v -0.064153 -0.286342 0.132176
v -0.078382 -0.293593 0.124417
v -0.063897 -0.313036 0.128878
v -0.053428 -0.298455 0.133610
v -0.121621 -0.286838 0.111699
v -0.126067 -0.250191 0.104753
v -0.119118 -0.265874 0.109858
v -0.101902 -0.235400 0.119589
v -0.140110 -0.275287 0.100749
v -0.138422 -0.292580 0.105041
v -0.148137 -0.250857 0.091374
v -0.154507 -0.283200 0.093321
v -0.138992 -0.258163 0.098282
v -0.020369 -0.285537 0.144758
v -0.003076 -0.293358 0.147243
v 0.019126 -0.308723 0.148705
v 0.011717 -0.325260 0.146614
v 0.037859 -0.319067 0.146437
v 0.040012 -0.287706 0.148778
v 0.173005 -0.235983 0.056183
v -0.183568 -0.264613 -0.000581
v 0.164665 -0.286743 0.083322
v 0.084248 -0.277128 0.127803
v 0.096989 -0.294298 0.123285
v 0.109433 -0.229389 0.116175
v 0.068801 -0.294323 0.134174
v 0.039177 -0.218960 0.150913
v -0.132368 -0.226570 0.099107
v -0.167725 -0.247722 0.069727
v -0.175823 -0.264033 0.059702
v -0.168593 -0.266653 0.072785
v 0.047072 -0.304165 0.145121
v 0.024649 -0.291837 0.149742
v 0.177280 -0.253728 0.051080
v 0.163783 -0.243334 0.075770
v -0.175446 -0.242201 0.051444
v -0.180572 -0.245931 0.037062
v 0.098900 -0.249918 0.121731
v 0.112195 -0.264819 0.117141
v 0.085256 -0.236166 0.128958
v 0.062455 -0.228752 0.141217
v 0.031687 -0.253190 0.152139
v -0.119729 -0.230092 0.107524
v 0.167550 -0.262368 0.074822
v 0.138431 -0.233055 0.097813
v 0.128436 -0.253448 0.106074
v 0.138162 -0.272436 0.104046
v 0.124179 -0.231599 0.107175
v 0.115237 -0.247798 0.113260
v -0.155123 -0.236726 0.082212
v 0.062237 -0.253046 0.139680
v 0.047801 -0.265042 0.146031
v 0.152393 -0.240905 0.088459
v 0.144535 -0.255482 0.096668
v -0.082831 -0.220880 0.129795
v -0.085012 -0.250649 0.125498
v -0.075462 -0.269712 0.126520
v -0.056893 -0.261845 0.137869
v -0.038846 -0.231404 0.146640
v -0.060116 -0.225514 0.139061
v -0.043432 -0.250480 0.143146
v -0.098770 -0.252362 0.118879
v -0.047155 -0.217211 0.145322
v -0.073910 -0.235286 0.131959
v -0.068296 -0.252124 0.132213
v -0.055672 -0.242490 0.139011
v 0.052730 -0.215572 0.146602
v 0.005378 -0.232692 0.153204
v -0.014676 -0.226523 0.152726
v -0.012565 -0.256598 0.149202
v 0.020691 -0.219145 0.154108
v -0.025500 -0.243127 0.148488
v 0.007834 -0.256745 0.151664
v 0.046986 -0.240599 0.147418
v 0.195309 -0.337134 0.020650
v 0.195637 -0.334137 -0.002195
v 0.183461 -0.333524 -0.023099
v 0.177566 -0.332131 -0.047051
v 0.166700 -0.332488 -0.069407
v 0.145445 -0.335074 -0.082554
v 0.129086 -0.334160 -0.101359
v 0.104400 -0.334630 -0.100304
v 0.084682 -0.335014 -0.114483
v 0.060436 -0.335542 -0.117314
v 0.036210 -0.336114 -0.117783
v 0.011894 -0.336449 -0.117684
v -0.011775 -0.336689 -0.113611
v -0.035440 -0.337005 -0.110981
v -0.059474 -0.336979 -0.109726
v -0.083807 -0.336873 -0.112377
v -0.107946 -0.334412 -0.106530
v -0.127275 -0.332288 -0.089212
v -0.152815 -0.329500 -0.079087
v -0.169035 -0.329928 -0.055614
v -0.192367 -0.328661 -0.042181
v 0.191976 -0.324582 0.030717
v 0.178224 -0.268248 -0.017816
v -0.180063 -0.293156 -0.046522
v -0.191768 -0.317943 -0.026416
v -0.187847 -0.299007 -0.030023
v -0.185719 -0.311864 -0.046000
v 0.182999 -0.302101 -0.014373
v 0.194321 -0.308821 0.008518
v 0.159739 -0.280962 -0.059740
v -0.080673 -0.277710 -0.114309
v -0.159826 -0.307838 -0.061984
v 0.185828 -0.321119 -0.012679
v 0.178456 -0.308120 -0.037908
v 0.146759 -0.304401 -0.075182
v 0.084567 -0.287678 -0.113655
v -0.032330 -0.291248 -0.116555
v -0.077428 -0.309385 -0.113734
v -0.123505 -0.289498 -0.094534
v -0.145488 -0.313420 -0.083715
v -0.159455 -0.322288 -0.064120
v 0.151633 -0.322010 -0.074176
v 0.136111 -0.311798 -0.096301
v 0.091065 -0.312429 -0.112080
v 0.039960 -0.297347 -0.116577
v -0.027756 -0.315331 -0.113766
v -0.074012 -0.325416 -0.113380
v -0.100927 -0.316727 -0.109288
v 0.044545 -0.318486 -0.116623
v 0.014209 -0.308266 -0.116593
v 0.065047 -0.307350 -0.116032
v 0.030367 -0.308079 -0.116390
v 0.021734 -0.324353 -0.117000
v -0.003275 -0.318652 -0.115597
v 0.069777 -0.323554 -0.115328
v -0.008187 -0.295788 -0.115912
v -0.176384 -0.265986 -0.032452
v 0.188475 -0.285218 -0.002054
v 0.183714 -0.261948 0.001046
v 0.186679 -0.290049 0.019383
v 0.181727 -0.253770 0.017892
v 0.184092 -0.271551 0.015303
v 0.189614 -0.308149 0.022215
v 0.175249 -0.284937 -0.032715
v 0.174169 -0.290517 -0.049269
v 0.169821 -0.310697 -0.060972
v -0.149112 -0.280745 -0.072636
v 0.108925 -0.298785 -0.101213
v 0.112995 -0.318273 -0.098349
v -0.052480 -0.303998 -0.114241
v -0.056321 -0.320404 -0.112303
v -0.120946 -0.317059 -0.093278
v -0.134362 -0.302025 -0.089359
v -0.112522 -0.304375 -0.100208
v -0.102342 -0.283320 -0.105866
v 0.057566 -0.281191 -0.117454
v 0.078015 -0.300532 -0.114387
v -0.015761 -0.307577 -0.115084
v 0.010573 -0.286394 -0.116715
v -0.005731 -0.280218 -0.117056
v 0.028297 -0.277430 -0.117001
v 0.043220 -0.283646 -0.117034
v -0.183387 -0.280977 -0.027129
v -0.180814 -0.265016 -0.017835
v 0.183260 -0.266731 0.028817
v 0.157190 -0.297034 -0.064379
v -0.152499 -0.297885 -0.073415
v -0.162460 -0.284406 -0.056006
v -0.174625 -0.276832 -0.046599
v -0.157073 -0.267463 -0.059722
v 0.132906 -0.284716 -0.092730
v 0.144963 -0.280525 -0.075958
v 0.133648 -0.266795 -0.085717
v 0.170004 -0.272260 -0.048876
v 0.172294 -0.267922 -0.033001
v 0.095935 -0.299603 -0.109858
v -0.069572 -0.293602 -0.114518
v -0.087780 -0.293845 -0.113019
v -0.037601 -0.303617 -0.114846
v -0.040302 -0.322453 -0.112554
v 0.071572 -0.274100 -0.115536
v 0.100830 -0.277422 -0.106041
v 0.117339 -0.285087 -0.101435
v 0.139787 -0.299358 -0.089231
v -0.049293 -0.288766 -0.117151
v -0.115926 -0.276710 -0.098517
v -0.094090 -0.273089 -0.109749
v -0.167756 -0.264156 -0.049623
v -0.134986 -0.271241 -0.084083
v -0.138394 -0.286227 -0.084942
# 263 vertices, 0 vertices normals

f 3 4 30
f 35 30 5
f 64 62 66
f 44 7 8
f 35 64 30
f 109 31 70
f 58 10 11
f 31 63 62
f 53 103 46
f 59 14 15
f 84 41 86
f 50 59 60
f 7 43 6
f 6 35 5
f 44 34 43
f 71 72 36
f 72 71 44
f 11 12 56
f 62 35 34
f 99 61 113
f 62 34 31
f 94 60 95
f 57 49 56
f 4 5 30
f 22 23 48
f 23 24 47
f 23 47 48
f 33 39 25
f 67 39 33
f 148 151 149
f 103 53 54
f 74 75 48
f 19 20 53
f 47 39 38
f 114 61 99
f 24 25 39
f 67 33 27
f 69 38 39
f 26 33 25
f 29 113 68
f 73 48 38
f 28 67 27
f 44 70 34
f 90 36 91
f 6 43 35
f 117 37 77
f 64 3 30
f 44 43 7
f 57 79 49
f 35 43 34
f 34 70 31
f 50 60 93
f 55 19 53
f 11 56 58
f 26 27 33
f 52 9 10
f 106 150 121
f 8 9 72
f 86 88 84
f 18 19 55
f 59 83 82
f 54 53 20
f 53 105 55
f 39 47 24
f 48 47 38
f 38 101 73
f 74 40 75
f 57 12 13
f 49 84 58
f 60 15 16
f 49 79 41
f 95 96 97
f 51 112 121
f 58 52 10
f 72 52 45
f 54 20 21
f 46 105 53
f 75 76 48
f 102 77 37
f 102 78 105
f 95 51 94
f 57 56 12
f 58 56 49
f 82 13 14
f 81 79 57
f 84 49 41
f 52 58 45
f 60 59 15
f 59 50 83
f 16 17 96
f 50 93 42
f 110 90 129
f 67 69 39
f 115 116 31
f 62 63 66
f 64 66 100
f 3 64 2
f 35 62 64
f 100 1 2
f 63 65 66
f 65 1 100
f 28 68 67
f 67 68 69
f 29 68 28
f 69 68 61
f 123 69 61
f 69 123 101
f 44 71 70
f 36 90 110
f 8 72 44
f 71 36 110
f 52 72 9
f 72 45 91
f 133 125 126
f 74 73 126
f 40 77 75
f 48 73 74
f 21 76 54
f 22 76 21
f 48 76 22
f 54 76 75
f 75 77 54
f 117 118 128
f 120 130 37
f 112 97 111
f 57 82 81
f 134 87 135
f 42 80 83
f 142 139 145
f 82 57 13
f 136 81 80
f 82 14 59
f 81 82 80
f 42 83 50
f 80 82 83
f 85 86 87
f 84 88 89
f 85 122 107
f 45 89 88
f 41 141 86
f 86 85 88
f 136 41 79
f 92 88 85
f 72 91 36
f 45 58 89
f 84 89 58
f 90 92 107
f 45 88 91
f 91 88 92
f 107 92 85
f 91 92 90
f 60 94 93
f 149 51 152
f 16 96 60
f 149 94 51
f 97 17 18
f 55 111 97
f 97 96 17
f 60 96 95
f 18 55 97
f 78 111 105
f 37 130 78
f 51 95 112
f 123 114 32
f 64 100 2
f 65 100 66
f 73 101 32
f 38 69 101
f 78 102 37
f 103 102 46
f 54 77 103
f 102 103 77
f 132 133 32
f 102 105 46
f 111 78 98
f 117 119 37
f 109 115 31
f 70 71 110
f 108 109 110
f 110 109 70
f 105 111 55
f 111 98 112
f 112 95 97
f 121 112 98
f 68 113 61
f 127 128 125
f 108 115 109
f 31 116 63
f 118 117 77
f 77 40 118
f 118 40 125
f 104 119 117
f 106 121 153
f 37 119 120
f 131 98 78
f 87 122 85
f 123 32 101
f 61 114 123
f 40 74 126
f 127 125 124
f 133 73 32
f 40 126 125
f 128 127 104
f 117 128 104
f 118 125 128
f 110 129 108
f 129 90 107
f 120 146 153
f 131 130 153
f 98 131 121
f 78 130 131
f 133 132 124
f 32 114 132
f 125 133 124
f 133 126 73
f 145 143 144
f 135 87 141
f 144 136 137
f 136 79 81
f 80 137 136
f 137 80 42
f 136 135 41
f 140 137 42
f 145 144 137
f 93 149 42
f 143 134 135
f 42 149 151
f 138 142 145
f 86 141 87
f 41 135 141
f 135 136 144
f 139 134 143
f 137 140 145
f 135 144 143
f 138 145 140
f 143 145 139
f 153 146 106
f 121 147 152
f 42 151 140
f 149 93 94
f 147 148 149
f 121 150 147
f 148 138 151
f 140 151 138
f 121 152 51
f 147 149 152
f 131 153 121
f 120 153 130
f 198 235 204
f 216 175 154
f 212 211 176
f 182 216 154
f 179 178 3
f 1 237 2
f 154 175 26
f 2 179 3
f 185 180 177
f 188 245 239
f 187 156 157
f 211 181 176
f 211 215 213
f 182 186 181
f 156 186 155
f 228 251 227
f 187 219 218
f 211 182 181
f 174 4 178
f 197 249 222
f 202 206 205
f 187 181 186
f 181 187 217
f 196 257 188
f 162 197 161
f 166 167 199
f 158 159 195
f 164 202 163
f 240 193 185
f 155 182 154
f 168 224 167
f 196 188 195
f 218 219 239
f 187 186 156
f 229 189 230
f 207 231 209
f 204 208 202
f 157 158 219
f 190 252 258
f 227 225 226
f 180 194 173
f 207 206 165
f 232 205 203
f 201 200 169
f 231 190 209
f 166 199 207
f 196 195 159
f 201 169 170
f 224 191 223
f 205 206 203
f 206 202 164
f 202 205 198
f 197 162 208
f 172 173 194
f 179 177 180
f 160 196 159
f 27 175 216
f 180 178 179
f 194 193 172
f 173 174 180
f 178 180 174
f 27 26 175
f 155 186 182
f 167 253 199
f 224 168 200
f 191 200 201
f 169 200 168
f 225 171 193
f 193 171 172
f 203 206 207
f 189 249 230
f 236 177 179
f 236 179 2
f 3 178 4
f 165 166 207
f 184 250 251
f 230 249 197
f 204 202 198
f 194 180 185
f 203 207 209
f 219 195 188
f 225 201 170
f 205 232 198
f 193 194 185
f 232 209 233
f 197 208 204
f 227 251 201
f 241 220 240
f 208 162 163
f 206 164 165
f 181 217 176
f 263 226 240
f 222 160 161
f 160 222 196
f 202 208 163
f 217 218 247
f 27 213 28
f 213 215 238
f 182 211 213
f 215 211 212
f 29 28 238
f 212 214 215
f 214 29 238
f 182 213 216
f 27 216 213
f 187 218 217
f 157 219 187
f 247 218 183
f 195 219 158
f 239 219 188
f 185 241 240
f 241 261 243
f 244 257 256
f 197 222 161
f 196 222 221
f 250 223 191
f 231 252 190
f 191 224 200
f 252 253 223
f 171 225 170
f 226 225 193
f 226 193 240
f 227 226 192
f 227 192 228
f 201 225 227
f 192 259 228
f 234 198 232
f 197 204 230
f 229 230 204
f 207 199 231
f 231 199 252
f 203 209 232
f 190 233 209
f 204 235 229
f 198 234 235
f 255 221 249
f 217 248 176
f 237 236 2
f 236 210 242
f 236 237 210
f 213 238 28
f 214 238 215
f 188 257 245
f 218 239 183
f 241 185 177
f 240 220 263
f 177 242 241
f 236 242 177
f 241 243 220
f 261 241 242
f 256 196 221
f 239 245 183
f 246 245 244
f 247 248 217
f 255 249 189
f 222 249 221
f 251 250 191
f 201 251 191
f 251 228 260
f 260 184 251
f 253 252 199
f 258 252 223
f 167 224 253
f 223 253 224
f 263 192 226
f 189 229 254
f 221 255 256
f 256 257 196
f 245 257 244
f 250 258 223
f 262 259 192
f 259 260 228
f 210 261 242
f 220 262 263
f 192 263 262
# 423 faces, 0 coords texture

# End of File
