####
#
# OBJ File Generated by Meshlab
#
####
# Object skirt.obj
#
# Vertices: 1025
# Faces: 1920
#
####
v -0.102452 -0.511361 -0.103888
v -0.096082 -0.530396 -0.110161
v -0.111338 -0.528038 -0.102005
v 0.182020 -0.340811 0.061126
v 0.197398 -0.351745 0.052537
v 0.196887 -0.328408 0.049907
v -0.103509 -0.323078 0.142759
v -0.122641 -0.317327 0.148061
v -0.117281 -0.335799 0.149780
v 0.110387 -0.393715 0.131248
v 0.118081 -0.389582 0.108674
v 0.111975 -0.378377 0.121985
v -0.178364 -0.313704 0.060789
v -0.162881 -0.302184 0.067916
v -0.180102 -0.294157 0.058567
v 0.174971 -0.519713 0.009357
v 0.188935 -0.522901 0.016970
v 0.171342 -0.534536 0.025722
v 0.161072 -0.485529 -0.067260
v 0.159822 -0.464892 -0.070833
v 0.165855 -0.473024 -0.050591
v 0.165153 -0.449291 -0.054082
v 0.158725 -0.447399 -0.074756
v 0.007736 -0.516469 0.166681
v 0.013622 -0.524693 0.153319
v 0.010669 -0.504953 0.154346
v 0.118611 -0.371527 0.109114
v 0.119320 -0.353264 0.109785
v 0.112546 -0.362598 0.123795
v -0.011688 -0.468628 -0.124517
v 0.008194 -0.481296 -0.124991
v -0.011899 -0.489127 -0.124068
v -0.116089 -0.530775 0.169883
v -0.119084 -0.506528 0.167767
v -0.138989 -0.529549 0.161674
v -0.179100 -0.422352 0.000458
v -0.179920 -0.439283 -0.008804
v -0.173266 -0.446739 0.005334
v 0.179538 -0.312534 0.061022
v 0.170062 -0.291261 0.067644
v 0.161116 -0.308896 0.077255
v 0.134576 -0.341921 0.100374
v 0.119724 -0.335339 0.110531
v 0.129651 -0.394528 0.099732
v 0.128112 -0.378876 0.101840
v -0.167720 -0.352615 -0.067818
v -0.178045 -0.343800 -0.053045
v -0.167747 -0.331271 -0.066633
v -0.154308 -0.339736 -0.080649
v -0.125276 -0.336963 0.091899
v -0.138156 -0.330923 0.087938
v -0.137149 -0.348479 0.088107
v 0.183260 -0.454468 0.000985
v 0.194327 -0.471561 0.002522
v 0.176480 -0.471462 -0.001531
v -0.137089 -0.506895 0.136558
v -0.130233 -0.492519 0.129413
v -0.126904 -0.510647 0.127276
v 0.209108 -0.452522 0.030953
v 0.214978 -0.469675 0.024349
v 0.224546 -0.452904 0.020010
v -0.039525 -0.510032 0.181438
v -0.045198 -0.512871 0.156889
v -0.045521 -0.519252 0.168258
v 0.064158 -0.387344 0.141453
v 0.059922 -0.366286 0.135898
v 0.043201 -0.381793 0.129238
v -0.150778 -0.287770 0.078266
v 0.081340 -0.453861 -0.134719
v 0.079991 -0.434763 -0.144605
v 0.082141 -0.429328 -0.129672
v 0.035041 -0.475992 0.133481
v 0.047854 -0.487979 0.134293
v 0.059245 -0.468533 0.138626
v 0.115514 -0.446818 0.155354
v 0.115522 -0.424431 0.158257
v 0.113999 -0.439845 0.178164
v -0.190901 -0.465643 0.074651
v -0.207164 -0.488727 0.072376
v -0.184732 -0.488877 0.077079
v 0.075588 -0.289948 0.156098
v 0.076244 -0.305966 0.160241
v 0.085676 -0.293704 0.171200
v 0.066703 -0.301934 0.142379
v 0.068738 -0.318914 0.147923
v -0.135151 -0.495867 0.161122
v -0.117092 -0.482422 0.165417
v -0.131635 -0.470895 0.161212
v -0.129792 -0.317117 0.090139
v -0.081834 -0.404755 -0.129124
v -0.062498 -0.416255 -0.133897
v -0.078925 -0.430208 -0.129470
v -0.123552 -0.409476 -0.097265
v -0.110852 -0.425380 -0.105168
v -0.128421 -0.430930 -0.091766
v -0.023949 -0.290300 0.159799
v -0.009233 -0.276373 0.157748
v -0.029448 -0.271553 0.158190
v 0.010709 -0.281361 0.148087
v -0.004536 -0.296326 0.155358
v -0.097886 -0.530423 0.145383
v -0.102075 -0.513059 0.163361
v -0.102200 -0.533161 0.164318
v 0.075119 -0.380488 0.171681
v 0.070221 -0.373083 0.154578
v 0.071030 -0.390750 0.157840
v 0.076444 -0.357426 0.170153
v -0.194931 -0.428520 0.022893
v -0.199935 -0.450784 0.021708
v -0.211599 -0.438565 0.017481
v 0.053486 -0.341975 -0.138764
v 0.039012 -0.342700 -0.125098
v 0.045525 -0.325599 -0.125184
v 0.114762 -0.403379 0.152522
v 0.109101 -0.416178 0.134700
v 0.160376 -0.376057 0.085298
v 0.175149 -0.379431 0.070771
v 0.169930 -0.357110 0.073157
v -0.026817 -0.453174 -0.127323
v -0.035785 -0.475813 -0.128631
v 0.021551 -0.349791 0.138618
v 0.032188 -0.330824 0.131928
v 0.013532 -0.328085 0.144363
v 0.104702 -0.532103 0.143085
v 0.100769 -0.518513 0.119101
v 0.105549 -0.508410 0.139355
v -0.105362 -0.444861 0.159851
v -0.121865 -0.427854 0.160463
v -0.127092 -0.449190 0.161928
v -0.179861 -0.510352 0.025478
v 0.116001 -0.408543 0.169213
v 0.115521 -0.392095 0.170097
v 0.106429 -0.401175 0.183113
v 0.110852 -0.429713 0.113628
v 0.109282 -0.436245 0.136550
v 0.107676 -0.446907 0.116512
v -0.122918 -0.356902 0.091800
v 0.034919 -0.473797 -0.145224
v 0.040856 -0.452612 -0.149207
v 0.042918 -0.461033 -0.160249
v 0.084764 -0.489196 0.195628
v 0.102211 -0.500640 0.196772
v 0.101745 -0.477186 0.194941
v -0.174202 -0.461727 -0.057804
v -0.162180 -0.468015 -0.067331
v -0.169819 -0.480975 -0.060554
v -0.189118 -0.318857 0.000145
v -0.189004 -0.328501 -0.018412
v -0.188271 -0.341630 -0.002009
v 0.082321 -0.540638 -0.140290
v 0.083408 -0.528174 -0.121514
v -0.069711 -0.328156 -0.132416
v -0.079922 -0.310244 -0.128003
v 0.112860 -0.354672 0.141474
v 0.111421 -0.373025 0.137563
v 0.062445 -0.346012 0.137848
v 0.050279 -0.333285 0.128883
v 0.049110 -0.351560 0.129591
v -0.193681 -0.527353 0.080932
v 0.151081 -0.477515 -0.086405
v 0.168643 -0.487534 -0.008811
v 0.169410 -0.505985 -0.024319
v 0.166156 -0.482448 -0.029786
v 0.204137 -0.418759 0.048203
v 0.209330 -0.418563 0.025308
v 0.207970 -0.400931 0.038108
v -0.033940 -0.488107 0.182408
v -0.022457 -0.501298 0.186237
v -0.048861 -0.387968 -0.133663
v -0.028808 -0.394538 -0.129880
v -0.045542 -0.405857 -0.132852
v -0.011204 -0.400787 -0.126216
v -0.011124 -0.381835 -0.127345
v 0.023878 -0.533947 -0.151419
v 0.034899 -0.545727 -0.166478
v 0.017850 -0.559611 -0.148950
v -0.214284 -0.509118 0.041810
v -0.210878 -0.524067 0.042743
v -0.184050 -0.453666 -0.042346
v -0.174736 -0.441426 -0.055844
v -0.184440 -0.413451 0.018976
v -0.181977 -0.435818 0.020648
v 0.182288 -0.345109 -0.014630
v 0.180841 -0.321585 -0.018278
v 0.190329 -0.325569 -0.001698
v -0.096991 -0.417848 -0.117267
v -0.109476 -0.408630 -0.107112
v 0.053630 -0.279847 0.133057
v -0.094040 -0.345176 -0.122324
v -0.107068 -0.352872 -0.113376
v -0.104180 -0.333049 -0.116524
v 0.052521 -0.357952 -0.148645
v 0.048089 -0.359295 -0.131925
v 0.120806 -0.440765 0.101922
v 0.115310 -0.460061 0.104085
v -0.065750 -0.548426 -0.121535
v -0.081923 -0.534480 -0.118758
v -0.065842 -0.526748 -0.125344
v 0.172683 -0.418184 0.077152
v 0.188320 -0.419097 0.062396
v 0.180660 -0.399828 0.066769
v -0.044434 -0.492722 0.163678
v -0.046286 -0.477682 0.145596
v -0.048138 -0.499018 0.142099
v 0.133408 -0.321247 0.101341
v 0.209914 -0.319563 0.033348
v 0.208901 -0.343905 0.038269
v -0.049973 -0.327508 -0.137824
v -0.058164 -0.346620 -0.135667
v -0.066107 -0.405516 0.126469
v -0.047568 -0.408097 0.139983
v -0.053259 -0.384487 0.130028
v 0.189344 -0.509667 0.001898
v 0.173006 -0.506530 -0.000197
v 0.094618 -0.318607 -0.107474
v 0.082280 -0.312288 -0.119550
v 0.033889 -0.521927 0.136906
v 0.052215 -0.531006 0.138866
v 0.053368 -0.507420 0.136548
v -0.119523 -0.509012 -0.090737
v -0.128186 -0.526803 -0.089274
v -0.137844 -0.506936 -0.081849
v 0.008699 -0.366166 -0.126517
v 0.032519 -0.359685 -0.125123
v 0.027693 -0.374547 -0.124933
v 0.102395 -0.496799 -0.099071
v 0.100477 -0.475873 -0.101282
v 0.118075 -0.483153 -0.095190
v -0.103150 -0.475895 -0.107986
v -0.118814 -0.473555 -0.094902
v -0.110574 -0.461601 -0.102206
v 0.159427 -0.437423 0.084245
v 0.179381 -0.440546 0.070640
v -0.139381 -0.316536 0.135402
v -0.133737 -0.331416 0.148159
v -0.148437 -0.412250 0.080841
v -0.124434 -0.406868 0.087175
v -0.138955 -0.389663 0.086075
v 0.081940 -0.503623 -0.124127
v 0.085811 -0.492192 -0.112455
v 0.089147 -0.511388 -0.107955
v 0.163651 -0.506437 -0.063442
v 0.153870 -0.498566 -0.082012
v 0.047587 -0.408343 -0.147375
v 0.039798 -0.403807 -0.130947
v 0.046050 -0.390625 -0.136209
v -0.199639 -0.318560 0.014615
v -0.199465 -0.335430 0.016083
v -0.184103 -0.458718 0.022403
v -0.170421 -0.471797 0.006836
v 0.113509 -0.493443 0.184110
v 0.111074 -0.515926 0.184150
v 0.066623 -0.446632 0.149460
v 0.069976 -0.467465 0.162128
v -0.136589 -0.400186 0.133876
v -0.135814 -0.413404 0.153781
v -0.132558 -0.392751 0.155555
v -0.174198 -0.419465 -0.057458
v -0.162523 -0.431951 -0.068012
v -0.055226 -0.424794 0.131545
v -0.074288 -0.420964 0.131113
v -0.067491 -0.436884 0.130243
v -0.184778 -0.445760 -0.023584
v -0.185838 -0.424822 -0.020326
v 0.149636 -0.398729 -0.083148
v 0.154049 -0.414263 -0.078303
v 0.137773 -0.409883 -0.093576
v -0.209976 -0.288055 0.035371
v -0.199798 -0.301662 0.012891
v -0.182518 -0.398875 0.003955
v -0.095671 -0.290369 0.134812
v -0.115985 -0.283129 0.145245
v -0.108673 -0.302947 0.143556
v 0.072642 -0.516341 0.184642
v 0.085916 -0.512779 0.198477
v 0.159943 -0.398376 -0.069440
v 0.145973 -0.434308 -0.086581
v 0.161455 -0.430850 -0.068270
v 0.005833 -0.495153 0.170782
v 0.010328 -0.483172 0.154888
v -0.077854 -0.346616 -0.128917
v -0.091001 -0.361742 -0.124114
v 0.022810 -0.389333 -0.124727
v -0.047640 -0.496705 -0.129437
v -0.052899 -0.482819 -0.131534
v 0.175863 -0.353075 -0.034715
v 0.179257 -0.369232 -0.019261
v 0.173050 -0.375932 -0.040062
v -0.006442 -0.508083 0.182013
v 0.028519 -0.456297 -0.130372
v 0.151976 -0.416664 0.086024
v 0.167353 -0.397493 0.082127
v 0.146862 -0.395942 0.090079
v 0.066399 -0.284862 0.141392
v 0.065578 -0.499729 0.147172
v 0.061614 -0.487655 0.139638
v -0.196731 -0.491777 0.021244
v -0.183978 -0.476745 0.023249
v -0.171340 -0.491880 0.020651
v 0.050450 -0.454417 -0.169751
v 0.166802 -0.458662 0.081407
v 0.152875 -0.474798 0.084634
v 0.170949 -0.480568 0.076621
v -0.103426 -0.422077 0.155452
v -0.093302 -0.433933 0.149625
v -0.088715 -0.419439 0.142856
v -0.092294 -0.451314 0.150970
v -0.087104 -0.332258 0.131970
v -0.085834 -0.352498 0.131915
v -0.069956 -0.344367 0.123433
v 0.024597 -0.513662 -0.145303
v 0.008334 -0.524661 -0.133444
v 0.008613 -0.502522 -0.127088
v 0.026761 -0.390540 0.134904
v 0.019645 -0.409456 0.144875
v 0.037723 -0.411996 0.129370
v 0.116850 -0.364859 0.156173
v -0.015695 -0.435875 -0.125833
v -0.026166 -0.415998 -0.128741
v 0.000975 -0.417838 -0.124643
v -0.150705 -0.485162 -0.074791
v 0.130098 -0.455465 0.093536
v 0.138786 -0.436483 0.090302
v 0.124614 -0.474181 0.094787
v -0.014829 -0.361458 -0.126635
v -0.001577 -0.348616 -0.125790
v -0.031430 -0.374706 -0.130810
v -0.119851 -0.383489 0.090056
v -0.136119 -0.368977 0.088060
v -0.080556 -0.277011 0.126916
v 0.011207 -0.426954 0.154599
v 0.004107 -0.447888 0.166894
v 0.017284 -0.445343 0.145714
v 0.008760 -0.391737 -0.125365
v 0.107849 -0.455150 0.136110
v 0.113769 -0.467581 0.151023
v 0.106325 -0.472622 0.134547
v 0.165863 -0.332731 0.075015
v -0.111231 -0.354191 0.150817
v -0.132008 -0.348748 0.151651
v -0.124083 -0.370063 0.155210
v -0.188643 -0.310505 -0.016343
v -0.187346 -0.315256 -0.033600
v 0.110438 -0.420463 0.181048
v 0.125228 -0.340830 -0.098467
v 0.126852 -0.320479 -0.098084
v 0.137208 -0.332029 -0.091956
v 0.023294 -0.473485 -0.130308
v 0.027697 -0.491591 -0.140539
v 0.038095 -0.350038 0.131031
v 0.025410 -0.424563 0.138036
v 0.032861 -0.431886 0.132134
v 0.005837 -0.441983 -0.124354
v 0.022667 -0.428319 -0.125162
v 0.080109 -0.416845 -0.144577
v 0.077646 -0.408421 -0.158667
v 0.079970 -0.397408 -0.147360
v 0.140317 -0.349307 -0.090940
v 0.127046 -0.360780 -0.097646
v 0.192533 -0.451710 0.062736
v 0.196668 -0.467827 0.056773
v 0.201837 -0.452219 0.047585
v 0.088737 -0.395105 -0.112923
v 0.098166 -0.373283 -0.104804
v 0.106183 -0.392575 -0.100972
v -0.178463 -0.495043 -0.049582
v -0.164729 -0.500945 -0.064203
v -0.173202 -0.515651 -0.053753
v -0.038246 -0.337973 0.151211
v -0.050632 -0.334590 0.131810
v -0.044336 -0.352558 0.143460
v -0.091054 -0.311346 0.132411
v 0.106136 -0.535245 0.189138
v 0.212014 -0.293401 0.025252
v 0.183726 -0.381594 -0.004433
v 0.176766 -0.394653 -0.019527
v -0.000582 -0.374356 0.162159
v 0.013489 -0.394407 0.151467
v 0.015608 -0.371332 0.144924
v -0.131265 -0.533883 0.165756
v -0.095990 -0.533171 0.079426
v -0.109052 -0.531911 0.072438
v 0.041060 -0.484791 -0.163098
v 0.035182 -0.506037 -0.160327
v -0.036021 -0.317411 -0.132496
v -0.021261 -0.321797 -0.125908
v -0.035926 -0.334588 -0.132714
v -0.096216 -0.439191 -0.116923
v -0.098133 -0.458956 -0.114740
v -0.111239 -0.445121 -0.103536
v -0.140545 -0.479257 0.150765
v -0.140030 -0.494569 0.142639
v 0.082255 -0.406906 -0.129654
v 0.087967 -0.419208 -0.113281
v 0.022660 -0.408731 -0.124961
v -0.153143 -0.443340 -0.074392
v -0.163627 -0.451063 -0.066971
v 0.153959 -0.358396 -0.074914
v 0.169104 -0.356804 -0.055222
v 0.165132 -0.379275 -0.062187
v -0.099744 -0.342406 0.142418
v -0.076609 -0.455810 -0.130291
v -0.156439 -0.389802 0.076003
v -0.169482 -0.406659 0.069366
v -0.175409 -0.384405 0.066927
v 0.115467 -0.410956 -0.097524
v 0.099015 -0.409694 -0.103723
v -0.188643 -0.296794 -0.004305
v 0.193467 -0.505055 0.058250
v 0.188351 -0.484307 0.065339
v 0.177741 -0.502721 0.071989
v -0.105109 -0.542885 -0.111954
v -0.034258 -0.303448 0.153002
v -0.016718 -0.309379 0.160444
v -0.204011 -0.360087 0.058189
v -0.212176 -0.376324 0.055049
v -0.195462 -0.379100 0.063044
v 0.147222 -0.454955 0.086341
v 0.169430 -0.316073 -0.054459
v 0.174974 -0.316035 -0.033703
v 0.172591 -0.335672 -0.046199
v 0.171263 -0.303709 -0.045840
v -0.200606 -0.358205 0.018395
v -0.213563 -0.335337 0.033145
v -0.197875 -0.289360 0.054290
v -0.136090 -0.467978 -0.085222
v -0.129129 -0.489117 -0.087545
v -0.063289 -0.399962 -0.134667
v -0.074593 -0.385232 -0.131602
v -0.043551 -0.317499 0.143851
v -0.046049 -0.296277 0.139519
v -0.055912 -0.309323 0.128249
v 0.081153 -0.363084 -0.138992
v 0.085563 -0.369839 -0.119164
v 0.081789 -0.384721 -0.133216
v -0.123592 -0.285722 0.088815
v 0.061593 -0.425615 0.140154
v 0.071485 -0.426907 0.160128
v -0.214724 -0.362508 0.038897
v -0.187571 -0.394991 0.018065
v -0.185299 -0.379049 0.009474
v -0.058053 -0.468958 -0.133721
v -0.048634 -0.453751 -0.132192
v 0.053713 -0.404811 0.132986
v 0.048557 -0.423678 0.130849
v -0.137211 -0.324381 -0.093751
v -0.120951 -0.339661 -0.103902
v -0.137807 -0.349558 -0.091206
v -0.116097 -0.317608 -0.108643
v -0.012182 -0.512641 -0.124934
v -0.007329 -0.535192 -0.126324
v -0.025781 -0.528560 -0.122154
v 0.115931 -0.462952 -0.095964
v 0.130455 -0.449953 -0.096182
v 0.134105 -0.470103 -0.093979
v -0.132328 -0.487371 0.082701
v -0.149713 -0.495127 0.080150
v -0.136955 -0.506774 0.082371
v -0.161690 -0.369297 0.072719
v -0.148625 -0.375224 0.081632
v -0.149555 -0.357880 0.081058
v 0.078673 -0.519187 -0.164678
v 0.068928 -0.536265 -0.171495
v 0.066570 -0.518361 -0.172456
v 0.064089 -0.542394 -0.172424
v 0.071110 -0.552880 -0.170681
v -0.186043 -0.406318 -0.040546
v -0.188952 -0.386019 -0.030194
v -0.181555 -0.383096 -0.050722
v -0.040344 -0.408270 0.157427
v -0.021510 -0.397563 0.173443
v -0.036700 -0.383447 0.160344
v -0.150945 -0.460332 -0.075014
v -0.137058 -0.371121 -0.090157
v -0.122950 -0.377845 -0.099161
v -0.132221 -0.390830 -0.091788
v -0.107170 -0.375105 -0.111684
v -0.122128 -0.360831 -0.101031
v -0.141157 -0.459321 0.147376
v -0.149785 -0.478152 0.079690
v -0.129368 -0.464318 0.084070
v 0.120169 -0.317458 0.111104
v 0.113365 -0.326337 0.128452
v 0.079198 -0.323775 -0.148060
v 0.053754 -0.325855 -0.144083
v 0.059901 -0.314784 -0.158876
v 0.156895 -0.500117 0.084784
v -0.178749 -0.508704 0.078320
v -0.165943 -0.492413 0.075026
v -0.095797 -0.312509 -0.120808
v 0.116380 -0.317536 0.147681
v 0.115165 -0.306840 0.165112
v 0.115449 -0.326793 0.164398
v 0.153111 -0.539053 0.057834
v 0.138965 -0.543638 0.084906
v 0.181932 -0.463790 0.068918
v -0.139436 -0.408966 -0.083392
v -0.168644 -0.526854 0.078239
v 0.017910 -0.342316 -0.126568
v 0.005733 -0.409456 0.160898
v -0.100495 -0.397071 -0.115621
v -0.103331 -0.405593 0.102435
v -0.113162 -0.390115 0.116446
v -0.001807 -0.330108 -0.123919
v 0.016518 -0.320418 -0.126749
v -0.168317 -0.310115 -0.064563
v -0.155425 -0.317999 -0.079634
v 0.103390 -0.430331 -0.101418
v 0.108227 -0.352804 -0.101039
v 0.115397 -0.374754 -0.098835
v 0.068219 -0.478722 0.150338
v 0.050753 -0.443888 0.132378
v 0.043272 -0.460624 0.131772
v -0.108040 -0.501745 0.119687
v 0.039897 -0.420196 -0.134193
v 0.045456 -0.431517 -0.155267
v 0.037715 -0.438213 -0.137191
v 0.141324 -0.376528 0.093320
v -0.098943 -0.403914 0.149628
v -0.083779 -0.403921 0.135599
v 0.077679 -0.426045 -0.159748
v 0.057815 -0.413004 -0.170138
v 0.156154 -0.313977 -0.070498
v 0.142764 -0.314791 -0.087611
v -0.115932 -0.392939 -0.103261
v -0.090834 -0.533635 0.092570
v -0.096910 -0.457093 0.101707
v -0.107607 -0.445983 0.117416
v -0.100909 -0.440394 0.091831
v 0.087338 -0.443266 -0.113624
v 0.100343 -0.454129 -0.102176
v 0.086531 -0.467732 -0.113062
v 0.114292 -0.445284 -0.096887
v 0.104994 -0.464118 0.119651
v 0.053736 -0.341120 -0.153431
v 0.077855 -0.359072 -0.155200
v -0.187318 -0.382971 -0.009984
v -0.188982 -0.368034 -0.024673
v -0.111103 -0.388082 0.154605
v -0.103353 -0.371014 0.148524
v -0.118853 -0.443012 0.085061
v -0.108793 -0.423621 0.088725
v 0.184766 -0.489682 0.003164
v 0.040448 -0.396893 0.129126
v -0.092633 -0.506076 0.093308
v -0.093542 -0.508779 0.110232
v -0.095220 -0.493650 0.111517
v -0.092138 -0.523346 0.109751
v -0.088582 -0.527085 0.100317
v 0.080457 -0.343408 -0.144471
v 0.088364 -0.366746 0.182592
v 0.088062 -0.352089 0.180515
v 0.079400 -0.446973 -0.155740
v 0.148324 -0.457090 -0.087093
v -0.001376 -0.316818 0.154393
v -0.012011 -0.329072 0.160568
v 0.000711 -0.334533 0.155865
v -0.023629 -0.342467 0.163230
v -0.029717 -0.323058 0.157212
v -0.086598 -0.478181 0.145784
v -0.101796 -0.490849 0.162069
v -0.090876 -0.498029 0.150977
v 0.081241 -0.330264 -0.135013
v 0.082591 -0.344836 -0.125012
v -0.050760 -0.563611 -0.122110
v -0.034673 -0.354365 -0.132326
v 0.029859 -0.368156 0.132262
v 0.068741 -0.438153 -0.171669
v -0.016292 -0.359756 0.168018
v -0.006715 -0.348310 0.161858
v 0.200197 -0.307630 0.000428
v 0.213512 -0.311760 0.017263
v -0.180815 -0.508139 -0.034628
v 0.051120 -0.374254 -0.144870
v 0.196712 -0.436222 0.055664
v -0.066780 -0.365810 -0.133370
v -0.084044 -0.513490 0.144527
v -0.138059 -0.292313 0.124159
v -0.122583 -0.286789 0.110201
v -0.178673 -0.363675 -0.053897
v -0.169428 -0.374125 -0.067901
v -0.194393 -0.320710 0.059099
v -0.209526 -0.325676 0.049827
v -0.197375 -0.340713 0.059484
v -0.192510 -0.304409 0.058585
v -0.206618 -0.305996 0.050463
v 0.089901 -0.414893 0.188833
v 0.074182 -0.405645 0.171761
v 0.077170 -0.429178 0.180927
v -0.052800 -0.359130 0.129785
v -0.071104 -0.366621 0.123778
v -0.031150 -0.441417 0.176067
v -0.027143 -0.455759 0.179793
v -0.014339 -0.441490 0.179332
v -0.119223 -0.369249 0.118362
v -0.127464 -0.386659 0.123566
v -0.132676 -0.370443 0.126621
v 0.027828 -0.451744 0.135112
v 0.019655 -0.469488 0.141440
v -0.185019 -0.431800 -0.040596
v 0.095542 -0.434357 0.191210
v 0.100988 -0.453755 0.193039
v -0.139939 -0.447111 -0.082695
v 0.007828 -0.350976 0.152570
v 0.068936 -0.356235 0.150954
v 0.071169 -0.338224 0.156236
v 0.052297 -0.297275 0.130852
v 0.104766 -0.381579 0.182088
v 0.103421 -0.365884 0.181305
v 0.192587 -0.437011 0.002897
v 0.210152 -0.438728 0.000335
v 0.202526 -0.454816 0.000727
v 0.051262 -0.314873 0.129129
v 0.124220 -0.392221 -0.097284
v -0.124041 -0.454166 -0.092636
v -0.098724 -0.490393 0.087313
v -0.112916 -0.478957 0.081839
v -0.114218 -0.500459 0.081177
v 0.184914 -0.284405 0.055913
v 0.198863 -0.302074 0.046603
v -0.146949 -0.428195 -0.078203
v 0.080067 -0.470517 -0.154972
v 0.069035 -0.477250 -0.170679
v 0.077516 -0.489985 -0.165431
v 0.168373 -0.471751 -0.017434
v 0.169862 -0.455879 -0.015180
v -0.032906 -0.360395 0.159060
v -0.018757 -0.378582 0.170550
v 0.207509 -0.435858 0.038554
v -0.186615 -0.420919 0.067907
v -0.203791 -0.432579 0.068445
v -0.186800 -0.441777 0.071133
v 0.112189 -0.308185 -0.101565
v -0.103167 -0.519079 0.083136
v 0.137935 -0.487048 0.088444
v 0.134869 -0.509741 0.089965
v 0.031599 -0.326748 -0.125743
v -0.083228 -0.534054 0.143923
v 0.068382 -0.406950 0.149663
v 0.116515 -0.346146 0.160044
v 0.114450 -0.336335 0.144824
v -0.044024 -0.433126 0.154109
v -0.039658 -0.447762 0.167021
v -0.038786 -0.431241 0.165505
v 0.072292 -0.458533 -0.168838
v -0.168483 -0.494775 0.002922
v 0.119703 -0.291797 0.115804
v 0.115500 -0.306047 0.132110
v 0.137161 -0.490747 -0.093501
v 0.120914 -0.503759 -0.093866
v 0.081500 -0.481279 -0.133421
v 0.081269 -0.494286 -0.140130
v 0.080340 -0.484918 -0.156259
v 0.081929 -0.517722 -0.144014
v -0.162084 -0.324797 0.069408
v -0.179386 -0.334551 0.063350
v 0.218716 -0.456981 0.000694
v 0.229802 -0.468774 0.010822
v 0.211307 -0.470317 -0.001361
v 0.113944 -0.521964 0.102143
v 0.107394 -0.501225 0.107345
v -0.140285 -0.434808 0.147968
v -0.234792 -0.508382 0.032709
v -0.230268 -0.508983 0.018630
v 0.118788 -0.282172 0.138307
v 0.117763 -0.299696 0.149674
v 0.104298 -0.336416 0.177673
v 0.087944 -0.337466 0.178592
v -0.117856 -0.427900 0.122383
v -0.128696 -0.441703 0.128264
v 0.094006 -0.337698 -0.108554
v 0.082449 -0.328537 -0.122363
v 0.007754 -0.462096 -0.123929
v -0.172634 -0.500741 -0.016998
v -0.174604 -0.479915 -0.012018
v 0.177078 -0.334408 -0.029856
v -0.047579 -0.276140 0.137833
v 0.069712 -0.489330 0.165656
v -0.122388 -0.462912 0.126283
v -0.189029 -0.348727 -0.021453
v -0.187185 -0.362663 -0.005248
v 0.197278 -0.401045 0.055114
v 0.204762 -0.469381 0.039850
v 0.200566 -0.486595 0.049190
v 0.114191 -0.374108 0.170824
v 0.111744 -0.356400 0.173456
v -0.115655 -0.463188 0.163449
v -0.096525 -0.471100 0.156528
v -0.135998 -0.277403 0.136674
v -0.187551 -0.335860 -0.036848
v -0.178740 -0.323063 -0.051237
v 0.041514 -0.374711 -0.128334
v -0.062431 -0.464275 0.131407
v -0.049989 -0.443393 0.136982
v 0.010409 -0.463866 0.156013
v -0.182955 -0.467070 -0.025575
v -0.182411 -0.474638 -0.044838
v 0.204873 -0.508244 0.013118
v 0.207117 -0.487741 0.031428
v 0.204977 -0.506079 0.039306
v -0.023621 -0.421182 0.175685
v -0.001989 -0.425090 0.171694
v 0.169445 -0.401187 -0.047504
v 0.168509 -0.523081 0.078188
v 0.215541 -0.435831 0.024023
v -0.149980 -0.337215 0.080816
v -0.147444 -0.313703 0.081353
v 0.138215 -0.469044 0.087511
v 0.037819 -0.294435 0.130829
v -0.139203 -0.360733 0.138389
v 0.157139 -0.287142 0.081183
v 0.141638 -0.285458 0.095444
v 0.110289 -0.487517 0.143712
v -0.198531 -0.405056 0.022293
v -0.211749 -0.416231 0.017968
v -0.210843 -0.399805 0.018391
v 0.189846 -0.382890 0.058850
v 0.132346 -0.362323 0.100025
v 0.140642 -0.388290 -0.092494
v 0.130018 -0.377138 -0.096933
v 0.142455 -0.369252 -0.091013
v -0.047426 -0.528328 0.146365
v -0.055628 -0.519693 0.137681
v 0.167514 -0.425998 -0.048626
v 0.171867 -0.419264 -0.026788
v 0.110038 -0.329411 -0.101625
v -0.177268 -0.458225 -0.009205
v -0.110734 -0.492239 -0.098823
v -0.201843 -0.381193 0.020715
v -0.212044 -0.311978 0.033541
v -0.027526 -0.496903 -0.125688
v 0.080425 -0.501741 -0.156655
v 0.071990 -0.504164 -0.168996
v -0.198331 -0.471328 0.021498
v 0.046757 -0.506997 -0.172857
v 0.041631 -0.519469 -0.171332
v 0.083225 -0.279251 0.167639
v 0.112917 -0.344829 0.126025
v 0.130620 -0.301608 0.103151
v 0.197926 -0.369529 0.053554
v 0.208034 -0.365048 0.042333
v -0.132452 -0.420627 0.131089
v -0.168671 -0.472299 0.073507
v 0.152157 -0.382167 -0.079096
v -0.068707 -0.520565 0.136810
v -0.074346 -0.536719 0.139405
v -0.111556 -0.522103 0.122489
v 0.087994 -0.308251 0.175058
v 0.097656 -0.296861 0.175887
v -0.117734 -0.407232 0.158594
v -0.152041 -0.507691 -0.073226
v -0.145540 -0.525110 -0.077225
v -0.159639 -0.521429 -0.066435
v 0.169514 -0.441498 -0.031565
v 0.167229 -0.462233 -0.033186
v -0.205132 -0.450517 0.070619
v -0.132135 -0.296697 0.144357
v 0.062915 -0.330087 0.137369
v 0.099855 -0.532035 0.198636
v 0.111513 -0.536942 0.164379
v 0.116304 -0.484660 0.165643
v 0.117031 -0.460864 0.172578
v 0.113460 -0.473700 0.184648
v -0.197987 -0.507702 0.078004
v -0.213195 -0.510700 0.061183
v -0.206848 -0.525267 0.076600
v -0.010184 -0.485131 0.183414
v 0.218996 -0.480615 -0.000892
v -0.087019 -0.329533 -0.124988
v 0.149714 -0.334329 -0.081192
v -0.134203 -0.478326 0.134370
v 0.045883 -0.366699 0.129529
v 0.084284 -0.467889 0.192894
v -0.186950 -0.403560 -0.015303
v 0.105226 -0.516725 -0.096269
v -0.094568 -0.493374 -0.114474
v -0.047182 -0.537843 -0.122469
v -0.182234 -0.359498 0.064217
v -0.162292 -0.347563 0.070150
v -0.167341 -0.428359 0.071614
v -0.102868 -0.469045 0.115086
v -0.115472 -0.483134 0.123074
v -0.049084 -0.531160 0.144339
v 0.153671 -0.529770 0.038802
v -0.084175 -0.513595 -0.120144
v 0.173208 -0.436760 -0.011163
v 0.018557 -0.515437 0.142590
v 0.029150 -0.497503 0.135657
v 0.073631 -0.479225 0.181440
v -0.152050 -0.387392 -0.078854
v -0.180711 -0.487936 -0.029577
v 0.111035 -0.480695 0.105533
v 0.120701 -0.495598 0.096009
v 0.102972 -0.491283 0.119398
v -0.018690 -0.341803 -0.126474
v 0.073915 -0.461734 0.179671
v 0.080719 -0.448008 0.187532
v -0.214590 -0.425234 0.059121
v -0.215407 -0.443842 0.053886
v 0.202613 -0.489075 -0.000184
v -0.008628 -0.452020 -0.123815
v 0.078779 -0.377977 -0.152515
v 0.072380 -0.392483 -0.166575
v -0.154170 -0.362336 -0.080780
v 0.189431 -0.398755 0.002454
v 0.198871 -0.380855 0.003306
v 0.221494 -0.375725 0.016108
v 0.205454 -0.398600 0.002197
v 0.115708 -0.383862 0.152795
v 0.091588 -0.355343 -0.109710
v 0.074974 -0.273234 0.154053
v -0.009995 -0.461699 0.181088
v -0.023150 -0.470100 0.183598
v -0.224154 -0.486361 0.038095
v -0.037006 -0.435634 -0.130244
v 0.080624 -0.311799 -0.131129
v -0.121425 -0.515334 0.080976
v 0.146329 -0.304936 0.092280
v -0.095119 -0.473964 0.097124
v 0.151260 -0.353036 0.089003
v -0.139361 -0.340423 0.136106
v -0.077642 -0.386786 0.128378
v -0.087830 -0.370440 0.135453
v -0.093039 -0.386806 0.142911
v 0.011139 -0.304230 0.145906
v 0.165460 -0.494685 -0.046161
v -0.087860 -0.381864 -0.125716
v 0.162240 -0.336151 -0.064825
v -0.214337 -0.495193 0.050499
v -0.161459 -0.510255 0.075958
v 0.156560 -0.520767 -0.078783
v 0.124420 -0.430165 -0.096898
v 0.177658 -0.302421 -0.023238
v 0.184558 -0.305385 -0.007538
v -0.157610 -0.411210 -0.071058
v 0.205632 -0.329564 0.001213
v 0.213824 -0.336643 0.021976
v 0.213718 -0.351535 0.002474
v -0.221646 -0.461036 0.038089
v -0.222714 -0.441080 0.037240
v 0.182636 -0.523735 0.063322
v 0.172141 -0.539229 0.044044
v 0.196247 -0.524551 0.052366
v -0.007511 -0.408588 0.172431
v -0.131343 -0.427835 0.086577
v 0.077867 -0.525524 0.166071
v -0.168168 -0.450398 0.072596
v -0.127677 -0.307926 0.115768
v -0.120270 -0.302316 0.091352
v -0.118384 -0.321600 0.111489
v -0.022978 -0.516318 0.187435
v -0.211621 -0.343997 0.050092
v -0.189440 -0.400318 0.065339
v 0.183213 -0.540051 0.029743
v 0.203840 -0.521402 0.030741
v 0.129741 -0.417519 0.097966
v -0.062889 -0.504777 -0.129073
v -0.073853 -0.489979 -0.127684
v -0.085722 -0.474363 -0.123555
v 0.210909 -0.359081 0.023160
v 0.208615 -0.381084 0.031935
v -0.003323 -0.393479 0.167015
v -0.058547 -0.435473 -0.133698
v 0.123183 -0.524057 -0.092755
v 0.029812 -0.277509 0.136736
v 0.093374 -0.530756 -0.102862
v -0.207320 -0.394431 0.061461
v -0.211880 -0.459267 0.016662
v -0.221280 -0.475647 0.016705
v -0.224164 -0.450387 0.017076
v -0.076351 -0.458179 0.135871
v -0.078611 -0.434223 0.134652
v 0.059554 -0.491361 -0.174622
v 0.061490 -0.464670 -0.175214
v 0.212361 -0.491264 -0.002252
v 0.139511 -0.511519 -0.092435
v 0.179229 -0.417030 -0.003515
v 0.199395 -0.418305 0.002980
v 0.212937 -0.399350 0.022574
v 0.212925 -0.417764 0.001487
v -0.104202 -0.424409 0.111014
v -0.180355 -0.301821 -0.048252
v -0.216277 -0.390618 0.040960
v 0.103691 -0.315978 0.176577
v 0.149608 -0.326733 0.089881
v -0.157150 -0.530496 0.077557
v -0.038201 -0.284337 0.150034
v -0.136243 -0.445713 0.084536
v -0.150081 -0.436816 0.079560
v -0.221677 -0.408381 0.036263
v -0.229254 -0.406862 0.022834
v -0.230510 -0.425456 0.025832
v -0.215978 -0.425705 0.044182
v -0.041128 -0.469430 0.169421
v 0.100410 -0.537700 0.120287
v 0.102803 -0.542700 0.104126
v 0.020938 -0.539920 0.146500
v -0.138700 -0.380041 0.138204
v -0.215442 -0.409702 0.051406
v -0.203967 -0.413883 0.065459
v 0.078174 -0.321964 0.166533
v 0.100127 -0.536247 0.134851
v 0.105923 -0.536130 0.149705
v -0.150275 -0.457672 0.078645
v 0.110590 -0.520898 0.152661
v 0.115157 -0.508856 0.167822
v 0.019159 -0.492499 0.142033
v 0.087907 -0.322834 0.176802
v -0.130690 -0.330947 0.120735
v -0.212247 -0.492622 0.016966
v -0.220075 -0.508655 0.015265
v -0.131268 -0.353156 0.124368
v -0.106332 -0.458687 0.084351
v 0.163529 -0.414182 -0.062635
v -0.134506 -0.296238 0.086514
v 0.128769 -0.542052 0.088854
v -0.044054 -0.371648 0.144804
v 0.088947 -0.390901 0.185690
v -0.059667 -0.286803 0.126942
v -0.029965 -0.511530 -0.125020
v -0.078416 -0.495448 0.140231
v -0.062952 -0.484269 0.132863
v 0.049901 -0.511207 -0.174349
v -0.186814 -0.371537 -0.040553
v 0.004681 -0.472703 0.170967
v -0.072105 -0.321676 0.123302
v 0.114386 -0.409845 0.111173
v -0.141539 -0.514504 0.148589
v 0.112653 -0.501877 0.153726
v 0.184608 -0.363494 0.060263
v 0.203383 -0.383826 0.048325
v -0.097001 -0.358235 0.141883
v -0.076877 -0.299372 0.124771
v -0.187550 -0.355546 -0.039603
v 0.160265 -0.544403 0.080629
v 0.149682 -0.524894 0.088025
v 0.186483 -0.364618 -0.002154
v 0.027430 -0.310526 0.135408
v 0.215791 -0.486303 0.023336
v 0.058274 -0.373784 -0.165965
v 0.004374 -0.545420 -0.138512
v 0.196268 -0.346827 0.001559
v -0.143821 -0.304734 -0.089519
v -0.118786 -0.407813 0.121147
v -0.062942 -0.504229 0.134159
v 0.115644 -0.283862 0.163875
v 0.022369 -0.292799 0.139327
v -0.052332 -0.368881 -0.134360
v -0.045693 -0.421619 -0.132494
v 0.203584 -0.364233 0.002825
v -0.044365 -0.391115 0.146482
v 0.050724 -0.391425 -0.155931
v -0.044179 -0.455993 0.150449
v -0.142358 -0.530034 0.153056
v -0.137898 -0.529781 0.137217
v -0.213979 -0.470284 0.057674
v 0.101230 -0.516618 0.197822
v 0.069277 -0.509790 0.167123
v -0.212471 -0.526613 0.063600
v 0.116698 -0.540216 0.097037
v 0.163386 -0.541207 0.057791
v 0.080404 -0.536868 -0.160188
v 0.072895 -0.499524 0.184211
v -0.052210 -0.517099 -0.126803
v -0.037119 -0.520216 -0.125487
v -0.172793 -0.396435 -0.063521
v 0.130067 -0.530036 0.089605
v -0.119117 -0.344639 0.116275
v 0.072589 -0.446645 0.170203
v -0.052688 -0.556320 -0.121808
v -0.194664 -0.509215 0.023182
v -0.203939 -0.510868 0.019341
v 0.062958 -0.520810 0.144125
v 0.044027 -0.511883 -0.167434
v 0.049329 -0.515760 -0.171412
v 0.045300 -0.510196 -0.171192
v 0.044472 -0.513486 -0.171354
v 0.042846 -0.513308 -0.169498
v -0.142303 -0.530679 0.079648
v -0.000878 -0.564056 -0.141700
v 0.037530 -0.519836 -0.165447
v 0.050600 -0.523872 -0.173423
v 0.058339 -0.533727 0.142009
v 0.042808 -0.523056 -0.166452
v 0.041676 -0.522300 -0.167739
v 0.066562 -0.526579 0.151495
v 0.041583 -0.518574 -0.169811
v 0.041534 -0.520654 -0.170537
v 0.040832 -0.518726 -0.169394
v 0.040914 -0.518934 -0.169526
v -0.046895 -0.533068 0.151947
v 0.054214 -0.527390 -0.173706
v 0.045518 -0.526263 -0.169783
v -0.058109 -0.538393 0.140302
v -0.086902 -0.527806 0.106296
v 0.036287 -0.525832 -0.166858
v 0.138205 -0.531128 -0.091221
v -0.028220 -0.527849 -0.120379
v 0.045466 -0.530611 -0.172090
v -0.039937 -0.532217 -0.122747
v -0.029640 -0.539241 -0.125391
v -0.042785 -0.529531 0.147815
v -0.041869 -0.531327 0.149122
v 0.051093 -0.530868 -0.170742
v 0.039743 -0.536679 -0.168266
v 0.041734 -0.530041 -0.170774
v 0.046764 -0.543711 -0.159383
v 0.051346 -0.536156 -0.172537
v 0.087451 -0.546355 -0.109497
v 0.043975 -0.531092 -0.170500
v -0.047253 -0.538093 0.142749
v 0.041370 -0.537983 -0.169487
v -0.039632 -0.547319 -0.123586
v 0.029148 -0.544883 -0.161966
v 0.057050 -0.545612 -0.170176
v 0.046524 -0.545218 -0.170855
v 0.046719 -0.548128 -0.167606
v 0.033466 -0.552098 -0.165129
v -0.015167 -0.553292 -0.131439
v 0.053452 -0.553404 -0.169461
v -0.037073 -0.559260 -0.124475
v 0.026218 -0.557221 -0.153640
v 0.030175 -0.557224 -0.162393
v 0.031252 -0.554695 -0.165138
v 0.040287 -0.551805 -0.166626
# 1025 vertices, 0 vertices normals

f 1 2 3
f 4 5 6
f 7 8 9
f 10 11 12
f 13 14 15
f 16 17 18
f 19 20 21
f 22 20 23
f 24 25 26
f 27 28 29
f 30 31 32
f 33 34 35
f 36 37 38
f 39 40 41
f 42 43 28
f 44 45 11
f 46 47 48
f 46 48 49
f 50 51 52
f 53 54 55
f 56 57 58
f 59 60 61
f 62 63 64
f 65 66 67
f 69 70 71
f 72 73 74
f 75 76 77
f 78 79 80
f 81 82 83
f 82 84 85
f 86 87 88
f 51 50 89
f 90 91 92
f 93 94 95
f 96 97 98
f 99 97 100
f 101 102 103
f 104 105 106
f 107 105 104
f 108 109 110
f 111 112 113
f 114 76 115
f 116 117 118
f 119 30 120
f 121 122 123
f 124 125 126
f 127 128 129
f 131 132 133
f 134 135 136
f 52 137 50
f 138 139 140
f 141 142 143
f 144 145 146
f 147 148 149
f 154 155 29
f 156 157 158
f 19 160 20
f 161 162 163
f 164 165 166
f 167 62 168
f 169 170 171
f 172 170 173
f 174 175 176
f 144 179 180
f 108 181 182
f 183 184 185
f 186 94 187
f 189 190 191
f 111 192 193
f 194 136 195
f 196 197 198
f 199 200 201
f 202 203 204
f 42 205 43
f 206 6 207
f 96 100 97
f 208 209 152
f 210 211 212
f 213 16 214
f 217 218 219
f 220 221 222
f 223 224 225
f 226 227 228
f 229 230 231
f 232 233 199
f 234 235 8
f 236 237 238
f 239 240 241
f 19 242 243
f 244 245 246
f 247 147 248
f 249 38 250
f 251 142 252
f 253 74 254
f 255 256 257
f 258 259 180
f 260 261 262
f 263 37 264
f 265 266 267
f 270 36 181
f 271 272 273
f 276 266 265
f 277 266 278
f 279 26 280
f 189 281 282
f 245 283 246
f 120 284 285
f 286 287 288
f 138 290 139
f 291 292 293
f 219 295 296
f 297 298 299
f 140 139 300
f 301 302 303
f 304 305 306
f 307 305 127
f 308 309 310
f 311 312 313
f 314 315 316
f 317 155 154
f 318 319 320
f 321 146 145
f 194 322 323
f 324 322 195
f 223 325 326
f 327 325 173
f 328 329 238
f 331 332 333
f 320 172 334
f 335 336 337
f 4 338 118
f 339 340 341
f 342 343 148
f 76 344 77
f 345 346 347
f 31 348 349
f 138 348 290
f 158 157 350
f 351 333 352
f 290 353 354
f 355 356 357
f 358 359 345
f 360 361 362
f 84 81 294
f 4 6 39
f 363 364 365
f 366 367 368
f 369 370 371
f 7 308 372
f 287 375 376
f 377 378 379
f 349 383 384
f 385 386 387
f 388 389 390
f 86 391 392
f 393 394 71
f 283 245 395
f 396 397 259
f 398 399 400
f 401 9 339
f 402 389 388
f 233 200 199
f 238 403 236
f 404 403 405
f 365 406 407
f 409 410 411
f 96 413 414
f 415 416 417
f 323 418 232
f 419 420 421
f 232 291 323
f 248 423 424
f 321 426 427
f 169 428 429
f 430 431 432
f 433 434 435
f 437 253 438
f 416 415 439
f 270 440 441
f 442 443 120
f 444 445 437
f 446 447 448
f 191 447 449
f 450 451 452
f 453 454 455
f 456 457 458
f 223 173 325
f 459 460 461
f 462 463 464
f 465 463 466
f 467 468 469
f 470 471 472
f 473 397 396
f 473 426 321
f 474 475 476
f 477 475 478
f 479 88 129
f 480 456 481
f 66 156 158
f 43 482 483
f 484 485 486
f 182 109 108
f 487 303 302
f 488 489 80
f 363 435 434
f 491 492 493
f 496 303 410
f 93 95 497
f 499 112 224
f 331 315 500
f 186 187 501
f 328 502 503
f 504 505 499
f 48 506 507
f 508 407 406
f 413 431 430
f 345 359 509
f 510 365 364
f 296 511 74
f 74 512 513
f 514 58 57
f 167 202 62
f 238 237 328
f 515 516 517
f 518 293 116
f 519 306 520
f 356 521 522
f 93 187 94
f 501 187 525
f 244 516 515
f 527 528 529
f 530 531 532
f 533 531 508
f 195 136 534
f 192 535 536
f 537 538 468
f 539 540 341
f 356 355 521
f 541 529 542
f 147 149 248
f 543 55 54
f 444 67 544
f 346 524 347
f 545 546 547
f 548 546 549
f 550 536 535
f 107 551 552
f 521 70 553
f 454 554 455
f 555 556 557
f 558 556 559
f 33 102 34
f 530 508 531
f 560 561 562
f 477 525 475
f 563 564 550
f 387 566 209
f 121 379 567
f 516 522 568
f 558 569 570
f 574 193 192
f 362 575 360
f 554 23 20
f 281 209 576
f 101 577 102
f 580 46 581
f 582 583 584
f 585 586 582
f 587 588 589
f 590 591 212
f 592 593 594
f 595 596 597
f 598 333 599
f 467 258 600
f 77 601 602
f 603 426 473
f 121 123 604
f 605 107 606
f 188 607 294
f 551 608 609
f 576 282 281
f 610 611 612
f 157 613 122
f 137 328 595
f 267 406 614
f 615 390 231
f 616 617 618
f 223 499 224
f 621 497 95
f 69 622 553
f 623 622 624
f 12 11 27
f 55 625 626
f 627 472 628
f 90 428 91
f 629 575 362
f 200 575 164
f 630 631 632
f 634 381 549
f 487 635 636
f 620 39 6
f 499 505 637
f 601 77 344
f 577 101 638
f 104 106 588
f 639 106 65
f 640 154 641
f 588 639 438
f 459 405 403
f 642 643 644
f 568 553 645
f 206 572 374
f 454 277 554
f 482 647 648
f 649 650 228
f 651 652 653
f 654 652 239
f 233 232 301
f 655 13 656
f 657 658 659
f 125 660 661
f 662 129 128
f 648 665 666
f 552 667 668
f 669 528 670
f 215 671 672
f 290 673 353
f 674 646 675
f 112 111 193
f 186 92 388
f 421 676 286
f 678 254 511
f 528 679 670
f 657 659 612
f 568 521 553
f 583 582 586
f 680 538 681
f 423 681 441
f 85 84 613
f 164 682 200
f 683 361 684
f 685 686 609
f 687 688 127
f 169 327 170
f 690 691 47
f 48 691 506
f 586 585 425
f 194 134 136
f 10 114 115
f 692 224 193
f 693 694 262
f 599 695 280
f 696 179 697
f 698 699 700
f 701 594 702
f 27 11 45
f 129 662 479
f 703 288 376
f 487 704 411
f 59 61 705
f 706 51 707
f 286 399 421
f 400 399 288
f 708 418 322
f 188 709 607
f 604 557 570
f 710 341 340
f 329 460 238
f 52 461 329
f 194 195 322
f 600 263 264
f 450 313 312
f 336 713 337
f 714 715 716
f 543 161 55
f 117 201 717
f 473 145 397
f 372 271 273
f 525 93 476
f 27 718 28
f 345 347 358
f 719 720 721
f 722 63 723
f 245 515 395
f 724 703 725
f 477 190 282
f 191 190 447
f 671 215 726
f 263 727 37
f 728 220 427
f 729 441 440
f 730 268 269
f 120 731 284
f 732 733 624
f 249 734 109
f 384 735 736
f 395 334 283
f 487 302 635
f 83 737 81
f 43 738 28
f 224 692 225
f 135 75 335
f 207 6 5
f 740 741 5
f 320 395 354
f 742 662 256
f 480 489 457
f 80 489 743
f 400 744 398
f 719 744 265
f 360 233 496
f 745 746 723
f 83 748 749
f 257 750 539
f 751 752 753
f 22 754 755
f 680 149 148
f 756 78 632
f 743 78 80
f 8 273 757
f 613 157 758
f 131 76 114
f 301 418 302
f 373 760 252
f 761 762 763
f 764 765 766
f 500 315 378
f 767 168 289
f 768 659 658
f 191 769 189
f 398 358 770
f 689 578 757
f 57 392 771
f 567 772 350
f 143 773 141
f 467 264 774
f 226 650 775
f 607 613 84
f 229 776 728
f 196 198 777
f 334 225 283
f 278 23 277
f 778 459 779
f 236 404 780
f 210 260 211
f 679 781 782
f 722 723 783
f 785 198 197
f 786 626 754
f 706 655 779
f 787 217 788
f 394 363 407
f 789 141 773
f 476 790 474
f 675 791 674
f 324 792 793
f 794 661 792
f 386 795 387
f 796 773 797
f 798 799 631
f 54 612 659
f 543 54 800
f 75 762 336
f 351 352 316
f 32 31 313
f 353 673 801
f 802 357 803
f 161 163 625
f 790 581 804
f 794 713 126
f 375 805 376
f 806 807 808
f 536 433 802
f 131 114 132
f 10 809 114
f 180 600 258
f 810 671 509
f 811 294 81
f 598 72 513
f 767 812 813
f 664 663 814
f 815 318 119
f 216 672 816
f 653 622 651
f 817 634 618
f 739 818 712
f 781 527 819
f 453 533 454
f 534 792 195
f 820 42 718
f 297 299 130
f 235 234 821
f 822 823 824
f 100 825 99
f 90 827 429
f 828 523 419
f 349 384 311
f 446 448 49
f 475 474 478
f 321 427 222
f 765 829 177
f 562 102 577
f 460 329 461
f 135 115 76
f 156 758 157
f 563 550 484
f 369 558 559
f 369 430 370
f 830 458 457
f 391 771 392
f 491 483 648
f 267 832 406
f 514 782 547
f 729 440 714
f 444 639 65
f 438 639 437
f 306 519 304
f 184 420 833
f 706 707 655
f 532 651 69
f 259 258 835
f 836 837 838
f 560 688 561
f 839 799 840
f 841 842 843
f 844 702 500
f 541 542 845
f 618 456 458
f 847 780 632
f 151 150 654
f 848 849 850
f 289 168 851
f 439 852 424
f 32 450 731
f 34 102 561
f 572 836 571
f 853 404 405
f 780 404 630
f 843 854 855
f 323 856 194
f 108 110 715
f 811 81 737
f 285 857 858
f 442 858 859
f 22 21 20
f 860 861 807
f 778 415 417
f 852 415 584
f 817 382 634
f 398 828 399
f 377 628 862
f 584 583 852
f 519 750 304
f 109 182 249
f 92 863 402
f 775 650 864
f 417 416 867
f 90 501 827
f 614 510 720
f 868 869 870
f 108 714 181
f 164 166 682
f 843 409 841
f 307 871 872
f 873 874 623
f 207 741 860
f 474 790 804
f 835 790 497
f 875 800 768
f 296 295 511
f 705 61 611
f 358 398 721
f 658 61 60
f 630 632 780
f 724 22 278
f 833 420 422
f 649 876 650
f 772 66 158
f 877 878 610
f 184 833 834
f 879 165 880
f 256 128 750
f 528 669 881
f 394 407 508
f 603 396 621
f 584 778 656
f 641 483 491
f 828 770 523
f 729 716 883
f 332 695 333
f 331 702 332
f 704 841 411
f 786 877 610
f 493 884 667
f 398 744 721
f 156 605 606
f 338 885 820
f 521 568 522
f 677 431 887
f 365 407 363
f 155 317 809
f 172 319 170
f 36 774 264
f 709 613 607
f 192 111 535
f 868 734 869
f 888 845 889
f 446 449 447
f 718 518 820
f 28 718 42
f 183 287 286
f 890 891 892
f 893 840 799
f 593 894 813
f 764 79 765
f 640 641 493
f 725 754 724
f 755 754 626
f 514 747 58
f 275 142 141
f 822 212 591
f 755 626 625
f 255 257 898
f 186 388 94
f 90 186 501
f 594 701 592
f 899 900 867
f 880 808 879
f 356 803 357
f 481 456 617
f 82 901 748
f 692 246 283
f 287 376 288
f 776 859 858
f 1 776 785
f 879 166 165
f 52 706 461
f 888 889 904
f 780 889 236
f 905 906 760
f 444 437 639
f 317 640 686
f 355 71 70
f 431 413 887
f 414 413 559
f 599 72 598
f 277 454 832
f 830 457 489
f 788 907 787
f 908 901 668
f 22 755 21
f 317 686 685
f 848 850 909
f 834 185 184
f 433 435 802
f 120 30 32
f 368 367 753
f 800 698 213
f 756 631 799
f 798 631 900
f 664 910 911
f 661 794 125
f 672 671 564
f 587 601 344
f 443 863 815
f 289 24 279
f 154 29 738
f 649 243 876
f 19 243 160
f 96 887 413
f 821 909 912
f 848 909 234
f 80 79 764
f 375 806 805
f 913 617 819
f 656 778 779
f 778 417 405
f 872 261 306
f 391 86 88
f 439 423 729
f 120 32 731
f 38 37 727
f 160 649 455
f 110 870 892
f 839 870 869
f 710 821 912
f 1 728 776
f 249 250 298
f 9 235 340
f 299 250 646
f 877 376 805
f 894 593 643
f 813 894 167
f 715 714 108
f 703 724 914
f 400 288 703
f 904 847 743
f 410 303 411
f 805 806 808
f 849 915 89
f 315 351 316
f 519 539 750
f 533 508 832
f 7 401 308
f 394 530 71
f 154 738 641
f 590 917 371
f 561 87 34
f 88 87 687
f 161 625 55
f 918 104 588
f 809 10 155
f 431 919 432
f 920 284 731
f 560 921 922
f 735 873 923
f 651 239 652
f 868 870 110
f 604 570 377
f 46 580 47
f 580 581 469
f 924 469 468
f 200 682 201
f 291 199 292
f 100 96 414
f 290 348 673
f 471 470 701
f 767 925 812
f 739 482 205
f 909 821 234
f 291 232 199
f 602 763 762
f 308 926 372
f 527 913 819
f 333 695 599
f 853 630 404
f 853 417 867
f 880 611 878
f 414 559 556
f 516 300 139
f 532 240 651
f 172 320 319
f 354 353 320
f 383 735 384
f 927 856 44
f 907 280 26
f 86 392 928
f 612 611 657
f 905 929 906
f 510 509 359
f 899 883 890
f 798 899 893
f 740 930 717
f 136 335 534
f 633 726 215
f 692 193 574
f 931 740 717
f 320 334 395
f 520 261 210
f 794 534 337
f 69 553 70
f 339 540 932
f 823 540 824
f 276 265 744
f 267 719 265
f 330 933 919
f 680 690 934
f 935 704 936
f 705 629 59
f 234 578 848
f 119 318 801
f 318 320 353
f 361 360 496
f 477 478 190
f 525 477 501
f 118 117 930
f 375 937 806
f 443 815 119
f 540 823 932
f 740 931 741
f 8 757 234
f 879 807 861
f 610 878 611
f 560 307 688
f 536 550 433
f 804 581 46
f 797 602 601
f 251 252 906
f 512 253 437
f 96 98 887
f 707 915 68
f 388 92 402
f 180 179 600
f 819 616 547
f 629 164 575
f 781 528 527
f 644 470 642
f 209 208 387
f 825 123 938
f 296 74 73
f 44 518 45
f 314 567 379
f 433 550 564
f 152 209 281
f 60 939 658
f 802 803 940
f 462 732 654
f 810 434 564
f 941 451 312
f 512 445 352
f 942 183 185
f 919 933 432
f 255 596 944
f 28 738 29
f 260 210 261
f 677 919 431
f 516 244 522
f 745 723 945
f 697 366 791
f 172 173 334
f 134 194 856
f 822 591 823
f 161 543 214
f 531 227 532
f 620 619 39
f 835 621 259
f 904 481 888
f 599 280 907
f 568 645 300
f 786 610 53
f 366 146 367
f 161 214 162
f 822 210 212
f 823 591 309
f 331 500 702
f 332 925 695
f 767 279 925
f 353 801 318
f 676 421 420
f 679 782 771
f 165 705 880
f 310 309 591
f 519 824 539
f 613 758 85
f 143 251 763
f 874 140 300
f 908 748 901
f 376 877 725
f 587 918 588
f 661 793 792
f 324 708 322
f 514 57 782
f 666 946 492
f 82 85 901
f 67 444 65
f 235 9 8
f 84 294 607
f 883 899 867
f 99 825 947
f 590 370 310
f 635 708 324
f 615 95 390
f 566 948 209
f 309 932 823
f 743 480 904
f 171 949 91
f 370 430 432
f 140 874 383
f 647 665 648
f 939 875 768
f 292 116 293
f 146 321 367
f 685 608 132
f 551 918 608
f 338 41 885
f 147 342 148
f 950 937 942
f 807 806 950
f 892 870 840
f 917 212 951
f 211 642 470
f 439 883 416
f 118 930 4
f 567 67 772
f 263 179 696
f 802 940 536
f 236 889 845
f 569 558 627
f 434 433 564
f 518 44 293
f 44 856 293
f 899 798 900
f 828 419 421
f 363 394 393
f 467 600 264
f 590 212 917
f 557 604 123
f 143 602 773
f 540 539 824
f 786 754 725
f 901 606 668
f 928 35 86
f 479 391 88
f 513 512 598
f 341 898 257
f 574 192 940
f 805 878 877
f 391 479 771
f 927 11 10
f 807 879 808
f 670 742 669
f 809 685 132
f 552 686 667
f 640 493 667
f 4 39 338
f 574 952 246
f 18 842 784
f 510 359 720
f 882 691 343
f 894 643 953
f 482 648 483
f 641 738 483
f 820 118 338
f 854 843 842
f 363 393 435
f 207 860 837
f 733 923 873
f 954 955 380
f 765 79 829
f 839 956 799
f 309 401 932
f 290 354 517
f 917 951 472
f 275 957 142
f 370 926 310
f 662 128 256
f 56 58 955
f 958 846 274
f 561 102 562
f 66 605 156
f 814 829 956
f 356 522 803
f 339 341 540
f 699 684 700
f 959 765 178
f 345 726 346
f 751 222 752
f 563 816 672
f 268 586 425
f 927 44 11
f 558 570 556
f 445 444 316
f 660 896 960
f 213 17 16
f 941 312 174
f 659 768 800
f 633 346 726
f 370 432 926
f 117 717 930
f 327 566 325
f 282 827 477
f 388 390 94
f 566 795 325
f 462 464 733
f 171 319 949
f 920 731 450
f 681 537 441
f 57 771 782
f 851 168 62
f 834 571 185
f 695 925 280
f 18 854 842
f 761 763 251
f 730 269 247
f 389 859 229
f 935 961 704
f 213 214 543
f 856 927 134
f 935 495 494
f 255 944 742
f 321 145 473
f 690 148 343
f 679 771 479
f 119 120 443
f 921 577 945
f 107 605 105
f 150 962 654
f 802 435 357
f 92 91 863
f 398 770 828
f 57 56 392
f 783 723 746
f 958 963 678
f 54 659 800
f 814 663 829
f 233 301 496
f 443 402 863
f 223 326 499
f 504 499 326
f 611 880 705
f 665 946 666
f 676 184 183
f 383 873 735
f 146 366 697
f 751 753 367
f 409 684 410
f 740 5 930
f 749 946 737
f 729 883 439
f 133 132 608
f 964 965 777
f 747 955 58
f 273 8 7
f 297 910 734
f 400 703 276
f 589 601 587
f 693 871 922
f 910 869 734
f 263 696 727
f 244 952 522
f 270 181 440
f 237 502 328
f 837 860 838
f 286 288 399
f 151 239 241
f 22 23 278
f 567 350 121
f 283 225 692
f 368 573 366
f 515 517 354
f 901 85 606
f 429 827 576
f 920 452 965
f 491 666 492
f 717 682 931
f 358 721 359
f 594 812 332
f 709 938 613
f 787 26 25
f 835 966 790
f 340 235 821
f 491 493 641
f 883 867 416
f 734 868 109
f 12 27 29
f 173 223 334
f 579 848 578
f 473 396 603
f 215 672 216
f 177 829 663
f 545 547 616
f 959 766 765
f 787 25 897
f 552 668 107
f 355 357 393
f 634 549 545
f 496 410 361
f 206 837 572
f 202 167 894
f 953 642 694
f 640 317 154
f 116 820 518
f 439 424 423
f 177 178 765
f 436 915 849
f 290 517 139
f 657 611 61
f 842 961 784
f 880 878 808
f 43 483 738
f 336 762 761
f 230 427 426
f 805 808 878
f 42 885 205
f 40 39 619
f 748 884 749
f 890 893 899
f 807 950 838
f 77 602 762
f 742 670 662
f 680 681 149
f 10 12 155
f 798 893 799
f 813 167 767
f 964 777 198
f 916 967 960
f 945 922 921
f 655 14 13
f 776 229 859
f 694 693 953
f 603 95 615
f 756 956 78
f 156 606 758
f 249 298 734
f 936 967 495
f 701 702 844
f 27 45 718
f 257 539 341
f 947 865 99
f 794 792 534
f 657 61 658
f 278 914 724
f 133 608 918
f 949 863 91
f 958 274 963
f 314 316 544
f 614 720 719
f 914 276 703
f 349 138 383
f 938 122 613
f 15 425 585
f 574 940 952
f 188 865 709
f 199 201 292
f 906 252 760
f 491 648 666
f 520 210 822
f 144 180 397
f 146 697 144
f 335 136 135
f 671 726 509
f 544 316 444
f 560 922 871
f 499 637 112
f 111 113 485
f 933 372 926
f 552 551 609
f 118 820 116
f 222 751 321
f 917 627 371
f 686 640 667
f 683 684 699
f 68 14 707
f 270 537 774
f 344 76 131
f 881 502 542
f 755 625 163
f 860 807 838
f 374 620 206
f 587 344 133
f 336 761 713
f 227 240 532
f 291 856 323
f 944 669 742
f 949 815 863
f 758 606 85
f 393 71 355
f 644 701 470
f 638 745 577
f 690 343 691
f 482 739 647
f 189 769 281
f 586 268 730
f 100 555 825
f 430 559 413
f 585 13 15
f 232 418 301
f 926 432 933
f 849 848 579
f 748 83 82
f 555 123 825
f 908 667 884
f 578 234 757
f 865 947 709
f 204 945 723
f 836 942 185
f 882 506 691
f 191 449 490
f 956 829 79
f 153 769 490
f 13 585 582
f 586 730 583
f 850 849 89
f 555 100 414
f 770 524 523
f 7 372 273
f 482 43 205
f 730 247 424
f 424 583 730
f 909 850 968
f 147 269 408
f 422 420 419
f 9 401 7
f 507 943 446
f 479 670 679
f 655 707 14
f 691 48 47
f 656 779 655
f 386 504 795
f 47 934 690
f 584 656 582
f 836 572 837
f 424 852 583
f 308 401 309
f 557 123 555
f 555 414 556
f 838 950 942
f 484 550 535
f 557 556 570
f 818 41 711
f 478 447 190
f 371 627 369
f 707 51 89
f 706 52 51
f 207 5 741
f 326 795 504
f 719 721 744
f 485 535 111
f 507 49 48
f 779 461 706
f 668 606 107
f 942 937 183
f 968 912 909
f 423 248 149
f 948 576 209
f 478 448 447
f 369 627 558
f 559 430 369
f 326 325 795
f 50 968 850
f 122 121 350
f 189 282 190
f 537 681 538
f 804 46 49
f 314 67 567
f 441 729 423
f 810 509 364
f 121 604 379
f 968 50 137
f 804 49 448
f 597 898 710
f 371 370 590
f 536 940 192
f 421 399 828
f 590 310 591
f 183 937 287
f 345 509 726
f 968 137 595
f 778 584 415
f 852 439 415
f 912 968 595
f 569 377 570
f 340 339 9
f 52 329 137
f 448 478 474
f 580 924 934
f 4 930 5
f 116 292 117
f 29 155 12
f 476 475 525
f 468 538 924
f 509 510 364
f 574 246 692
f 778 405 459
f 117 292 201
f 937 375 287
f 720 359 721
f 950 806 937
f 225 334 223
f 282 576 827
f 468 774 537
f 821 710 340
f 685 809 317
f 65 105 66
f 597 596 898
f 751 367 321
f 518 718 45
f 328 137 329
f 377 569 628
f 461 779 459
f 472 471 628
f 952 940 803
f 685 609 608
f 476 497 790
f 948 327 169
f 931 682 166
f 171 170 319
f 238 460 403
f 861 166 879
f 714 440 181
f 400 276 744
f 327 173 170
f 169 429 948
f 65 106 105
f 581 790 966
f 244 246 952
f 774 36 270
f 614 365 510
f 376 725 703
f 90 429 428
f 378 377 862
f 844 500 862
f 715 892 891
f 628 471 862
f 244 515 245
f 467 774 468
f 710 898 341
f 363 434 364
f 212 211 951
f 67 314 544
f 291 293 856
f 276 914 266
f 497 476 93
f 639 588 106
f 256 255 742
f 236 403 404
f 93 525 187
f 502 944 503
f 689 757 272
f 76 75 135
f 91 428 171
f 900 630 853
f 237 542 502
f 357 435 393
f 542 237 845
f 822 824 520
f 267 614 719
f 467 966 258
f 629 165 164
f 745 945 577
f 839 840 870
f 278 266 914
f 872 262 261
f 520 306 261
f 844 471 701
f 233 575 200
f 277 267 266
f 318 815 319
f 496 301 303
f 966 835 258
f 115 134 927
f 642 211 260
f 365 614 406
f 512 437 445
f 186 90 92
f 669 944 881
f 36 182 181
f 131 133 344
f 277 832 267
f 630 900 631
f 406 832 508
f 304 750 128
f 438 969 589
f 786 725 877
f 889 780 847
f 644 592 701
f 815 949 319
f 892 715 110
f 354 395 515
f 632 631 756
f 502 881 944
f 969 797 589
f 598 352 333
f 259 621 396
f 134 115 135
f 260 262 694
f 594 332 702
f 612 53 610
f 127 304 128
f 519 520 824
f 516 568 300
f 69 530 532
f 969 438 253
f 22 724 754
f 675 250 727
f 331 351 315
f 872 306 305
f 304 127 305
f 263 600 179
f 139 517 516
f 339 932 401
f 797 773 602
f 53 55 626
f 969 796 797
f 362 683 59
f 708 302 418
f 592 644 643
f 699 60 683
f 541 913 529
f 144 697 179
f 479 662 670
f 262 872 871
f 30 801 673
f 337 534 335
f 160 554 20
f 554 277 23
f 426 603 615
f 693 262 871
f 560 871 307
f 323 322 418
f 874 300 645
f 699 939 60
f 847 632 78
f 533 832 454
f 231 390 389
f 94 390 95
f 533 453 531
f 777 970 196
f 144 397 145
f 79 78 956
f 59 683 60
f 253 254 969
f 796 789 773
f 922 204 203
f 253 512 74
f 727 250 38
f 160 455 554
f 129 687 127
f 693 922 203
f 675 727 696
f 53 612 54
f 683 362 361
f 426 615 230
f 75 336 335
f 531 453 227
f 349 348 138
f 143 142 251
f 231 230 615
f 696 697 791
f 455 228 453
f 251 906 761
f 203 953 693
f 791 675 696
f 687 129 88
f 30 673 31
f 324 195 792
f 894 953 203
f 541 481 913
f 31 673 348
f 602 143 763
f 599 907 72
f 622 623 645
f 87 561 688
f 513 72 74
f 453 228 227
f 480 743 489
f 481 904 480
f 299 298 250
f 755 163 21
f 528 781 679
f 768 658 939
f 653 624 622
f 781 547 782
f 675 646 250
f 120 285 442
f 302 708 635
f 649 160 243
f 349 313 31
f 230 728 427
f 678 789 254
f 227 226 240
f 616 819 617
f 456 618 617
f 819 547 781
f 699 698 939
f 543 800 213
f 577 921 562
f 487 936 704
f 636 635 793
f 361 410 684
f 240 239 651
f 678 511 295
f 873 383 874
f 456 480 457
f 229 728 230
f 876 243 831
f 596 503 944
f 19 21 826
f 963 141 789
f 674 791 573
f 126 125 794
f 857 785 858
f 141 963 275
f 964 857 284
f 929 761 906
f 69 651 622
f 618 545 616
f 788 219 73
f 450 312 451
f 213 698 17
f 618 458 817
f 86 34 87
f 545 618 634
f 297 734 298
f 26 787 907
f 487 411 303
f 17 698 855
f 130 971 297
f 168 767 167
f 929 713 761
f 228 455 649
f 698 700 855
f 772 67 66
f 202 204 63
f 911 910 972
f 636 936 487
f 488 830 489
f 226 228 650
f 707 89 915
f 770 347 524
f 728 1 220
f 713 929 126
f 905 126 929
f 219 973 295
f 866 241 775
f 891 716 715
f 850 89 50
f 971 972 297
f 661 660 793
f 284 920 965
f 56 928 392
f 664 869 910
f 714 716 729
f 297 972 910
f 873 624 733
f 295 958 678
f 503 595 328
f 785 857 198
f 876 864 650
f 617 913 481
f 855 700 843
f 908 884 748
f 488 80 764
f 163 162 826
f 514 547 546
f 24 26 279
f 226 775 241
f 839 814 956
f 366 573 791
f 219 788 217
f 311 313 349
f 1001 777 1000
f 830 488 498
f 218 973 219
f 409 411 841
f 974 736 735
f 974 735 975
f 974 976 736
f 831 243 242
f 284 965 964
f 896 660 895
f 113 112 637
f 548 747 546
f 372 933 271
f 923 976 735
f 660 967 636
f 931 166 861
f 975 735 977
f 923 736 976
f 974 978 976
f 978 977 976
f 830 979 458
f 563 672 564
f 255 898 596
f 382 381 634
f 700 409 843
f 936 636 967
f 866 151 241
f 498 886 830
f 980 941 176
f 976 977 735
f 764 159 488
f 717 201 682
f 766 159 764
f 151 654 239
f 389 229 231
f 981 311 384
f 842 841 961
f 923 982 975
f 977 923 975
f 977 736 923
f 978 736 977
f 18 17 854
f 736 981 384
f 978 975 736
f 983 973 218
f 975 984 974
f 985 974 984
f 33 103 102
f 488 159 498
f 905 124 126
f 928 56 955
f 982 736 975
f 627 628 569
f 464 982 923
f 978 987 975
f 974 987 978
f 275 963 274
f 886 979 830
f 981 987 974
f 974 988 981
f 34 86 35
f 124 895 125
f 3 220 1
f 988 987 736
f 989 987 981
f 985 987 989
f 990 987 985
f 736 990 981
f 987 990 736
f 981 990 989
f 985 989 974
f 974 989 988
f 928 954 35
f 988 975 987
f 652 732 653
f 314 379 378
f 985 988 990
f 990 988 989
f 722 991 63
f 935 936 495
f 638 746 745
f 464 992 982
f 377 379 604
f 252 957 373
f 492 946 749
f 958 295 986
f 107 104 551
f 984 975 993
f 1 785 2
f 988 993 975
f 985 993 988
f 660 960 967
f 979 817 458
f 994 783 746
f 983 986 973
f 958 986 846
f 818 205 885
f 759 373 957
f 935 494 961
f 736 996 988
f 996 981 988
f 876 997 864
f 549 995 548
f 138 140 383
f 787 897 217
f 955 954 928
f 855 854 17
f 984 996 985
f 462 654 962
f 381 526 549
f 122 938 123
f 736 985 996
f 3 2 412
f 125 895 660
f 124 905 903
f 973 986 295
f 992 993 982
f 982 999 736
f 998 965 452
f 452 1001 998
f 1000 965 998
f 494 784 961
f 825 938 947
f 69 71 530
f 722 783 1003
f 221 220 3
f 1004 993 992
f 1002 991 722
f 1002 783 991
f 1005 993 985
f 760 903 905
f 1006 1005 985
f 736 1006 985
f 902 895 124
f 1002 1003 783
f 1005 736 999
f 1005 1006 996
f 133 918 587
f 64 63 991
f 1004 984 993
f 991 1003 64
f 992 999 1004
f 1004 999 982
f 993 1008 982
f 1000 777 965
f 1005 999 993
f 151 866 1009
f 311 981 174
f 1008 1004 982
f 394 508 530
f 999 1010 993
f 1010 1006 736
f 1005 1010 736
f 831 997 876
f 119 801 30
f 1006 1010 999
f 1000 998 1001
f 380 35 954
f 465 992 463
f 999 992 1008
f 1010 1008 993
f 783 1011 991
f 1006 175 996
f 40 711 41
f 1008 992 465
f 991 1011 1003
f 175 1006 1012
f 1011 783 994
f 423 149 681
f 1013 777 1001
f 999 1012 1006
f 1008 1012 999
f 1010 1012 1008
f 175 174 996
f 1004 1007 984
f 984 1007 996
f 464 463 992
f 1005 996 1014
f 1005 1012 1010
f 1004 1008 1015
f 981 996 174
f 452 451 1001
f 1005 1014 175
f 174 176 941
f 1015 1007 1004
f 668 667 908
f 1016 1012 1017
f 465 1015 1008
f 175 1014 176
f 777 1013 970
f 1005 1017 1012
f 175 1012 1016
f 1015 465 1016
f 1015 1016 1017
f 1018 1017 175
f 1005 175 1017
f 279 280 925
f 622 645 553
f 1017 1020 1015
f 970 1013 1021
f 1020 466 1015
f 1016 1018 175
f 1016 465 1020
f 466 1020 465
f 1014 1022 1018
f 1022 1023 1018
f 1018 1024 1014
f 176 1014 1024
f 1019 451 941
f 1023 1025 1018
f 1018 1016 1024
f 1020 1017 1025
f 1016 1020 1025
f 1025 1024 1016
f 1018 1025 1017
f 1025 1023 1024
f 1001 451 1021
f 1021 565 970
f 1023 176 1024
f 1023 1022 176
f 112 193 224
f 484 535 485
f 1013 1001 1021
f 39 41 338
f 36 264 37
f 963 789 678
f 470 472 951
f 355 70 521
f 776 858 785
f 38 249 182
f 236 845 237
f 541 845 888
f 285 858 442
f 861 860 741
f 934 924 538
f 307 127 688
f 330 271 933
f 66 105 605
f 53 626 786
f 308 310 926
f 891 890 716
f 560 562 921
f 191 490 769
f 180 259 397
f 33 35 380
f 575 233 360
f 275 759 957
f 75 77 762
f 314 378 315
f 316 352 445
f 925 332 812
f 165 629 705
f 331 333 351
f 737 83 749
f 552 609 686
f 463 962 466
f 881 529 528
f 582 656 13
f 324 793 635
f 676 183 286
f 87 688 687
f 484 816 563
f 402 859 389
f 636 793 660
f 810 364 434
f 642 260 694
f 147 408 342
f 966 469 581
f 580 469 924
f 709 947 938
f 158 350 772
f 873 623 624
f 836 185 571
f 844 862 471
f 378 862 500
f 710 912 597
f 470 951 211
f 676 420 184
f 920 450 452
f 313 450 32
f 733 464 923
f 10 115 927
f 594 593 812
f 226 241 240
f 362 59 629
f 152 281 769
f 913 527 529
f 82 81 84
f 481 541 888
f 63 62 202
f 492 884 493
f 652 654 732
f 800 875 698
f 41 818 885
f 247 269 147
f 952 803 522
f 872 305 307
f 917 472 627
f 835 497 621
f 890 892 893
f 272 757 273
f 826 242 19
f 545 549 546
f 270 441 537
f 804 448 474
f 279 767 289
f 942 836 838
f 409 700 684
f 931 861 741
f 198 857 964
f 826 21 163
f 197 2 785
f 467 469 966
f 769 153 152
f 603 621 95
f 352 598 512
f 204 723 63
f 711 712 818
f 507 446 49
f 463 462 962
f 642 953 643
f 551 104 918
f 970 565 196
f 934 538 680
f 788 72 907
f 874 645 623
f 624 653 732
f 443 442 402
f 847 78 743
f 820 885 42
f 818 739 205
f 810 564 671
f 385 387 208
f 596 595 503
f 462 733 732
f 438 589 588
f 589 797 601
f 124 903 902
f 892 840 893
f 459 403 460
f 794 337 713
f 690 680 148
f 206 207 837
f 853 867 900
f 945 204 922
f 566 327 948
f 595 597 912
f 72 788 73
f 206 620 6
f 296 73 219
f 881 542 529
f 174 312 311
f 442 859 402
f 813 812 593
f 110 109 868
f 580 934 47
f 750 257 256
f 939 698 875
f 566 387 795
f 752 222 221
f 770 358 347
f 592 643 593
f 664 814 869
f 889 847 904
f 182 36 38
f 839 869 814
f 576 948 429
f 122 350 157
f 1019 941 980
f 169 171 428
f 514 546 747
f 894 203 202
f 853 405 417
f 248 424 247
f 132 114 809
f 704 961 841
f 222 427 220
f 957 252 142
f 285 284 857
f 756 799 956
f 501 477 827
f 849 579 436
f 883 716 890
f 511 254 74
f 796 254 789
f 492 749 884
f 796 969 254
f 916 495 967
f 1019 1021 451
# 1920 faces, 0 coords texture

# End of File
