####
#
# OBJ File Generated by Meshlab
#
####
# Object clothes_attach.obj
#
# Vertices: 182
# Faces: 282
#
####
v 0.000592 0.187711 0.086372
v -0.021241 0.189115 0.084109
v -0.041950 0.196019 0.077530
v -0.060877 0.208043 0.066323
v -0.074336 0.226356 0.049817
v -0.084059 0.245212 0.028799
v -0.089968 0.261423 0.006733
v -0.096113 0.274059 -0.019844
v -0.095573 0.272577 -0.049344
v -0.109770 0.272238 -0.037730
v -0.128545 0.268407 -0.037962
v -0.145053 0.266914 -0.034335
v -0.155466 0.270372 -0.010031
v -0.154736 0.266115 0.010357
v -0.151267 0.253827 0.027571
v -0.146466 0.235609 0.039507
v -0.142393 0.215234 0.049467
v -0.138008 0.193032 0.059095
v -0.139051 0.169822 0.068704
v -0.046661 0.161051 0.103298
v -0.042529 0.181661 0.087916
v -0.119029 0.271654 -0.018667
v -0.136673 0.271239 -0.019152
v -0.105284 0.269259 -0.006299
v -0.078130 0.212275 0.059911
v -0.104577 0.253840 0.018639
v -0.136738 0.259826 0.019546
v -0.138211 0.246585 0.032214
v -0.122634 0.249541 0.026806
v -0.131618 0.229370 0.042516
v -0.022111 0.147837 0.113400
v -0.062662 0.190835 0.078547
v -0.057590 0.172750 0.093096
v -0.080383 0.194934 0.072582
v -0.104515 0.169217 0.084834
v -0.066381 0.153462 0.107138
v -0.078885 0.175994 0.087095
v -0.100591 0.184910 0.075617
v -0.119036 0.264802 0.005629
v -0.123015 0.181398 0.070356
v -0.111034 0.148754 0.096194
v -0.012488 0.175248 0.094677
v -0.026248 0.164639 0.101664
v -0.128333 0.159422 0.080028
v -0.049577 0.145765 0.114279
v -0.086399 0.157224 0.099804
v -0.094078 0.237689 0.035838
v -0.111701 0.238284 0.035097
v -0.096362 0.224678 0.047222
v -0.115985 0.202036 0.060531
v -0.099157 0.206574 0.060866
v -0.115024 0.221573 0.048136
v -0.129428 0.213709 0.051517
v 0.022715 0.190972 0.084392
v 0.043570 0.200228 0.077254
v 0.061851 0.213114 0.065748
v 0.075791 0.231633 0.048710
v 0.084206 0.250164 0.027917
v 0.092432 0.265228 0.006407
v 0.095738 0.277170 -0.019288
v 0.096789 0.274554 -0.049815
v 0.126683 0.273081 -0.034452
v 0.148070 0.269298 -0.032442
v 0.156003 0.273500 -0.008946
v 0.156549 0.270584 0.012226
v 0.152790 0.259543 0.028804
v 0.147121 0.241916 0.041184
v 0.142791 0.222032 0.050276
v 0.138123 0.200012 0.060016
v 0.138756 0.176827 0.069325
v 0.144032 0.155501 0.075127
v 0.012421 0.178373 0.092916
v 0.086671 0.173320 0.090656
v 0.109569 0.276368 -0.036269
v 0.088993 0.204586 0.066493
v 0.107215 0.238385 0.038950
v 0.119829 0.275303 -0.017100
v 0.103889 0.259911 0.016527
v 0.078688 0.217787 0.058744
v 0.089157 0.239288 0.039347
v 0.138183 0.275060 -0.009359
v 0.134109 0.266273 0.018108
v 0.105901 0.273573 -0.007109
v 0.041542 0.152554 0.111228
v 0.104163 0.249667 0.028768
v 0.097311 0.223537 0.050831
v 0.110765 0.204211 0.062952
v 0.119804 0.220423 0.051581
v 0.128160 0.207723 0.058407
v 0.126242 0.189949 0.067861
v 0.128519 0.234762 0.042982
v 0.110993 0.182621 0.076993
v 0.125077 0.163455 0.082757
v 0.076901 0.188843 0.080522
v 0.095221 0.188979 0.076956
v 0.034950 0.181095 0.090558
v 0.104306 0.143148 0.107535
v 0.104463 0.163941 0.092247
v 0.117550 0.268782 0.006111
v 0.120419 0.143659 0.098096
v 0.068107 0.200042 0.073636
v 0.058060 0.183365 0.087234
v 0.049290 0.167513 0.099823
v 0.070513 0.173758 0.093074
v 0.065005 0.156236 0.107327
v 0.027771 0.165554 0.101895
v 0.000737 0.159954 0.105256
v 0.020240 0.147340 0.114429
v 0.085130 0.140788 0.115826
v 0.088608 0.156761 0.102715
v 0.062654 0.138667 0.120614
v 0.135598 0.252007 0.033278
v 0.119838 0.253452 0.027313
v 0.002236 0.200948 -0.105257
v 0.020411 0.212887 -0.101566
v 0.038379 0.222754 -0.098739
v 0.055267 0.233803 -0.094352
v 0.072011 0.246360 -0.086527
v 0.087416 0.262161 -0.071394
v 0.152124 0.254470 -0.053241
v 0.153330 0.236318 -0.068393
v 0.152048 0.215847 -0.079440
v 0.148653 0.192985 -0.087096
v 0.122240 0.255490 -0.066530
v 0.127677 0.237832 -0.078749
v 0.087737 0.234861 -0.091354
v 0.120050 0.267331 -0.051566
v 0.135634 0.261827 -0.052275
v 0.104261 0.260442 -0.068088
v 0.141692 0.228379 -0.078309
v 0.136039 0.204012 -0.090118
v 0.090920 0.249665 -0.081006
v 0.139031 0.247355 -0.066588
v 0.104319 0.269882 -0.054906
v 0.122965 0.219869 -0.090166
v 0.131151 0.180935 -0.096887
v 0.105064 0.188247 -0.105614
v 0.119752 0.195650 -0.099148
v 0.106080 0.215062 -0.097541
v 0.073632 0.202036 -0.106269
v 0.073320 0.225492 -0.097385
v 0.052765 0.209480 -0.103430
v 0.019860 0.193031 -0.107414
v 0.109135 0.240836 -0.083449
v 0.051466 0.191857 -0.108660
v 0.084414 0.185514 -0.109889
v -0.016519 0.211595 -0.102529
v -0.034747 0.222400 -0.099399
v -0.052355 0.232523 -0.095128
v -0.069541 0.244111 -0.087633
v -0.084726 0.260230 -0.072346
v -0.148955 0.251867 -0.057070
v -0.151292 0.233042 -0.072944
v -0.150598 0.213139 -0.083350
v -0.148028 0.191777 -0.090017
v -0.122139 0.246646 -0.072710
v -0.118354 0.260383 -0.058736
v -0.049303 0.214777 -0.101748
v -0.137625 0.244018 -0.069276
v -0.134754 0.206273 -0.091068
v -0.085180 0.241695 -0.086661
v -0.136488 0.258586 -0.053674
v -0.101695 0.266935 -0.056025
v -0.054914 0.201332 -0.106025
v -0.028538 0.200360 -0.105701
v -0.134915 0.183594 -0.096248
v -0.070537 0.220635 -0.099208
v -0.072756 0.194767 -0.108178
v -0.103198 0.213085 -0.098342
v -0.120064 0.218868 -0.091125
v -0.131849 0.229141 -0.081983
v -0.116823 0.194822 -0.100390
v -0.095465 0.190148 -0.107163
v -0.015320 0.186755 -0.108871
v -0.038454 0.183176 -0.110309
v -0.087228 0.206420 -0.103311
v -0.090742 0.223294 -0.096275
v -0.104523 0.235670 -0.086464
v 0.089254 0.209513 -0.102574
v -0.101166 0.253008 -0.073738
v -0.135513 0.269894 -0.000928
v 0.064932 0.181690 -0.111254
# 182 vertices, 0 vertices normals

f 24 22 39
f 53 18 50
f 8 9 10
f 49 51 25
f 2 21 43
f 51 34 25
f 14 27 181
f 8 10 24
f 40 18 19
f 28 27 15
f 181 23 13
f 24 39 26
f 11 22 10
f 6 7 26
f 48 30 52
f 2 3 21
f 18 40 50
f 27 28 29
f 29 28 30
f 28 16 30
f 49 5 47
f 26 48 47
f 30 16 17
f 13 23 12
f 27 29 39
f 1 2 42
f 43 107 42
f 25 4 5
f 6 47 5
f 23 22 11
f 22 24 10
f 181 13 14
f 27 14 15
f 8 24 7
f 28 15 16
f 23 11 12
f 26 47 6
f 52 50 51
f 26 39 29
f 22 23 181
f 27 39 181
f 24 26 7
f 37 32 34
f 36 45 20
f 37 33 32
f 34 32 4
f 34 38 37
f 33 21 32
f 32 3 4
f 21 20 43
f 25 34 4
f 33 36 20
f 35 41 46
f 38 34 51
f 38 35 37
f 50 38 51
f 33 37 46
f 53 30 17
f 40 19 44
f 35 44 41
f 40 44 35
f 43 42 2
f 33 20 21
f 31 43 20
f 20 45 31
f 46 36 33
f 49 25 5
f 29 48 26
f 30 48 29
f 47 48 49
f 38 50 40
f 52 51 49
f 48 52 49
f 53 52 30
f 18 53 17
f 52 53 50
f 113 78 85
f 81 64 63
f 101 56 55
f 80 76 85
f 83 74 60
f 79 86 80
f 76 88 91
f 59 78 83
f 54 1 72
f 108 106 107
f 81 77 99
f 1 42 72
f 90 69 89
f 54 72 96
f 57 80 58
f 77 62 74
f 81 62 77
f 60 74 61
f 59 83 60
f 83 99 77
f 94 73 95
f 85 78 58
f 113 112 82
f 99 83 78
f 81 99 82
f 87 88 86
f 80 57 79
f 93 70 90
f 79 57 56
f 81 82 65
f 67 112 91
f 81 65 64
f 63 62 81
f 82 66 65
f 91 88 68
f 83 77 74
f 112 66 82
f 101 102 94
f 59 58 78
f 113 85 76
f 99 78 113
f 76 91 113
f 86 75 87
f 76 86 88
f 80 86 76
f 75 86 79
f 95 92 87
f 90 70 69
f 87 75 95
f 89 88 87
f 68 88 89
f 89 87 90
f 68 89 69
f 92 90 87
f 90 92 93
f 67 91 68
f 92 95 73
f 71 70 93
f 105 110 104
f 93 92 98
f 102 101 55
f 73 98 92
f 101 75 79
f 95 75 94
f 96 55 54
f 106 96 72
f 94 104 73
f 42 107 72
f 84 103 106
f 110 98 73
f 100 98 97
f 82 99 113
f 100 93 98
f 75 101 94
f 56 101 79
f 102 55 96
f 103 102 96
f 94 102 104
f 106 103 96
f 104 103 105
f 102 103 104
f 105 103 84
f 111 109 105
f 105 109 110
f 106 108 84
f 111 105 84
f 72 107 106
f 97 110 109
f 98 110 97
f 104 110 73
f 66 112 67
f 91 112 113
f 141 117 118
f 142 141 140
f 142 116 117
f 62 63 128
f 141 126 179
f 144 135 139
f 131 122 123
f 125 124 133
f 146 179 137
f 127 62 128
f 115 143 114
f 137 179 139
f 131 135 130
f 131 130 122
f 129 127 124
f 121 122 130
f 125 130 135
f 126 132 144
f 129 132 119
f 124 128 133
f 130 133 121
f 131 138 135
f 139 138 137
f 128 120 133
f 116 142 115
f 140 182 145
f 119 132 118
f 124 127 128
f 138 131 136
f 63 120 128
f 127 134 74
f 74 134 61
f 129 134 127
f 127 74 62
f 119 61 134
f 133 130 125
f 119 134 129
f 120 121 133
f 144 129 124
f 144 125 135
f 138 139 135
f 144 139 126
f 179 126 139
f 142 140 145
f 145 115 142
f 132 126 118
f 141 142 117
f 115 145 143
f 125 144 124
f 179 146 140
f 114 174 147
f 165 158 148
f 150 149 167
f 157 162 11
f 159 152 162
f 161 180 151
f 12 162 152
f 149 148 158
f 159 156 171
f 165 147 174
f 163 157 10
f 150 167 161
f 162 156 159
f 163 151 180
f 10 157 11
f 162 12 11
f 167 149 158
f 165 148 147
f 157 163 180
f 166 160 172
f 170 171 156
f 158 165 164
f 159 153 152
f 159 171 153
f 162 157 156
f 171 154 153
f 151 163 9
f 171 160 154
f 10 9 163
f 161 151 150
f 154 160 155
f 180 156 157
f 160 171 170
f 176 167 168
f 160 166 155
f 158 164 167
f 160 170 172
f 176 177 167
f 172 170 169
f 170 156 178
f 172 169 173
f 176 173 169
f 165 175 164
f 174 175 165
f 177 176 169
f 170 178 169
f 177 161 167
f 156 180 178
f 169 178 177
f 176 168 173
f 177 178 161
f 85 58 80
f 141 179 140
f 132 129 144
f 178 180 161
f 22 181 39
f 35 46 37
f 40 35 38
f 31 107 43
f 131 123 136
f 126 141 118
f 146 182 140
f 21 3 32
f 164 168 167
# 282 faces, 0 coords texture

# End of File
