####
#
# OBJ File Generated by Meshlab
#
####
# Object clothes_attachnew.obj
#
# Vertices: 962
# Faces: 1799
#
####
v -0.174899 0.076579 0.019992
v -0.169449 0.067074 0.032364
v -0.167918 0.045314 0.034190
v -0.161264 0.016282 0.038676
v -0.158950 -0.005514 0.039897
v -0.163236 -0.063901 0.045589
v -0.168924 -0.084530 0.040762
v -0.173970 -0.104439 0.042043
v -0.179104 -0.120508 0.037464
v 0.000206 -0.128851 0.183432
v 0.002686 -0.061585 0.171113
v 0.004089 -0.046676 0.167790
v 0.003632 -0.025854 0.162536
v -0.000945 -0.005379 0.158446
v 0.012642 0.005296 0.156839
v 0.008537 0.022874 0.155339
v 0.004348 0.040809 0.154479
v 0.012966 0.051773 0.153178
v 0.003141 0.078936 0.148041
v 0.000043 0.098999 0.140505
v -0.003254 0.121607 0.129256
v -0.000204 0.138325 0.119707
v 0.000592 0.187711 0.086372
v -0.021241 0.189115 0.084109
v -0.041950 0.196019 0.077530
v -0.060877 0.208043 0.066323
v -0.074336 0.226356 0.049817
v -0.084059 0.245212 0.028799
v -0.089968 0.261423 0.006733
v -0.096113 0.274059 -0.019844
v -0.095573 0.272577 -0.049344
v -0.109770 0.272238 -0.037730
v -0.128545 0.268407 -0.037962
v -0.145053 0.266914 -0.034335
v -0.155466 0.270372 -0.010031
v -0.154736 0.266115 0.010357
v -0.151267 0.253827 0.027571
v -0.146466 0.235609 0.039507
v -0.142393 0.215234 0.049467
v -0.138008 0.193032 0.059095
v -0.139051 0.169822 0.068704
v -0.144148 0.146770 0.075298
v -0.151758 0.126338 0.075712
v -0.158532 0.106303 0.066894
v -0.165625 0.089898 0.048413
v -0.046661 0.161051 0.103298
v -0.042529 0.181661 0.087916
v -0.119029 0.271654 -0.018667
v -0.136673 0.271239 -0.019152
v -0.105284 0.269259 -0.006299
v -0.078130 0.212275 0.059911
v -0.104577 0.253840 0.018639
v -0.136738 0.259826 0.019546
v -0.138211 0.246585 0.032214
v -0.122634 0.249541 0.026806
v -0.131618 0.229370 0.042516
v -0.116295 -0.112592 0.134839
v -0.106508 0.001652 0.126541
v -0.152918 0.059804 0.093177
v -0.022111 0.147837 0.113400
v -0.100287 0.125871 0.118518
v -0.062662 0.190835 0.078547
v -0.057590 0.172750 0.093096
v -0.080383 0.194934 0.072582
v -0.104515 0.169217 0.084834
v -0.066381 0.153462 0.107138
v -0.078885 0.175994 0.087095
v -0.100591 0.184910 0.075617
v -0.119036 0.264802 0.005629
v -0.066600 -0.112664 0.166179
v -0.053631 0.020758 0.152159
v -0.159220 0.090348 0.067015
v -0.162571 0.060483 0.059364
v -0.056074 0.116099 0.134690
v -0.019918 0.127741 0.126298
v -0.123015 0.181398 0.070356
v -0.111034 0.148754 0.096194
v -0.167910 -0.113674 0.067980
v -0.166654 0.078252 0.044473
v -0.166566 0.057090 0.042801
v -0.160726 0.043492 0.059460
v -0.012488 0.175248 0.094677
v -0.026248 0.164639 0.101664
v -0.060740 0.135092 0.121640
v -0.032675 0.090383 0.145130
v -0.020031 0.107574 0.136691
v -0.147047 0.120270 0.082857
v -0.134196 0.138276 0.087110
v -0.128333 0.159422 0.080028
v -0.120213 0.131141 0.102755
v -0.135702 0.098817 0.109106
v -0.121539 0.113261 0.113967
v -0.136927 0.117453 0.096479
v -0.013848 -0.112995 0.179944
v -0.021265 -0.131418 0.182129
v -0.160779 -0.080611 0.065640
v -0.156095 -0.047267 0.059160
v -0.175539 -0.126334 0.055955
v -0.165084 -0.096146 0.064086
v -0.182295 -0.139305 0.044395
v -0.013541 0.014805 0.155156
v -0.153959 0.004555 0.058304
v -0.154030 -0.013260 0.058082
v -0.159689 0.072045 0.070309
v -0.163707 0.034696 0.043379
v -0.156866 0.051670 0.078861
v -0.049577 0.145765 0.114279
v -0.038128 0.131680 0.124165
v -0.079506 0.120108 0.129856
v -0.097673 0.141157 0.107992
v -0.077745 0.140717 0.114961
v -0.034228 0.117136 0.133202
v -0.014602 0.087488 0.145317
v -0.047983 0.101762 0.141800
v -0.002136 -0.093839 0.177429
v -0.013335 -0.073472 0.172648
v -0.048189 -0.097255 0.170482
v -0.019451 -0.054899 0.168197
v -0.161837 -0.044074 0.040192
v -0.158734 -0.027274 0.046336
v -0.157742 -0.105274 0.083757
v -0.012141 0.033073 0.154608
v -0.015764 0.049161 0.154336
v -0.035953 0.026931 0.154056
v -0.037537 0.009739 0.153777
v -0.145605 -0.006827 0.076839
v -0.149766 -0.028060 0.070221
v -0.156799 0.026518 0.060601
v -0.153376 0.035330 0.078911
v -0.096318 0.086655 0.143906
v -0.116720 0.095798 0.128668
v -0.086399 0.157224 0.099804
v -0.014441 0.067657 0.150668
v -0.054417 0.086338 0.148646
v -0.074233 0.099299 0.143113
v -0.075666 0.075921 0.152319
v -0.099854 0.107165 0.131736
v -0.025106 -0.092593 0.175078
v -0.032760 -0.073535 0.170206
v -0.044391 -0.060535 0.164858
v -0.057794 -0.072686 0.162752
v -0.054256 -0.052972 0.159997
v -0.013392 -0.035556 0.164483
v -0.013940 -0.018052 0.160139
v -0.048157 -0.032408 0.157297
v -0.148374 -0.049126 0.077403
v -0.034004 0.055951 0.154003
v -0.030788 0.040742 0.155113
v -0.070376 0.030641 0.154342
v -0.069397 -0.002109 0.146296
v -0.023798 -0.004455 0.157313
v -0.139616 -0.023642 0.086380
v -0.122835 0.003228 0.111167
v -0.148501 0.041457 0.100260
v -0.035267 0.074784 0.150132
v -0.031989 -0.022690 0.159271
v -0.032654 -0.042739 0.163276
v -0.048912 0.040504 0.155171
v -0.066417 0.043168 0.156630
v -0.053979 0.004743 0.150611
v -0.048519 -0.009563 0.154652
v -0.063952 -0.041439 0.153332
v -0.081996 -0.053532 0.147551
v -0.073283 -0.065771 0.154610
v -0.079622 -0.082665 0.154518
v -0.065978 -0.096130 0.163891
v -0.087186 -0.102277 0.153950
v -0.098847 -0.122208 0.150202
v -0.068155 -0.131997 0.168467
v -0.094068 -0.068104 0.142761
v -0.084455 -0.123236 0.159056
v -0.111247 -0.081904 0.131691
v -0.124476 -0.032296 0.107711
v -0.114161 -0.050469 0.122670
v -0.105956 -0.034737 0.126165
v -0.130840 -0.009543 0.098265
v -0.094876 -0.016263 0.132432
v -0.085936 -0.005841 0.138729
v -0.069929 -0.021194 0.147734
v -0.133274 0.018565 0.110399
v -0.124102 0.064069 0.137081
v -0.143794 0.026689 0.096706
v -0.055033 0.061987 0.154729
v -0.168262 -0.133553 0.078132
v -0.152981 -0.092036 0.086287
v -0.139592 -0.086091 0.103404
v -0.112112 -0.064513 0.128151
v -0.100476 -0.050724 0.134404
v -0.072152 0.015165 0.147590
v -0.107110 0.026555 0.142710
v -0.089186 0.026062 0.149800
v -0.089967 0.041175 0.155340
v -0.091994 0.010782 0.140152
v -0.109152 0.017711 0.135003
v -0.085337 -0.036639 0.141221
v -0.137954 0.008859 0.093781
v -0.113384 0.078027 0.139276
v -0.131615 0.081864 0.123397
v -0.102088 0.059864 0.150427
v -0.145337 0.081112 0.104820
v -0.143751 0.048118 0.114364
v -0.121154 0.039151 0.138673
v -0.138258 0.067174 0.121532
v -0.123400 0.027232 0.130843
v -0.104885 0.036710 0.148598
v -0.136005 0.034843 0.119621
v -0.158584 -0.140403 0.097477
v -0.109753 -0.133275 0.144935
v -0.128552 -0.077490 0.114138
v -0.128074 -0.056336 0.109459
v -0.120873 0.014339 0.122603
v -0.079369 0.055862 0.155749
v -0.092759 0.071464 0.150546
v -0.148721 0.101116 0.087791
v -0.153960 0.079686 0.086999
v -0.147094 0.064190 0.107529
v -0.113440 0.049866 0.145133
v -0.129106 -0.127573 0.127358
v -0.156736 -0.120472 0.092043
v -0.135177 -0.112087 0.116718
v -0.143809 -0.128677 0.112116
v -0.124578 -0.097343 0.123002
v -0.094078 0.237689 0.035838
v -0.111701 0.238284 0.035097
v -0.096362 0.224678 0.047222
v -0.115985 0.202036 0.060531
v -0.099157 0.206574 0.060866
v -0.115024 0.221573 0.048136
v -0.129428 0.213709 0.051517
v -0.038525 -0.112519 0.175619
v -0.148042 -0.074446 0.088068
v -0.152663 -0.063670 0.076079
v -0.048025 -0.129745 0.175764
v 0.175323 0.080482 0.019825
v 0.169335 0.050980 0.034205
v 0.165507 0.032570 0.040633
v 0.159652 -0.022186 0.037114
v 0.162074 -0.040613 0.035258
v 0.166324 -0.059259 0.034994
v 0.170925 -0.078696 0.034814
v 0.176029 -0.100107 0.038374
v 0.184598 -0.135752 0.038976
v 0.022715 0.190972 0.084392
v 0.043570 0.200228 0.077254
v 0.061851 0.213114 0.065748
v 0.075791 0.231633 0.048710
v 0.084206 0.250164 0.027917
v 0.092432 0.265228 0.006407
v 0.095738 0.277170 -0.019288
v 0.096789 0.274554 -0.049815
v 0.126683 0.273081 -0.034452
v 0.148070 0.269298 -0.032442
v 0.156003 0.273500 -0.008946
v 0.156549 0.270584 0.012226
v 0.152790 0.259543 0.028804
v 0.147121 0.241916 0.041184
v 0.142791 0.222032 0.050276
v 0.138123 0.200012 0.060016
v 0.138756 0.176827 0.069325
v 0.144032 0.155501 0.075127
v 0.152115 0.133397 0.076222
v 0.161332 0.113588 0.067708
v 0.169219 0.094958 0.050854
v 0.012421 0.178373 0.092916
v 0.086671 0.173320 0.090656
v 0.109569 0.276368 -0.036269
v 0.088993 0.204586 0.066493
v 0.107215 0.238385 0.038950
v 0.119829 0.275303 -0.017100
v 0.103889 0.259911 0.016527
v 0.078688 0.217787 0.058744
v 0.089157 0.239288 0.039347
v 0.138183 0.275060 -0.009359
v 0.134109 0.266273 0.018108
v 0.105901 0.273573 -0.007109
v 0.108089 0.005153 0.134796
v 0.150752 0.069608 0.106577
v 0.041542 0.152554 0.111228
v 0.104163 0.249667 0.028768
v 0.097311 0.223537 0.050831
v 0.110765 0.204211 0.062952
v 0.119804 0.220423 0.051581
v 0.128160 0.207723 0.058407
v 0.126242 0.189949 0.067861
v 0.128519 0.234762 0.042982
v 0.110993 0.182621 0.076993
v 0.125077 0.163455 0.082757
v 0.076901 0.188843 0.080522
v 0.095221 0.188979 0.076956
v 0.103495 0.124099 0.121907
v 0.034950 0.181095 0.090558
v 0.104306 0.143148 0.107535
v 0.104463 0.163941 0.092247
v 0.117550 0.268782 0.006111
v 0.158706 -0.104940 0.094395
v 0.082577 -0.067876 0.154247
v 0.158666 0.090640 0.079903
v 0.137497 0.141392 0.086318
v 0.120419 0.143659 0.098096
v 0.120637 0.124308 0.111833
v 0.068107 0.200042 0.073636
v 0.058060 0.183365 0.087234
v 0.049290 0.167513 0.099823
v 0.070513 0.173758 0.093074
v 0.065005 0.156236 0.107327
v 0.027771 0.165554 0.101895
v 0.000737 0.159954 0.105256
v 0.020240 0.147340 0.114429
v 0.150573 -0.023076 0.073718
v 0.152729 0.008789 0.073271
v 0.043745 0.029690 0.154903
v 0.036350 -0.001184 0.156609
v 0.025619 -0.032718 0.163228
v 0.164611 0.046858 0.056811
v 0.163240 0.063160 0.066797
v 0.167059 0.063426 0.048803
v 0.160198 0.045061 0.075240
v 0.163171 0.097485 0.065621
v 0.148942 0.120347 0.085504
v 0.168172 0.082902 0.046422
v 0.085130 0.140788 0.115826
v 0.129930 0.093871 0.124139
v 0.018580 0.128226 0.126006
v 0.039747 0.136034 0.122171
v 0.180707 -0.119126 0.040715
v 0.174997 -0.111047 0.060431
v 0.184365 -0.146464 0.057670
v 0.171023 -0.088975 0.054881
v 0.165239 -0.079842 0.067488
v 0.022089 -0.059363 0.169792
v 0.029185 -0.130439 0.182655
v 0.031831 -0.109457 0.178650
v 0.009362 -0.112862 0.180898
v 0.160205 0.011891 0.046725
v 0.159892 0.027659 0.059877
v 0.021595 0.034230 0.154903
v 0.034490 0.015057 0.155391
v 0.088608 0.156761 0.102715
v 0.062654 0.138667 0.120614
v 0.071141 0.105860 0.140888
v 0.059442 0.121640 0.132185
v 0.032673 0.114341 0.134107
v 0.083441 0.123092 0.129160
v 0.009709 0.109895 0.135238
v 0.022694 0.091771 0.144085
v 0.166847 -0.099626 0.075729
v 0.174537 -0.144366 0.083413
v 0.179351 -0.132395 0.063121
v 0.169165 -0.121915 0.082251
v 0.165330 -0.066826 0.053268
v 0.151975 -0.042571 0.079197
v 0.161220 -0.050195 0.056815
v 0.024659 0.070099 0.151249
v 0.040426 -0.019665 0.158949
v 0.054327 -0.012503 0.155437
v 0.019532 -0.015019 0.160327
v 0.142460 -0.104847 0.116617
v 0.163174 -0.136452 0.100130
v 0.158275 -0.035569 0.055876
v 0.156766 -0.062578 0.077367
v 0.158465 -0.086870 0.086772
v 0.012319 -0.080142 0.174529
v 0.035691 -0.092811 0.174576
v 0.058180 -0.089784 0.168540
v 0.073893 -0.102655 0.165905
v 0.039529 -0.075235 0.170723
v 0.156452 -0.021444 0.054074
v 0.159604 -0.006736 0.041853
v 0.145820 -0.009661 0.087076
v 0.068356 0.030271 0.154626
v 0.060190 0.041122 0.155989
v 0.079921 0.019130 0.149423
v 0.154004 -0.120344 0.106398
v 0.135662 -0.121094 0.128024
v 0.149052 -0.136726 0.119731
v 0.130061 -0.140314 0.138930
v 0.017217 -0.096131 0.177272
v 0.056822 -0.108863 0.173298
v 0.096702 -0.122746 0.158838
v 0.077822 -0.084994 0.159738
v 0.155188 -0.006220 0.063146
v 0.152178 0.024242 0.081804
v 0.153831 0.039214 0.094677
v 0.058994 0.002923 0.153054
v 0.047429 0.079523 0.149657
v 0.048161 0.103391 0.141469
v 0.061977 0.092082 0.146871
v 0.098540 0.073592 0.150173
v 0.085925 0.087871 0.147567
v 0.097891 0.103491 0.137647
v 0.117847 0.105885 0.126115
v 0.129925 0.060638 0.136226
v 0.072598 -0.008344 0.150332
v 0.061375 0.015868 0.152031
v 0.083348 0.005998 0.146617
v 0.090630 -0.137663 0.165052
v 0.069964 -0.131830 0.173377
v 0.080741 -0.117236 0.166139
v 0.123418 -0.122691 0.139898
v 0.110642 -0.115708 0.148136
v 0.140490 -0.026811 0.094634
v 0.142714 -0.048579 0.097811
v 0.136074 -0.064220 0.110577
v 0.148891 -0.069152 0.095194
v 0.113611 -0.074996 0.134854
v 0.125742 -0.042976 0.118301
v 0.127416 -0.075128 0.122391
v 0.130979 -0.029369 0.108778
v 0.100835 -0.062797 0.141888
v 0.104799 -0.042462 0.136273
v 0.119718 -0.056064 0.125985
v 0.119372 -0.026859 0.121557
v 0.098178 -0.023118 0.137592
v 0.134382 -0.092219 0.120570
v 0.143647 -0.082383 0.106833
v 0.063046 -0.068190 0.162858
v 0.152906 0.053732 0.105138
v 0.074374 0.072648 0.152783
v 0.059595 0.056451 0.154893
v 0.080218 0.047485 0.156684
v 0.092079 -0.009064 0.141759
v 0.112145 -0.136431 0.151565
v 0.092884 -0.102543 0.156323
v 0.151292 -0.094771 0.101749
v 0.099096 -0.081613 0.147096
v 0.114767 -0.012241 0.126625
v 0.131895 -0.013482 0.108504
v 0.127794 0.003046 0.116818
v 0.141990 0.006336 0.097921
v 0.133139 0.028641 0.125893
v 0.141649 0.021743 0.106132
v 0.126523 0.014902 0.123282
v 0.127378 -0.105428 0.131784
v 0.158968 0.072217 0.085376
v 0.142167 0.057985 0.123869
v 0.116755 0.032730 0.142525
v 0.100664 0.047473 0.153885
v 0.093339 0.031451 0.152946
v 0.116829 0.054557 0.146857
v 0.117114 0.023158 0.137647
v 0.097872 0.017876 0.144237
v 0.131904 0.042797 0.134484
v 0.064213 -0.038109 0.156056
v 0.072599 -0.051998 0.155552
v 0.085772 -0.036077 0.146704
v 0.073082 -0.021924 0.150304
v 0.049813 -0.031947 0.159238
v 0.088035 -0.052876 0.148230
v 0.144326 0.039028 0.116378
v 0.158198 0.058155 0.089629
v 0.153492 0.083860 0.096925
v 0.148545 0.101899 0.095533
v 0.134756 0.107615 0.110545
v 0.143232 0.088122 0.111813
v 0.135883 0.077406 0.126543
v 0.135938 0.123040 0.100081
v 0.114724 -0.093588 0.139078
v 0.135598 0.252007 0.033278
v 0.119838 0.253452 0.027313
v 0.049418 -0.124877 0.178745
v 0.031516 -0.045616 0.165540
v 0.048848 -0.053228 0.163856
v 0.002404 -0.143975 -0.132078
v -0.001509 -0.127897 -0.128958
v -0.000057 -0.110123 -0.125097
v 0.005522 -0.092283 -0.120717
v -0.008976 -0.039644 -0.109366
v -0.003688 -0.017446 -0.106760
v -0.002645 -0.000114 -0.107736
v 0.000456 0.067260 -0.115962
v 0.000485 0.085675 -0.117233
v 0.000770 0.122592 -0.117907
v -0.000076 0.175027 -0.111169
v 0.002236 0.200948 -0.105257
v 0.020411 0.212887 -0.101566
v 0.038379 0.222754 -0.098739
v 0.055267 0.233803 -0.094352
v 0.072011 0.246360 -0.086527
v 0.087416 0.262161 -0.071394
v 0.152124 0.254470 -0.053241
v 0.153330 0.236318 -0.068393
v 0.152048 0.215847 -0.079440
v 0.148653 0.192985 -0.087096
v 0.147631 0.170714 -0.089875
v 0.147670 0.148203 -0.090273
v 0.151885 0.126197 -0.085914
v 0.158129 0.104282 -0.077811
v 0.168534 0.088924 -0.064290
v 0.179466 0.080175 -0.043097
v 0.181269 0.078647 -0.020008
v 0.125424 0.027656 -0.083467
v 0.078558 0.165306 -0.113894
v 0.176298 0.068728 -0.026189
v 0.141532 0.082873 -0.087064
v 0.116323 0.168720 -0.105053
v 0.122240 0.255490 -0.066530
v 0.127677 0.237832 -0.078749
v 0.087737 0.234861 -0.091354
v 0.136427 0.113718 -0.095260
v 0.129999 0.157432 -0.099756
v 0.120050 0.267331 -0.051566
v 0.135634 0.261827 -0.052275
v 0.104261 0.260442 -0.068088
v 0.141692 0.228379 -0.078309
v 0.136039 0.204012 -0.090118
v 0.090920 0.249665 -0.081006
v 0.172604 0.079499 -0.055337
v 0.132346 0.133159 -0.098405
v 0.139031 0.247355 -0.066588
v 0.104319 0.269882 -0.054906
v 0.122965 0.219869 -0.090166
v 0.131151 0.180935 -0.096887
v 0.105064 0.188247 -0.105614
v 0.119752 0.195650 -0.099148
v 0.158070 0.066972 -0.065243
v 0.128245 0.096425 -0.098056
v 0.106080 0.215062 -0.097541
v 0.097455 0.166248 -0.111197
v 0.109751 0.145672 -0.108971
v 0.082026 0.071039 -0.111564
v 0.073632 0.202036 -0.106269
v 0.109830 0.070564 -0.103033
v 0.099659 0.130157 -0.112752
v 0.109034 0.095339 -0.107250
v 0.119222 0.125791 -0.105389
v 0.122833 0.082457 -0.099082
v 0.073320 0.225492 -0.097385
v 0.077223 0.108044 -0.116323
v 0.052765 0.209480 -0.103430
v 0.083758 0.148092 -0.114865
v 0.097401 0.112083 -0.112528
v 0.078349 0.126422 -0.116525
v 0.062136 0.117306 -0.117885
v 0.172170 0.070874 0.025382
v 0.019860 0.193031 -0.107414
v 0.109135 0.240836 -0.083449
v 0.168708 0.065094 -0.048749
v 0.168923 0.051814 -0.033145
v 0.127008 0.068372 -0.093340
v 0.150684 0.051912 -0.068522
v 0.141630 0.065481 -0.082389
v 0.160496 0.045896 -0.051364
v 0.146182 0.031934 -0.066023
v 0.163194 0.031001 -0.035372
v 0.168776 0.035316 -0.017633
v 0.154980 0.027024 -0.050430
v 0.153713 0.015711 -0.042723
v 0.042321 0.102903 -0.117804
v 0.059846 0.098652 -0.117529
v 0.023819 0.116007 -0.117699
v 0.068235 0.085418 -0.115688
v 0.055896 0.067481 -0.114128
v 0.040578 0.082880 -0.116611
v 0.090728 0.090553 -0.112512
v 0.100519 0.056575 -0.104019
v 0.019127 0.073800 -0.116160
v 0.037877 0.064874 -0.114842
v 0.022212 0.057013 -0.114419
v 0.051466 0.191857 -0.108660
v 0.084414 0.185514 -0.109889
v 0.060024 0.158824 -0.115151
v 0.067587 -0.153983 -0.125436
v 0.162759 -0.096628 -0.034042
v 0.169613 0.034345 0.018236
v 0.160081 -0.001071 -0.014476
v 0.152836 0.003453 -0.038498
v 0.172315 0.050908 0.013203
v 0.166243 0.020534 -0.003600
v 0.171075 0.039683 0.001402
v 0.014332 0.153703 -0.114813
v 0.136163 0.039662 -0.079258
v 0.135460 0.052087 -0.083777
v 0.140352 0.018797 -0.065963
v 0.004160 0.106666 -0.118056
v 0.021998 0.094247 -0.117415
v 0.017236 0.132630 -0.117172
v 0.060516 0.137891 -0.116854
v 0.036017 0.139400 -0.116702
v 0.040589 0.175226 -0.111814
v 0.049994 0.027687 -0.109054
v 0.047738 0.047943 -0.112071
v 0.074294 0.054822 -0.110052
v 0.093251 0.041966 -0.103589
v 0.024963 0.037632 -0.112358
v 0.161542 -0.009452 0.014107
v 0.026175 -0.082102 -0.116610
v 0.165264 0.018870 0.021966
v 0.162017 0.003743 0.023591
v 0.162772 0.004903 0.004384
v 0.150194 -0.013078 -0.038128
v 0.114486 -0.024820 -0.078374
v 0.137184 -0.026506 -0.056441
v 0.106886 -0.005559 -0.086377
v 0.107599 0.016065 -0.090619
v 0.155230 -0.021407 -0.023447
v 0.172870 0.062985 0.013448
v 0.161862 0.017232 -0.023056
v 0.117981 0.047508 -0.094181
v 0.029802 0.006884 -0.107056
v 0.006414 0.030021 -0.111862
v 0.004009 0.047641 -0.114275
v 0.021847 -0.153158 -0.132834
v 0.019962 -0.128343 -0.127482
v 0.173810 -0.091224 0.012707
v 0.169288 -0.073492 0.012737
v 0.185902 -0.139803 0.010770
v 0.004530 -0.075381 -0.116762
v 0.020716 -0.103198 -0.122101
v 0.006781 -0.053106 -0.111857
v 0.014631 -0.031470 -0.107534
v 0.024235 -0.065751 -0.113328
v 0.124035 0.008906 -0.077729
v 0.126924 -0.010305 -0.070803
v 0.097199 -0.025348 -0.088987
v 0.061851 0.001547 -0.102991
v 0.050527 0.013293 -0.106545
v 0.057607 -0.020325 -0.101432
v 0.107277 0.032893 -0.095694
v 0.148492 -0.066970 -0.046781
v 0.004491 0.013471 -0.109338
v 0.028078 0.020314 -0.109486
v 0.178793 -0.108659 0.015113
v 0.182819 -0.124540 0.018555
v 0.179697 -0.122611 -0.004228
v 0.182543 -0.142616 -0.014781
v 0.175364 -0.127248 -0.023530
v 0.159190 -0.074565 -0.029585
v 0.151928 -0.089731 -0.050191
v 0.153763 -0.051748 -0.029967
v 0.161022 -0.049093 -0.006714
v 0.141431 -0.044569 -0.050551
v 0.166896 -0.082144 -0.011679
v 0.163927 -0.063212 -0.007658
v 0.161692 -0.033203 0.011904
v 0.156304 -0.034601 -0.016799
v 0.160188 -0.019588 -0.002045
v 0.039158 -0.118554 -0.122872
v 0.042416 -0.071544 -0.112087
v 0.139687 -0.011186 -0.056881
v 0.086056 0.005099 -0.097367
v 0.082978 -0.010692 -0.095837
v 0.072814 0.019013 -0.103744
v 0.073048 0.037389 -0.107567
v 0.091453 0.023614 -0.099561
v 0.055501 -0.042630 -0.104217
v 0.036187 -0.024226 -0.104723
v 0.079485 -0.032786 -0.096517
v 0.058572 -0.062132 -0.106920
v 0.079809 -0.049860 -0.098329
v 0.167744 -0.130070 -0.042697
v 0.147893 -0.032000 -0.037193
v 0.129130 -0.043725 -0.065437
v 0.042437 -0.097163 -0.117166
v 0.033612 -0.049560 -0.109007
v 0.113105 -0.079925 -0.086440
v 0.047617 -0.157764 -0.130752
v 0.039156 -0.139092 -0.127516
v 0.175182 -0.148108 -0.038325
v 0.165835 -0.147655 -0.054905
v 0.167885 -0.114321 -0.033784
v 0.126383 -0.027270 -0.068697
v 0.100193 -0.040379 -0.087815
v 0.095886 -0.066839 -0.093532
v 0.114740 -0.044538 -0.078671
v 0.103795 -0.057858 -0.087520
v 0.159543 -0.129362 -0.055617
v 0.079596 -0.073203 -0.102096
v 0.097561 -0.087014 -0.096839
v 0.151286 -0.145853 -0.073270
v 0.142539 -0.124833 -0.074981
v 0.110827 -0.097671 -0.092137
v 0.123938 -0.125529 -0.091291
v 0.104059 -0.117107 -0.101448
v 0.098298 -0.135096 -0.109198
v 0.139440 -0.102446 -0.070075
v 0.126910 -0.090126 -0.078672
v 0.093226 -0.103723 -0.102924
v 0.125023 -0.066632 -0.074116
v 0.081583 -0.117329 -0.111564
v 0.137393 -0.060755 -0.060242
v 0.155225 -0.112349 -0.054360
v 0.055900 -0.114562 -0.118456
v 0.055271 -0.135376 -0.123841
v 0.071948 -0.131297 -0.118490
v 0.078502 -0.093985 -0.106536
v 0.133829 -0.143322 -0.089685
v 0.102393 -0.155353 -0.112688
v 0.016368 -0.003637 -0.107004
v 0.040452 -0.005890 -0.104943
v 0.138818 -0.080530 -0.064606
v -0.016519 0.211595 -0.102529
v -0.034747 0.222400 -0.099399
v -0.052355 0.232523 -0.095128
v -0.069541 0.244111 -0.087633
v -0.084726 0.260230 -0.072346
v -0.148955 0.251867 -0.057070
v -0.151292 0.233042 -0.072944
v -0.150598 0.213139 -0.083350
v -0.148028 0.191777 -0.090017
v -0.146338 0.169192 -0.093027
v -0.147371 0.147432 -0.091977
v -0.150971 0.125120 -0.089209
v -0.159413 0.103739 -0.082041
v -0.170046 0.087068 -0.066397
v -0.181729 0.077960 -0.044710
v -0.122139 0.246646 -0.072710
v -0.126617 0.025848 -0.086560
v -0.119021 0.169264 -0.104585
v -0.118354 0.260383 -0.058736
v -0.049303 0.214777 -0.101748
v -0.145226 0.081432 -0.086946
v -0.132279 0.160388 -0.099383
v -0.137625 0.244018 -0.069276
v -0.134754 0.206273 -0.091068
v -0.085180 0.241695 -0.086661
v -0.175973 0.063979 0.006981
v -0.135615 0.116145 -0.097776
v -0.136488 0.258586 -0.053674
v -0.101695 0.266935 -0.056025
v -0.174703 0.077736 -0.057361
v -0.054914 0.201332 -0.106025
v -0.028538 0.200360 -0.105701
v -0.145975 0.104349 -0.090744
v -0.135367 0.137328 -0.098266
v -0.159021 0.089756 -0.077936
v -0.076185 -0.031183 -0.101592
v -0.163767 0.011114 -0.015771
v -0.134915 0.183594 -0.096248
v -0.070537 0.220635 -0.099208
v -0.172979 0.044603 0.004303
v -0.170402 0.030221 0.005591
v -0.171205 0.034934 -0.017816
v -0.028344 0.167825 -0.113016
v -0.154314 0.062379 -0.073750
v -0.116319 0.129381 -0.107757
v -0.114996 0.149596 -0.107826
v -0.092039 0.161267 -0.113422
v -0.065022 0.135489 -0.118407
v -0.091159 0.136456 -0.115452
v -0.070721 0.154785 -0.116266
v -0.079472 0.116948 -0.117819
v -0.101646 0.112789 -0.112987
v -0.049901 0.157708 -0.115734
v -0.088692 0.097375 -0.115607
v -0.129765 0.094000 -0.099044
v -0.080787 -0.093469 -0.109884
v -0.033199 0.035530 -0.113278
v -0.042940 0.003585 -0.108683
v -0.163190 -0.015665 -0.007538
v -0.017422 0.095662 -0.117955
v -0.072756 0.194767 -0.108178
v -0.103198 0.213085 -0.098342
v -0.120064 0.218868 -0.091125
v -0.131849 0.229141 -0.081983
v -0.116823 0.194822 -0.100390
v -0.095465 0.190148 -0.107163
v -0.176319 0.052527 -0.012280
v -0.172596 0.049492 -0.034739
v -0.165717 0.016793 0.017624
v -0.167966 0.032429 0.023887
v -0.155247 0.020800 -0.052634
v -0.167659 0.019638 -0.004628
v -0.164737 0.022793 -0.030818
v -0.164137 0.001076 0.001114
v -0.161594 0.047272 -0.057369
v -0.157283 0.010219 -0.038942
v -0.015320 0.186755 -0.108871
v -0.038454 0.183176 -0.110309
v -0.121616 0.108734 -0.105013
v -0.181474 -0.122831 0.000762
v -0.062148 -0.152608 -0.129686
v -0.021402 0.126224 -0.118071
v -0.044907 0.131946 -0.118659
v -0.015007 0.041840 -0.114101
v -0.026710 -0.029443 -0.107965
v -0.163174 -0.016963 0.021513
v -0.060967 0.179632 -0.112010
v -0.087228 0.206420 -0.103311
v -0.090742 0.223294 -0.096275
v -0.104523 0.235670 -0.086464
v -0.102859 0.173672 -0.109109
v -0.079430 0.177305 -0.112107
v -0.160355 -0.003523 -0.023945
v -0.162320 0.000799 0.022139
v -0.184368 -0.132783 0.018124
v -0.169088 -0.076109 0.002621
v -0.036457 -0.145712 -0.131808
v -0.005966 0.139111 -0.116413
v -0.015397 0.112612 -0.118526
v -0.078017 0.077271 -0.115113
v -0.059171 0.118396 -0.119253
v -0.064359 0.097334 -0.118505
v -0.016499 0.024976 -0.111719
v -0.021086 0.008526 -0.109331
v -0.051045 0.033638 -0.112312
v -0.016739 0.059014 -0.115519
v -0.056816 0.055980 -0.114449
v -0.019990 0.076832 -0.117121
v -0.164104 -0.011079 0.008488
v -0.164000 -0.031926 0.006405
v -0.145243 0.006775 -0.059512
v -0.178090 -0.108369 0.014338
v -0.173615 -0.090166 0.018025
v -0.168017 -0.070592 0.020322
v -0.172821 -0.093794 -0.004036
v -0.009749 -0.100300 -0.123090
v -0.018241 -0.118659 -0.127307
v -0.012413 -0.085673 -0.119504
v -0.017451 -0.137417 -0.131179
v -0.030653 -0.128312 -0.128764
v -0.017016 -0.156909 -0.135003
v -0.024140 -0.008641 -0.106870
v -0.037000 0.017825 -0.110608
v -0.034816 0.050957 -0.114798
v -0.079335 0.058554 -0.112478
v -0.038229 0.067749 -0.116346
v -0.042278 0.088431 -0.118064
v -0.163472 -0.033901 0.024510
v -0.141263 0.019356 -0.071148
v -0.152273 0.033095 -0.064938
v -0.138897 0.031857 -0.079028
v -0.164179 -0.076844 -0.020838
v -0.175894 -0.112062 -0.015581
v -0.026781 -0.105460 -0.123684
v -0.039519 -0.094506 -0.119936
v -0.036435 -0.074685 -0.115879
v -0.053550 -0.133909 -0.127075
v -0.060767 -0.101495 -0.117686
v -0.040135 -0.022148 -0.107347
v -0.067625 0.044938 -0.112381
v -0.165416 -0.052373 0.019505
v -0.086287 0.018421 -0.103858
v -0.110274 -0.002773 -0.090336
v -0.137915 -0.007615 -0.067243
v -0.185370 -0.138756 -0.003488
v -0.179556 -0.132086 -0.022535
v -0.169171 -0.113596 -0.037044
v -0.166329 -0.095601 -0.030231
v -0.014868 -0.062496 -0.114211
v -0.032618 -0.050741 -0.110729
v -0.061498 -0.079742 -0.112582
v -0.052975 -0.062743 -0.110843
v -0.047240 -0.114490 -0.123550
v -0.064207 -0.121055 -0.122101
v -0.061421 -0.023887 -0.104960
v -0.053727 -0.038690 -0.106413
v -0.070622 -0.048256 -0.103932
v -0.049319 -0.010138 -0.106188
v -0.165510 -0.063121 -0.001615
v -0.163613 -0.049180 -0.004424
v -0.110770 0.017330 -0.094143
v -0.093373 0.000586 -0.099063
v -0.071493 0.027206 -0.108904
v -0.059749 0.016273 -0.109083
v -0.074237 -0.012597 -0.102776
v -0.098620 -0.018740 -0.094195
v -0.127461 0.006231 -0.079384
v -0.121025 -0.016213 -0.082437
v -0.114186 -0.033945 -0.084266
v -0.134460 -0.027006 -0.067833
v -0.146934 -0.023236 -0.051409
v -0.152157 -0.006368 -0.046473
v -0.074712 -0.135844 -0.122550
v -0.078382 -0.113160 -0.115746
v -0.067761 0.001472 -0.105791
v -0.091388 -0.039228 -0.096165
v -0.140437 -0.070639 -0.062606
v -0.093516 -0.125865 -0.113367
v -0.077663 -0.059661 -0.103981
v -0.088415 -0.073366 -0.102915
v -0.148705 -0.053347 -0.048601
v -0.124760 -0.108161 -0.090406
v -0.144085 -0.037944 -0.053582
v -0.130275 -0.042137 -0.070737
v -0.137223 -0.055019 -0.064815
v -0.153272 -0.069367 -0.042763
v -0.099251 -0.087790 -0.100745
v -0.117168 -0.089954 -0.090350
v -0.136398 -0.089578 -0.073635
v -0.170225 -0.134748 -0.046718
v -0.119846 -0.051984 -0.081374
v -0.128247 -0.072687 -0.077087
v -0.101577 -0.103918 -0.103605
v -0.110704 -0.122857 -0.104067
v -0.148464 -0.087384 -0.058437
v -0.157551 -0.101801 -0.050593
v -0.156998 -0.086268 -0.044285
v -0.158791 -0.119034 -0.058043
v -0.102599 -0.055214 -0.093527
v -0.111223 -0.071989 -0.090799
v -0.124149 -0.130606 -0.097526
v -0.144633 -0.105517 -0.070003
v -0.142539 -0.123237 -0.079406
v -0.157540 -0.136957 -0.068090
v -0.141965 -0.141742 -0.087399
v -0.125905 0.079241 -0.099300
v -0.136265 0.060423 -0.089303
v -0.096178 0.067487 -0.110062
v -0.145676 0.045553 -0.077574
v -0.102545 0.080989 -0.109978
v -0.101556 0.050358 -0.105570
v -0.124715 0.042015 -0.092890
v -0.106326 0.032047 -0.099833
v -0.086183 0.038085 -0.107771
v -0.157617 -0.022647 -0.029600
v -0.152632 -0.035885 -0.039016
v -0.161552 -0.033884 -0.012276
v -0.037669 0.110549 -0.118968
v -0.086653 -0.146979 -0.121547
v -0.159463 -0.057276 -0.023869
v -0.157716 -0.041604 -0.026171
v -0.124208 -0.152077 -0.104713
v -0.105755 -0.142587 -0.112010
v -0.170147 0.083215 0.033702
v 0.163536 0.079970 0.065829
v 0.172073 0.087769 0.034980
v 0.155570 0.106551 0.079848
v 0.039623 0.055266 0.153642
v 0.114606 0.081101 0.140957
v 0.089254 0.209513 -0.102574
v 0.158466 0.089322 -0.074563
v 0.177110 0.070910 -0.003413
v 0.178796 0.079408 0.003525
v 0.147576 0.102784 -0.086143
v 0.173276 0.055852 -0.007838
v -0.101166 0.253008 -0.073738
v -0.171623 0.065696 -0.051882
v -0.164458 0.034243 -0.042707
v -0.167943 0.078685 -0.064028
v -0.179604 0.064789 -0.026377
v -0.184085 0.074955 -0.022210
v -0.179983 0.075224 0.002733
v -0.162329 0.074673 -0.068607
v -0.116329 0.062868 -0.101547
v -0.135513 0.269894 -0.000928
v -0.114387 -0.015064 0.115942
v -0.096305 -0.090009 0.145224
v -0.146875 -0.109983 0.102251
v 0.064932 0.181690 -0.111254
v 0.115015 0.113789 -0.106642
v -0.008887 0.153919 -0.114801
v 0.141727 0.003476 -0.057346
v 0.042523 0.152350 -0.115407
v 0.173748 -0.105459 -0.011649
v 0.165045 -0.053534 0.016325
v 0.125048 -0.112352 -0.086340
v 0.114642 -0.136617 -0.100857
v 0.085510 -0.145396 -0.117579
v -0.113520 0.094574 -0.107279
v -0.029784 0.146769 -0.116424
v -0.141050 -0.041572 0.087602
v -0.147704 0.015952 0.079433
v -0.141524 -0.062242 0.094077
v -0.104602 -0.099062 0.141113
v -0.132987 0.048791 0.128799
v 0.039877 0.123730 -0.117678
v 0.025911 0.168915 -0.112595
v 0.055935 -0.084113 -0.111620
v 0.065525 -0.101688 -0.112751
v -0.179374 0.067121 -0.008620
v -0.171412 0.050627 0.018791
v -0.060833 0.075785 -0.116619
# 962 vertices, 0 vertices normals

f 50 48 69
f 229 40 226
f 30 31 32
f 225 227 51
f 24 47 83
f 42 43 88
f 227 64 51
f 36 53 935
f 5 102 4
f 30 32 50
f 80 2 961
f 80 79 2
f 102 128 4
f 45 72 44
f 90 93 92
f 76 40 41
f 54 53 37
f 935 49 35
f 50 69 52
f 33 48 32
f 28 29 52
f 224 56 228
f 24 25 47
f 40 76 226
f 106 73 81
f 53 54 55
f 55 54 56
f 54 38 56
f 225 27 223
f 52 224 223
f 56 38 39
f 35 49 34
f 53 55 69
f 23 24 82
f 83 307 82
f 51 26 27
f 28 223 27
f 49 48 33
f 48 50 32
f 935 35 36
f 53 36 37
f 30 50 29
f 54 37 38
f 49 33 34
f 52 223 28
f 228 226 227
f 15 16 101
f 52 69 55
f 48 49 935
f 53 69 935
f 307 60 22
f 20 113 19
f 50 52 29
f 124 101 122
f 94 333 115
f 101 151 14
f 73 80 81
f 67 62 64
f 75 21 22
f 66 107 46
f 89 41 42
f 67 63 62
f 64 62 26
f 64 68 67
f 63 47 62
f 62 25 26
f 47 46 83
f 51 64 26
f 63 66 46
f 65 77 132
f 68 64 227
f 68 65 67
f 226 68 227
f 63 67 132
f 229 56 39
f 115 116 138
f 126 176 196
f 154 106 129
f 92 61 90
f 79 104 72
f 21 20 344
f 114 85 112
f 87 44 214
f 76 41 89
f 65 89 77
f 76 89 65
f 89 88 77
f 110 77 90
f 157 118 143
f 7 8 99
f 126 196 952
f 186 231 185
f 122 16 17
f 125 151 101
f 136 135 130
f 151 125 161
f 59 104 106
f 214 44 72
f 1 2 914
f 79 73 104
f 214 215 200
f 93 88 87
f 81 80 105
f 79 80 73
f 128 81 105
f 83 82 24
f 63 46 47
f 60 83 46
f 110 132 77
f 183 155 134
f 19 133 18
f 60 75 22
f 86 21 75
f 75 108 112
f 113 86 85
f 87 88 43
f 44 87 43
f 77 88 90
f 89 42 88
f 92 93 91
f 214 72 215
f 135 137 130
f 88 93 90
f 214 93 87
f 116 362 11
f 118 11 12
f 139 117 138
f 232 97 6
f 232 6 96
f 7 96 6
f 97 146 127
f 126 102 103
f 6 97 119
f 99 8 78
f 78 8 98
f 78 121 99
f 99 96 7
f 100 9 785
f 98 8 9
f 9 100 98
f 101 16 122
f 123 17 18
f 125 124 71
f 156 144 151
f 103 102 5
f 204 180 211
f 72 45 79
f 106 104 73
f 215 104 59
f 80 3 105
f 129 81 128
f 106 81 129
f 132 111 66
f 107 84 108
f 46 107 60
f 74 108 84
f 75 112 86
f 60 108 75
f 107 108 60
f 84 109 74
f 84 107 66
f 137 61 92
f 109 84 111
f 132 66 63
f 111 110 61
f 108 74 112
f 114 112 74
f 61 110 90
f 86 113 20
f 155 113 85
f 155 133 113
f 147 148 123
f 85 86 112
f 116 115 362
f 94 115 138
f 118 116 11
f 140 142 164
f 139 138 116
f 139 141 117
f 143 12 13
f 13 14 144
f 156 145 157
f 120 97 127
f 97 120 119
f 5 120 103
f 146 97 232
f 121 185 99
f 98 184 78
f 219 78 184
f 184 207 219
f 222 57 954
f 78 219 121
f 186 185 938
f 123 122 17
f 133 123 18
f 147 123 133
f 148 124 122
f 158 149 71
f 101 14 15
f 144 14 151
f 160 125 71
f 125 160 161
f 127 126 103
f 127 152 126
f 102 126 952
f 127 103 120
f 173 176 152
f 4 128 105
f 128 952 129
f 196 153 180
f 137 92 131
f 200 216 203
f 92 91 131
f 111 61 109
f 111 132 110
f 113 133 19
f 85 114 134
f 136 183 134
f 135 134 114
f 134 135 136
f 130 137 131
f 197 130 131
f 183 136 212
f 109 137 135
f 137 109 61
f 74 109 135
f 230 138 117
f 118 139 116
f 140 139 118
f 140 157 142
f 164 162 163
f 165 166 141
f 140 141 139
f 164 142 162
f 144 143 13
f 161 179 145
f 118 157 140
f 147 133 155
f 148 147 158
f 122 123 148
f 101 124 125
f 212 159 183
f 130 213 136
f 150 178 179
f 126 152 176
f 149 191 189
f 128 102 952
f 182 952 196
f 191 192 205
f 206 201 154
f 134 155 85
f 147 155 183
f 181 199 197
f 212 192 159
f 143 144 156
f 156 157 143
f 142 157 145
f 158 71 124
f 189 71 149
f 148 158 124
f 183 159 158
f 149 158 159
f 189 160 71
f 161 160 150
f 179 161 150
f 151 161 156
f 160 189 150
f 162 195 163
f 145 162 142
f 209 222 172
f 166 167 70
f 141 164 165
f 166 165 167
f 230 117 70
f 166 117 141
f 169 70 171
f 171 70 167
f 167 168 171
f 221 219 207
f 175 174 188
f 233 70 169
f 165 170 937
f 188 163 195
f 57 222 220
f 222 954 172
f 187 172 170
f 937 170 172
f 165 164 170
f 164 163 170
f 954 937 172
f 165 937 167
f 951 210 173
f 176 936 153
f 951 173 152
f 146 951 127
f 175 195 177
f 174 187 188
f 936 173 175
f 174 175 173
f 177 936 175
f 153 936 58
f 196 176 153
f 58 936 177
f 179 177 195
f 177 179 178
f 193 194 58
f 197 131 198
f 154 129 182
f 955 203 201
f 198 200 203
f 106 154 59
f 59 154 201
f 147 183 158
f 161 145 156
f 162 145 179
f 210 209 187
f 210 187 174
f 938 185 121
f 222 186 220
f 209 186 222
f 188 187 170
f 163 188 170
f 175 188 195
f 193 189 191
f 192 191 149
f 206 180 204
f 149 159 192
f 191 190 193
f 136 213 212
f 205 192 217
f 193 190 194
f 190 202 204
f 58 178 193
f 150 193 178
f 204 194 190
f 58 194 211
f 179 195 162
f 182 196 180
f 198 131 91
f 181 217 199
f 198 91 200
f 181 197 198
f 197 199 213
f 200 91 214
f 200 215 216
f 202 955 206
f 59 201 216
f 206 204 202
f 203 181 198
f 205 202 190
f 955 202 217
f 216 201 203
f 181 203 955
f 204 211 194
f 191 205 190
f 217 192 199
f 154 182 206
f 121 219 938
f 208 57 218
f 57 208 168
f 187 209 172
f 173 210 174
f 209 231 186
f 193 150 189
f 180 153 211
f 58 211 153
f 199 192 212
f 197 213 130
f 212 213 199
f 93 214 91
f 104 215 72
f 215 59 216
f 955 217 181
f 205 217 202
f 221 218 220
f 220 938 221
f 220 218 57
f 938 220 186
f 225 51 27
f 55 224 52
f 56 224 55
f 223 224 225
f 68 226 76
f 228 227 225
f 224 228 225
f 229 228 56
f 40 229 39
f 228 229 226
f 233 230 70
f 138 230 94
f 96 185 231
f 232 231 953
f 185 96 99
f 459 270 279
f 273 253 252
f 301 245 244
f 10 331 333
f 11 362 330
f 272 268 279
f 275 266 249
f 17 16 336
f 271 280 272
f 456 299 300
f 268 282 285
f 312 354 355
f 248 270 275
f 243 23 264
f 308 306 307
f 273 269 294
f 23 82 264
f 284 258 283
f 243 264 291
f 246 272 247
f 269 251 266
f 273 251 269
f 249 266 250
f 248 275 249
f 275 294 269
f 288 265 289
f 279 270 247
f 459 458 274
f 294 275 270
f 273 294 274
f 281 282 280
f 262 318 263
f 272 246 271
f 295 346 361
f 315 317 314
f 320 318 915
f 287 259 284
f 271 246 245
f 273 274 254
f 256 458 285
f 273 254 253
f 252 251 273
f 274 255 254
f 285 282 257
f 450 417 383
f 275 269 266
f 314 236 235
f 458 255 274
f 301 302 288
f 237 367 359
f 367 381 309
f 248 247 270
f 346 326 328
f 356 313 354
f 298 261 260
f 21 323 22
f 459 279 268
f 294 270 459
f 268 285 459
f 280 267 281
f 268 280 282
f 272 280 268
f 267 280 271
f 289 286 281
f 284 259 258
f 281 267 289
f 283 282 281
f 257 282 283
f 283 281 284
f 257 283 258
f 286 284 281
f 284 286 287
f 256 285 257
f 286 289 265
f 260 259 287
f 305 338 304
f 287 286 293
f 302 301 244
f 265 293 286
f 292 321 290
f 343 339 341
f 301 267 271
f 289 267 288
f 291 244 243
f 306 291 264
f 288 304 265
f 82 307 264
f 308 307 22
f 278 303 306
f 451 297 452
f 338 293 265
f 299 293 292
f 274 294 459
f 240 328 241
f 335 314 317
f 431 383 449
f 313 13 12
f 431 428 429
f 292 300 299
f 318 262 917
f 299 287 293
f 300 292 290
f 287 299 298
f 300 290 391
f 300 391 453
f 86 20 21
f 19 345 20
f 267 301 288
f 245 301 271
f 302 244 291
f 303 302 291
f 288 302 304
f 306 303 291
f 304 303 305
f 302 303 304
f 305 303 278
f 339 321 305
f 305 321 338
f 306 308 278
f 339 305 278
f 264 307 306
f 323 308 22
f 324 308 323
f 349 295 373
f 349 326 346
f 329 328 350
f 115 377 362
f 369 309 381
f 384 312 355
f 337 311 336
f 314 316 315
f 316 915 315
f 310 382 429
f 334 335 310
f 316 314 235
f 235 534 316
f 320 316 534
f 319 917 262
f 915 318 297
f 453 456 300
f 318 917 297
f 434 915 297
f 320 915 316
f 534 234 916
f 320 534 916
f 261 319 262
f 318 320 263
f 287 298 260
f 298 456 319
f 261 298 319
f 292 338 321
f 290 321 343
f 343 340 390
f 323 21 344
f 345 353 385
f 341 339 324
f 242 325 348
f 241 326 325
f 348 325 326
f 350 240 239
f 352 239 238
f 346 328 329
f 328 326 241
f 350 328 240
f 329 350 360
f 377 363 362
f 461 330 462
f 332 333 331
f 460 378 332
f 333 332 377
f 334 310 381
f 335 334 236
f 336 311 918
f 337 16 15
f 340 387 389
f 14 13 356
f 337 15 312
f 312 15 356
f 15 14 356
f 313 12 461
f 293 338 292
f 304 338 265
f 324 339 278
f 341 342 386
f 342 344 345
f 342 341 324
f 343 341 340
f 323 342 324
f 342 345 386
f 340 389 390
f 339 343 321
f 391 290 390
f 454 453 322
f 345 344 20
f 323 344 342
f 353 19 18
f 386 345 385
f 346 295 349
f 347 348 349
f 373 375 358
f 327 348 347
f 242 348 327
f 349 348 326
f 349 373 358
f 352 350 239
f 238 359 352
f 359 309 351
f 237 359 238
f 352 360 350
f 360 352 351
f 380 364 365
f 363 364 366
f 381 368 334
f 310 369 381
f 314 335 236
f 382 335 317
f 394 337 384
f 336 16 337
f 371 918 311
f 345 19 353
f 336 918 18
f 353 18 918
f 390 290 343
f 356 354 312
f 393 384 355
f 313 356 13
f 366 416 462
f 346 329 361
f 349 358 347
f 309 359 367
f 352 359 351
f 425 380 423
f 402 360 351
f 361 329 404
f 295 357 373
f 360 404 329
f 460 332 331
f 363 332 378
f 362 366 330
f 366 362 363
f 363 378 364
f 366 364 416
f 364 378 365
f 407 457 414
f 416 364 380
f 368 367 237
f 367 368 381
f 370 311 394
f 394 311 337
f 372 370 394
f 311 370 371
f 418 388 389
f 416 296 444
f 373 357 374
f 424 295 361
f 423 379 400
f 376 374 399
f 374 375 373
f 375 374 376
f 422 376 399
f 309 401 351
f 403 402 406
f 407 405 457
f 333 377 115
f 377 332 363
f 398 378 460
f 369 310 429
f 383 382 317
f 335 382 310
f 317 450 383
f 454 455 277
f 426 428 276
f 312 384 337
f 918 385 353
f 387 386 385
f 386 387 340
f 420 418 419
f 437 438 436
f 418 387 385
f 919 322 391
f 341 386 340
f 919 391 390
f 389 388 919
f 388 437 439
f 435 417 277
f 446 443 445
f 395 393 421
f 395 394 384
f 432 276 428
f 396 379 398
f 398 397 396
f 398 379 423
f 398 365 378
f 399 374 433
f 433 374 357
f 400 399 433
f 400 379 422
f 309 369 401
f 402 351 401
f 404 402 403
f 402 401 408
f 403 406 411
f 407 403 411
f 404 403 415
f 402 404 360
f 421 426 276
f 421 413 426
f 411 405 407
f 296 380 425
f 406 402 408
f 427 408 401
f 412 406 408
f 405 411 409
f 410 412 413
f 393 355 446
f 409 411 410
f 411 406 410
f 413 412 426
f 457 433 414
f 403 407 415
f 414 415 407
f 380 296 416
f 409 296 425
f 423 380 365
f 434 450 315
f 427 401 369
f 419 385 918
f 420 419 371
f 385 419 418
f 394 395 372
f 393 395 384
f 379 396 422
f 400 422 399
f 398 423 365
f 424 357 295
f 415 424 361
f 404 415 361
f 457 425 423
f 425 457 405
f 426 427 428
f 408 427 412
f 429 427 369
f 382 431 429
f 432 428 431
f 427 429 428
f 417 435 449
f 383 431 382
f 430 432 431
f 388 418 437
f 440 432 430
f 432 440 276
f 400 433 457
f 357 414 433
f 434 297 451
f 449 430 431
f 387 418 389
f 370 420 371
f 418 420 437
f 438 437 420
f 430 442 436
f 438 420 370
f 437 436 439
f 370 372 438
f 395 421 276
f 439 436 442
f 388 439 919
f 441 438 372
f 395 441 372
f 442 435 392
f 440 441 276
f 395 276 441
f 400 457 423
f 405 409 425
f 409 448 296
f 448 444 296
f 444 445 443
f 354 447 355
f 445 444 448
f 444 443 462
f 421 393 446
f 446 355 447
f 446 445 413
f 447 354 313
f 446 447 443
f 410 448 409
f 417 449 383
f 442 449 435
f 430 449 442
f 315 450 317
f 277 450 434
f 452 297 917
f 455 454 322
f 456 453 452
f 452 453 454
f 322 453 391
f 456 452 319
f 277 451 454
f 454 451 452
f 455 392 435
f 299 456 298
f 450 277 417
f 451 277 434
f 455 435 277
f 448 410 445
f 413 445 410
f 446 413 421
f 255 458 256
f 285 458 459
f 324 278 308
f 460 397 398
f 462 447 461
f 330 366 462
f 461 447 313
f 443 447 462
f 11 330 12
f 462 416 444
f 561 492 530
f 527 477 478
f 529 527 521
f 529 476 477
f 494 516 924
f 251 252 502
f 940 516 524
f 527 498 920
f 939 560 492
f 525 519 508
f 536 511 517
f 505 482 483
f 532 533 577
f 497 496 509
f 560 920 513
f 501 251 502
f 475 535 474
f 492 561 939
f 495 519 518
f 513 920 517
f 493 489 490
f 604 240 241
f 564 235 236
f 237 585 368
f 566 547 597
f 240 604 605
f 575 556 471
f 924 486 487
f 505 511 504
f 484 485 500
f 568 545 569
f 505 504 482
f 580 584 581
f 567 235 564
f 490 923 922
f 543 573 491
f 503 501 496
f 484 500 512
f 481 482 504
f 497 504 511
f 924 516 499
f 487 488 921
f 488 489 507
f 498 506 536
f 499 940 525
f 520 522 555
f 523 519 525
f 583 643 582
f 507 515 921
f 513 514 495
f 503 506 479
f 516 940 499
f 500 508 519
f 496 502 509
f 495 500 519
f 504 509 481
f 505 514 511
f 517 514 513
f 502 480 509
f 494 924 921
f 518 492 560
f 518 513 495
f 476 529 475
f 530 518 519
f 521 939 559
f 500 485 508
f 479 506 478
f 496 501 502
f 514 505 512
f 518 560 513
f 537 515 507
f 252 480 502
f 495 514 512
f 501 510 266
f 266 510 250
f 921 515 494
f 503 510 501
f 486 508 485
f 501 266 251
f 479 250 510
f 526 516 494
f 610 467 468
f 509 504 497
f 479 510 503
f 600 601 584
f 499 508 486
f 530 492 518
f 480 481 509
f 483 484 512
f 550 574 472
f 470 556 558
f 536 503 496
f 536 497 511
f 558 556 557
f 499 486 924
f 500 495 512
f 514 517 511
f 536 517 498
f 920 498 517
f 530 519 523
f 532 523 531
f 516 526 524
f 523 940 531
f 520 554 522
f 531 940 524
f 499 525 508
f 515 541 494
f 524 526 522
f 529 521 559
f 559 475 529
f 506 498 478
f 528 531 554
f 527 529 477
f 532 530 523
f 561 530 577
f 532 531 528
f 522 554 524
f 533 532 528
f 532 577 530
f 551 553 549
f 528 551 549
f 533 956 577
f 239 240 605
f 648 667 958
f 491 571 543
f 538 544 542
f 475 559 535
f 473 474 535
f 497 536 496
f 493 537 489
f 538 537 493
f 923 596 922
f 526 539 522
f 543 571 540
f 494 541 539
f 538 542 537
f 540 541 515
f 572 541 540
f 540 542 543
f 546 573 543
f 546 542 544
f 542 546 543
f 538 925 545
f 538 545 544
f 569 545 925
f 568 564 587
f 547 546 544
f 597 545 568
f 547 566 942
f 547 573 546
f 553 551 552
f 533 528 549
f 550 956 548
f 548 956 533
f 549 548 533
f 472 788 576
f 551 554 520
f 552 551 520
f 553 552 557
f 549 553 548
f 556 575 553
f 574 575 471
f 528 554 551
f 554 531 524
f 642 643 644
f 558 584 601
f 556 553 557
f 471 556 470
f 581 582 643
f 552 582 581
f 601 470 558
f 920 560 521
f 561 577 943
f 603 464 465
f 468 688 610
f 638 648 958
f 614 647 641
f 656 602 657
f 587 236 334
f 588 334 368
f 589 587 588
f 597 547 544
f 566 565 590
f 590 565 595
f 567 569 925
f 235 567 596
f 587 564 236
f 587 589 568
f 565 566 597
f 569 564 568
f 564 569 567
f 596 925 922
f 598 571 491
f 541 572 539
f 583 555 618
f 540 571 572
f 598 572 571
f 576 550 472
f 574 550 575
f 550 548 575
f 553 575 548
f 570 576 788
f 550 576 956
f 570 578 576
f 956 578 577
f 579 943 957
f 535 559 579
f 581 558 557
f 555 583 582
f 520 555 582
f 552 581 557
f 594 618 491
f 594 491 612
f 520 582 552
f 621 600 584
f 598 618 555
f 558 581 584
f 629 630 633
f 237 238 634
f 568 589 565
f 688 468 469
f 646 654 610
f 588 587 334
f 368 585 588
f 589 585 565
f 590 592 639
f 592 651 631
f 612 491 573
f 651 590 595
f 613 612 942
f 612 593 594
f 573 547 942
f 612 613 593
f 642 580 643
f 644 618 594
f 640 594 593
f 636 585 634
f 235 596 534
f 925 596 567
f 545 597 544
f 565 597 568
f 957 570 473
f 539 598 522
f 572 598 539
f 579 939 561
f 559 939 579
f 599 621 616
f 621 584 580
f 600 621 620
f 466 586 608
f 657 602 603
f 622 241 325
f 623 325 242
f 944 563 632
f 622 604 241
f 632 604 944
f 623 624 622
f 653 608 586
f 609 611 607
f 464 603 463
f 654 611 609
f 654 609 610
f 467 610 609
f 654 648 638
f 586 466 607
f 465 466 608
f 565 585 636
f 588 585 589
f 595 565 636
f 942 612 573
f 639 566 590
f 942 639 613
f 661 613 639
f 593 613 591
f 614 593 591
f 593 614 641
f 661 591 613
f 593 641 640
f 594 640 644
f 643 580 581
f 642 644 640
f 641 647 617
f 642 616 580
f 616 615 689
f 616 689 599
f 617 689 615
f 615 640 641
f 689 617 646
f 491 618 598
f 621 580 616
f 620 621 599
f 602 463 603
f 465 608 603
f 608 653 637
f 623 622 325
f 606 623 242
f 623 606 624
f 606 625 624
f 650 660 626
f 626 660 944
f 624 625 626
f 944 660 563
f 622 944 604
f 626 944 624
f 622 624 944
f 627 563 628
f 605 632 633
f 632 605 604
f 627 619 629
f 632 563 627
f 628 690 619
f 627 628 619
f 636 635 595
f 635 630 629
f 627 629 633
f 619 631 629
f 945 630 634
f 605 633 945
f 652 661 592
f 633 632 627
f 945 633 630
f 238 945 634
f 634 635 636
f 237 634 585
f 605 945 239
f 630 635 634
f 958 667 685
f 603 608 637
f 656 657 683
f 657 603 637
f 607 611 586
f 611 638 586
f 661 639 592
f 566 639 942
f 661 664 591
f 680 690 678
f 615 641 617
f 640 615 642
f 616 642 615
f 644 643 583
f 618 644 583
f 646 645 654
f 645 646 617
f 648 649 667
f 648 645 649
f 647 649 645
f 681 666 670
f 650 626 658
f 650 666 660
f 635 651 595
f 631 651 629
f 629 651 635
f 591 664 662
f 638 653 586
f 648 654 645
f 663 667 649
f 685 667 668
f 684 948 562
f 625 658 626
f 666 659 669
f 658 659 650
f 660 681 563
f 681 660 666
f 664 661 652
f 651 592 590
f 652 592 631
f 690 675 676
f 614 662 647
f 662 664 665
f 663 665 655
f 662 665 649
f 678 665 664
f 683 657 637
f 668 663 655
f 659 666 650
f 670 666 669
f 664 652 678
f 684 683 682
f 668 667 663
f 671 668 655
f 685 668 677
f 670 675 681
f 946 671 676
f 671 655 676
f 671 946 673
f 686 947 672
f 679 677 673
f 946 672 673
f 672 670 686
f 684 562 683
f 674 673 947
f 679 673 674
f 690 628 675
f 676 675 946
f 678 676 655
f 668 671 677
f 673 677 671
f 678 655 665
f 682 959 684
f 679 684 959
f 652 680 678
f 681 628 563
f 628 681 675
f 682 683 637
f 683 562 656
f 674 687 948
f 685 959 958
f 679 685 677
f 670 669 686
f 947 687 674
f 679 674 684
f 620 599 688
f 599 689 688
f 610 688 646
f 689 646 688
f 678 690 676
f 619 690 680
f 474 767 691
f 702 701 724
f 767 474 473
f 735 769 717
f 933 725 711
f 702 724 717
f 720 705 704
f 723 725 703
f 763 732 928
f 806 466 465
f 708 736 712
f 607 466 808
f 467 775 468
f 722 710 692
f 857 707 851
f 694 693 729
f 709 718 33
f 725 704 703
f 713 696 718
f 601 600 774
f 715 926 695
f 747 774 793
f 34 718 696
f 464 463 809
f 693 692 710
f 713 706 754
f 722 691 767
f 950 941 788
f 719 709 32
f 694 729 715
f 718 706 713
f 719 695 926
f 32 709 33
f 718 34 33
f 712 724 701
f 471 750 574
f 720 927 705
f 729 693 710
f 722 692 691
f 709 719 926
f 712 700 728
f 728 714 755
f 933 734 927
f 704 725 929
f 705 930 931
f 753 754 706
f 469 812 794
f 1 716 961
f 1 932 716
f 710 722 721
f 702 717 723
f 713 697 696
f 713 754 697
f 718 709 706
f 754 698 697
f 757 716 960
f 736 724 712
f 695 719 31
f 701 700 712
f 798 817 750
f 728 700 699
f 754 714 698
f 32 31 719
f 804 786 803
f 769 742 949
f 473 570 941
f 715 695 694
f 784 5 4
f 727 763 766
f 786 804 849
f 776 800 818
f 698 714 699
f 120 5 776
f 802 805 823
f 756 781 755
f 926 706 709
f 601 796 470
f 714 754 753
f 778 729 751
f 714 728 699
f 728 755 708
f 710 721 729
f 781 737 736
f 757 730 716
f 757 732 730
f 760 3 961
f 732 757 758
f 730 731 760
f 928 761 763
f 760 731 759
f 105 3 760
f 733 473 941
f 734 933 711
f 896 897 711
f 927 734 765
f 736 737 739
f 735 717 724
f 742 739 741
f 781 736 708
f 736 739 735
f 740 737 782
f 950 773 743
f 738 743 773
f 739 737 740
f 791 741 738
f 740 782 777
f 738 739 740
f 773 908 791
f 792 744 741
f 738 741 739
f 741 744 742
f 744 949 742
f 735 742 769
f 738 740 743
f 739 742 735
f 949 744 900
f 949 745 769
f 472 772 788
f 793 600 620
f 774 814 796
f 775 812 468
f 759 764 784
f 470 796 798
f 792 741 791
f 728 708 712
f 781 708 755
f 721 768 777
f 781 756 782
f 714 753 755
f 778 779 729
f 755 753 752
f 753 706 780
f 755 752 756
f 778 756 752
f 782 751 777
f 758 757 930
f 758 930 927
f 762 727 764
f 4 760 759
f 763 727 762
f 731 732 762
f 763 762 732
f 783 727 766
f 731 762 759
f 763 761 766
f 749 799 764
f 759 762 764
f 758 765 928
f 765 820 928
f 927 765 758
f 899 820 765
f 820 821 819
f 899 765 734
f 821 820 899
f 801 766 761
f 767 733 768
f 767 473 733
f 736 735 724
f 740 777 743
f 722 768 721
f 743 768 733
f 767 768 722
f 723 717 745
f 785 802 770
f 818 119 120
f 807 824 806
f 841 746 870
f 789 472 574
f 773 772 908
f 733 950 743
f 772 773 950
f 792 791 817
f 774 600 793
f 774 747 814
f 794 620 469
f 795 814 747
f 470 798 471
f 794 812 748
f 776 5 784
f 799 800 776
f 798 750 471
f 721 777 751
f 768 743 777
f 756 751 782
f 779 778 752
f 753 780 752
f 779 715 729
f 706 926 780
f 752 780 779
f 782 737 781
f 778 751 756
f 760 4 105
f 784 4 759
f 764 783 749
f 862 834 861
f 784 764 799
f 834 857 858
f 802 9 8
f 803 8 7
f 802 785 9
f 823 770 802
f 835 785 770
f 803 805 802
f 807 465 464
f 825 808 824
f 841 842 826
f 846 775 840
f 827 843 810
f 950 788 772
f 750 789 574
f 817 908 750
f 472 789 772
f 772 789 908
f 908 789 750
f 798 796 816
f 773 791 738
f 908 817 791
f 744 792 790
f 744 790 900
f 794 793 620
f 469 468 812
f 813 794 748
f 795 747 813
f 774 796 601
f 797 795 830
f 790 792 962
f 814 816 796
f 800 799 749
f 784 799 776
f 119 831 6
f 779 780 715
f 783 764 727
f 905 749 783
f 862 783 766
f 819 801 761
f 801 857 834
f 809 463 811
f 803 802 8
f 804 803 7
f 7 6 804
f 786 822 805
f 823 805 838
f 786 805 803
f 807 806 465
f 808 806 824
f 809 807 464
f 810 824 807
f 607 839 609
f 839 808 826
f 810 809 787
f 787 827 810
f 807 809 810
f 787 809 811
f 748 812 848
f 813 748 854
f 793 794 813
f 813 747 793
f 795 797 814
f 816 814 797
f 830 815 797
f 817 816 962
f 962 816 797
f 798 816 817
f 776 818 120
f 831 818 800
f 907 749 905
f 819 761 820
f 819 707 857
f 928 820 761
f 902 899 897
f 819 821 707
f 934 901 902
f 801 819 857
f 857 833 858
f 905 862 861
f 786 849 822
f 805 822 838
f 823 837 836
f 810 843 824
f 826 840 839
f 808 825 826
f 841 826 825
f 840 826 842
f 839 840 467
f 726 845 846
f 467 609 839
f 775 467 840
f 828 843 844
f 843 827 844
f 812 775 829
f 829 845 848
f 848 812 829
f 865 748 848
f 790 815 898
f 818 831 119
f 907 800 749
f 860 861 834
f 876 822 910
f 831 804 6
f 804 831 849
f 795 853 830
f 857 851 833
f 801 862 766
f 836 835 770
f 823 836 770
f 823 838 837
f 808 839 607
f 846 840 842
f 841 828 746
f 787 771 827
f 864 828 844
f 842 841 869
f 841 825 828
f 828 825 843
f 842 869 847
f 746 883 877
f 824 843 825
f 827 863 844
f 864 863 868
f 863 909 868
f 846 845 829
f 775 846 829
f 847 846 842
f 847 726 846
f 869 870 889
f 726 847 866
f 850 831 800
f 822 849 910
f 910 849 850
f 831 850 849
f 707 902 903
f 851 832 852
f 854 865 832
f 865 855 852
f 854 853 795
f 904 853 832
f 813 854 795
f 748 865 854
f 845 855 848
f 854 832 853
f 852 832 865
f 845 726 855
f 855 856 852
f 856 855 726
f 856 726 866
f 833 852 856
f 858 833 856
f 834 858 860
f 859 858 856
f 881 874 859
f 858 859 860
f 859 874 860
f 873 861 860
f 862 801 834
f 771 863 827
f 746 828 864
f 863 864 844
f 864 868 883
f 855 865 848
f 875 881 882
f 883 746 864
f 837 888 880
f 866 859 856
f 889 859 866
f 866 847 869
f 866 869 889
f 841 870 869
f 850 800 907
f 882 881 890
f 838 887 886
f 893 894 888
f 746 877 870
f 882 867 875
f 873 860 874
f 906 873 871
f 873 874 875
f 873 875 871
f 885 867 879
f 890 877 878
f 878 877 883
f 884 872 883
f 879 878 872
f 879 882 878
f 877 890 870
f 879 872 892
f 867 885 876
f 894 880 888
f 875 874 881
f 889 881 859
f 890 889 870
f 882 890 878
f 867 882 879
f 884 883 868
f 868 909 913
f 883 872 878
f 891 872 884
f 895 894 893
f 888 837 886
f 879 892 885
f 876 885 887
f 886 885 892
f 876 887 822
f 888 886 892
f 838 886 837
f 886 887 885
f 888 892 893
f 887 838 822
f 889 890 881
f 892 872 893
f 891 893 872
f 893 891 895
f 891 912 895
f 884 868 913
f 934 896 900
f 711 897 734
f 896 949 900
f 934 897 896
f 902 821 899
f 898 815 901
f 934 900 898
f 897 899 734
f 898 900 790
f 815 904 901
f 903 832 851
f 903 902 901
f 821 902 707
f 897 934 902
f 815 830 904
f 830 853 904
f 903 851 707
f 904 903 901
f 903 904 832
f 723 711 725
f 769 745 717
f 906 861 873
f 911 850 907
f 871 876 910
f 861 906 905
f 906 911 905
f 910 911 871
f 862 905 783
f 863 771 909
f 836 837 880
f 911 910 850
f 911 907 905
f 871 911 906
f 891 884 913
f 913 912 891
f 914 79 45
f 279 247 272
f 455 919 392
f 320 916 263
f 918 371 419
f 915 434 315
f 392 439 442
f 919 439 392
f 452 917 319
f 919 455 322
f 507 921 488
f 493 490 922
f 527 920 521
f 234 534 923
f 596 923 534
f 506 503 536
f 924 487 921
f 489 537 507
f 922 925 493
f 925 538 493
f 542 540 515
f 680 652 631
f 680 631 619
f 780 926 715
f 929 927 720
f 929 725 933
f 927 930 705
f 720 704 929
f 932 931 960
f 745 896 711
f 723 745 711
f 928 732 758
f 933 927 929
f 901 934 898
f 94 95 10
f 48 935 69
f 65 132 67
f 76 65 68
f 60 307 83
f 230 233 95
f 118 12 143
f 66 111 84
f 114 74 135
f 94 10 333
f 173 936 176
f 230 95 94
f 937 954 167
f 58 177 178
f 182 180 206
f 938 219 221
f 96 231 232
f 412 427 426
f 505 483 512
f 525 940 523
f 498 527 478
f 941 570 788
f 494 539 526
f 560 939 521
f 943 577 578
f 570 957 578
f 561 943 579
f 535 579 957
f 654 638 611
f 662 614 591
f 945 238 239
f 645 617 647
f 647 662 649
f 672 946 670
f 946 675 670
f 947 673 672
f 948 684 674
f 653 682 637
f 716 730 961
f 702 723 703
f 730 732 731
f 745 949 896
f 941 950 733
f 962 815 790
f 833 851 852
f 871 875 867
f 871 867 876
f 2 79 914
f 47 25 62
f 141 140 164
f 952 182 129
f 951 953 210
f 117 166 70
f 954 57 168
f 951 152 127
f 955 201 206
f 210 953 209
f 231 209 953
f 146 953 951
f 953 146 232
f 336 18 17
f 389 919 390
f 406 412 410
f 414 357 424
f 414 424 415
f 436 438 441
f 436 441 440
f 436 440 430
f 330 461 12
f 473 535 957
f 578 956 576
f 578 957 943
f 522 598 555
f 638 958 653
f 665 663 649
f 679 959 685
f 682 653 959
f 959 653 958
f 620 688 469
f 808 466 806
f 757 960 930
f 721 751 729
f 80 961 3
f 760 961 730
f 797 815 962
f 817 962 792
f 542 515 537
f 932 960 716
f 930 960 931
f 954 168 167
f 1 961 2
# 1799 faces, 0 coords texture

# End of File
