####
#
# OBJ File Generated by Meshlab
#
####
# Object skirt.obj
#
# Vertices: 1290
# Faces: 2440
#
####
v -0.200705 -0.211808 0.026310
v -0.203816 -0.230306 0.026343
v -0.207919 -0.248098 0.023536
v -0.210749 -0.268432 0.025014
v -0.218603 -0.307865 0.024153
v -0.227200 -0.344922 0.026021
v -0.231338 -0.363635 0.024217
v -0.242852 -0.410371 0.034360
v -0.250816 -0.442715 0.025808
v -0.255748 -0.462795 0.030095
v -0.264109 -0.501766 0.036203
v -0.265948 -0.520206 0.040322
v -0.267188 -0.536067 0.045889
v -0.268116 -0.538422 0.045290
v -0.267847 -0.540486 0.044229
v -0.266845 -0.543934 0.064646
v -0.260528 -0.542828 0.083100
v -0.253711 -0.542040 0.100286
v -0.245288 -0.541240 0.116688
v -0.236421 -0.540757 0.132854
v -0.225981 -0.540204 0.147955
v -0.214222 -0.539813 0.162081
v -0.202049 -0.539789 0.175934
v -0.188569 -0.539638 0.188715
v -0.174347 -0.539719 0.200761
v -0.159605 -0.540069 0.212362
v -0.143793 -0.540437 0.222721
v -0.127242 -0.540888 0.232183
v -0.110211 -0.541409 0.240925
v -0.092482 -0.542000 0.248578
v -0.074351 -0.542610 0.255458
v -0.055628 -0.543115 0.261169
v -0.036564 -0.543506 0.266139
v -0.017125 -0.543653 0.269939
v 0.002584 -0.543628 0.272356
v 0.002314 -0.505300 0.265158
v -0.004697 -0.465265 0.254548
v 0.001898 -0.449073 0.250881
v 0.000110 -0.427710 0.245094
v -0.002754 -0.408545 0.239933
v -0.000025 -0.351066 0.226380
v 0.010911 -0.321760 0.219792
v 0.007616 -0.302217 0.215167
v 0.003217 -0.261676 0.206347
v 0.002344 -0.243179 0.202525
v 0.001896 -0.207005 0.196107
v -0.254800 -0.502370 0.086395
v -0.099558 -0.434496 0.222236
v -0.056242 -0.486394 0.250435
v -0.029325 -0.514433 0.262785
v 0.004554 -0.525893 0.269727
v -0.260152 -0.528618 0.081201
v -0.239414 -0.504591 0.120803
v -0.183091 -0.448877 0.172890
v -0.062993 -0.524316 0.256268
v -0.026795 -0.532024 0.266543
v -0.239037 -0.524207 0.125444
v -0.150736 -0.494263 0.209797
v -0.043961 -0.530119 0.262544
v -0.228922 -0.524475 0.141465
v -0.098973 -0.519991 0.242850
v -0.133938 -0.524281 0.226207
v -0.082238 -0.532173 0.251277
v -0.205882 -0.525484 0.169580
v -0.171844 -0.525965 0.200869
v -0.188787 -0.517926 0.185409
v -0.080085 -0.512423 0.248507
v -0.155046 -0.520828 0.212482
v -0.143763 -0.508279 0.217471
v -0.253854 -0.471058 0.066304
v -0.263604 -0.508060 0.057487
v -0.209114 -0.373653 0.114658
v -0.020387 -0.477847 0.255838
v -0.018936 -0.499310 0.261351
v -0.012471 -0.520746 0.266877
v -0.264451 -0.525955 0.061672
v -0.250749 -0.512328 0.101128
v -0.218178 -0.519182 0.154719
v -0.059865 -0.502596 0.252979
v -0.076044 -0.489336 0.245351
v -0.118939 -0.521823 0.233837
v -0.065524 -0.213887 0.183984
v -0.243483 -0.429077 0.067813
v -0.256136 -0.469343 0.048032
v -0.260165 -0.488680 0.051809
v -0.258110 -0.492933 0.068826
v -0.260793 -0.510980 0.073348
v -0.224697 -0.369436 0.077415
v -0.024643 -0.403305 0.236139
v -0.007174 -0.485194 0.259348
v -0.227766 -0.506393 0.139368
v -0.202360 -0.506579 0.170060
v -0.214515 -0.495173 0.154043
v -0.036759 -0.495286 0.257003
v -0.040641 -0.480505 0.252790
v -0.059052 -0.451925 0.241009
v -0.068506 -0.471109 0.243337
v -0.046003 -0.512460 0.258626
v -0.099787 -0.466261 0.230439
v -0.106439 -0.485845 0.232278
v -0.087718 -0.475140 0.237760
v -0.081160 -0.453816 0.234700
v -0.197348 -0.237828 0.064315
v -0.251958 -0.448875 0.044286
v -0.249416 -0.447517 0.061608
v -0.246313 -0.428494 0.050203
v -0.023207 -0.360674 0.226017
v -0.026324 -0.326412 0.217415
v -0.023632 -0.437004 0.244751
v -0.017790 -0.421859 0.241909
v -0.198561 -0.484538 0.168622
v -0.186730 -0.496206 0.183005
v -0.173270 -0.497169 0.194637
v -0.030540 -0.459782 0.249464
v -0.043561 -0.443230 0.242767
v -0.037139 -0.422773 0.238913
v -0.044811 -0.404859 0.232644
v -0.024569 -0.379566 0.230450
v -0.019942 -0.238557 0.199530
v -0.002826 -0.226381 0.198969
v -0.021505 -0.218375 0.195534
v -0.041466 -0.236568 0.195179
v -0.210037 -0.278046 0.050054
v -0.241636 -0.412639 0.054268
v -0.244557 -0.489970 0.105243
v -0.235579 -0.380389 0.030677
v -0.228683 -0.356565 0.041764
v -0.004418 -0.366534 0.229770
v -0.003673 -0.332662 0.221683
v -0.011169 -0.290336 0.211437
v -0.015561 -0.270316 0.206855
v -0.041537 -0.257608 0.199707
v -0.007660 -0.386180 0.234193
v -0.226396 -0.491352 0.138005
v -0.183227 -0.472699 0.179565
v -0.065521 -0.404209 0.227300
v -0.067087 -0.382123 0.220819
v -0.047041 -0.370815 0.223370
v -0.063562 -0.359057 0.216338
v -0.083608 -0.416879 0.224307
v -0.061875 -0.421830 0.232679
v -0.012206 -0.253215 0.203890
v -0.026622 -0.252719 0.201829
v -0.204231 -0.240972 0.041004
v -0.214036 -0.285572 0.028545
v -0.215268 -0.297370 0.043485
v -0.247282 -0.462168 0.083288
v -0.232548 -0.433313 0.102077
v -0.241892 -0.441383 0.084442
v -0.231552 -0.391740 0.075561
v -0.235757 -0.408742 0.075734
v -0.224852 -0.401601 0.100642
v -0.234251 -0.421574 0.090975
v -0.225185 -0.353758 0.059207
v -0.221624 -0.321210 0.031598
v -0.019496 -0.344426 0.222747
v -0.052076 -0.327382 0.212288
v -0.042092 -0.347203 0.219432
v -0.036143 -0.317225 0.213574
v -0.011658 -0.310978 0.215905
v 0.003249 -0.282495 0.210603
v -0.046704 -0.292522 0.206378
v -0.211741 -0.479322 0.153691
v -0.195272 -0.466620 0.166888
v -0.171473 -0.478753 0.190949
v -0.144503 -0.421224 0.194105
v -0.081117 -0.435413 0.229697
v -0.195225 -0.221949 0.061080
v -0.188588 -0.209603 0.071992
v -0.186808 -0.226680 0.083770
v -0.192175 -0.248618 0.084060
v -0.216143 -0.313191 0.056569
v -0.208963 -0.292604 0.066585
v -0.204098 -0.273872 0.069404
v -0.250639 -0.480828 0.085943
v -0.237214 -0.452969 0.101413
v -0.233893 -0.483441 0.123189
v -0.221989 -0.472788 0.137867
v -0.232493 -0.376883 0.054169
v -0.238204 -0.396414 0.051913
v -0.220866 -0.382924 0.097417
v -0.222648 -0.333507 0.047257
v -0.064334 -0.339510 0.211696
v -0.032023 -0.276784 0.205824
v -0.158548 -0.483355 0.201877
v -0.135097 -0.453518 0.209052
v -0.081795 -0.371567 0.213075
v -0.179677 -0.210057 0.089724
v -0.180405 -0.244022 0.102826
v -0.201659 -0.254507 0.062169
v -0.207245 -0.261063 0.046532
v -0.231734 -0.464651 0.118752
v -0.117628 -0.475384 0.224378
v -0.127841 -0.491614 0.222978
v -0.168579 -0.452472 0.185873
v -0.153358 -0.465228 0.200652
v -0.112211 -0.422521 0.213214
v -0.045143 -0.216817 0.190819
v -0.199287 -0.288651 0.089711
v -0.206968 -0.326797 0.092469
v -0.205594 -0.344299 0.105281
v -0.213902 -0.363884 0.100505
v -0.198740 -0.306653 0.098526
v -0.207455 -0.308342 0.081542
v -0.215866 -0.328524 0.070962
v -0.159508 -0.282131 0.142435
v -0.196648 -0.266434 0.083704
v -0.187194 -0.272925 0.104637
v -0.179093 -0.256973 0.110690
v -0.087303 -0.315589 0.197860
v -0.170828 -0.333589 0.146710
v -0.173663 -0.278270 0.125719
v -0.073250 -0.319448 0.204196
v -0.175022 -0.300330 0.130543
v -0.187781 -0.315691 0.119625
v -0.198838 -0.327344 0.107821
v -0.158099 -0.302292 0.149240
v -0.164852 -0.239760 0.122918
v -0.186863 -0.293904 0.112799
v -0.172221 -0.313986 0.138456
v -0.055374 -0.309011 0.207319
v -0.137323 -0.474944 0.213339
v -0.159203 -0.437979 0.188727
v -0.176762 -0.411382 0.166581
v -0.172868 -0.433205 0.176724
v -0.210591 -0.388109 0.119067
v -0.098146 -0.415434 0.218070
v -0.132689 -0.429971 0.204074
v -0.086762 -0.396019 0.217550
v -0.098677 -0.384061 0.209120
v -0.106563 -0.403831 0.210857
v -0.123820 -0.409214 0.203215
v -0.033662 -0.203091 0.191517
v -0.148791 -0.235004 0.137931
v -0.085590 -0.334466 0.202851
v -0.116472 -0.321690 0.185037
v -0.201177 -0.356615 0.119522
v -0.224200 -0.419160 0.111023
v -0.122299 -0.462422 0.218560
v -0.150739 -0.446070 0.196978
v -0.120051 -0.441478 0.214218
v -0.111665 -0.373320 0.200653
v -0.157515 -0.218636 0.123125
v -0.050183 -0.274061 0.201152
v -0.064464 -0.286896 0.199752
v -0.082353 -0.277965 0.191002
v -0.093277 -0.298652 0.191348
v -0.096340 -0.280555 0.185732
v -0.110289 -0.297160 0.182618
v -0.145130 -0.286472 0.156656
v -0.129204 -0.286922 0.168850
v -0.076706 -0.298572 0.198175
v -0.085636 -0.351072 0.206665
v -0.105308 -0.340767 0.195715
v -0.128073 -0.340782 0.183028
v -0.134702 -0.321622 0.173401
v -0.117606 -0.356658 0.193377
v -0.099964 -0.318926 0.192990
v -0.194331 -0.339621 0.121188
v -0.166914 -0.353028 0.157186
v -0.181834 -0.355007 0.142970
v -0.159556 -0.340249 0.159845
v -0.141741 -0.303901 0.164069
v -0.161921 -0.417339 0.180537
v -0.160783 -0.403183 0.177094
v -0.144088 -0.387926 0.184626
v -0.212012 -0.402711 0.123458
v -0.216909 -0.453255 0.136738
v -0.136530 -0.398995 0.192504
v -0.117888 -0.388558 0.200721
v -0.099261 -0.362138 0.203755
v -0.086117 -0.216357 0.175744
v -0.103819 -0.216083 0.166030
v -0.078103 -0.229393 0.182336
v -0.062722 -0.231537 0.188460
v -0.143058 -0.215525 0.136632
v -0.084883 -0.261165 0.186230
v -0.171624 -0.222011 0.106673
v -0.143106 -0.269398 0.153990
v -0.135669 -0.248153 0.153679
v -0.155003 -0.256739 0.139587
v -0.114499 -0.274606 0.174786
v -0.101845 -0.257008 0.177243
v -0.097054 -0.236226 0.174717
v -0.116171 -0.252020 0.168014
v -0.118546 -0.233129 0.161491
v -0.125352 -0.266386 0.165828
v -0.136666 -0.359831 0.182465
v -0.151612 -0.355099 0.170652
v -0.127498 -0.373754 0.192012
v -0.155067 -0.321527 0.157211
v -0.198708 -0.373230 0.129587
v -0.156313 -0.387191 0.175518
v -0.170865 -0.392338 0.165251
v -0.224533 -0.440546 0.119836
v -0.210621 -0.465121 0.149771
v -0.124096 -0.210990 0.151075
v -0.133831 -0.227256 0.148464
v -0.064555 -0.264422 0.194502
v -0.145366 -0.373781 0.179963
v -0.146002 -0.339491 0.170393
v -0.161614 -0.370929 0.166668
v -0.199524 -0.392863 0.136266
v -0.188209 -0.375866 0.142891
v -0.177048 -0.375246 0.154295
v -0.215969 -0.419282 0.124600
v -0.211009 -0.434907 0.137816
v -0.199379 -0.446019 0.155776
v -0.194409 -0.422136 0.152951
v -0.187522 -0.397356 0.151473
v -0.204221 -0.413454 0.138526
v -0.095422 -0.497840 0.239830
v -0.127294 -0.306269 0.174621
v 0.201734 -0.211269 0.032084
v 0.215973 -0.287144 0.032857
v 0.219680 -0.304659 0.033875
v 0.224400 -0.323904 0.035017
v 0.228888 -0.343062 0.036919
v 0.233195 -0.359330 0.039113
v 0.236727 -0.380715 0.031689
v 0.242285 -0.395714 0.044238
v 0.256983 -0.449557 0.052057
v 0.261104 -0.469253 0.044887
v 0.267355 -0.495626 0.052718
v 0.269483 -0.514552 0.057063
v 0.271105 -0.529957 0.062951
v 0.272002 -0.532273 0.062356
v 0.271598 -0.534314 0.061374
v 0.272277 -0.537316 0.081735
v 0.267227 -0.535865 0.100421
v 0.261345 -0.534648 0.117737
v 0.253536 -0.533512 0.134234
v 0.245425 -0.532890 0.150665
v 0.235632 -0.532230 0.166113
v 0.224602 -0.531820 0.180780
v 0.212773 -0.531685 0.194910
v 0.199982 -0.531767 0.208288
v 0.185571 -0.531974 0.220146
v 0.170323 -0.532364 0.231134
v 0.153921 -0.532986 0.240733
v 0.136798 -0.533897 0.249220
v 0.118828 -0.534931 0.256266
v 0.100450 -0.536353 0.262429
v 0.081389 -0.537833 0.266953
v 0.061960 -0.539400 0.270202
v 0.042283 -0.541034 0.272246
v 0.022468 -0.542479 0.272949
v 0.043431 -0.505497 0.265646
v 0.242006 -0.449793 0.128359
v 0.092801 -0.501268 0.257142
v 0.246066 -0.486035 0.138924
v 0.048878 -0.526178 0.269485
v 0.155025 -0.500787 0.233817
v 0.229416 -0.489497 0.165422
v 0.268607 -0.526187 0.094138
v 0.097382 -0.522123 0.260708
v 0.125195 -0.519002 0.251678
v 0.159985 -0.518204 0.235158
v 0.247322 -0.517779 0.144155
v 0.215313 -0.515136 0.189145
v 0.066718 -0.516663 0.265723
v 0.187527 -0.512995 0.214740
v 0.172001 -0.505847 0.224542
v 0.144051 -0.520394 0.243756
v 0.172427 -0.519485 0.227123
v 0.146687 -0.236698 0.155777
v 0.035531 -0.483157 0.260274
v 0.080996 -0.363158 0.222696
v 0.252627 -0.449074 0.093381
v 0.019975 -0.514372 0.268253
v 0.021262 -0.497962 0.264342
v 0.269800 -0.519790 0.078467
v 0.269575 -0.506149 0.073265
v 0.265883 -0.507329 0.096293
v 0.253450 -0.478308 0.120143
v 0.260868 -0.491632 0.105753
v 0.254804 -0.496741 0.124870
v 0.258169 -0.473442 0.100178
v 0.264629 -0.484231 0.071897
v 0.255805 -0.517796 0.128441
v 0.261788 -0.513580 0.112597
v 0.244933 -0.466535 0.132420
v 0.251858 -0.462858 0.113231
v 0.239787 -0.499021 0.153107
v 0.236264 -0.511967 0.161146
v 0.225760 -0.512109 0.176067
v 0.204017 -0.494848 0.196050
v 0.189497 -0.231396 0.099952
v 0.080459 -0.265467 0.198210
v 0.012134 -0.481013 0.259665
v 0.255719 -0.448301 0.071496
v 0.242007 -0.401759 0.075932
v 0.053171 -0.482909 0.259175
v 0.069741 -0.497912 0.261034
v 0.248974 -0.502728 0.138814
v 0.264634 -0.489821 0.086755
v 0.259889 -0.469148 0.082130
v 0.261080 -0.468326 0.065192
v 0.173917 -0.470250 0.214155
v 0.144188 -0.478991 0.233363
v 0.121720 -0.445519 0.233898
v 0.140171 -0.459641 0.230026
v 0.165715 -0.487040 0.223765
v 0.160783 -0.466246 0.221337
v 0.185602 -0.491876 0.211139
v 0.191535 -0.477382 0.202822
v 0.178942 -0.433382 0.198835
v 0.137265 -0.440339 0.225825
v 0.154781 -0.447876 0.219235
v 0.164454 -0.430043 0.207731
v 0.125730 -0.421927 0.224931
v 0.104492 -0.428459 0.234741
v 0.108966 -0.406183 0.226705
v 0.128270 -0.399603 0.217296
v 0.091084 -0.407648 0.232455
v 0.157822 -0.407420 0.204715
v 0.139971 -0.411397 0.215398
v 0.087622 -0.439560 0.242809
v 0.106758 -0.449920 0.240341
v 0.087804 -0.454301 0.246439
v 0.086381 -0.470593 0.250668
v 0.092208 -0.390908 0.227671
v 0.193227 -0.407997 0.177502
v 0.228742 -0.458219 0.156374
v 0.177247 -0.415122 0.193905
v 0.145273 -0.426360 0.217431
v 0.110028 -0.387440 0.221172
v 0.079603 -0.420157 0.238799
v 0.072206 -0.403377 0.235261
v 0.234031 -0.451527 0.144581
v 0.220068 -0.436233 0.158873
v 0.226650 -0.472196 0.163978
v 0.063626 -0.433437 0.245095
v 0.236812 -0.477335 0.151788
v 0.065238 -0.388542 0.232523
v 0.038920 -0.425425 0.245095
v 0.055695 -0.412994 0.240311
v 0.136202 -0.500880 0.243133
v 0.103026 -0.482387 0.249752
v 0.202811 -0.231293 0.062770
v 0.050507 -0.313455 0.215370
v 0.017429 -0.458605 0.254065
v 0.019412 -0.364211 0.230364
v 0.251611 -0.429652 0.060929
v 0.240567 -0.389931 0.063742
v 0.231988 -0.353679 0.058112
v 0.186945 -0.460058 0.201627
v 0.171167 -0.450389 0.210170
v 0.046093 -0.463883 0.254853
v 0.065090 -0.463944 0.252890
v 0.066478 -0.449847 0.249218
v 0.067786 -0.479275 0.256342
v 0.214678 -0.473954 0.178796
v 0.031251 -0.406390 0.240219
v 0.042497 -0.378222 0.232938
v 0.071672 -0.374504 0.227731
v 0.059983 -0.351891 0.224051
v 0.018841 -0.419597 0.243923
v 0.021297 -0.436159 0.248366
v 0.115211 -0.502334 0.251284
v 0.123533 -0.483058 0.243246
v 0.123151 -0.466521 0.239082
v 0.085630 -0.486232 0.255112
v 0.200087 -0.212850 0.056624
v 0.209316 -0.260451 0.059489
v 0.204548 -0.226571 0.038459
v 0.208062 -0.246626 0.042549
v 0.032344 -0.326815 0.220510
v 0.040043 -0.446566 0.250642
v 0.192222 -0.426035 0.185634
v 0.031050 -0.466675 0.256206
v 0.205109 -0.481672 0.191275
v 0.215088 -0.492953 0.183957
v 0.054750 -0.369192 0.229378
v 0.105397 -0.466120 0.244812
v 0.194634 -0.216197 0.080776
v 0.204938 -0.249383 0.069072
v 0.197381 -0.248340 0.091552
v 0.182183 -0.212714 0.104884
v 0.212624 -0.270501 0.042366
v 0.211740 -0.277125 0.067327
v 0.205068 -0.264429 0.083354
v 0.207594 -0.283860 0.090500
v 0.191582 -0.249132 0.104984
v 0.221868 -0.312851 0.052214
v 0.217133 -0.292928 0.050956
v 0.018481 -0.223255 0.198970
v 0.021315 -0.269317 0.207845
v 0.024598 -0.289014 0.211749
v 0.227228 -0.335717 0.061198
v 0.220657 -0.319076 0.077071
v 0.229120 -0.364907 0.092154
v 0.236898 -0.374973 0.053717
v 0.189035 -0.445977 0.195126
v 0.215139 -0.452513 0.171704
v 0.201699 -0.451885 0.185786
v 0.204191 -0.438033 0.178599
v 0.203777 -0.465264 0.187953
v 0.012900 -0.399677 0.238479
v 0.027806 -0.385998 0.235214
v 0.081395 -0.337778 0.215660
v 0.198320 -0.236436 0.082612
v 0.169066 -0.203930 0.120236
v 0.162723 -0.229497 0.138096
v 0.175715 -0.243583 0.128806
v 0.158634 -0.206367 0.133438
v 0.172452 -0.223593 0.124116
v 0.049312 -0.212128 0.194003
v 0.033221 -0.217271 0.197220
v 0.077074 -0.228528 0.190532
v 0.067101 -0.204684 0.188209
v 0.062044 -0.222490 0.193449
v 0.060951 -0.243351 0.197797
v 0.029688 -0.309695 0.216587
v 0.043789 -0.292436 0.211063
v 0.063198 -0.295697 0.209016
v 0.017278 -0.343405 0.225184
v 0.038808 -0.356224 0.227648
v 0.146069 -0.214479 0.148388
v 0.230794 -0.357417 0.076002
v 0.236690 -0.386205 0.083894
v 0.097452 -0.349730 0.214555
v 0.054679 -0.331124 0.219148
v 0.183031 -0.236372 0.114169
v 0.038410 -0.251744 0.203106
v 0.039799 -0.273392 0.207484
v 0.086052 -0.305254 0.206077
v 0.235097 -0.373188 0.071690
v 0.246832 -0.426254 0.090439
v 0.245810 -0.440230 0.109669
v 0.103275 -0.366245 0.217067
v 0.044114 -0.232077 0.198657
v 0.059675 -0.259772 0.201921
v 0.062418 -0.275401 0.204628
v 0.074073 -0.317494 0.211995
v 0.104590 -0.308334 0.200863
v 0.098484 -0.321307 0.206258
v 0.097684 -0.290255 0.198848
v 0.105684 -0.334775 0.207472
v 0.133010 -0.206659 0.156146
v 0.239072 -0.406005 0.096341
v 0.251551 -0.433916 0.076589
v 0.247394 -0.418937 0.074374
v 0.235582 -0.431748 0.129977
v 0.239508 -0.421117 0.111783
v 0.037126 -0.341449 0.223870
v 0.161458 -0.271623 0.155582
v 0.162083 -0.250595 0.146830
v 0.174352 -0.259939 0.137142
v 0.186484 -0.258604 0.119680
v 0.078893 -0.247987 0.194251
v 0.095824 -0.234940 0.185160
v 0.230033 -0.385009 0.106358
v 0.222856 -0.370823 0.115520
v 0.232325 -0.400063 0.113958
v 0.193085 -0.363136 0.158615
v 0.217724 -0.417718 0.153119
v 0.210506 -0.366995 0.138284
v 0.228361 -0.413354 0.132923
v 0.187779 -0.388666 0.174523
v 0.174290 -0.397769 0.189637
v 0.144945 -0.390054 0.206334
v 0.138659 -0.369562 0.203029
v 0.124301 -0.376766 0.212328
v 0.215998 -0.298218 0.071188
v 0.198284 -0.268587 0.103427
v 0.222598 -0.354475 0.104710
v 0.225957 -0.343836 0.083682
v 0.079298 -0.285800 0.203135
v 0.117633 -0.210136 0.167222
v 0.101586 -0.214537 0.177056
v 0.112127 -0.227313 0.175408
v 0.119197 -0.242411 0.176137
v 0.103344 -0.251832 0.186442
v 0.101925 -0.268124 0.191891
v 0.085788 -0.216913 0.184774
v 0.126937 -0.261348 0.177817
v 0.115179 -0.278360 0.189099
v 0.149611 -0.266584 0.164272
v 0.130656 -0.227360 0.164352
v 0.135085 -0.248267 0.168361
v 0.203191 -0.399901 0.163143
v 0.216077 -0.399212 0.145814
v 0.193647 -0.379230 0.164791
v 0.162551 -0.320509 0.171914
v 0.197869 -0.346363 0.146050
v 0.179511 -0.329311 0.159406
v 0.191331 -0.333732 0.148643
v 0.184465 -0.348943 0.162167
v 0.142673 -0.353784 0.196230
v 0.156320 -0.370960 0.192882
v 0.148559 -0.334613 0.186525
v 0.127596 -0.335266 0.198604
v 0.170968 -0.342681 0.172555
v 0.162156 -0.355010 0.183948
v 0.171998 -0.378538 0.183983
v 0.120730 -0.353136 0.206967
v 0.145409 -0.312854 0.181583
v 0.132421 -0.319925 0.191702
v 0.115803 -0.320647 0.199791
v 0.132486 -0.296303 0.184702
v 0.116485 -0.301186 0.194069
v 0.137224 -0.279777 0.177541
v 0.150742 -0.299106 0.174145
v 0.157016 -0.287161 0.165211
v 0.180414 -0.366074 0.172361
v 0.171092 -0.291856 0.154154
v 0.169000 -0.309071 0.162658
v 0.208710 -0.324004 0.116493
v 0.204107 -0.307436 0.116293
v 0.213168 -0.315719 0.101260
v 0.211704 -0.303251 0.094510
v 0.195064 -0.314970 0.134987
v 0.202507 -0.331501 0.132153
v 0.195062 -0.297361 0.126718
v 0.189756 -0.278765 0.125391
v 0.181668 -0.313031 0.151179
v 0.178999 -0.275418 0.138358
v 0.183864 -0.295738 0.141375
v 0.212847 -0.351412 0.124734
v 0.213932 -0.339235 0.115659
v 0.218266 -0.331776 0.098370
v 0.270912 -0.540218 0.041401
v 0.266432 -0.543981 0.021996
v 0.260002 -0.547078 0.002819
v 0.251683 -0.549212 -0.015735
v 0.242254 -0.551173 -0.033925
v 0.231094 -0.552803 -0.051243
v 0.219346 -0.554795 -0.068127
v 0.206239 -0.556687 -0.084125
v 0.192479 -0.559361 -0.099524
v 0.177622 -0.562164 -0.113921
v 0.161750 -0.564716 -0.126871
v 0.145078 -0.567538 -0.138511
v 0.127885 -0.570134 -0.149028
v 0.110090 -0.572326 -0.158177
v 0.091891 -0.574176 -0.166109
v 0.073303 -0.575491 -0.172441
v 0.054482 -0.576449 -0.177526
v 0.035574 -0.577017 -0.181447
v 0.016518 -0.577224 -0.184082
v -0.002537 -0.577106 -0.185456
v -0.002041 -0.538944 -0.187076
v 0.002840 -0.498256 -0.185210
v 0.003370 -0.437789 -0.179843
v 0.003861 -0.414773 -0.177937
v -0.003666 -0.380993 -0.174779
v -0.001439 -0.361068 -0.172264
v -0.001738 -0.341383 -0.169479
v -0.002487 -0.322523 -0.166897
v -0.000920 -0.303225 -0.164108
v -0.005009 -0.262395 -0.157880
v -0.001472 -0.214830 -0.149161
v 0.272754 -0.525867 0.044390
v 0.267392 -0.525599 0.023345
v 0.199511 -0.430692 -0.079449
v 0.139055 -0.286106 -0.113028
v 0.055340 -0.508364 -0.177890
v 0.014370 -0.546703 -0.185810
v -0.003267 -0.562983 -0.186555
v 0.023011 -0.563033 -0.184543
v 0.261421 -0.530893 0.005332
v 0.238474 -0.467243 -0.031051
v 0.259737 -0.507437 0.005395
v 0.219864 -0.380071 -0.030696
v 0.070547 -0.289507 -0.150484
v 0.171088 -0.208264 -0.066541
v 0.183733 -0.279838 -0.063046
v 0.024665 -0.508666 -0.183766
v 0.018507 -0.528979 -0.185291
v 0.263661 -0.491824 0.027951
v 0.267540 -0.509730 0.031859
v 0.259991 -0.470849 0.028905
v 0.230295 -0.520790 -0.053481
v 0.252371 -0.518499 -0.015609
v 0.241861 -0.528132 -0.035691
v 0.252384 -0.536471 -0.015923
v 0.233927 -0.537223 -0.048625
v 0.252548 -0.457054 0.010242
v 0.208561 -0.533483 -0.082101
v 0.030844 -0.287849 -0.159066
v 0.061974 -0.234070 -0.145693
v 0.075399 -0.370218 -0.159215
v 0.204609 -0.259623 -0.009599
v 0.022590 -0.424461 -0.177285
v 0.149126 -0.549480 -0.136951
v 0.083436 -0.554960 -0.170442
v 0.066649 -0.561560 -0.175610
v 0.019211 -0.489345 -0.183186
v 0.003874 -0.517595 -0.186097
v 0.044768 -0.563068 -0.180751
v 0.231597 -0.488667 -0.047401
v 0.251112 -0.495534 -0.013617
v 0.257826 -0.483040 0.010082
v 0.241534 -0.442149 -0.012920
v 0.228174 -0.352557 0.013471
v 0.216787 -0.319161 -0.005016
v 0.195436 -0.542298 -0.096851
v 0.217613 -0.517179 -0.070383
v 0.034012 -0.330375 -0.164746
v 0.039723 -0.256319 -0.153443
v 0.032751 -0.212646 -0.146433
v 0.002866 -0.477771 -0.183418
v 0.004841 -0.457781 -0.181460
v 0.132397 -0.539596 -0.147356
v 0.165033 -0.543860 -0.125099
v 0.115563 -0.552307 -0.156483
v 0.051983 -0.547298 -0.179794
v 0.035635 -0.543026 -0.183107
v 0.038133 -0.521038 -0.182277
v 0.053816 -0.527851 -0.179221
v 0.036035 -0.495472 -0.181290
v 0.023376 -0.474097 -0.181399
v 0.053249 -0.487957 -0.177000
v 0.252231 -0.434777 0.040562
v 0.241975 -0.415799 0.009736
v 0.239744 -0.506098 -0.037063
v 0.225148 -0.501710 -0.058892
v 0.241636 -0.484462 -0.030092
v 0.247470 -0.471389 -0.012971
v 0.219084 -0.311535 0.012815
v 0.223392 -0.537673 -0.063393
v 0.181924 -0.500661 -0.108130
v 0.023854 -0.270144 -0.157253
v 0.022273 -0.246034 -0.153912
v 0.010647 -0.259826 -0.156870
v 0.018176 -0.222267 -0.149656
v 0.202526 -0.220833 0.012444
v 0.209193 -0.257302 0.017177
v 0.212962 -0.278348 0.016524
v 0.028713 -0.450845 -0.178378
v 0.043105 -0.471892 -0.177988
v 0.011090 -0.391599 -0.175303
v 0.022660 -0.402269 -0.175247
v 0.134743 -0.558140 -0.145764
v 0.182860 -0.546720 -0.109463
v 0.179010 -0.529482 -0.112901
v 0.081383 -0.464799 -0.166709
v 0.086623 -0.502519 -0.167348
v 0.073742 -0.520032 -0.173281
v 0.255537 -0.454170 0.027475
v 0.247882 -0.433100 0.015360
v 0.240154 -0.399250 0.018980
v 0.246677 -0.416442 0.033309
v 0.213590 -0.497241 -0.074051
v 0.208346 -0.480346 -0.078156
v 0.219785 -0.479921 -0.063185
v 0.231906 -0.366852 0.017222
v 0.234026 -0.386323 0.006903
v 0.011615 -0.331823 -0.167527
v 0.019799 -0.348143 -0.168911
v 0.014470 -0.371349 -0.172372
v 0.041274 -0.232275 -0.148987
v 0.057139 -0.248631 -0.149036
v 0.074963 -0.260329 -0.146114
v 0.045361 -0.272812 -0.154367
v 0.058575 -0.270568 -0.151302
v 0.004957 -0.281359 -0.160440
v 0.052558 -0.220770 -0.145100
v 0.194578 -0.232945 -0.027368
v 0.193324 -0.214647 -0.023622
v 0.201070 -0.228947 -0.005075
v 0.184735 -0.214180 -0.044525
v 0.212349 -0.294672 -0.002434
v 0.209475 -0.275014 -0.000194
v 0.216206 -0.295791 0.017118
v 0.039205 -0.411382 -0.173788
v 0.191860 -0.521096 -0.100201
v 0.069451 -0.543149 -0.175142
v 0.112538 -0.527589 -0.157865
v 0.134495 -0.517102 -0.145140
v 0.159074 -0.521084 -0.128888
v 0.165448 -0.499351 -0.122150
v 0.183244 -0.478608 -0.104445
v 0.197167 -0.493295 -0.092375
v 0.196389 -0.471364 -0.090388
v 0.183133 -0.455388 -0.101367
v 0.196356 -0.448322 -0.086329
v 0.068534 -0.476889 -0.172106
v 0.115412 -0.487329 -0.153356
v 0.104849 -0.502564 -0.159599
v 0.105068 -0.465589 -0.156899
v 0.091213 -0.485752 -0.164406
v 0.120451 -0.504413 -0.152070
v 0.125141 -0.469666 -0.147035
v 0.093203 -0.519704 -0.166180
v 0.230593 -0.470685 -0.045732
v 0.220713 -0.366565 -0.020925
v 0.220269 -0.344945 -0.010061
v 0.223509 -0.333497 0.012331
v 0.019678 -0.298547 -0.162283
v 0.018968 -0.316461 -0.164903
v 0.046704 -0.344886 -0.163936
v 0.034250 -0.367865 -0.169324
v 0.025273 -0.382118 -0.172732
v 0.203137 -0.244983 -0.005969
v 0.039385 -0.387308 -0.171002
v 0.051834 -0.399757 -0.170032
v 0.037072 -0.427899 -0.175323
v 0.081431 -0.431762 -0.164229
v 0.092806 -0.447616 -0.161011
v 0.067827 -0.451961 -0.169957
v 0.064629 -0.434452 -0.169772
v 0.067654 -0.416777 -0.167536
v 0.086320 -0.407916 -0.159882
v 0.143726 -0.402836 -0.127510
v 0.103370 -0.427436 -0.154310
v 0.108727 -0.408088 -0.149819
v 0.174198 -0.514538 -0.116276
v 0.183765 -0.433511 -0.097264
v 0.220019 -0.454798 -0.057318
v 0.072486 -0.497499 -0.172184
v 0.168900 -0.464769 -0.115533
v 0.166526 -0.443211 -0.114830
v 0.133018 -0.494684 -0.144256
v 0.230686 -0.428669 -0.029989
v 0.226267 -0.367094 -0.005097
v 0.188330 -0.349976 -0.074207
v 0.200071 -0.322562 -0.047858
v 0.049782 -0.366374 -0.166039
v 0.064999 -0.353524 -0.160241
v 0.058621 -0.377612 -0.165267
v 0.051605 -0.419606 -0.171963
v 0.069394 -0.393412 -0.164248
v 0.116086 -0.444265 -0.149406
v 0.201601 -0.396581 -0.068507
v 0.191117 -0.413445 -0.085642
v 0.165391 -0.394630 -0.108151
v 0.155778 -0.409685 -0.119105
v 0.178046 -0.399455 -0.096738
v 0.143273 -0.422596 -0.130653
v 0.210630 -0.439088 -0.066520
v 0.149882 -0.500644 -0.133776
v 0.141564 -0.473977 -0.137300
v 0.148350 -0.455575 -0.130752
v 0.155236 -0.478836 -0.127842
v 0.168484 -0.482767 -0.117886
v 0.238449 -0.452842 -0.025039
v 0.230300 -0.447953 -0.038655
v 0.229328 -0.409506 -0.023915
v 0.209794 -0.360910 -0.042267
v 0.213095 -0.346300 -0.029891
v 0.051714 -0.290210 -0.155480
v 0.050906 -0.323697 -0.160380
v 0.111132 -0.328756 -0.137755
v 0.126078 -0.427456 -0.142193
v 0.129915 -0.405652 -0.137648
v 0.136021 -0.385271 -0.130440
v 0.116489 -0.385628 -0.142688
v 0.098575 -0.344631 -0.146547
v 0.206387 -0.418360 -0.067711
v 0.142389 -0.440173 -0.133113
v 0.155073 -0.432446 -0.122951
v 0.238318 -0.423276 -0.008629
v 0.219793 -0.416473 -0.045682
v 0.227420 -0.386782 -0.015645
v 0.221957 -0.397898 -0.034879
v 0.235017 -0.404059 -0.005518
v 0.212924 -0.384731 -0.046536
v 0.206287 -0.335516 -0.039794
v 0.197962 -0.346812 -0.059281
v 0.187376 -0.328341 -0.069371
v 0.191363 -0.386644 -0.079377
v 0.180289 -0.360227 -0.086099
v 0.213180 -0.330295 -0.022370
v 0.063164 -0.309891 -0.155132
v 0.151604 -0.387833 -0.118917
v 0.167088 -0.376609 -0.103056
v 0.148653 -0.368663 -0.118135
v 0.145541 -0.322346 -0.113171
v 0.148931 -0.345215 -0.114855
v 0.212818 -0.403552 -0.053575
v 0.188172 -0.308027 -0.064083
v 0.199991 -0.370317 -0.062175
v 0.209254 -0.311764 -0.024487
v 0.066861 -0.333779 -0.157149
v 0.085063 -0.340725 -0.151800
v 0.091673 -0.367838 -0.152650
v 0.106624 -0.368200 -0.145590
v 0.085126 -0.383857 -0.157542
v 0.098267 -0.387230 -0.152476
v 0.128614 -0.369609 -0.132796
v 0.175063 -0.338736 -0.087766
v 0.165681 -0.354722 -0.100536
v 0.136954 -0.354255 -0.125533
v 0.200566 -0.290176 -0.036214
v 0.084058 -0.303180 -0.147368
v 0.105982 -0.274488 -0.134673
v 0.098199 -0.293171 -0.140030
v 0.161802 -0.332929 -0.100671
v 0.177094 -0.291074 -0.075657
v 0.119298 -0.350155 -0.136513
v 0.132260 -0.333902 -0.125398
v 0.137332 -0.307754 -0.117627
v 0.121496 -0.290455 -0.126720
v 0.156141 -0.309964 -0.102008
v 0.142311 -0.230572 -0.103814
v 0.127384 -0.267725 -0.120635
v 0.156788 -0.219138 -0.087116
v 0.082386 -0.241453 -0.141196
v 0.171653 -0.315137 -0.087122
v 0.148741 -0.267438 -0.102942
v 0.139387 -0.250000 -0.109137
v 0.155741 -0.247617 -0.093040
v 0.161795 -0.230521 -0.083231
v 0.174940 -0.227014 -0.064621
v 0.171719 -0.245331 -0.073092
v 0.112985 -0.218215 -0.123320
v 0.094771 -0.223609 -0.133430
v 0.126319 -0.212021 -0.113697
v 0.163321 -0.293881 -0.092233
v 0.151031 -0.296260 -0.104068
v 0.153428 -0.281939 -0.099937
v 0.184810 -0.239625 -0.050876
v 0.194994 -0.249436 -0.032667
v 0.183549 -0.260067 -0.058305
v 0.167427 -0.269238 -0.083057
v 0.125849 -0.245075 -0.119488
v 0.100730 -0.237532 -0.133259
v 0.076971 -0.222947 -0.139591
v 0.202749 -0.270015 -0.021298
v 0.195388 -0.271084 -0.039490
v -0.268568 -0.545887 0.024098
v -0.265070 -0.549024 0.004524
v -0.259741 -0.551692 -0.014884
v -0.252141 -0.553463 -0.033509
v -0.242827 -0.554863 -0.051328
v -0.232901 -0.556525 -0.068626
v -0.221198 -0.557925 -0.084746
v -0.208611 -0.559846 -0.100022
v -0.194599 -0.561645 -0.113938
v -0.179949 -0.564198 -0.126899
v -0.164478 -0.566689 -0.138774
v -0.148173 -0.569241 -0.149108
v -0.131246 -0.571481 -0.158208
v -0.113920 -0.573568 -0.166278
v -0.096081 -0.575234 -0.173019
v -0.077796 -0.576306 -0.177928
v -0.059200 -0.577002 -0.181550
v -0.040470 -0.577386 -0.184112
v -0.021533 -0.577348 -0.185237
v -0.025992 -0.565233 -0.186225
v -0.024495 -0.549474 -0.187085
v -0.119957 -0.441973 -0.156291
v -0.145016 -0.294622 -0.120676
v -0.219806 -0.447904 -0.073830
v -0.270257 -0.530929 0.028707
v -0.045341 -0.562594 -0.184708
v -0.074967 -0.414468 -0.170269
v -0.192397 -0.269474 -0.058505
v -0.078772 -0.312341 -0.156627
v -0.217231 -0.376187 -0.049511
v -0.262068 -0.498320 0.009917
v -0.252597 -0.541467 -0.033476
v -0.255102 -0.519516 -0.027647
v -0.261728 -0.513289 -0.005216
v -0.249150 -0.506283 -0.039013
v -0.262058 -0.534503 -0.009058
v -0.024357 -0.512216 -0.186302
v -0.016531 -0.529275 -0.186993
v -0.034106 -0.433639 -0.179072
v -0.193545 -0.523804 -0.115556
v -0.266265 -0.513612 0.021368
v -0.260655 -0.485366 0.030644
v -0.065382 -0.520993 -0.181701
v -0.026514 -0.387963 -0.175428
v -0.043853 -0.468969 -0.181331
v -0.104217 -0.558596 -0.171091
v -0.119939 -0.553723 -0.164710
v -0.200595 -0.225251 -0.015887
v -0.023827 -0.232484 -0.152489
v -0.225358 -0.539285 -0.080281
v -0.246108 -0.529977 -0.047478
v -0.252745 -0.456865 0.009568
v -0.232706 -0.372496 0.006240
v -0.231603 -0.382062 -0.013751
v -0.217748 -0.320319 -0.013950
v -0.033604 -0.347698 -0.169827
v -0.029239 -0.411982 -0.177401
v -0.135642 -0.536697 -0.157418
v -0.084116 -0.558970 -0.177566
v -0.197964 -0.543954 -0.111973
v -0.168650 -0.540178 -0.136804
v -0.180927 -0.552028 -0.126807
v -0.212664 -0.281500 0.004027
v -0.203868 -0.225791 0.009684
v -0.002223 -0.237742 -0.153539
v -0.019427 -0.250830 -0.156023
v -0.019542 -0.214712 -0.149433
v -0.016835 -0.293340 -0.162750
v -0.237018 -0.539360 -0.062902
v -0.230599 -0.521382 -0.072582
v -0.240638 -0.515368 -0.056593
v -0.212783 -0.544357 -0.095929
v -0.216923 -0.505642 -0.089288
v -0.218412 -0.485996 -0.084251
v -0.244952 -0.434645 -0.008386
v -0.228638 -0.354251 0.006574
v -0.223369 -0.343201 -0.012374
v -0.228119 -0.364677 -0.013683
v -0.210522 -0.356558 -0.055348
v -0.219700 -0.355834 -0.033833
v -0.209017 -0.337140 -0.049651
v -0.216158 -0.336874 -0.032114
v -0.185300 -0.308558 -0.081171
v -0.202016 -0.307504 -0.051676
v -0.209413 -0.321963 -0.041312
v -0.243964 -0.417947 0.010309
v -0.238496 -0.396349 0.008178
v -0.248615 -0.457393 -0.014683
v -0.250256 -0.484628 -0.028727
v -0.257361 -0.476502 0.007491
v -0.256978 -0.492581 -0.011583
v -0.255272 -0.502824 -0.023346
v -0.034237 -0.528856 -0.186201
v -0.044793 -0.545319 -0.185502
v -0.055891 -0.532942 -0.183829
v -0.063582 -0.556369 -0.182409
v -0.074029 -0.542759 -0.180545
v -0.013151 -0.352395 -0.171312
v -0.017620 -0.370615 -0.173769
v -0.049844 -0.413131 -0.175604
v -0.009541 -0.402361 -0.177107
v -0.050889 -0.448799 -0.178128
v -0.014476 -0.448447 -0.181130
v -0.014907 -0.469088 -0.183067
v -0.018023 -0.489417 -0.185009
v -0.030216 -0.457296 -0.181207
v -0.150757 -0.549125 -0.148659
v -0.094805 -0.541586 -0.174663
v -0.097409 -0.522110 -0.173280
v -0.204049 -0.529545 -0.105540
v -0.177001 -0.515588 -0.129347
v -0.208089 -0.264512 -0.010447
v -0.214121 -0.298893 -0.007771
v -0.217147 -0.303438 0.008914
v -0.195976 -0.212345 -0.026951
v -0.184391 -0.239931 -0.062614
v -0.193078 -0.228092 -0.041723
v -0.205395 -0.241763 -0.002178
v -0.018002 -0.275062 -0.160181
v -0.038948 -0.242783 -0.153492
v -0.073332 -0.266760 -0.151691
v -0.055111 -0.251536 -0.153226
v -0.073796 -0.244164 -0.148302
v -0.046339 -0.265929 -0.156540
v -0.050659 -0.229529 -0.149645
v -0.082286 -0.222651 -0.142125
v -0.019954 -0.332495 -0.168180
v -0.216606 -0.527829 -0.091368
v -0.207084 -0.513047 -0.101385
v -0.192842 -0.505165 -0.114839
v -0.184067 -0.492829 -0.121052
v -0.248702 -0.439855 0.007237
v -0.186302 -0.354662 -0.091726
v -0.200437 -0.341960 -0.068031
v -0.240215 -0.413758 -0.006462
v -0.252689 -0.473186 -0.013390
v -0.236578 -0.465579 -0.051766
v -0.231028 -0.481535 -0.066393
v -0.050363 -0.509403 -0.183769
v -0.034397 -0.501217 -0.185159
v -0.049245 -0.378278 -0.171808
v -0.033280 -0.366202 -0.172436
v -0.015322 -0.424548 -0.179108
v -0.031234 -0.479514 -0.183634
v -0.139824 -0.512601 -0.154035
v -0.159004 -0.522449 -0.142937
v -0.154462 -0.504847 -0.144452
v -0.155674 -0.482600 -0.141469
v -0.140067 -0.486980 -0.151472
v -0.120550 -0.516652 -0.163925
v -0.123966 -0.494493 -0.160575
v -0.181938 -0.534486 -0.126211
v -0.026834 -0.263445 -0.158044
v -0.037491 -0.284731 -0.160363
v -0.042009 -0.213104 -0.147629
v -0.209134 -0.284271 -0.020951
v -0.210777 -0.304352 -0.027687
v -0.195227 -0.316573 -0.067562
v -0.244921 -0.468863 -0.034832
v -0.241833 -0.490282 -0.049740
v -0.224637 -0.464286 -0.070893
v -0.212106 -0.460648 -0.086930
v -0.204516 -0.476954 -0.098485
v -0.202210 -0.492347 -0.103849
v -0.198289 -0.455754 -0.101657
v -0.173920 -0.454389 -0.124468
v -0.186771 -0.445555 -0.111256
v -0.170190 -0.471967 -0.129590
v -0.188081 -0.468288 -0.114038
v -0.074295 -0.347512 -0.162699
v -0.044980 -0.398785 -0.174798
v -0.057388 -0.428961 -0.175662
v -0.149520 -0.466816 -0.143689
v -0.202158 -0.285198 -0.043202
v -0.184061 -0.259122 -0.069845
v -0.232393 -0.500396 -0.067824
v -0.089450 -0.387487 -0.162730
v -0.069658 -0.379368 -0.167826
v -0.126882 -0.468388 -0.156636
v -0.181427 -0.219821 -0.062613
v -0.185850 -0.282676 -0.073210
v -0.177777 -0.295653 -0.088257
v -0.171052 -0.308465 -0.099097
v -0.181800 -0.325263 -0.090058
v -0.177009 -0.371054 -0.105874
v -0.066687 -0.328622 -0.161985
v -0.076535 -0.399077 -0.168280
v -0.117103 -0.420029 -0.154782
v -0.107747 -0.373310 -0.153727
v -0.096021 -0.410584 -0.162891
v -0.111560 -0.397987 -0.154924
v -0.132821 -0.407647 -0.144996
v -0.086966 -0.366616 -0.161278
v -0.114175 -0.335825 -0.146125
v -0.112946 -0.353619 -0.149162
v -0.067226 -0.363348 -0.166496
v -0.073513 -0.443958 -0.173095
v -0.103597 -0.434554 -0.162280
v -0.172480 -0.238079 -0.080543
v -0.151074 -0.322942 -0.120350
v -0.206168 -0.378346 -0.069788
v -0.051531 -0.356906 -0.168960
v -0.124077 -0.366197 -0.144861
v -0.140338 -0.449011 -0.146962
v -0.136137 -0.427708 -0.145974
v -0.148997 -0.409720 -0.135189
v -0.173151 -0.434017 -0.121354
v -0.154510 -0.429345 -0.134832
v -0.170874 -0.407674 -0.117933
v -0.181956 -0.390736 -0.104428
v -0.203288 -0.436710 -0.092768
v -0.211123 -0.428174 -0.081070
v -0.201232 -0.414286 -0.089892
v -0.070248 -0.461020 -0.176025
v -0.106419 -0.480827 -0.167184
v -0.174542 -0.253186 -0.082105
v -0.188624 -0.207933 -0.045572
v -0.165601 -0.327787 -0.108187
v -0.157723 -0.310291 -0.112623
v -0.139000 -0.312555 -0.128089
v -0.156547 -0.341734 -0.119070
v -0.137391 -0.333452 -0.132630
v -0.161185 -0.361582 -0.118991
v -0.151767 -0.375322 -0.128794
v -0.139184 -0.368415 -0.136345
v -0.167866 -0.387483 -0.117572
v -0.157422 -0.395527 -0.126823
v -0.174110 -0.346783 -0.103963
v -0.198758 -0.356468 -0.075015
v -0.191858 -0.371021 -0.088080
v -0.127495 -0.349377 -0.140888
v -0.143876 -0.351281 -0.130529
v -0.230188 -0.445887 -0.055367
v -0.240349 -0.447163 -0.032770
v -0.224888 -0.402473 -0.046043
v -0.213707 -0.405279 -0.069093
v -0.096877 -0.350748 -0.155636
v -0.090336 -0.332310 -0.155806
v -0.058038 -0.308602 -0.160914
v -0.090379 -0.451877 -0.169325
v -0.107981 -0.459200 -0.164050
v -0.086337 -0.470198 -0.172930
v -0.072343 -0.485403 -0.178115
v -0.051858 -0.488438 -0.182191
v -0.066730 -0.503843 -0.180635
v -0.088688 -0.487950 -0.173979
v -0.083820 -0.506665 -0.176824
v -0.103007 -0.502464 -0.170131
v -0.100909 -0.315663 -0.149516
v -0.123271 -0.318044 -0.138878
v -0.089758 -0.297236 -0.151363
v -0.110561 -0.296917 -0.142820
v -0.128001 -0.298768 -0.133426
v -0.055233 -0.290608 -0.158857
v -0.085607 -0.283044 -0.150758
v -0.124565 -0.385410 -0.146981
v -0.137997 -0.391311 -0.140026
v -0.198068 -0.393873 -0.087255
v -0.233862 -0.428025 -0.039558
v -0.134149 -0.284828 -0.127512
v -0.071645 -0.297671 -0.156611
v -0.089333 -0.253156 -0.145241
v -0.094984 -0.267933 -0.145127
v -0.128388 -0.263036 -0.127882
v -0.120942 -0.277318 -0.134544
v -0.108155 -0.258235 -0.138522
v -0.144166 -0.254970 -0.115102
v -0.161583 -0.265221 -0.100203
v -0.130222 -0.243327 -0.123903
v -0.160029 -0.250673 -0.098936
v -0.145403 -0.273186 -0.117112
v -0.160771 -0.288014 -0.105578
v -0.173068 -0.273542 -0.088632
v -0.194837 -0.250971 -0.046573
v -0.201971 -0.267924 -0.034906
v -0.201431 -0.245704 -0.025733
v -0.168268 -0.222709 -0.082921
v -0.044695 -0.327059 -0.165329
v -0.103702 -0.220576 -0.134292
v -0.097653 -0.240635 -0.140886
v -0.144317 -0.211207 -0.106881
v -0.129474 -0.225355 -0.121463
v -0.147540 -0.235029 -0.108857
v -0.157182 -0.210363 -0.094185
v -0.247838 -0.430676 0.031641
v -0.167100 -0.507822 0.201530
v -0.115995 -0.504930 0.232161
v -0.185797 -0.430301 0.164420
v -0.060254 -0.436449 0.236709
v -0.050271 -0.464411 0.246525
v 0.007941 -0.380974 0.233863
v -0.199729 -0.224894 0.046484
v -0.216493 -0.349754 0.084264
v -0.166201 -0.261315 0.129125
v -0.181942 -0.333956 0.134557
v -0.191124 -0.357081 0.133319
v -0.083730 -0.246779 0.183323
v 0.082436 -0.514022 0.262322
v 0.206648 -0.420246 0.168564
v 0.050451 -0.396172 0.236243
v 0.222281 -0.390003 0.129893
v 0.207681 -0.382973 0.149504
v 0.202335 -0.289093 0.107883
v 0.206139 -0.236579 0.021682
v 0.020612 -0.440611 -0.178623
v 0.090403 -0.537090 -0.167926
v 0.101260 -0.550403 -0.163307
v 0.046858 -0.442364 -0.174475
v 0.080607 -0.277366 -0.145759
v 0.207591 -0.460299 -0.075133
v 0.129240 -0.451480 -0.142670
v 0.172525 -0.419406 -0.105810
v 0.042477 -0.308536 -0.160238
v 0.104261 -0.306536 -0.138484
v 0.124049 -0.314521 -0.128024
v 0.092531 -0.259062 -0.139544
v 0.110987 -0.255839 -0.130025
v 0.205268 -0.285583 -0.021438
v -0.209548 -0.261243 0.009342
v -0.266518 -0.526007 0.010572
v -0.113666 -0.537936 -0.167534
v -0.132268 -0.560043 -0.158411
v -0.160573 -0.451990 -0.134259
v -0.188757 -0.338048 -0.084363
v -0.188457 -0.413419 -0.103099
v -0.224120 -0.429689 -0.060326
v -0.239016 -0.421631 -0.020197
v -0.079579 -0.522214 -0.178499
v -0.102719 -0.279414 -0.143692
v -0.117649 -0.240733 -0.131478
v -0.249549 -0.526377 0.106395
v -0.034529 -0.301419 0.210512
v -0.099655 -0.449508 0.226065
v -0.044254 -0.390081 0.229037
v -0.240895 -0.473035 0.105170
v -0.189135 -0.260064 0.095278
v -0.065831 -0.249450 0.190871
v 0.026275 -0.527713 0.270736
v 0.199474 -0.510531 0.204098
v 0.247368 -0.415351 0.053964
v 0.092315 -0.377528 0.223636
v 0.227959 -0.430022 0.143334
v 0.024079 -0.245710 0.202894
v 0.155581 -0.383960 0.197736
v 0.200635 -0.508718 -0.089996
v 0.149327 -0.532067 -0.136403
v 0.219009 -0.431271 -0.052015
v 0.193340 -0.291969 -0.051340
v 0.190611 -0.364865 -0.074304
v 0.182190 -0.378029 -0.087827
v 0.200366 -0.306182 -0.042781
v 0.126486 -0.228895 -0.116479
v 0.117957 -0.234430 -0.123215
v -0.226240 -0.381784 -0.031755
v -0.222858 -0.327152 0.009342
v -0.235637 -0.399340 -0.012752
v -0.230451 -0.400524 -0.031873
v -0.060575 -0.399536 -0.172140
v -0.156536 -0.228315 -0.098480
v -0.024630 -0.315756 -0.165635
v -0.054664 -0.342753 -0.166480
v -0.192666 -0.292454 -0.065008
v -0.168235 -0.494395 -0.133751
v -0.081045 -0.430535 -0.169842
v -0.185024 -0.426814 -0.109221
v -0.039170 -0.303853 -0.162718
v -0.067246 -0.280026 -0.154977
v 0.087100 -0.319311 -0.147823
# 1290 vertices, 0 vertices normals

f 14 15 76
f 17 52 16
f 76 15 16
f 76 13 14
f 26 27 68
f 85 70 84
f 71 85 11
f 66 23 24
f 32 33 59
f 104 9 10
f 24 25 65
f 7 126 127
f 111 112 135
f 28 62 27
f 18 1253 52
f 7 127 6
f 1253 57 53
f 52 17 18
f 182 6 127
f 22 23 64
f 149 105 147
f 155 146 5
f 3 144 2
f 37 90 390
f 964 84 10
f 19 20 57
f 77 87 52
f 55 32 59
f 60 91 57
f 81 62 28
f 65 25 26
f 312 67 80
f 31 32 55
f 63 55 67
f 33 34 56
f 46 121 120
f 56 50 59
f 34 75 56
f 94 95 49
f 78 21 22
f 35 51 34
f 60 21 78
f 109 38 39
f 21 60 20
f 130 43 161
f 61 81 29
f 30 63 61
f 122 119 121
f 64 92 78
f 41 107 128
f 56 59 33
f 128 1213 443
f 75 34 51
f 29 30 61
f 55 63 31
f 60 57 20
f 61 63 67
f 66 64 23
f 63 30 31
f 18 19 1253
f 50 94 98
f 226 72 181
f 65 66 24
f 81 28 29
f 92 64 66
f 68 65 26
f 194 100 193
f 69 68 62
f 58 69 194
f 62 1209 69
f 58 113 1208
f 71 86 85
f 133 40 499
f 371 90 36
f 50 56 75
f 50 75 74
f 74 75 36
f 87 76 52
f 71 13 76
f 11 12 71
f 87 77 47
f 125 77 53
f 57 1253 19
f 225 1210 54
f 78 92 93
f 78 22 64
f 55 79 67
f 67 79 80
f 55 59 98
f 80 79 49
f 49 79 94
f 79 55 98
f 49 95 1212
f 1209 62 81
f 207 199 208
f 9 104 1207
f 85 84 964
f 84 70 105
f 11 85 964
f 87 86 71
f 175 86 47
f 70 85 86
f 86 87 47
f 76 87 71
f 179 126 180
f 204 203 199
f 141 116 117
f 116 141 1211
f 159 160 1254
f 162 221 1254
f 115 96 1212
f 1212 95 114
f 73 94 74
f 36 90 74
f 53 57 91
f 77 1253 53
f 78 91 60
f 93 134 91
f 92 111 93
f 164 163 111
f 90 73 74
f 95 94 73
f 136 141 117
f 95 73 114
f 1212 96 97
f 115 1212 114
f 37 114 73
f 102 1255 99
f 100 312 101
f 79 98 94
f 97 101 80
f 312 80 101
f 58 194 222
f 101 97 102
f 99 100 101
f 1211 141 167
f 101 102 99
f 167 1255 102
f 182 127 154
f 199 203 219
f 106 83 124
f 84 104 10
f 175 125 1257
f 126 8 180
f 154 127 179
f 142 45 119
f 110 39 40
f 499 1213 133
f 110 40 89
f 89 40 133
f 109 114 38
f 178 134 163
f 147 105 70
f 134 93 163
f 78 93 91
f 112 66 113
f 135 54 164
f 112 92 66
f 112 165 135
f 185 113 58
f 65 1208 66
f 165 112 113
f 38 114 37
f 115 114 109
f 115 109 116
f 116 110 89
f 158 139 138
f 138 139 137
f 117 116 89
f 118 89 133
f 118 107 138
f 137 229 136
f 89 118 1256
f 102 97 96
f 80 49 97
f 1212 97 49
f 50 74 94
f 59 50 98
f 102 96 1211
f 131 184 130
f 45 120 119
f 119 120 121
f 249 258 247
f 143 184 131
f 198 122 121
f 191 3 4
f 103 1214 144
f 106 124 8
f 104 105 106
f 84 105 104
f 77 125 47
f 125 53 177
f 127 126 179
f 124 180 8
f 154 179 88
f 155 6 182
f 173 146 172
f 133 128 118
f 156 41 129
f 160 42 43
f 129 108 156
f 129 42 160
f 160 130 1254
f 45 142 44
f 122 132 143
f 109 39 110
f 128 133 1213
f 134 53 91
f 53 134 177
f 112 111 92
f 137 136 1256
f 1256 136 117
f 229 140 136
f 138 137 1256
f 229 137 187
f 158 138 107
f 140 48 167
f 96 115 1211
f 143 142 119
f 161 44 131
f 122 143 119
f 143 132 184
f 1 2 1214
f 168 103 170
f 191 144 3
f 145 123 4
f 145 5 146
f 4 123 191
f 123 145 146
f 70 86 175
f 175 47 125
f 70 175 147
f 149 176 148
f 176 147 1257
f 149 148 153
f 180 151 150
f 83 153 151
f 153 83 149
f 105 149 83
f 153 152 151
f 152 181 150
f 152 150 151
f 88 150 181
f 205 154 1215
f 146 155 172
f 107 41 156
f 159 157 108
f 183 235 253
f 158 107 156
f 159 221 157
f 160 159 108
f 130 160 43
f 142 131 44
f 130 161 131
f 213 183 157
f 163 93 111
f 164 54 308
f 163 164 296
f 135 164 111
f 253 139 183
f 136 140 141
f 1211 167 102
f 140 167 141
f 144 1214 2
f 189 278 170
f 170 169 168
f 171 170 103
f 103 144 190
f 1215 200 205
f 146 173 123
f 199 174 173
f 147 175 1257
f 192 177 178
f 177 134 178
f 296 178 163
f 150 88 179
f 151 180 124
f 179 180 150
f 260 261 305
f 202 181 72
f 202 88 181
f 182 154 205
f 155 182 172
f 108 158 156
f 158 157 183
f 130 184 1254
f 143 131 142
f 244 184 132
f 1254 184 162
f 185 165 113
f 48 140 227
f 135 165 195
f 231 229 230
f 230 187 271
f 139 187 137
f 170 188 169
f 189 218 278
f 191 190 144
f 174 191 123
f 190 171 103
f 190 174 207
f 191 174 190
f 173 174 123
f 212 206 1216
f 147 176 149
f 192 176 1257
f 177 1257 125
f 187 139 253
f 183 139 158
f 282 249 248
f 1209 194 69
f 186 196 222
f 99 193 100
f 100 194 1209
f 222 194 193
f 195 54 135
f 54 195 225
f 165 196 195
f 196 186 240
f 185 196 165
f 166 232 269
f 1255 241 239
f 229 187 230
f 275 198 82
f 233 198 121
f 170 171 189
f 88 202 1215
f 1215 202 201
f 200 1215 201
f 216 200 201
f 204 200 203
f 204 199 173
f 203 200 216
f 172 204 173
f 207 208 1258
f 199 207 174
f 190 207 171
f 208 212 209
f 215 214 219
f 221 162 245
f 237 1218 259
f 220 217 214
f 279 206 250
f 209 218 189
f 213 210 235
f 219 203 215
f 237 201 202
f 203 216 215
f 288 290 257
f 218 209 1216
f 281 234 218
f 297 276 298
f 184 244 162
f 248 247 246
f 254 235 258
f 259 201 237
f 214 206 212
f 251 287 250
f 219 214 212
f 291 220 211
f 217 206 214
f 221 213 157
f 213 221 252
f 222 185 58
f 185 222 196
f 239 222 193
f 99 239 193
f 264 223 166
f 267 152 238
f 303 226 267
f 224 309 1210
f 311 306 307
f 152 226 181
f 48 197 241
f 227 140 229
f 197 48 227
f 197 228 241
f 222 239 186
f 223 240 166
f 197 231 232
f 227 229 231
f 231 230 270
f 227 231 197
f 197 232 228
f 243 218 234
f 82 272 274
f 235 210 258
f 265 269 266
f 213 235 183
f 226 303 292
f 72 237 202
f 292 1218 237
f 1255 239 99
f 241 1255 48
f 153 238 152
f 176 192 295
f 148 238 153
f 306 267 238
f 186 239 241
f 232 166 228
f 264 269 265
f 195 196 240
f 228 240 186
f 241 228 186
f 270 230 242
f 271 253 254
f 290 266 270
f 243 278 218
f 188 170 278
f 244 299 245
f 132 122 1259
f 246 245 299
f 221 245 252
f 244 245 162
f 248 249 247
f 210 213 252
f 246 247 252
f 282 251 249
f 282 248 283
f 206 217 250
f 256 313 263
f 263 217 291
f 252 245 246
f 252 247 210
f 187 253 271
f 254 253 235
f 255 254 236
f 254 257 271
f 255 256 301
f 288 257 255
f 313 251 263
f 242 271 257
f 255 257 254
f 254 258 236
f 247 258 210
f 258 249 236
f 1217 215 259
f 304 303 310
f 215 216 259
f 201 259 216
f 261 1217 1218
f 259 1218 1217
f 300 289 302
f 261 211 1217
f 261 260 211
f 260 262 211
f 217 220 291
f 301 288 255
f 262 291 211
f 291 256 263
f 289 262 260
f 262 301 291
f 292 304 1218
f 264 224 225
f 265 293 294
f 223 264 225
f 166 269 264
f 300 290 288
f 266 300 293
f 152 267 226
f 311 267 306
f 192 178 268
f 308 307 268
f 270 269 232
f 266 269 270
f 270 232 231
f 270 242 290
f 230 271 242
f 285 286 280
f 277 248 246
f 273 284 272
f 285 280 287
f 1219 274 284
f 272 284 274
f 198 275 122
f 274 1219 275
f 82 274 275
f 1219 1259 275
f 234 276 243
f 298 286 297
f 277 246 299
f 298 276 234
f 280 298 234
f 206 279 281
f 280 281 279
f 283 248 277
f 251 282 287
f 282 283 285
f 286 284 273
f 297 286 273
f 284 285 283
f 280 286 298
f 285 284 286
f 279 287 280
f 285 287 282
f 279 250 287
f 250 217 263
f 250 263 251
f 288 301 289
f 300 302 293
f 262 289 301
f 289 260 302
f 257 290 242
f 256 291 301
f 294 293 302
f 265 266 293
f 305 294 302
f 264 265 224
f 295 148 176
f 238 295 306
f 148 295 238
f 268 295 192
f 307 295 268
f 307 309 311
f 132 299 244
f 1259 299 132
f 275 1259 122
f 1219 277 1259
f 283 277 1219
f 281 280 234
f 290 300 266
f 289 300 288
f 260 305 302
f 311 310 303
f 310 305 304
f 261 304 305
f 292 303 304
f 292 72 226
f 237 72 292
f 310 294 305
f 307 306 295
f 268 296 308
f 308 296 164
f 310 309 224
f 267 311 303
f 307 308 309
f 294 310 224
f 310 311 309
f 312 1209 61
f 313 236 249
f 255 236 256
f 236 313 256
f 251 313 249
f 364 341 340
f 380 332 331
f 37 442 38
f 334 385 386
f 358 365 363
f 128 443 41
f 429 428 415
f 347 1260 51
f 380 359 332
f 346 345 352
f 362 337 1261
f 358 340 339
f 363 353 358
f 360 1261 336
f 390 90 371
f 1265 487 45
f 385 333 359
f 44 1265 45
f 382 349 430
f 346 1260 347
f 476 479 388
f 384 385 359
f 361 352 345
f 372 329 328
f 352 361 348
f 359 395 384
f 387 405 1261
f 338 362 365
f 357 356 342
f 438 364 353
f 387 1261 360
f 335 334 386
f 362 338 337
f 360 336 335
f 358 364 340
f 357 364 438
f 333 385 334
f 330 355 381
f 333 332 359
f 316 485 317
f 330 381 331
f 358 353 364
f 374 355 372
f 405 403 363
f 372 327 326
f 373 372 326
f 357 341 364
f 337 336 1261
f 372 328 327
f 358 339 365
f 400 461 438
f 381 355 374
f 353 403 400
f 329 355 330
f 386 360 335
f 35 347 51
f 346 352 1260
f 341 357 342
f 348 370 352
f 372 355 329
f 363 365 362
f 375 383 382
f 342 356 343
f 479 503 507
f 361 345 344
f 350 463 394
f 338 365 339
f 344 343 356
f 444 1262 543
f 416 562 417
f 348 367 371
f 370 348 371
f 371 367 390
f 75 51 36
f 1260 352 370
f 36 370 371
f 373 326 325
f 374 372 373
f 324 373 325
f 378 383 375
f 377 381 376
f 395 351 384
f 377 376 375
f 378 376 396
f 377 375 351
f 375 382 351
f 430 424 382
f 379 373 324
f 398 391 397
f 381 380 331
f 380 377 395
f 381 374 376
f 380 381 377
f 369 383 378
f 349 382 383
f 376 378 375
f 397 369 378
f 385 384 354
f 386 385 354
f 357 460 356
f 356 460 350
f 360 386 473
f 466 314 464
f 43 489 161
f 469 436 459
f 390 367 471
f 500 443 1213
f 368 522 501
f 319 318 446
f 480 486 315
f 396 374 373
f 394 393 348
f 367 348 393
f 394 348 361
f 471 367 449
f 350 394 1220
f 393 394 452
f 380 395 359
f 351 395 377
f 374 396 376
f 379 396 373
f 324 323 398
f 398 379 324
f 398 397 379
f 322 398 323
f 542 391 444
f 369 397 391
f 386 354 473
f 400 438 353
f 399 404 403
f 409 402 404
f 402 400 404
f 408 411 401
f 462 400 402
f 412 413 415
f 419 401 412
f 402 408 401
f 412 401 411
f 419 462 401
f 353 363 403
f 405 363 362
f 403 404 400
f 406 447 399
f 399 403 405
f 387 406 405
f 399 405 406
f 448 407 410
f 410 409 448
f 426 408 409
f 402 409 408
f 426 409 410
f 417 411 426
f 417 562 414
f 413 412 411
f 414 427 413
f 419 418 420
f 414 411 417
f 413 427 422
f 425 410 407
f 414 564 427
f 413 411 414
f 428 412 415
f 451 418 433
f 420 451 450
f 428 433 418
f 420 418 451
f 425 416 410
f 416 417 426
f 418 419 412
f 436 469 433
f 450 451 449
f 419 420 475
f 463 350 439
f 422 435 429
f 422 1263 456
f 407 448 494
f 430 431 424
f 425 470 423
f 351 382 434
f 407 494 470
f 382 424 434
f 416 426 410
f 422 427 1263
f 428 418 412
f 530 383 369
f 434 424 432
f 415 422 429
f 437 433 428
f 455 435 474
f 428 429 437
f 433 437 436
f 471 449 469
f 544 1264 349
f 387 472 406
f 434 384 351
f 433 469 451
f 495 432 424
f 384 434 354
f 429 1222 437
f 435 456 474
f 456 457 474
f 40 39 458
f 437 1222 454
f 459 39 38
f 475 461 462
f 439 350 460
f 421 463 439
f 461 439 460
f 439 475 421
f 467 466 440
f 566 478 484
f 518 455 474
f 469 459 442
f 390 442 37
f 444 391 322
f 398 322 391
f 744 321 1262
f 529 542 543
f 446 520 528
f 492 528 520
f 490 318 317
f 493 446 528
f 406 472 498
f 448 399 447
f 448 447 494
f 421 420 450
f 452 421 450
f 450 393 452
f 450 449 393
f 449 451 469
f 472 473 453
f 495 453 432
f 499 458 454
f 500 454 1222
f 435 455 1222
f 422 456 435
f 456 368 457
f 458 39 459
f 459 436 458
f 454 458 436
f 437 454 436
f 40 458 499
f 438 460 357
f 438 461 460
f 400 462 461
f 462 402 401
f 420 421 475
f 463 421 452
f 394 463 452
f 440 466 464
f 565 485 486
f 477 467 440
f 478 477 502
f 465 467 477
f 487 46 120
f 488 44 161
f 488 526 525
f 129 517 42
f 442 459 38
f 469 442 471
f 493 321 320
f 1262 321 445
f 490 446 318
f 493 319 446
f 485 490 317
f 490 568 520
f 445 321 493
f 495 496 498
f 423 1221 582
f 407 470 425
f 423 470 1221
f 497 1221 470
f 390 471 442
f 393 449 367
f 473 472 387
f 472 453 498
f 473 387 360
f 453 354 432
f 473 354 453
f 461 475 439
f 419 475 462
f 464 476 440
f 476 388 502
f 502 388 478
f 440 476 502
f 484 524 550
f 483 481 482
f 502 477 440
f 482 477 478
f 478 388 484
f 524 479 507
f 481 480 465
f 485 316 486
f 465 480 467
f 482 481 465
f 565 481 483
f 482 465 477
f 483 566 1225
f 566 483 482
f 611 609 622
f 484 550 566
f 316 315 486
f 481 486 480
f 488 1265 44
f 489 488 161
f 514 43 42
f 129 41 517
f 514 42 468
f 455 443 500
f 468 42 517
f 552 510 551
f 490 491 568
f 485 491 490
f 490 520 446
f 541 521 553
f 521 392 445
f 320 319 493
f 496 494 447
f 470 494 497
f 424 431 495
f 494 496 497
f 498 496 447
f 496 495 497
f 498 447 406
f 500 499 454
f 455 500 1222
f 518 443 455
f 522 368 531
f 506 507 503
f 506 504 507
f 479 524 388
f 505 524 507
f 512 508 532
f 512 511 508
f 1265 509 487
f 508 509 532
f 532 1265 525
f 512 532 513
f 573 580 572
f 512 510 576
f 510 512 513
f 510 552 576
f 533 526 534
f 515 514 441
f 515 441 516
f 514 515 489
f 535 516 441
f 489 43 514
f 443 517 41
f 546 518 457
f 506 519 504
f 521 528 492
f 492 554 553
f 392 521 541
f 368 501 457
f 468 441 514
f 535 441 523
f 504 366 548
f 505 507 504
f 579 548 366
f 524 505 550
f 388 524 484
f 45 487 120
f 513 532 525
f 488 525 1265
f 533 525 526
f 489 526 488
f 515 526 489
f 534 515 516
f 534 569 389
f 504 519 366
f 580 519 540
f 493 528 445
f 530 529 545
f 529 530 369
f 369 391 542
f 530 545 544
f 383 530 349
f 559 1223 583
f 1262 392 543
f 528 521 445
f 597 522 531
f 539 501 522
f 457 501 523
f 517 546 468
f 441 468 523
f 546 523 468
f 581 580 573
f 563 590 597
f 533 513 525
f 526 515 534
f 569 534 516
f 389 533 534
f 576 511 512
f 569 516 527
f 535 523 501
f 527 516 535
f 600 539 593
f 592 599 593
f 569 538 575
f 537 535 501
f 527 536 538
f 536 527 537
f 537 527 535
f 601 603 578
f 501 539 537
f 366 519 580
f 553 521 492
f 545 541 555
f 543 542 444
f 542 529 369
f 444 715 1262
f 541 543 392
f 430 349 1264
f 530 544 349
f 559 545 555
f 545 529 541
f 543 541 529
f 443 518 517
f 523 546 457
f 366 580 581
f 505 548 549
f 579 547 548
f 548 547 549
f 616 550 618
f 504 548 505
f 505 549 550
f 533 389 551
f 513 551 510
f 572 570 571
f 552 551 574
f 552 571 576
f 541 553 555
f 559 557 1264
f 1223 555 553
f 392 1262 445
f 562 416 1266
f 431 557 1221
f 583 1224 582
f 583 1223 1224
f 544 545 559
f 557 559 583
f 564 531 427
f 561 425 423
f 416 425 561
f 606 596 560
f 554 620 558
f 561 423 560
f 416 561 1266
f 584 606 560
f 562 564 414
f 564 562 563
f 590 563 591
f 597 531 564
f 597 564 563
f 485 565 491
f 481 565 486
f 478 566 482
f 616 566 550
f 614 620 621
f 568 567 492
f 492 567 554
f 483 612 565
f 610 611 612
f 568 491 622
f 498 453 495
f 538 569 527
f 570 580 540
f 571 552 572
f 580 570 572
f 572 574 573
f 574 389 575
f 569 575 389
f 602 578 538
f 538 578 575
f 603 577 578
f 574 575 577
f 581 579 366
f 603 579 577
f 552 574 572
f 577 573 574
f 577 581 573
f 579 581 577
f 558 556 1224
f 557 583 582
f 584 1224 556
f 560 423 582
f 582 1224 584
f 609 621 622
f 603 604 605
f 582 584 560
f 588 586 614
f 554 558 1223
f 558 620 586
f 602 601 578
f 558 586 556
f 614 586 620
f 589 606 556
f 613 588 614
f 589 588 587
f 585 594 587
f 589 587 594
f 592 594 585
f 597 590 593
f 590 592 593
f 561 560 596
f 591 596 595
f 563 1266 591
f 593 599 600
f 595 594 592
f 606 594 595
f 1266 561 596
f 595 596 606
f 1266 596 591
f 593 539 597
f 522 597 539
f 602 536 600
f 598 592 585
f 592 598 599
f 585 608 604
f 601 599 598
f 600 536 537
f 587 617 608
f 547 607 618
f 601 602 599
f 536 602 538
f 539 600 537
f 602 600 599
f 604 603 601
f 604 601 598
f 585 604 598
f 594 606 589
f 607 547 605
f 608 607 605
f 588 613 617
f 605 604 608
f 587 608 585
f 617 607 608
f 611 622 491
f 612 1225 610
f 613 609 610
f 612 611 491
f 609 611 610
f 565 612 491
f 615 610 1225
f 613 615 619
f 609 613 614
f 1225 616 615
f 613 619 617
f 616 618 619
f 566 616 1225
f 618 550 549
f 616 619 615
f 588 617 587
f 547 618 549
f 607 619 618
f 617 619 607
f 567 620 554
f 621 620 567
f 622 621 567
f 621 609 614
f 568 622 567
f 595 590 591
f 592 590 595
f 325 326 327
f 325 327 328
f 328 654 325
f 672 325 654
f 654 328 623
f 675 662 677
f 680 629 630
f 743 320 321
f 1229 636 637
f 316 317 721
f 322 323 741
f 729 467 480
f 652 987 726
f 638 688 687
f 638 639 688
f 660 661 641
f 725 701 724
f 725 753 701
f 642 660 641
f 758 791 651
f 792 651 791
f 750 649 650
f 648 649 751
f 625 626 677
f 323 324 671
f 655 654 623
f 623 624 655
f 662 624 625
f 627 676 677
f 662 655 624
f 655 662 664
f 633 634 686
f 649 750 751
f 660 659 661
f 660 643 659
f 661 659 709
f 640 641 661
f 662 675 664
f 671 673 323
f 677 662 625
f 664 672 655
f 675 676 717
f 675 693 664
f 720 693 719
f 318 319 696
f 810 656 778
f 765 729 730
f 764 721 697
f 691 639 640
f 1229 637 687
f 711 708 709
f 710 711 709
f 691 661 709
f 691 708 688
f 672 671 324
f 325 672 324
f 655 672 654
f 673 679 741
f 663 787 839
f 748 749 817
f 719 717 692
f 693 675 717
f 678 627 628
f 717 676 674
f 627 677 626
f 675 677 676
f 676 627 678
f 722 628 629
f 676 678 674
f 664 694 671
f 672 664 671
f 693 694 664
f 671 694 673
f 695 679 720
f 697 789 865
f 696 790 318
f 718 674 699
f 710 712 658
f 685 645 646
f 647 733 1023
f 698 736 737
f 688 639 691
f 637 638 687
f 670 690 669
f 690 644 669
f 669 644 689
f 690 670 643
f 659 670 709
f 659 643 670
f 661 691 640
f 709 670 710
f 715 741 742
f 744 742 716
f 718 717 674
f 694 693 720
f 789 817 788
f 698 630 631
f 736 632 706
f 722 680 699
f 678 628 722
f 698 680 630
f 768 680 698
f 717 718 692
f 678 722 674
f 674 722 699
f 1267 699 680
f 758 652 726
f 792 700 750
f 647 648 752
f 701 753 754
f 730 480 315
f 761 762 760
f 644 703 689
f 646 733 734
f 704 645 1227
f 767 685 734
f 735 634 635
f 707 635 636
f 706 772 737
f 632 736 631
f 735 686 634
f 632 633 706
f 1228 1229 687
f 707 705 735
f 658 714 812
f 636 1229 707
f 770 705 707
f 688 708 769
f 709 708 691
f 710 670 669
f 712 710 669
f 710 658 711
f 712 669 689
f 740 711 658
f 708 711 769
f 689 713 712
f 703 704 713
f 714 658 712
f 744 715 742
f 322 741 715
f 742 679 695
f 741 679 742
f 692 787 719
f 745 775 746
f 720 719 663
f 693 717 719
f 720 663 838
f 694 720 679
f 748 696 319
f 790 721 317
f 736 698 631
f 680 722 629
f 745 1267 775
f 737 772 809
f 723 768 809
f 1267 680 768
f 698 737 768
f 768 723 1267
f 724 726 725
f 726 987 725
f 753 725 727
f 726 724 758
f 753 727 702
f 759 682 753
f 466 467 1226
f 730 729 480
f 315 316 766
f 684 729 765
f 731 732 713
f 704 731 713
f 733 646 1023
f 685 646 734
f 752 648 751
f 752 795 733
f 794 793 820
f 795 734 733
f 767 734 797
f 707 735 635
f 686 735 705
f 737 736 706
f 809 768 737
f 740 769 711
f 658 812 740
f 740 1228 769
f 783 781 739
f 802 779 732
f 713 732 712
f 812 779 783
f 812 783 739
f 786 740 739
f 694 679 673
f 854 742 695
f 744 743 321
f 858 743 716
f 716 743 744
f 745 718 699
f 1267 745 699
f 746 747 745
f 746 1232 747
f 787 663 719
f 817 749 856
f 320 748 319
f 320 749 748
f 318 790 317
f 792 750 650
f 651 792 650
f 751 750 700
f 647 752 733
f 794 752 751
f 795 752 794
f 753 682 754
f 756 843 681
f 701 754 757
f 757 754 755
f 724 701 756
f 666 757 1231
f 701 757 756
f 889 887 666
f 987 653 727
f 725 987 727
f 758 681 791
f 756 681 724
f 681 758 724
f 702 759 753
f 920 682 759
f 314 466 728
f 763 761 760
f 796 1226 729
f 762 796 760
f 760 796 915
f 762 728 1226
f 915 796 684
f 730 764 765
f 697 865 875
f 764 730 766
f 764 1240 765
f 315 766 730
f 316 721 766
f 685 767 799
f 802 732 1230
f 731 704 1227
f 797 798 767
f 769 1228 687
f 688 769 687
f 784 770 781
f 705 770 771
f 772 1268 833
f 833 1268 771
f 746 775 776
f 815 834 833
f 1232 776 778
f 775 774 776
f 776 774 777
f 746 776 1232
f 833 836 773
f 810 778 777
f 832 778 656
f 1230 803 802
f 779 802 738
f 779 738 783
f 732 779 714
f 738 782 783
f 781 770 786
f 740 812 739
f 779 812 714
f 738 802 801
f 785 815 780
f 739 781 786
f 784 781 780
f 780 781 783
f 780 783 782
f 784 780 815
f 770 784 771
f 780 782 785
f 773 836 837
f 807 805 808
f 740 786 1228
f 747 692 718
f 692 747 787
f 811 747 1232
f 855 851 872
f 749 743 858
f 787 747 811
f 745 747 718
f 697 721 790
f 749 320 743
f 789 790 696
f 817 789 696
f 789 842 865
f 681 843 1235
f 1235 792 791
f 700 792 1235
f 793 751 700
f 700 844 793
f 820 822 797
f 793 794 751
f 795 797 734
f 796 762 1226
f 684 796 729
f 875 764 697
f 764 766 721
f 820 797 794
f 798 797 822
f 798 804 823
f 823 799 767
f 731 799 1230
f 1230 823 803
f 738 801 782
f 805 800 804
f 801 802 800
f 799 823 1230
f 800 802 803
f 800 803 804
f 683 878 880
f 800 807 801
f 800 805 807
f 804 798 824
f 805 804 824
f 879 892 882
f 825 1233 785
f 848 849 882
f 782 801 825
f 772 706 1268
f 772 773 809
f 723 809 773
f 810 777 814
f 777 813 814
f 851 832 656
f 1269 811 832
f 811 839 787
f 1232 832 811
f 777 778 776
f 832 1232 778
f 834 815 785
f 833 834 836
f 810 814 1234
f 813 777 774
f 836 834 835
f 835 814 813
f 771 815 833
f 784 815 771
f 748 817 696
f 788 817 856
f 841 788 665
f 857 665 856
f 788 841 842
f 788 842 789
f 697 790 789
f 681 1235 791
f 793 821 820
f 824 822 683
f 822 821 683
f 821 822 820
f 798 823 767
f 803 823 804
f 822 824 798
f 807 825 801
f 831 846 847
f 808 847 846
f 831 806 829
f 656 810 827
f 841 874 861
f 851 827 826
f 826 872 851
f 830 1234 828
f 806 847 848
f 828 1272 830
f 829 828 1234
f 835 853 814
f 829 806 867
f 1271 861 874
f 853 829 1234
f 772 833 773
f 834 785 1233
f 836 813 837
f 834 1233 835
f 1233 846 852
f 723 837 774
f 720 838 695
f 839 838 663
f 816 839 1269
f 838 839 816
f 856 665 788
f 859 874 841
f 860 842 841
f 860 875 865
f 844 700 1235
f 821 793 876
f 866 844 1235
f 876 793 844
f 876 844 866
f 862 883 901
f 683 821 877
f 831 847 806
f 884 869 871
f 848 867 806
f 849 847 808
f 868 867 869
f 805 824 880
f 881 808 805
f 849 848 847
f 849 879 882
f 683 877 878
f 821 876 877
f 863 827 830
f 827 851 656
f 828 829 867
f 852 846 831
f 811 1269 839
f 836 835 813
f 853 835 852
f 852 831 853
f 829 853 831
f 1234 814 853
f 774 837 813
f 854 858 716
f 858 840 856
f 742 854 716
f 855 840 816
f 840 858 854
f 851 1269 832
f 855 872 857
f 854 816 840
f 858 856 749
f 857 856 840
f 855 857 840
f 859 841 665
f 859 665 857
f 872 859 857
f 841 861 860
f 861 862 819
f 862 861 818
f 864 818 1271
f 861 819 860
f 819 862 873
f 863 874 826
f 863 826 827
f 864 1271 1272
f 860 865 842
f 875 860 819
f 819 1273 875
f 684 765 921
f 828 867 868
f 882 869 848
f 864 868 884
f 828 868 1272
f 869 884 868
f 848 869 867
f 885 871 869
f 869 882 885
f 871 870 890
f 859 872 826
f 883 862 818
f 826 874 859
f 886 1273 1270
f 843 666 866
f 878 877 850
f 850 879 878
f 881 880 878
f 850 892 879
f 879 849 881
f 683 880 824
f 878 879 881
f 808 881 849
f 805 880 881
f 870 896 890
f 890 884 871
f 818 864 883
f 892 885 882
f 871 885 893
f 886 1270 922
f 875 886 1240
f 1290 845 850
f 866 887 1290
f 1239 1275 918
f 888 889 1231
f 895 889 888
f 901 883 890
f 884 890 883
f 891 873 901
f 668 1270 891
f 873 862 901
f 871 893 870
f 892 893 885
f 1236 895 1237
f 870 893 1237
f 892 845 893
f 1236 889 895
f 894 895 657
f 896 870 894
f 911 912 913
f 895 888 898
f 895 898 657
f 911 901 896
f 888 1238 1239
f 682 755 754
f 1238 1231 755
f 907 905 906
f 755 682 900
f 912 894 657
f 901 890 896
f 897 899 905
f 911 913 917
f 905 899 906
f 904 917 902
f 667 763 906
f 905 907 904
f 909 908 919
f 755 900 1238
f 1238 900 919
f 904 903 897
f 898 903 902
f 903 898 918
f 903 904 902
f 917 904 907
f 891 901 911
f 902 657 898
f 897 905 904
f 667 906 899
f 760 914 763
f 914 906 763
f 914 907 906
f 903 1274 897
f 919 1239 1238
f 1274 918 1275
f 919 1275 1239
f 912 911 896
f 891 911 917
f 896 894 912
f 657 902 913
f 917 913 902
f 657 913 912
f 915 914 760
f 915 921 922
f 921 915 684
f 907 914 916
f 916 914 915
f 916 915 922
f 916 917 907
f 668 917 916
f 917 668 891
f 918 1274 903
f 888 1239 898
f 908 1275 919
f 920 909 900
f 919 900 909
f 682 920 900
f 837 723 773
f 775 723 774
f 875 1240 764
f 916 922 668
f 942 660 642
f 941 942 642
f 690 960 959
f 643 960 690
f 959 644 690
f 1020 649 648
f 660 942 943
f 939 948 940
f 933 1029 934
f 651 990 758
f 971 989 987
f 758 990 1041
f 941 940 942
f 643 660 943
f 1279 1157 1181
f 982 984 931
f 948 942 940
f 982 930 994
f 928 972 929
f 924 923 1242
f 645 1065 646
f 991 972 928
f 1040 1241 3
f 947 963 1242
f 954 926 925
f 1034 985 1241
f 925 924 958
f 963 12 11
f 1242 956 958
f 2 1 986
f 947 923 15
f 953 964 1012
f 964 953 11
f 15 14 12
f 942 948 943
f 13 12 14
f 12 947 15
f 7 975 126
f 9 1207 1054
f 10 9 974
f 947 1242 923
f 954 925 958
f 1018 939 938
f 1027 644 959
f 968 981 937
f 937 936 968
f 647 1023 966
f 931 984 932
f 1001 1056 1151
f 1288 990 1282
f 927 954 973
f 1052 962 1051
f 1011 1081 1082
f 1012 964 10
f 955 954 958
f 955 958 956
f 1082 957 1011
f 955 956 1014
f 1098 995 992
f 957 973 955
f 957 993 973
f 958 924 1242
f 960 1015 959
f 1094 1022 961
f 943 960 643
f 1018 948 939
f 966 1021 647
f 704 703 1026
f 1068 1067 980
f 988 971 987
f 1047 1044 1045
f 971 988 1042
f 994 930 929
f 976 1009 975
f 985 145 4
f 1007 1003 1004
f 12 963 947
f 963 11 953
f 974 1012 10
f 1012 974 1058
f 1168 1137 1164
f 978 1020 1064
f 1025 645 704
f 961 979 1065
f 1028 1066 967
f 981 968 1030
f 1244 935 934
f 969 1244 980
f 1250 1030 1031
f 981 1018 938
f 933 932 984
f 980 1244 1029
f 1029 983 1068
f 3 2 986
f 988 987 652
f 1282 651 650
f 991 928 927
f 927 926 954
f 1032 1050 1051
f 962 982 1032
f 973 954 955
f 8 1009 1008
f 998 7 6
f 1277 6 155
f 976 975 1000
f 997 1008 1057
f 126 1009 8
f 998 975 7
f 145 985 1036
f 1277 999 998
f 1013 1058 1011
f 953 1013 956
f 1016 1015 943
f 1015 1017 1061
f 1064 1020 1021
f 1065 1025 961
f 1025 1026 1028
f 1026 1066 1028
f 936 1244 969
f 934 1029 1244
f 1029 1068 980
f 1170 1168 1169
f 1018 1019 1017
f 937 981 938
f 931 930 982
f 984 1074 983
f 1032 982 994
f 1074 984 982
f 983 1029 933
f 1079 1035 1078
f 145 1036 5
f 989 653 987
f 652 758 1041
f 1282 990 651
f 650 649 1049
f 1076 990 1288
f 973 991 927
f 972 991 992
f 973 993 991
f 1098 992 993
f 991 993 992
f 972 994 929
f 995 1050 992
f 995 1051 1050
f 995 1098 996
f 1053 1033 1052
f 1060 1059 1083
f 962 1052 1033
f 1008 1054 1207
f 974 9 1054
f 1277 998 6
f 5 1277 155
f 1036 1277 5
f 977 999 1277
f 1035 977 1036
f 1004 1002 999
f 999 977 1004
f 1000 1002 1276
f 998 1000 975
f 1007 1004 977
f 1002 1000 999
f 998 999 1000
f 1004 1003 1002
f 1056 1001 1003
f 1248 946 1155
f 1001 1002 1003
f 1001 1151 1123
f 1145 1146 1148
f 1006 1007 1079
f 1007 1006 1080
f 8 1008 1207
f 1057 1008 1009
f 1009 126 975
f 1010 1058 974
f 1010 974 1054
f 1011 1058 1081
f 1011 1014 1013
f 1012 1058 1013
f 1014 1011 957
f 1012 1013 953
f 955 1014 957
f 956 1013 1014
f 1016 943 948
f 1015 1016 1017
f 1018 1016 948
f 1061 1017 965
f 1026 1027 1066
f 1018 981 1019
f 1016 1018 1017
f 1030 1019 981
f 965 1019 1250
f 1021 1020 648
f 1049 1020 978
f 647 1021 648
f 1022 979 961
f 1065 979 1023
f 1023 979 966
f 1093 979 1022
f 1136 1119 1024
f 1109 1280 949
f 1025 1065 645
f 1024 961 1028
f 1025 704 1026
f 961 1025 1028
f 1027 1026 703
f 644 1027 703
f 1027 959 1062
f 1024 1028 967
f 1243 969 980
f 980 1067 1072
f 1243 1072 1031
f 1019 1030 1250
f 1243 1031 1030
f 1032 994 1050
f 1051 962 1032
f 982 962 1074
f 1285 1033 1053
f 962 1033 1074
f 983 933 984
f 1035 1036 985
f 1036 977 1277
f 1078 1035 985
f 977 1035 1079
f 1039 1037 1139
f 1039 970 1037
f 1196 1039 1038
f 970 1039 1198
f 1121 1038 1102
f 986 1040 3
f 652 1041 1075
f 1075 988 652
f 1044 1042 1046
f 1171 1173 951
f 988 1075 1042
f 1045 1044 1043
f 1076 1041 990
f 1044 1046 1289
f 1044 1047 1042
f 1046 1076 1176
f 1046 1075 1076
f 1045 1202 1048
f 1048 1047 1045
f 1077 989 971
f 1206 1203 1281
f 1201 1048 1202
f 1200 1282 1049
f 650 1049 1282
f 1020 1049 649
f 972 1050 994
f 992 1050 972
f 1052 1051 1086
f 1084 996 1083
f 1067 1069 1071
f 1010 1054 997
f 1008 997 1054
f 1249 997 1057
f 1078 1034 1197
f 1096 1079 1078
f 1003 1007 1080
f 976 1278 1009
f 1081 1058 1010
f 957 1082 993
f 1062 1061 1166
f 1015 1062 959
f 1062 1166 1066
f 1063 1064 966
f 1093 1280 1063
f 1064 1021 966
f 1100 1280 1109
f 1023 646 1065
f 1119 1094 1024
f 1062 1066 1027
f 1166 967 1066
f 1069 1067 1068
f 1073 1072 1067
f 1031 1072 1170
f 1074 1033 983
f 1070 1069 1285
f 1071 1070 1095
f 1052 1086 1053
f 1053 1091 1090
f 1095 1126 1101
f 1072 1073 1170
f 1070 1071 1069
f 1073 1067 1071
f 1072 1243 980
f 1068 983 1033
f 1076 1075 1041
f 1042 1075 1046
f 1042 1047 971
f 1200 978 1283
f 1200 1049 978
f 1034 1078 985
f 977 1079 1007
f 1006 1096 1284
f 1081 1059 1082
f 1059 1060 1082
f 1098 1082 1060
f 1082 1098 993
f 1059 1156 1155
f 1060 1083 996
f 1248 1157 1158
f 1085 1053 1086
f 1084 1085 996
f 1084 1083 946
f 1085 1084 1087
f 1085 1087 1091
f 996 1085 1086
f 1091 1087 1089
f 1091 1053 1085
f 1088 1090 1091
f 1088 1091 1089
f 1095 1070 1090
f 1053 1090 1285
f 1116 1159 1117
f 1064 1063 1124
f 979 1093 966
f 1280 1093 1022
f 1094 949 1022
f 1093 1063 966
f 1024 1094 961
f 1101 1137 1073
f 1126 944 1101
f 950 1103 1284
f 1096 950 1284
f 1104 1005 1103
f 1096 1006 1079
f 1078 1197 1096
f 1196 1097 950
f 1039 1102 1038
f 1038 1097 1196
f 1080 1056 1003
f 1080 1106 1246
f 996 1098 1060
f 1118 1092 1283
f 1115 1100 1099
f 1100 1118 1063
f 1179 1178 1114
f 1039 1139 1102
f 1195 1190 1194
f 1097 1138 1195
f 1097 1103 950
f 1055 1246 1150
f 1193 1194 1190
f 1106 1105 1140
f 1097 1195 1103
f 1111 1159 1115
f 1106 1140 1150
f 1105 1106 1005
f 1080 1005 1106
f 1194 1105 1104
f 1143 1150 1140
f 1131 1128 1130
f 1140 1141 1122
f 1143 1145 1150
f 1107 1152 1055
f 1124 978 1064
f 1108 1161 1200
f 1099 1100 1109
f 1112 1120 1110
f 1099 1112 1113
f 1147 1179 1146
f 1099 1109 1112
f 1178 1125 1111
f 1159 1111 1117
f 1113 1112 1110
f 1099 1113 1111
f 1109 949 1112
f 1113 1110 1114
f 1110 944 1127
f 1127 1126 1130
f 1115 1099 1111
f 1117 1111 1125
f 1153 1116 1117
f 1100 1115 1118
f 1092 1118 1115
f 1166 1061 1167
f 1162 1163 1120
f 949 1094 1286
f 1286 1120 1112
f 1110 1120 944
f 1095 1101 1071
f 1101 1073 1071
f 1137 1101 1163
f 1154 1145 1143
f 1001 1123 952
f 1124 1118 1283
f 1179 1149 1146
f 1153 1154 1144
f 1090 1088 1245
f 1126 1127 944
f 1245 1126 1095
f 1127 1130 1128
f 1110 1127 1114
f 1245 1129 1130
f 1179 1128 1149
f 1127 1128 1114
f 1129 1088 1089
f 1131 1130 1129
f 1131 1129 1287
f 1128 1131 1149
f 1133 1089 1087
f 1247 1287 1135
f 1132 1107 1148
f 1133 1134 1135
f 946 1248 1134
f 946 1083 1155
f 1248 1158 1134
f 946 1134 1133
f 1092 1160 1108
f 967 1136 1024
f 1137 1163 1164
f 1162 1164 1163
f 1137 1168 1170
f 1174 1187 1251
f 1143 1140 1122
f 1141 1140 1105
f 1171 951 1160
f 1144 1142 1172
f 1144 1143 1122
f 1154 1146 1145
f 1148 1146 1149
f 1147 1146 1154
f 1147 1125 1178
f 1147 1178 1179
f 1132 1148 1131
f 1150 1107 1055
f 1148 1107 1145
f 1107 1150 1145
f 1246 1151 1056
f 1151 1152 1123
f 1178 1111 1113
f 1153 1125 1147
f 1153 1144 1116
f 1144 1154 1143
f 1147 1154 1153
f 1081 1156 1059
f 1059 1155 1083
f 1081 1010 1156
f 1181 1248 1155
f 1279 1181 1249
f 1123 1158 952
f 952 1158 1157
f 1158 1135 1134
f 1158 1123 1180
f 1158 1180 1135
f 1115 1159 1092
f 1092 1159 1160
f 1108 1160 951
f 1108 951 1161
f 1183 1173 1177
f 1171 1116 1172
f 1159 1116 1160
f 1101 944 1163
f 1120 1163 944
f 1136 1165 1164
f 1165 1168 1164
f 967 1165 1136
f 967 1166 1165
f 965 1167 1061
f 1166 1167 1165
f 1169 1168 1165
f 1137 1170 1073
f 1250 1031 1169
f 1165 1167 1169
f 1170 1169 1031
f 1141 1194 945
f 1144 1122 1142
f 1142 1122 1141
f 1141 945 1142
f 1175 1172 1142
f 1116 1144 1172
f 1175 945 1182
f 1173 1171 1174
f 1177 1173 1251
f 1045 1184 1202
f 1174 1172 1175
f 1175 1142 945
f 1187 1174 1175
f 1043 1044 1289
f 951 1173 1183
f 1177 1043 1289
f 1113 1114 1178
f 1128 1179 1114
f 1180 1132 1247
f 1152 1180 1123
f 1151 1055 1152
f 1125 1153 1117
f 1010 997 1156
f 1249 1156 997
f 1278 1249 1057
f 1156 1249 1181
f 1156 1181 1155
f 1116 1171 1160
f 1174 1171 1172
f 1177 1251 1185
f 1188 1184 1185
f 945 1193 1182
f 1187 1175 1182
f 1185 1043 1177
f 1183 1161 951
f 1161 1183 1176
f 1043 1184 1045
f 1184 1188 1202
f 1188 1185 1251
f 1043 1185 1184
f 1182 1193 1186
f 1189 1191 1186
f 1138 1190 1195
f 1188 1187 1186
f 1188 1251 1187
f 1190 1192 1189
f 1192 1138 1121
f 1121 1199 1281
f 1189 1193 1190
f 1189 1192 1205
f 1182 1186 1187
f 1189 1186 1193
f 1188 1186 1252
f 1138 1192 1190
f 1194 1193 945
f 1105 1194 1141
f 1103 1195 1104
f 1104 1195 1194
f 1019 965 1017
f 1167 1250 1169
f 1197 950 1096
f 1198 1196 1197
f 1196 950 1197
f 1039 1196 1198
f 1198 1197 1034
f 1040 1198 1034
f 1129 1245 1088
f 1126 1245 1130
f 946 1133 1084
f 1087 1084 1133
f 1102 1199 1121
f 1288 1200 1161
f 1201 1252 1204
f 1252 1201 1202
f 1252 1202 1188
f 1205 1204 1191
f 1189 1205 1191
f 1281 1205 1192
f 1203 1204 1205
f 1121 1281 1192
f 1206 1281 1199
f 1038 1121 1138
f 1038 1138 1097
f 52 76 16
f 68 27 62
f 1207 104 106
f 61 67 312
f 1210 308 54
f 116 1211 115
f 73 90 37
f 1208 113 66
f 105 83 106
f 124 83 151
f 118 128 107
f 1215 154 88
f 108 157 158
f 168 1214 103
f 172 182 205
f 195 223 225
f 208 209 1258
f 172 205 204
f 208 199 219
f 205 200 204
f 212 208 219
f 1216 206 281
f 212 1216 209
f 1217 220 215
f 218 1216 281
f 215 220 214
f 224 1210 225
f 1217 211 220
f 240 228 166
f 1218 304 261
f 178 296 268
f 283 1219 284
f 308 1210 309
f 1209 312 100
f 61 1209 81
f 397 378 396
f 344 1220 361
f 51 370 36
f 397 396 379
f 350 1220 356
f 1220 394 361
f 426 411 408
f 413 422 415
f 431 1221 497
f 354 434 432
f 435 1222 429
f 1213 499 500
f 444 322 715
f 404 399 448
f 404 448 409
f 492 520 568
f 1221 557 582
f 431 497 495
f 518 546 517
f 551 513 533
f 574 551 389
f 553 554 1223
f 1223 559 555
f 1224 1223 558
f 613 610 615
f 1225 612 483
f 633 686 706
f 1226 728 466
f 799 1227 685
f 1227 645 685
f 707 1229 770
f 703 713 689
f 731 1230 732
f 786 770 1228
f 1229 1228 770
f 1231 889 666
f 757 666 843
f 731 1227 799
f 794 797 795
f 825 785 782
f 807 808 846
f 1234 827 810
f 825 807 846
f 825 846 1233
f 1234 830 827
f 757 843 756
f 866 1235 843
f 855 816 1269
f 921 765 1240
f 1290 876 866
f 666 887 866
f 864 884 883
f 889 1236 887
f 1236 1237 845
f 1237 895 894
f 1237 894 870
f 887 1236 1290
f 1231 1238 888
f 1239 918 898
f 886 921 1240
f 921 886 922
f 1241 4 3
f 1241 985 4
f 956 1242 963
f 969 1243 968
f 956 963 953
f 1244 936 935
f 969 968 936
f 1015 960 943
f 1243 1030 968
f 1040 986 970
f 1276 1002 952
f 1040 1034 1241
f 1040 970 1198
f 1280 1100 1063
f 1124 1063 1118
f 1080 1246 1056
f 1151 1246 1055
f 1246 1106 1150
f 1105 1005 1104
f 949 1286 1112
f 1286 1119 1162
f 1090 1245 1095
f 1133 1135 1287
f 1132 1180 1152
f 1248 1181 1157
f 1249 1278 1279
f 1176 1288 1161
f 1286 1162 1120
f 1250 1167 965
f 1251 1173 1174
f 1180 1247 1135
f 1107 1132 1152
f 1191 1252 1186
f 1253 77 52
f 1208 69 58
f 69 1208 68
f 68 1208 65
f 8 1207 106
f 12 13 71
f 1254 221 159
f 109 110 116
f 89 1256 117
f 108 129 160
f 138 1256 118
f 48 1255 167
f 1257 177 192
f 207 1258 171
f 195 240 223
f 1259 277 299
f 265 294 224
f 1260 370 51
f 586 588 589
f 344 356 1220
f 1262 715 744
f 1261 405 362
f 1263 368 456
f 1263 427 531
f 431 1264 557
f 509 1265 532
f 518 474 457
f 368 1263 531
f 430 1264 431
f 559 1264 544
f 556 586 589
f 575 578 577
f 556 606 584
f 1266 563 562
f 579 603 605
f 323 673 741
f 1226 467 729
f 732 714 712
f 1231 757 755
f 705 1268 686
f 775 1267 723
f 1268 705 771
f 1268 706 686
f 695 838 816
f 1272 863 830
f 835 1233 852
f 695 816 854
f 855 1269 851
f 891 1270 873
f 1271 818 861
f 868 864 1272
f 874 863 1271
f 1272 1271 863
f 1273 886 875
f 1273 873 1270
f 873 1273 819
f 877 876 1290
f 1270 668 922
f 877 1290 850
f 845 892 850
f 845 1237 893
f 1274 910 897
f 910 1274 908
f 1275 908 1274
f 1276 1279 976
f 995 996 1086
f 995 1086 1051
f 976 1000 1276
f 1279 1278 976
f 1284 1080 1006
f 1280 1022 949
f 1282 1200 1288
f 1278 1057 1009
f 1061 1062 1015
f 1069 1033 1285
f 1047 1077 971
f 1283 978 1124
f 1005 1284 1103
f 1284 1005 1080
f 1070 1285 1090
f 1119 1286 1094
f 1136 1164 1162
f 1108 1200 1283
f 1283 1092 1108
f 1287 1129 1089
f 1131 1287 1247
f 1131 1247 1132
f 1131 1148 1149
f 1279 1276 1157
f 952 1157 1276
f 1076 1288 1176
f 1136 1162 1119
f 1289 1176 1183
f 1289 1046 1176
f 1177 1289 1183
f 1252 1191 1204
f 1205 1281 1203
f 189 1258 209
f 1258 189 171
f 547 579 605
f 845 1290 1236
f 952 1002 1001
f 1068 1033 1069
f 1133 1287 1089
# 2440 faces, 0 coords texture

# End of File
