####
#
# OBJ File Generated by Meshlab
#
####
# Object deformsmpltestsim.obj
#
# Vertices: 912
# Faces: 1752
#
####
v 0.150684 -0.077086 0.050023
v 0.152168 -0.093923 0.053188
v 0.150035 -0.088350 0.027350
v 0.147834 -0.071850 0.024961
v 0.148254 -0.100760 0.078597
v 0.147478 -0.083068 0.075690
v 0.138706 -0.089696 0.097819
v 0.139207 -0.107851 0.100699
v 0.125712 -0.113337 0.120037
v 0.125742 -0.095296 0.116824
v 0.110686 -0.099724 0.133651
v 0.110943 -0.120488 0.136956
v 0.154653 -0.104806 0.027747
v 0.155943 -0.109926 0.054417
v 0.128107 -0.132091 0.120983
v 0.112462 -0.139751 0.137878
v 0.141634 -0.124987 0.101634
v 0.141823 -0.083484 0.004580
v 0.138967 -0.067369 0.000892
v 0.115686 -0.076569 -0.031745
v 0.111329 -0.059706 -0.035866
v 0.126422 -0.062947 -0.019580
v 0.130141 -0.079390 -0.015456
v 0.146218 -0.099916 0.004570
v 0.119503 -0.094246 -0.030388
v 0.134260 -0.096210 -0.014567
v 0.184833 -0.206846 -0.017545
v 0.190747 -0.211824 0.012806
v 0.192822 -0.238047 0.003737
v 0.185545 -0.234701 -0.026882
v 0.182121 -0.180116 -0.010470
v 0.187207 -0.187282 0.017930
v 0.189782 -0.221161 0.038111
v 0.194417 -0.246644 0.031643
v 0.161817 -0.119998 0.026709
v 0.154783 -0.115133 0.001844
v 0.129485 -0.338305 -0.102595
v 0.132813 -0.355855 -0.093294
v 0.100112 -0.355591 -0.098767
v 0.101015 -0.340440 -0.107540
v 0.031897 -0.329328 -0.106247
v 0.068253 -0.337703 -0.108943
v 0.064678 -0.351345 -0.096315
v 0.029307 -0.342611 -0.091727
v 0.038447 -0.209612 -0.112802
v 0.038669 -0.188022 -0.104906
v 0.067261 -0.186559 -0.103949
v 0.067898 -0.207765 -0.113164
v 0.142035 -0.111856 -0.018365
v 0.126565 -0.110430 -0.034626
v 0.161909 -0.125706 0.053967
v 0.202623 -0.377361 0.021831
v 0.199029 -0.410868 0.016001
v 0.197700 -0.407221 -0.021955
v 0.203680 -0.371739 -0.018228
v 0.159245 -0.403527 -0.072349
v 0.126698 -0.402050 -0.083128
v 0.130078 -0.378164 -0.088146
v 0.163945 -0.373814 -0.076838
v 0.094542 -0.146487 0.152435
v 0.096132 -0.167199 0.151387
v 0.113855 -0.158973 0.137197
v 0.035098 -0.162200 0.172050
v 0.034599 -0.183002 0.170861
v 0.055480 -0.179148 0.168054
v 0.056420 -0.157655 0.169030
v 0.047176 -0.282661 0.129234
v 0.051372 -0.262757 0.139386
v 0.034269 -0.264176 0.142170
v 0.033199 -0.283135 0.132371
v 0.182681 -0.230034 0.061951
v 0.178637 -0.208121 0.067229
v 0.164302 -0.217700 0.086795
v 0.167945 -0.237971 0.082486
v 0.060790 -0.363511 -0.081028
v 0.029193 -0.353305 -0.073941
v 0.188791 -0.379318 0.059668
v 0.187062 -0.415719 0.053251
v 0.165285 -0.419330 0.082560
v 0.166688 -0.385389 0.087160
v 0.136590 -0.387887 0.102923
v 0.135222 -0.419315 0.097449
v 0.037944 -0.350698 0.069921
v 0.038292 -0.358956 0.068575
v 0.054689 -0.343240 0.090103
v 0.048777 -0.331696 0.093906
v 0.033027 -0.294497 -0.120025
v 0.065323 -0.298624 -0.122898
v 0.066803 -0.318408 -0.117534
v 0.032778 -0.313636 -0.114907
v 0.108825 -0.110375 -0.047009
v 0.102517 -0.093150 -0.041951
v 0.084650 -0.092730 -0.050054
v 0.080795 -0.073240 -0.050725
v 0.098755 -0.074660 -0.042900
v 0.090854 -0.394857 -0.085456
v 0.095112 -0.423857 -0.080503
v 0.060649 -0.418884 -0.070250
v 0.050096 -0.382190 -0.069329
v 0.154680 -0.431745 -0.069788
v 0.184250 -0.403945 -0.053385
v 0.177312 -0.434424 -0.052823
v 0.192168 -0.445618 0.012718
v 0.190367 -0.440858 -0.023593
v 0.160784 -0.451041 0.076275
v 0.132719 -0.448490 0.089327
v 0.053038 -0.420021 0.069683
v 0.055682 -0.439700 0.057585
v 0.076928 -0.441135 0.074654
v 0.076754 -0.418522 0.086063
v 0.087754 -0.282863 0.116233
v 0.097912 -0.300709 0.110169
v 0.125145 -0.282289 0.105786
v 0.121561 -0.263138 0.109767
v 0.057461 -0.135486 0.169538
v 0.040121 -0.140617 0.172275
v 0.094030 -0.125847 0.152309
v 0.075514 -0.130709 0.163714
v 0.075529 -0.152452 0.163126
v 0.063052 -0.043548 0.177844
v 0.061389 -0.065491 0.175346
v 0.081396 -0.063324 0.164561
v 0.083898 -0.042461 0.164815
v 0.188403 -0.253594 0.054533
v 0.026054 -0.390892 -0.038724
v 0.034633 -0.420272 -0.044934
v 0.027948 -0.425723 -0.015146
v 0.022750 -0.401686 -0.007733
v 0.185612 -0.197725 0.043212
v 0.151281 -0.117217 0.079390
v 0.156888 -0.133888 0.078978
v 0.190661 -0.371665 -0.054270
v 0.153912 -0.479566 0.068889
v 0.128780 -0.476848 0.079241
v 0.119661 -0.503402 0.069797
v 0.143217 -0.506440 0.061225
v 0.046664 -0.460610 0.026422
v 0.048680 -0.486251 0.017199
v 0.059830 -0.487428 0.036855
v 0.058701 -0.462344 0.046545
v 0.049103 -0.511593 0.011118
v 0.060079 -0.513287 0.031019
v 0.181751 -0.449735 0.048472
v 0.167714 -0.505163 0.011264
v 0.179624 -0.478562 0.012426
v 0.170844 -0.479628 0.044360
v 0.157119 -0.507131 0.040264
v 0.126682 -0.428189 -0.079767
v 0.037991 -0.417204 0.048150
v 0.043000 -0.437193 0.037279
v 0.039900 -0.482965 -0.028682
v 0.035205 -0.454266 -0.021054
v 0.042342 -0.451603 -0.048151
v 0.050918 -0.481080 -0.058003
v 0.153098 -0.486704 -0.063113
v 0.153131 -0.459914 -0.067371
v 0.172578 -0.463917 -0.048287
v 0.168552 -0.491247 -0.045602
v 0.181944 -0.471290 -0.020851
v 0.173922 -0.499648 -0.018746
v 0.165821 -0.525892 -0.018248
v 0.165604 -0.517074 -0.041221
v 0.151796 -0.513082 -0.060651
v 0.131212 -0.511921 -0.074157
v 0.106680 -0.510269 -0.080249
v 0.109211 -0.536549 -0.077810
v 0.084060 -0.534951 -0.078510
v 0.080623 -0.508868 -0.078024
v 0.044439 -0.510347 -0.037854
v 0.056208 -0.508467 -0.063122
v 0.061684 -0.534468 -0.068234
v 0.018262 -0.369321 -0.013140
v 0.022509 -0.373802 -0.026224
v 0.022093 -0.387110 0.003394
v 0.021072 -0.380143 0.015531
v 0.077387 -0.491512 0.054565
v 0.078116 -0.465185 0.063979
v 0.073822 -0.518615 0.046293
v 0.105701 -0.363598 0.106765
v 0.105707 -0.340664 0.108455
v 0.079019 -0.355718 0.102628
v 0.077139 -0.375077 0.099940
v 0.026801 -0.362112 0.040216
v 0.025622 -0.365930 0.038277
v 0.030866 -0.364633 0.051949
v 0.031301 -0.359021 0.052671
v 0.106116 -0.041991 -0.038838
v 0.120916 -0.046251 -0.023923
v 0.075920 -0.174016 0.161915
v 0.094395 -0.254906 0.127030
v 0.071259 -0.259952 0.134406
v 0.064621 -0.283256 0.125341
v 0.033644 -0.336577 0.090955
v 0.026190 -0.347737 0.074851
v 0.025326 -0.357683 0.053391
v 0.023999 -0.361043 0.039286
v 0.021000 -0.363337 0.022344
v 0.018751 -0.365538 0.013630
v 0.023491 -0.370013 0.033804
v 0.052140 -0.399806 0.079344
v 0.052697 -0.383241 0.085167
v 0.035707 -0.386807 0.065585
v 0.035891 -0.400476 0.058550
v 0.206719 -0.336200 -0.009376
v 0.202692 -0.342516 0.030117
v 0.094991 -0.373486 -0.089098
v 0.066384 -0.230917 -0.120643
v 0.036446 -0.231347 -0.118443
v 0.038887 -0.047739 -0.064070
v 0.037036 -0.027129 -0.069499
v 0.055714 -0.030798 -0.067225
v 0.058454 -0.051227 -0.061769
v 0.164903 -0.346816 -0.080730
v 0.192617 -0.329970 -0.051083
v 0.132886 -0.018574 -0.014515
v 0.131313 -0.034694 -0.009365
v 0.118274 -0.029703 -0.029108
v 0.120235 -0.013435 -0.035019
v 0.075400 -0.396500 0.095521
v 0.074811 -0.321384 0.103842
v 0.066764 -0.310325 0.109443
v 0.022840 -0.360736 0.027219
v 0.022440 -0.360383 0.027826
v 0.204892 -0.302990 0.003872
v 0.199053 -0.309063 0.038594
v 0.148272 -0.059877 0.045904
v 0.146647 -0.065184 0.071539
v 0.016565 -0.045738 0.179625
v 0.017195 -0.067341 0.179059
v 0.039679 -0.067236 0.179846
v 0.041487 -0.044189 0.184448
v 0.057743 -0.111522 0.170821
v 0.059439 -0.087595 0.173425
v 0.038135 -0.090223 0.176819
v 0.036302 -0.117239 0.173953
v 0.026820 -0.143221 0.173506
v 0.025172 -0.155152 0.173343
v 0.043571 -0.298479 0.120459
v 0.032666 -0.298438 0.122170
v 0.094860 -0.103663 0.150641
v 0.076988 -0.107311 0.163855
v 0.019328 -0.357483 0.015588
v 0.020011 -0.360246 0.018279
v 0.028888 -0.411350 0.021499
v 0.027448 -0.396707 0.032002
v 0.027107 -0.359498 -0.051417
v 0.016221 -0.357904 -0.034013
v 0.011068 -0.349802 -0.038488
v 0.009536 -0.344137 -0.049319
v 0.103326 -0.446135 0.086740
v 0.105502 -0.418230 0.097611
v 0.101641 -0.471625 0.075576
v 0.100242 -0.498198 0.065888
v 0.195976 -0.265925 -0.011518
v 0.186119 -0.261813 -0.037923
v 0.130681 -0.150734 0.120434
v 0.145829 -0.142921 0.101104
v 0.121111 -0.241989 0.115695
v 0.037423 -0.368079 0.067958
v 0.055793 -0.356523 0.089270
v 0.033621 -0.432973 0.011534
v 0.199167 -0.272305 0.016978
v 0.041578 -0.484966 -0.003714
v 0.038995 -0.458515 0.003174
v 0.075802 -0.481300 -0.077199
v 0.068074 -0.451511 -0.072759
v 0.100060 -0.453956 -0.081456
v 0.103724 -0.482978 -0.081903
v 0.128538 -0.456388 -0.078907
v 0.130006 -0.485601 -0.076482
v 0.027043 -0.386029 0.041156
v 0.008491 -0.340494 -0.064526
v 0.183785 -0.318374 0.073844
v 0.186963 -0.347439 0.066639
v 0.103014 -0.319857 0.109397
v 0.129159 -0.303756 0.105152
v 0.127065 -0.076683 0.114311
v 0.112238 -0.080254 0.130974
v 0.128546 -0.037329 0.108824
v 0.128082 -0.057331 0.111068
v 0.138640 -0.052398 0.091256
v 0.138614 -0.033971 0.089103
v 0.144331 -0.025885 0.035477
v 0.144803 -0.042925 0.041382
v 0.140419 -0.038976 0.014293
v 0.141190 -0.022399 0.009023
v 0.134152 -0.050923 -0.003820
v 0.143964 -0.055375 0.019939
v 0.071977 -0.013771 -0.065958
v 0.088274 -0.018694 -0.056710
v 0.055559 -0.301870 0.115422
v 0.029141 -0.370860 0.049598
v 0.105960 -0.390136 0.103783
v 0.137120 -0.357563 0.106114
v 0.164256 -0.353033 0.092078
v 0.147283 -0.248863 0.098017
v 0.151172 -0.270973 0.095390
v 0.173433 -0.260800 0.078620
v 0.014621 -0.359200 -0.018269
v 0.012835 -0.351807 -0.026027
v 0.078832 -0.338348 0.104194
v 0.042274 -0.511658 -0.012316
v 0.017490 -0.358834 0.007949
v 0.015433 -0.359488 -0.004301
v 0.006678 -0.332668 -0.080167
v 0.005731 -0.321396 -0.094483
v 0.025588 -0.130221 0.173263
v 0.012333 -0.156374 0.171920
v 0.011904 -0.168275 0.171327
v 0.050913 -0.112338 -0.065809
v 0.055855 -0.131340 -0.074173
v 0.030124 -0.131788 -0.076933
v 0.026495 -0.114116 -0.068420
v 0.003888 -0.146683 -0.086382
v 0.001744 -0.129834 -0.078341
v 0.034688 -0.150279 -0.086292
v 0.153216 -0.181914 -0.062018
v 0.148402 -0.160396 -0.055128
v 0.165051 -0.157833 -0.032235
v 0.170448 -0.179731 -0.038162
v 0.170306 -0.144099 -0.003818
v 0.177113 -0.160367 -0.006700
v 0.158154 -0.140465 -0.027052
v 0.176508 -0.150556 0.023054
v 0.182665 -0.167132 0.020670
v 0.175995 -0.158952 0.050162
v 0.181257 -0.177877 0.047115
v 0.173983 -0.188537 0.071080
v 0.160914 -0.199044 0.091967
v 0.144687 -0.229470 0.102888
v 0.142192 -0.210263 0.109181
v 0.121208 -0.220652 0.123217
v 0.097370 -0.229837 0.134888
v 0.074930 -0.236639 0.144296
v 0.054145 -0.241174 0.150347
v 0.035098 -0.243401 0.152807
v 0.018417 -0.244945 0.152434
v 0.020023 -0.265568 0.142272
v 0.078856 -0.084568 0.163974
v 0.103388 -0.023901 -0.044535
v 0.036767 -0.005480 -0.075845
v 0.054814 -0.009005 -0.072273
v 0.144592 -0.029602 0.064492
v 0.144461 -0.047258 0.068152
v 0.116317 -0.039452 0.127621
v 0.114059 -0.060271 0.128258
v 0.139486 -0.071174 0.094800
v 0.077263 -0.053359 -0.055884
v 0.073780 -0.033640 -0.060292
v 0.090242 -0.037813 -0.050707
v 0.094597 -0.056404 -0.047464
v 0.018455 -0.023710 -0.066424
v 0.104262 -0.143948 -0.072334
v 0.097487 -0.127549 -0.063289
v 0.116328 -0.127782 -0.053794
v 0.123996 -0.142704 -0.062118
v 0.024114 -0.093976 -0.059189
v 0.046293 -0.093225 -0.058952
v 0.169775 -0.135101 0.025537
v 0.162818 -0.129680 -0.000706
v 0.150093 -0.126667 -0.022579
v 0.134327 -0.125721 -0.040082
v 0.169505 -0.141620 0.052828
v 0.097842 -0.188122 0.149083
v 0.116914 -0.179511 0.135222
v 0.034806 -0.203366 0.167880
v 0.055622 -0.200487 0.165619
v 0.163201 -0.150871 0.077585
v 0.076878 -0.195372 0.159605
v 0.135070 -0.170136 0.119180
v 0.151095 -0.161129 0.099383
v 0.090352 -0.110831 -0.055926
v 0.070936 -0.112017 -0.061924
v 0.066200 -0.092624 -0.055782
v 0.042172 -0.070203 -0.059358
v 0.021418 -0.067948 -0.058128
v 0.019341 -0.044764 -0.061357
v 0.001499 -0.111875 -0.068733
v 0.000706 -0.093007 -0.055735
v 0.000770 -0.042911 -0.055786
v 0.000814 -0.021119 -0.061077
v 0.174493 -0.311625 -0.071881
v 0.155040 -0.328158 -0.090518
v 0.145575 -0.312562 -0.098399
v 0.160768 -0.300485 -0.085360
v 0.171275 -0.257549 -0.062529
v 0.172606 -0.232861 -0.053659
v 0.172506 -0.206025 -0.044993
v 0.124446 -0.319434 -0.109238
v 0.094576 -0.300043 -0.119968
v 0.098439 -0.321214 -0.115607
v 0.155897 -0.205791 -0.068266
v 0.155752 -0.231567 -0.075813
v 0.151280 -0.293031 -0.093616
v 0.153497 -0.278344 -0.089634
v 0.168540 -0.281369 -0.073851
v 0.120033 -0.300107 -0.113484
v 0.139231 -0.297280 -0.103085
v 0.062513 -0.147855 -0.082485
v 0.066671 -0.166703 -0.092566
v 0.038597 -0.167869 -0.095055
v 0.142230 -0.140931 -0.047040
v 0.129964 -0.160578 -0.070574
v 0.004307 -0.308502 -0.104293
v 0.137131 -0.279047 -0.103023
v 0.092735 -0.279239 -0.122071
v 0.116956 -0.278938 -0.114031
v 0.094222 -0.206788 -0.109124
v 0.116723 -0.206293 -0.099800
v 0.116574 -0.231452 -0.107399
v 0.093061 -0.230280 -0.116378
v 0.137205 -0.206486 -0.086350
v 0.134601 -0.181777 -0.078601
v 0.092412 -0.184419 -0.099315
v 0.114691 -0.182646 -0.090780
v 0.110193 -0.162008 -0.081240
v 0.136239 -0.232611 -0.094240
v 0.091795 -0.255362 -0.121444
v 0.063555 -0.254706 -0.125189
v 0.034010 -0.254319 -0.121920
v 0.004933 -0.258229 -0.117445
v 0.004588 -0.234135 -0.115696
v 0.089417 -0.164062 -0.088449
v 0.076971 -0.129629 -0.069433
v 0.084056 -0.146862 -0.078426
v 0.062173 -0.071661 -0.056163
v 0.017463 -0.367818 0.001281
v 0.021734 -0.374844 0.026588
v 0.195212 -0.282036 0.048121
v 0.198402 -0.296205 -0.027395
v 0.184504 -0.288435 -0.051964
v 0.036714 -0.376552 0.067866
v 0.054440 -0.369124 0.088528
v 0.179060 -0.287240 0.074365
v 0.133509 -0.327528 0.105213
v 0.027557 -0.377703 0.047299
v 0.154665 -0.255811 -0.082883
v 0.135922 -0.257173 -0.099708
v 0.116381 -0.256567 -0.112052
v 0.063923 -0.276934 -0.125860
v 0.033360 -0.275526 -0.122052
v 0.004770 -0.278008 -0.115136
v 0.045364 -0.315707 0.107858
v 0.033022 -0.310966 0.113881
v 0.040515 -0.308264 0.114813
v 0.022735 -0.300862 0.122725
v 0.024097 -0.314262 0.112831
v 0.034814 -0.322751 0.103636
v 0.025540 -0.326809 0.101696
v 0.026257 -0.339378 0.089991
v 0.098523 -0.208780 0.143615
v 0.119348 -0.200243 0.130111
v 0.035197 -0.223031 0.161419
v 0.055452 -0.220782 0.158944
v 0.168902 -0.169336 0.075245
v 0.076639 -0.216004 0.153348
v 0.138584 -0.190795 0.115213
v 0.156292 -0.180138 0.096265
v 0.004432 -0.188463 -0.104822
v 0.004155 -0.167702 -0.096465
v 0.016625 -0.224289 0.161058
v 0.016742 -0.355974 0.002478
v 0.014695 -0.354285 -0.010897
v 0.155780 -0.294039 0.094678
v 0.096562 -0.082441 0.148527
v 0.102183 -0.040944 0.147078
v 0.099243 -0.061894 0.147390
v 0.159956 -0.321879 0.093493
v 0.004774 -0.295085 -0.110507
v 0.004221 -0.210072 -0.111708
v 0.012903 -0.144154 0.171994
v 0.014271 -0.128878 0.171064
v 0.000922 -0.065302 -0.052515
v 0.012807 -0.185634 0.169608
v 0.015171 -0.112148 0.172545
v 0.014870 -0.205303 0.166809
v 0.016198 -0.089866 0.176202
v 0.021712 -0.284603 0.132502
v -0.135972 -0.081003 0.037267
v -0.137678 -0.076160 0.013056
v -0.138746 -0.093833 0.015306
v -0.136182 -0.099149 0.039289
v -0.128269 -0.104460 0.062439
v -0.117412 -0.110000 0.082775
v -0.116750 -0.090008 0.081642
v -0.128745 -0.085691 0.060438
v -0.102521 -0.115400 0.101934
v -0.085849 -0.121459 0.120754
v -0.084044 -0.099704 0.119413
v -0.100918 -0.094636 0.100973
v -0.141045 -0.110749 0.016126
v -0.138869 -0.115904 0.039384
v -0.104922 -0.135313 0.102716
v -0.088040 -0.142224 0.121454
v -0.119656 -0.128784 0.083236
v -0.135129 -0.089862 -0.007069
v -0.133498 -0.070832 -0.011435
v -0.112381 -0.080810 -0.044979
v -0.126425 -0.083769 -0.028130
v -0.123191 -0.065711 -0.032713
v -0.108833 -0.061876 -0.049431
v -0.136526 -0.105643 -0.005718
v -0.114224 -0.098990 -0.042177
v -0.127442 -0.101785 -0.025680
v -0.170182 -0.212264 -0.009319
v -0.171121 -0.239698 -0.010620
v -0.173510 -0.242781 0.020139
v -0.171699 -0.216528 0.020347
v -0.168409 -0.193192 0.018938
v -0.167780 -0.187066 -0.009550
v -0.169416 -0.250749 0.047225
v -0.165866 -0.225179 0.046737
v -0.142812 -0.122411 -0.007568
v -0.147080 -0.126948 0.015662
v -0.123956 -0.339870 -0.079955
v -0.097214 -0.344621 -0.092078
v -0.095695 -0.358186 -0.083215
v -0.127517 -0.356180 -0.071111
v -0.022028 -0.330779 -0.100994
v -0.017981 -0.343574 -0.086835
v -0.056501 -0.353912 -0.087690
v -0.061542 -0.340091 -0.099328
v -0.029862 -0.213634 -0.112754
v -0.060180 -0.216271 -0.111985
v -0.060266 -0.194878 -0.104790
v -0.030696 -0.191785 -0.105635
v -0.120627 -0.115977 -0.045913
v -0.133830 -0.118774 -0.028638
v -0.144072 -0.132534 0.040342
v -0.170810 -0.383380 0.055347
v -0.181463 -0.374832 0.019525
v -0.178374 -0.407552 0.014304
v -0.168126 -0.416339 0.047823
v -0.154951 -0.401307 -0.048510
v -0.156672 -0.373806 -0.048188
v -0.126798 -0.377654 -0.068055
v -0.124416 -0.400511 -0.066675
v -0.069384 -0.148215 0.137932
v -0.089774 -0.161486 0.120833
v -0.070865 -0.168298 0.136999
v -0.011778 -0.162299 0.167607
v -0.032896 -0.158349 0.160926
v -0.031556 -0.179680 0.160548
v -0.010170 -0.183246 0.166791
v -0.006112 -0.287602 0.128888
v 0.008996 -0.285172 0.132157
v 0.004907 -0.266284 0.141284
v -0.012977 -0.267115 0.138548
v -0.153360 -0.234714 0.070919
v -0.133773 -0.243880 0.091410
v -0.133396 -0.222504 0.089007
v -0.151053 -0.212755 0.069113
v -0.012609 -0.353352 -0.069215
v -0.050120 -0.366196 -0.074107
v -0.146572 -0.425516 0.077697
v -0.147677 -0.391316 0.086791
v -0.114112 -0.431626 0.097800
v -0.077873 -0.432527 0.103365
v -0.080389 -0.403681 0.111439
v -0.115775 -0.400141 0.105942
v 0.015119 -0.354181 0.067047
v 0.001234 -0.339169 0.091797
v -0.003145 -0.352111 0.085957
v 0.014298 -0.363480 0.062405
v -0.026519 -0.301259 -0.115611
v -0.024943 -0.317790 -0.109534
v -0.060723 -0.324882 -0.107748
v -0.060277 -0.307238 -0.114237
v -0.097838 -0.097073 -0.054097
v -0.103310 -0.114822 -0.058973
v -0.080162 -0.095947 -0.061443
v -0.095710 -0.078328 -0.057203
v -0.077909 -0.075747 -0.064227
v -0.085971 -0.395101 -0.073174
v -0.036333 -0.384728 -0.062613
v -0.058526 -0.421175 -0.066295
v -0.094914 -0.424674 -0.070967
v -0.152606 -0.429589 -0.048682
v -0.171007 -0.433055 -0.022973
v -0.175478 -0.401661 -0.021328
v -0.173889 -0.439504 0.009460
v -0.163260 -0.447846 0.041804
v -0.108871 -0.461848 0.088720
v -0.074989 -0.461450 0.094325
v -0.000527 -0.421269 0.049652
v -0.017457 -0.427394 0.073724
v -0.018434 -0.451343 0.063003
v -0.003936 -0.444087 0.037479
v -0.046051 -0.294585 0.120346
v -0.082559 -0.274380 0.115161
v -0.083071 -0.296975 0.114980
v -0.052633 -0.315857 0.115126
v -0.015374 -0.141087 0.167533
v -0.032267 -0.136854 0.161876
v -0.050735 -0.153821 0.151390
v -0.049336 -0.132685 0.152511
v -0.067732 -0.127280 0.138047
v -0.029025 -0.045084 0.167542
v -0.048901 -0.044149 0.153958
v -0.047587 -0.064598 0.155662
v -0.027287 -0.066639 0.168134
v -0.157198 -0.259217 0.073850
v -0.002043 -0.390910 -0.039031
v 0.013508 -0.400277 -0.013598
v -0.008431 -0.430686 -0.021308
v -0.028053 -0.424661 -0.047268
v -0.162824 -0.202290 0.045129
v -0.130752 -0.121773 0.062802
v -0.135395 -0.139208 0.063223
v -0.176737 -0.370489 -0.018332
v -0.105196 -0.489961 0.080290
v -0.100390 -0.516268 0.071904
v -0.073528 -0.516347 0.076562
v -0.072212 -0.490034 0.085824
v -0.011546 -0.465655 0.002177
v -0.010780 -0.470480 0.025890
v -0.019604 -0.497681 0.017129
v -0.025935 -0.494042 -0.002616
v -0.038059 -0.519477 -0.009801
v -0.027458 -0.524652 0.007697
v -0.140858 -0.457074 0.068679
v -0.146936 -0.505348 0.036628
v -0.124817 -0.513623 0.056868
v -0.132740 -0.484795 0.062028
v -0.155499 -0.477219 0.036412
v -0.127559 -0.428613 -0.063849
v 0.001852 -0.437040 0.010245
v 0.009075 -0.414262 0.024255
v -0.044160 -0.491785 -0.038423
v -0.058937 -0.486890 -0.059646
v -0.047304 -0.457117 -0.055363
v -0.031480 -0.463083 -0.031904
v -0.157476 -0.487660 -0.043045
v -0.166673 -0.487752 -0.014367
v -0.168721 -0.462072 -0.020108
v -0.155485 -0.459524 -0.047455
v -0.168428 -0.468722 0.009811
v -0.162224 -0.495939 0.011902
v -0.155605 -0.522023 0.010561
v -0.164130 -0.511416 -0.010538
v -0.157484 -0.523981 -0.042294
v -0.157816 -0.512537 -0.042560
v -0.138639 -0.512610 -0.066883
v -0.141169 -0.528444 -0.069465
v -0.111711 -0.511132 -0.079028
v -0.086968 -0.510885 -0.078508
v -0.089100 -0.535270 -0.084710
v -0.114617 -0.531864 -0.084448
v -0.066426 -0.513642 -0.067343
v -0.052362 -0.517714 -0.047442
v 0.010767 -0.364416 -0.019046
v 0.018805 -0.376121 0.006763
v 0.016099 -0.383308 -0.003666
v 0.004430 -0.369357 -0.029499
v -0.026998 -0.505992 0.043473
v -0.022490 -0.478030 0.052986
v -0.048711 -0.380809 0.107939
v -0.020790 -0.385975 0.090790
v -0.024016 -0.369212 0.097037
v -0.051866 -0.358124 0.111026
v 0.020939 -0.361919 0.036311
v 0.019892 -0.360541 0.049556
v 0.019481 -0.366417 0.044758
v 0.020341 -0.365539 0.030288
v -0.119258 -0.047865 -0.038296
v -0.104164 -0.046089 -0.053696
v -0.051531 -0.175239 0.150866
v -0.057180 -0.263680 0.126655
v -0.022988 -0.290915 0.125408
v -0.033071 -0.267639 0.133382
v 0.018083 -0.339657 0.089183
v 0.018850 -0.362671 0.016641
v 0.020952 -0.368859 0.024753
v 0.017560 -0.362923 0.007168
v 0.000286 -0.402795 0.059970
v 0.013477 -0.399102 0.038136
v 0.014005 -0.387787 0.047000
v -0.000601 -0.388007 0.067565
v -0.170161 -0.350414 0.063745
v -0.183057 -0.341527 0.027473
v -0.090625 -0.375678 -0.077136
v -0.027703 -0.236399 -0.116990
v -0.058595 -0.239928 -0.116926
v -0.034869 -0.049826 -0.069539
v -0.054461 -0.052486 -0.070451
v -0.051180 -0.032248 -0.075679
v -0.032248 -0.028582 -0.075081
v -0.177600 -0.334691 -0.014400
v -0.156573 -0.348351 -0.051085
v -0.133010 -0.016868 -0.026833
v -0.119562 -0.011088 -0.048226
v -0.118427 -0.029439 -0.044314
v -0.130500 -0.034944 -0.023086
v -0.018355 -0.404869 0.083638
v -0.026866 -0.335600 0.106199
v -0.020854 -0.321983 0.110240
v 0.020343 -0.360233 0.024151
v -0.180755 -0.309756 0.038443
v -0.166649 -0.317724 0.071574
v -0.128286 -0.066697 0.057737
v -0.134280 -0.063302 0.034179
v -0.006819 -0.045779 0.175552
v -0.005056 -0.068070 0.175598
v -0.028625 -0.112822 0.165046
v -0.007489 -0.117439 0.170895
v -0.005174 -0.091470 0.173862
v -0.027026 -0.088859 0.167722
v -0.001222 -0.143354 0.170718
v -0.000611 -0.154724 0.170336
v -0.000016 -0.304721 0.121442
v 0.011805 -0.301660 0.122870
v -0.047704 -0.108529 0.154290
v -0.066978 -0.104237 0.137761
v 0.019190 -0.360112 0.016473
v 0.021776 -0.394037 0.019318
v 0.017997 -0.408062 0.006405
v -0.004177 -0.358299 -0.049968
v 0.006980 -0.354701 -0.036285
v -0.041915 -0.458943 0.084150
v -0.044206 -0.431128 0.094282
v -0.045178 -0.487337 0.075719
v -0.047827 -0.514818 0.065782
v -0.172061 -0.266611 -0.015478
v -0.177928 -0.270966 0.013160
v -0.123042 -0.147008 0.083494
v -0.107504 -0.154272 0.102479
v -0.085218 -0.250597 0.116586
v -0.002734 -0.364690 0.080624
v 0.016058 -0.372487 0.058813
v 0.003728 -0.433582 -0.004732
v -0.174322 -0.276683 0.043945
v -0.025090 -0.464964 -0.011634
v -0.036876 -0.493414 -0.018149
v -0.082107 -0.484207 -0.072908
v -0.109537 -0.483892 -0.074813
v -0.103143 -0.454798 -0.072121
v -0.072901 -0.454619 -0.070051
v -0.137362 -0.486426 -0.064945
v -0.133728 -0.456874 -0.063897
v 0.022153 -0.384771 0.028683
v -0.146263 -0.357651 0.092486
v -0.143173 -0.327023 0.097300
v -0.082686 -0.321082 0.115916
v -0.053344 -0.336432 0.112791
v -0.082764 -0.079374 0.117888
v -0.099981 -0.074969 0.099151
v -0.101445 -0.034625 0.090953
v -0.116904 -0.032684 0.073139
v -0.116696 -0.051454 0.076594
v -0.100129 -0.054705 0.096195
v -0.137907 -0.026673 0.025376
v -0.139771 -0.022096 -0.001775
v -0.136835 -0.040678 0.001541
v -0.135114 -0.045102 0.029289
v -0.135263 -0.058950 0.008027
v -0.130080 -0.052865 -0.016712
v -0.068992 -0.014797 -0.077487
v -0.086499 -0.019166 -0.070450
v -0.010532 -0.311600 0.116942
v 0.021461 -0.372418 0.040803
v -0.046407 -0.404589 0.102723
v -0.080713 -0.375115 0.116589
v -0.115667 -0.368651 0.111922
v -0.110370 -0.258954 0.103476
v -0.136609 -0.268999 0.094724
v -0.111587 -0.282360 0.107038
v 0.011548 -0.356022 -0.020719
v -0.026597 -0.352259 0.101990
v -0.046484 -0.519226 -0.026213
v 0.017152 -0.357470 0.006189
v 0.014446 -0.356766 -0.006285
v 0.001941 -0.130227 0.170907
v -0.045789 -0.114295 -0.073744
v -0.022509 -0.113800 -0.072780
v -0.024634 -0.131199 -0.080818
v -0.049932 -0.132147 -0.081397
v -0.028243 -0.151736 -0.089628
v -0.144962 -0.188901 -0.060211
v -0.159367 -0.186728 -0.036362
v -0.154918 -0.166424 -0.035624
v -0.140610 -0.166795 -0.057378
v -0.157669 -0.152362 -0.010210
v -0.148389 -0.149348 -0.034423
v -0.163465 -0.167890 -0.009475
v -0.164597 -0.173755 0.017666
v -0.159827 -0.157439 0.016446
v -0.159218 -0.182508 0.042849
v -0.155008 -0.164811 0.041977
v -0.148248 -0.192765 0.064921
v -0.132301 -0.202674 0.086343
v -0.110594 -0.235557 0.104725
v -0.087593 -0.226327 0.118686
v -0.111069 -0.214033 0.103043
v -0.040687 -0.242415 0.141922
v -0.063684 -0.237283 0.131413
v 0.000551 -0.245477 0.151217
v -0.019271 -0.245008 0.148420
v -0.047197 -0.085700 0.155898
v -0.102667 -0.023829 -0.060057
v -0.102977 -0.004633 -0.064577
v -0.031864 -0.006238 -0.081457
v -0.050308 -0.010500 -0.081052
v -0.128247 -0.048197 0.054223
v -0.129624 -0.030164 0.051300
v -0.082464 -0.058490 0.115850
v -0.083217 -0.037326 0.111660
v -0.116297 -0.070524 0.079571
v -0.074008 -0.055537 -0.067830
v -0.091995 -0.058585 -0.061044
v -0.088210 -0.039004 -0.065074
v -0.070516 -0.035812 -0.072484
v -0.014550 -0.003840 -0.077428
v -0.015138 -0.024711 -0.069500
v -0.095719 -0.150939 -0.079882
v -0.115991 -0.148221 -0.069760
v -0.109524 -0.132164 -0.063441
v -0.090293 -0.131856 -0.073531
v -0.042028 -0.094253 -0.065600
v -0.020692 -0.094766 -0.063173
v -0.150735 -0.137276 -0.008888
v -0.154005 -0.142366 0.016108
v -0.127078 -0.132251 -0.049758
v -0.141238 -0.134036 -0.031470
v -0.150115 -0.148695 0.041571
v -0.090649 -0.181940 0.121084
v -0.070720 -0.190194 0.137459
v -0.028804 -0.201087 0.159294
v -0.006927 -0.203560 0.164452
v -0.140498 -0.156526 0.064115
v -0.050027 -0.196779 0.150586
v -0.127272 -0.165242 0.084374
v -0.109853 -0.173632 0.103010
v -0.062179 -0.094990 -0.065048
v -0.066328 -0.114155 -0.072185
v -0.084877 -0.114360 -0.067654
v -0.016374 -0.046598 -0.064312
v -0.018435 -0.069247 -0.061351
v -0.038542 -0.071213 -0.066366
v -0.164210 -0.315090 -0.041617
v -0.147568 -0.331217 -0.062201
v -0.152520 -0.306087 -0.059577
v -0.139576 -0.317729 -0.073406
v -0.161919 -0.238219 -0.037989
v -0.161444 -0.265191 -0.043000
v -0.161803 -0.212452 -0.036807
v -0.120296 -0.325197 -0.088255
v -0.094321 -0.328428 -0.100004
v -0.091219 -0.310081 -0.106327
v -0.147459 -0.214136 -0.061217
v -0.147645 -0.240055 -0.062410
v -0.144355 -0.301474 -0.069259
v -0.158744 -0.287824 -0.050034
v -0.146304 -0.287762 -0.067561
v -0.116040 -0.309376 -0.093958
v -0.133802 -0.305939 -0.080419
v -0.054308 -0.150444 -0.089287
v -0.029626 -0.171008 -0.097084
v -0.057336 -0.174172 -0.096580
v -0.134123 -0.147849 -0.053982
v -0.120672 -0.171375 -0.073817
v -0.132251 -0.289258 -0.082866
v -0.112692 -0.291454 -0.097832
v -0.087970 -0.290347 -0.110712
v -0.086194 -0.218992 -0.105600
v -0.085773 -0.242517 -0.110015
v -0.109019 -0.245734 -0.098614
v -0.108998 -0.220380 -0.094903
v -0.126280 -0.194414 -0.078308
v -0.128835 -0.219971 -0.080613
v -0.084378 -0.196152 -0.099724
v -0.106415 -0.196020 -0.091248
v -0.101140 -0.172327 -0.085544
v -0.129438 -0.245406 -0.082549
v -0.056308 -0.263773 -0.119691
v -0.086386 -0.265214 -0.112153
v -0.025867 -0.258972 -0.119266
v -0.080575 -0.173120 -0.092873
v -0.075210 -0.151982 -0.085962
v -0.069671 -0.134033 -0.078802
v -0.058819 -0.073409 -0.066986
v 0.020790 -0.372157 0.017196
v 0.015340 -0.363478 -0.005228
v -0.162256 -0.286567 0.074442
v -0.181025 -0.300272 0.001781
v -0.171158 -0.291934 -0.026644
v -0.001475 -0.376401 0.074990
v 0.014972 -0.379819 0.053321
v -0.140509 -0.297106 0.096544
v -0.082544 -0.347160 0.117788
v 0.022001 -0.377850 0.035576
v -0.147370 -0.265335 -0.064874
v -0.130390 -0.269379 -0.083328
v -0.110211 -0.269643 -0.099439
v -0.058876 -0.285928 -0.119134
v -0.026353 -0.281581 -0.119269
v 0.002430 -0.323920 0.107623
v 0.005355 -0.314610 0.115296
v 0.014387 -0.314645 0.113867
v 0.015239 -0.327281 0.102824
v -0.090280 -0.203726 0.120848
v -0.068142 -0.212755 0.135439
v -0.024234 -0.222916 0.155312
v -0.003012 -0.224875 0.159848
v -0.144835 -0.174067 0.064100
v -0.046072 -0.218790 0.147506
v -0.130339 -0.183441 0.084800
v -0.110981 -0.193404 0.102905
v -0.113554 -0.309447 0.111161
v -0.066183 -0.082373 0.137992
v -0.066549 -0.040721 0.133281
v -0.066058 -0.061890 0.136181
v -0.114707 -0.338525 0.113579
# 912 vertices, 0 vertices normals

f 2 3 1
f 1 3 4
f 6 7 5
f 5 7 8
f 10 11 9
f 9 11 12
f 3 2 13
f 13 2 14
f 9 12 15
f 15 12 16
f 15 17 9
f 9 17 8
f 19 4 18
f 18 4 3
f 21 22 20
f 20 22 23
f 18 3 24
f 24 3 13
f 20 23 25
f 25 23 26
f 28 29 27
f 27 29 30
f 28 27 32
f 32 27 31
f 28 33 29
f 29 33 34
f 35 36 13
f 13 36 24
f 38 39 37
f 37 39 40
f 42 43 41
f 41 43 44
f 45 46 48
f 48 46 47
f 49 50 26
f 26 50 25
f 51 35 14
f 14 35 13
f 52 53 55
f 55 53 54
f 57 58 56
f 56 58 59
f 61 62 60
f 60 62 16
f 64 65 63
f 63 65 66
f 68 69 67
f 67 69 70
f 72 73 71
f 71 73 74
f 43 75 44
f 44 75 76
f 53 52 78
f 78 52 77
f 80 81 79
f 79 81 82
f 84 85 83
f 83 85 86
f 87 88 90
f 90 88 89
f 50 91 25
f 25 91 92
f 94 95 93
f 93 95 92
f 97 98 96
f 96 98 99
f 100 56 102
f 102 56 101
f 53 103 54
f 54 103 104
f 79 82 105
f 105 82 106
f 108 109 107
f 107 109 110
f 112 113 111
f 111 113 114
f 115 116 66
f 66 116 63
f 117 118 60
f 60 118 119
f 121 122 120
f 120 122 123
f 33 71 34
f 34 71 124
f 126 127 125
f 125 127 128
f 129 72 33
f 33 72 71
f 131 51 130
f 130 51 14
f 2 5 14
f 14 5 130
f 55 54 132
f 132 54 101
f 54 104 101
f 101 104 102
f 133 134 136
f 136 134 135
f 138 139 137
f 137 139 140
f 105 143 79
f 79 143 78
f 145 146 144
f 144 146 147
f 148 57 100
f 100 57 56
f 107 149 108
f 108 149 150
f 152 153 151
f 151 153 154
f 156 157 155
f 155 157 158
f 159 145 160
f 160 145 144
f 166 167 165
f 165 167 168
f 173 174 172
f 172 174 175
f 177 140 176
f 176 140 139
f 180 181 179
f 179 181 182
f 184 185 183
f 183 185 186
f 187 188 21
f 21 188 22
f 65 189 66
f 66 189 119
f 190 191 111
f 111 191 192
f 86 193 83
f 83 193 194
f 195 196 186
f 186 196 183
f 198 199 197
f 197 199 184
f 201 202 200
f 200 202 203
f 55 204 52
f 52 204 205
f 38 58 39
f 39 58 206
f 48 207 45
f 45 207 208
f 210 211 209
f 209 211 212
f 132 101 59
f 59 101 56
f 59 213 132
f 132 213 214
f 36 49 24
f 24 49 26
f 23 18 26
f 26 18 24
f 18 23 19
f 19 23 22
f 216 217 215
f 215 217 218
f 182 201 219
f 219 201 200
f 221 86 220
f 220 86 85
f 98 126 99
f 99 126 125
f 183 222 184
f 184 222 197
f 196 223 183
f 183 223 222
f 225 205 224
f 224 205 204
f 226 227 1
f 1 227 6
f 229 230 228
f 228 230 231
f 233 234 232
f 232 234 235
f 236 237 116
f 116 237 63
f 238 67 239
f 239 67 70
f 240 241 117
f 117 241 118
f 223 242 222
f 222 242 243
f 128 244 174
f 174 244 245
f 200 203 107
f 107 203 149
f 99 125 246
f 246 125 173
f 248 249 247
f 247 249 246
f 251 110 250
f 250 110 109
f 177 176 252
f 252 176 253
f 33 28 129
f 129 28 32
f 29 254 30
f 30 254 255
f 256 257 15
f 15 257 17
f 111 114 190
f 190 114 258
f 219 200 110
f 110 200 107
f 259 260 84
f 84 260 85
f 127 261 128
f 128 261 244
f 34 262 29
f 29 262 254
f 1 6 2
f 2 6 5
f 151 263 152
f 152 263 264
f 266 267 265
f 265 267 268
f 267 269 268
f 268 269 270
f 157 159 158
f 158 159 160
f 167 171 168
f 168 171 170
f 202 271 203
f 203 271 245
f 249 272 246
f 246 272 76
f 273 274 225
f 225 274 205
f 275 276 112
f 112 276 113
f 111 221 112
f 112 221 220
f 153 266 154
f 154 266 265
f 277 278 10
f 10 278 11
f 280 281 279
f 279 281 282
f 284 285 283
f 283 285 286
f 287 288 19
f 19 288 4
f 291 192 238
f 238 192 67
f 199 292 184
f 184 292 185
f 179 182 293
f 293 182 219
f 293 81 179
f 179 81 294
f 80 77 295
f 295 77 274
f 132 214 55
f 55 214 204
f 39 206 43
f 43 206 75
f 116 115 235
f 235 115 232
f 297 298 296
f 296 298 74
f 299 300 247
f 247 300 248
f 260 301 85
f 85 301 220
f 125 128 173
f 173 128 174
f 172 247 173
f 173 247 246
f 303 197 243
f 243 197 222
f 304 198 303
f 303 198 197
f 305 306 44
f 44 306 41
f 206 96 75
f 75 96 99
f 293 219 251
f 251 219 110
f 236 116 307
f 307 116 235
f 308 309 237
f 237 309 63
f 272 305 76
f 76 305 44
f 311 312 310
f 310 312 313
f 315 312 314
f 314 312 316
f 317 318 320
f 320 318 319
f 322 319 321
f 321 319 323
f 321 324 322
f 322 324 325
f 324 326 325
f 325 326 327
f 327 328 129
f 129 328 72
f 328 329 72
f 72 329 73
f 331 332 330
f 330 332 258
f 333 334 190
f 190 334 191
f 335 336 68
f 68 336 69
f 336 337 69
f 69 337 338
f 233 339 121
f 121 339 122
f 340 218 217
f 287 188 216
f 216 188 217
f 283 343 284
f 284 343 344
f 120 231 121
f 121 231 230
f 279 345 280
f 280 345 346
f 277 347 280
f 280 347 281
f 226 288 284
f 284 288 285
f 215 286 216
f 216 286 285
f 349 350 348
f 348 350 351
f 210 352 341
f 187 350 340
f 340 350 290
f 20 95 21
f 21 95 351
f 25 92 20
f 20 92 95
f 353 354 356
f 356 354 355
f 310 313 358
f 358 313 357
f 359 360 35
f 35 360 36
f 361 362 49
f 49 362 50
f 363 359 51
f 51 359 35
f 364 365 61
f 61 365 62
f 366 367 64
f 64 367 65
f 362 355 50
f 50 355 91
f 368 363 131
f 131 363 51
f 367 369 65
f 65 369 189
f 360 361 36
f 36 361 49
f 370 371 256
f 256 371 257
f 372 373 93
f 93 373 374
f 375 376 209
f 209 376 377
f 358 357 375
f 375 357 376
f 379 357 378
f 378 357 313
f 381 352 380
f 380 352 377
f 214 213 382
f 382 213 383
f 384 385 383
f 383 385 382
f 30 255 387
f 387 255 386
f 27 30 388
f 388 30 387
f 389 384 37
f 37 384 383
f 88 390 89
f 89 390 391
f 388 320 27
f 27 320 31
f 320 388 317
f 317 388 392
f 393 392 387
f 387 392 388
f 394 395 385
f 385 395 396
f 390 397 391
f 391 397 389
f 398 394 384
f 384 394 385
f 400 401 399
f 399 401 316
f 402 318 356
f 356 318 403
f 42 41 89
f 89 41 90
f 90 41 404
f 404 41 306
f 395 394 405
f 405 394 398
f 406 407 390
f 390 407 397
f 409 410 408
f 408 410 411
f 412 413 392
f 392 413 317
f 415 409 414
f 414 409 408
f 415 416 413
f 413 416 403
f 392 393 412
f 412 393 417
f 43 42 39
f 39 42 40
f 89 391 42
f 42 391 40
f 411 418 207
f 207 418 419
f 207 419 208
f 208 419 420
f 421 422 420
f 420 422 208
f 207 48 411
f 411 48 408
f 48 47 408
f 408 47 414
f 47 400 414
f 414 400 423
f 311 424 399
f 399 424 425
f 358 374 310
f 310 374 373
f 375 426 358
f 358 426 374
f 94 426 348
f 348 426 212
f 426 375 212
f 212 375 209
f 105 106 133
f 133 106 134
f 141 142 138
f 138 142 139
f 108 150 140
f 140 150 137
f 103 143 145
f 145 143 146
f 127 126 152
f 152 126 153
f 170 169 154
f 154 169 151
f 100 102 156
f 156 102 157
f 162 163 158
f 158 163 155
f 104 103 159
f 159 103 145
f 144 161 160
f 109 108 177
f 177 108 140
f 139 142 176
f 176 142 178
f 109 177 250
f 250 177 252
f 178 253 176
f 169 302 151
f 151 302 263
f 150 261 137
f 137 261 264
f 98 97 266
f 266 97 267
f 165 168 268
f 268 168 265
f 97 148 267
f 267 148 269
f 163 164 155
f 155 164 270
f 102 104 157
f 157 104 159
f 161 162 160
f 160 162 158
f 126 98 153
f 153 98 266
f 168 170 265
f 265 170 154
f 112 220 275
f 275 220 301
f 427 428 198
f 198 428 199
f 34 124 262
f 262 124 429
f 431 255 430
f 430 255 254
f 432 433 259
f 259 433 260
f 430 254 224
f 224 254 262
f 124 298 429
f 429 298 434
f 180 435 275
f 275 435 276
f 428 436 199
f 199 436 292
f 433 181 260
f 260 181 301
f 299 427 304
f 304 427 198
f 396 386 431
f 431 386 255
f 437 393 386
f 386 393 387
f 438 417 437
f 437 417 393
f 411 410 418
f 418 410 439
f 406 440 418
f 418 440 419
f 440 441 419
f 419 441 420
f 442 421 441
f 441 421 420
f 291 443 221
f 221 443 86
f 444 445 239
f 239 445 238
f 239 446 444
f 444 446 447
f 445 444 443
f 443 444 448
f 75 99 76
f 76 99 246
f 449 448 447
f 447 448 444
f 193 450 194
f 399 316 311
f 311 316 312
f 373 372 424
f 424 372 354
f 324 321 359
f 359 321 360
f 323 402 361
f 361 402 362
f 326 324 363
f 363 324 359
f 451 452 364
f 364 452 365
f 453 454 366
f 366 454 367
f 362 402 355
f 355 402 356
f 455 326 368
f 368 326 363
f 454 456 367
f 367 456 369
f 321 323 360
f 360 323 361
f 457 458 370
f 370 458 371
f 310 373 311
f 311 373 424
f 340 217 187
f 187 217 188
f 341 342 210
f 210 342 211
f 284 344 226
f 226 344 227
f 121 230 233
f 233 230 234
f 280 346 277
f 277 346 278
f 216 285 287
f 287 285 288
f 232 241 233
f 233 241 339
f 19 22 287
f 287 22 188
f 10 7 277
f 277 7 347
f 1 4 226
f 226 4 288
f 342 289 211
f 211 289 349
f 209 377 210
f 210 377 352
f 21 351 187
f 187 351 350
f 401 46 460
f 460 46 459
f 318 402 319
f 319 402 323
f 322 31 319
f 319 31 320
f 32 31 325
f 325 31 322
f 129 32 327
f 327 32 325
f 326 455 327
f 327 455 328
f 455 458 328
f 328 458 329
f 457 452 331
f 331 452 332
f 451 456 333
f 333 456 334
f 454 453 335
f 335 453 336
f 453 461 336
f 336 461 337
f 400 47 401
f 401 47 46
f 318 317 403
f 403 317 413
f 353 416 425
f 425 416 423
f 400 399 423
f 423 399 425
f 243 242 303
f 303 242 462
f 303 462 304
f 304 462 463
f 117 12 240
f 240 12 11
f 60 16 117
f 117 16 12
f 15 16 256
f 256 16 62
f 251 82 293
f 293 82 81
f 250 106 251
f 251 106 82
f 296 114 297
f 297 114 113
f 134 252 135
f 135 252 253
f 330 258 296
f 296 258 114
f 297 113 464
f 464 113 276
f 240 11 465
f 465 11 278
f 295 294 80
f 80 294 81
f 190 258 333
f 333 258 332
f 467 346 466
f 466 346 345
f 256 62 370
f 370 62 365
f 106 250 134
f 134 250 252
f 468 435 295
f 295 435 294
f 370 365 457
f 457 365 452
f 465 278 467
f 467 278 346
f 333 332 451
f 451 332 452
f 9 8 10
f 10 8 7
f 5 8 130
f 130 8 17
f 296 74 330
f 330 74 73
f 79 78 80
f 80 78 77
f 53 78 103
f 103 78 143
f 136 147 133
f 133 147 146
f 130 17 131
f 131 17 257
f 468 273 464
f 464 273 434
f 343 282 344
f 344 282 281
f 52 205 77
f 77 205 274
f 71 74 124
f 124 74 298
f 330 73 331
f 331 73 329
f 344 281 227
f 227 281 347
f 131 257 368
f 368 257 371
f 133 146 105
f 105 146 143
f 464 434 297
f 297 434 298
f 368 371 455
f 455 371 458
f 227 347 6
f 6 347 7
f 331 329 457
f 457 329 458
f 275 301 180
f 180 301 181
f 429 225 262
f 262 225 224
f 429 434 225
f 225 434 273
f 304 463 299
f 299 463 300
f 386 396 437
f 437 396 395
f 437 395 438
f 438 395 405
f 418 439 406
f 406 439 407
f 172 175 427
f 427 175 428
f 382 431 214
f 214 431 430
f 202 201 432
f 432 201 433
f 214 430 204
f 204 430 224
f 179 294 180
f 180 294 435
f 175 271 428
f 428 271 436
f 201 182 433
f 433 182 181
f 247 172 299
f 299 172 427
f 385 396 382
f 382 396 431
f 390 88 406
f 406 88 440
f 88 87 440
f 440 87 441
f 87 469 441
f 441 469 442
f 464 276 468
f 468 276 435
f 295 274 468
f 468 274 273
f 213 38 383
f 383 38 37
f 96 206 57
f 57 206 58
f 426 94 374
f 374 94 93
f 96 57 97
f 97 57 148
f 165 164 166
f 83 186 84
f 84 186 185
f 194 195 83
f 83 195 186
f 213 59 38
f 38 59 58
f 203 245 149
f 149 245 244
f 149 244 150
f 150 244 261
f 137 264 138
f 138 264 263
f 155 270 156
f 156 270 269
f 174 245 175
f 175 245 271
f 84 185 259
f 259 185 292
f 211 349 212
f 212 349 348
f 424 354 425
f 425 354 353
f 91 372 92
f 92 372 93
f 391 389 40
f 40 389 37
f 384 389 398
f 398 389 397
f 398 397 405
f 405 397 407
f 412 417 409
f 409 417 410
f 413 412 415
f 415 412 409
f 414 423 415
f 415 423 416
f 95 94 351
f 351 94 348
f 138 263 141
f 141 263 302
f 152 264 127
f 127 264 261
f 156 269 100
f 100 269 148
f 268 270 165
f 165 270 164
f 259 292 432
f 432 292 436
f 410 417 439
f 439 417 438
f 355 354 91
f 91 354 372
f 350 349 290
f 290 349 289
f 356 403 353
f 353 403 416
f 405 407 438
f 438 407 439
f 432 436 202
f 202 436 271
f 66 119 115
f 115 119 118
f 466 123 467
f 467 123 122
f 60 119 61
f 61 119 189
f 191 68 192
f 192 68 67
f 115 118 232
f 232 118 241
f 221 111 291
f 291 111 192
f 68 191 335
f 335 191 334
f 467 122 465
f 465 122 339
f 61 189 364
f 364 189 369
f 238 445 291
f 291 445 443
f 193 86 448
f 448 86 443
f 364 369 451
f 451 369 456
f 465 339 240
f 240 339 241
f 335 334 454
f 454 334 456
f 90 404 87
f 87 404 469
f 45 208 470
f 470 208 422
f 236 307 471
f 471 307 472
f 376 473 377
f 377 473 380
f 357 379 376
f 376 379 473
f 63 309 64
f 64 309 474
f 235 475 307
f 307 475 472
f 236 471 237
f 237 471 308
f 401 460 316
f 316 460 314
f 64 474 366
f 366 474 476
f 312 315 313
f 313 315 378
f 366 476 453
f 453 476 461
f 448 449 193
f 193 449 450
f 234 230 477
f 477 230 229
f 235 234 475
f 475 234 477
f 70 478 239
f 239 478 446
f 69 338 70
f 70 338 478
f 46 45 459
f 459 45 470
f 480 481 479
f 479 481 482
f 484 485 483
f 483 485 486
f 488 489 487
f 487 489 490
f 492 482 491
f 491 482 481
f 494 488 493
f 493 488 487
f 484 495 487
f 487 495 493
f 481 480 496
f 496 480 497
f 499 500 498
f 498 500 501
f 491 481 502
f 502 481 496
f 504 499 503
f 503 499 498
f 506 507 505
f 505 507 508
f 508 509 505
f 505 509 510
f 508 507 512
f 512 507 511
f 502 513 491
f 491 513 514
f 516 517 515
f 515 517 518
f 520 521 519
f 519 521 522
f 523 524 526
f 526 524 525
f 503 527 504
f 504 527 528
f 491 514 492
f 492 514 529
f 530 531 533
f 533 531 532
f 535 536 534
f 534 536 537
f 494 539 538
f 538 539 540
f 542 543 541
f 541 543 544
f 546 547 545
f 545 547 548
f 550 551 549
f 549 551 552
f 553 554 520
f 520 554 521
f 533 555 530
f 530 555 556
f 558 559 557
f 557 559 560
f 562 563 561
f 561 563 564
f 565 566 568
f 568 566 567
f 527 503 570
f 570 503 569
f 569 572 571
f 571 572 573
f 575 576 574
f 574 576 577
f 578 579 534
f 534 579 580
f 533 532 582
f 582 532 581
f 584 558 583
f 583 558 557
f 586 587 585
f 585 587 588
f 590 591 589
f 589 591 592
f 541 593 542
f 542 593 594
f 595 596 538
f 538 596 597
f 599 600 598
f 598 600 601
f 602 549 511
f 511 549 512
f 604 605 603
f 603 605 606
f 549 552 512
f 512 552 607
f 492 529 608
f 608 529 609
f 608 483 492
f 492 483 482
f 531 610 532
f 532 610 580
f 532 580 581
f 581 580 579
f 611 612 614
f 614 612 613
f 616 617 615
f 615 617 618
f 555 621 557
f 557 621 583
f 623 624 622
f 622 624 625
f 534 537 578
f 578 537 626
f 627 628 588
f 588 628 585
f 630 631 629
f 629 631 632
f 634 635 633
f 633 635 636
f 637 638 625
f 625 638 622
f 641 640 642
f 643 644 642
f 642 644 641
f 646 647 645
f 645 647 648
f 652 653 651
f 651 653 654
f 617 616 655
f 655 616 656
f 658 659 657
f 657 659 660
f 662 663 661
f 661 663 664
f 500 665 501
f 501 665 666
f 595 667 542
f 542 667 543
f 668 589 670
f 670 589 669
f 194 671 561
f 561 671 562
f 661 196 662
f 662 196 195
f 664 673 672
f 672 673 674
f 676 677 675
f 675 677 678
f 531 530 680
f 680 530 679
f 681 536 517
f 517 536 518
f 682 683 523
f 523 683 524
f 685 686 684
f 684 686 687
f 534 580 535
f 535 580 610
f 688 689 610
f 610 689 535
f 504 528 502
f 502 528 513
f 502 496 504
f 504 496 499
f 500 499 497
f 497 499 496
f 691 692 690
f 690 692 693
f 675 678 694
f 694 678 658
f 563 562 695
f 695 562 696
f 603 606 575
f 575 606 576
f 672 697 664
f 664 697 661
f 697 223 661
f 661 223 196
f 680 679 698
f 698 679 699
f 486 700 479
f 479 700 701
f 702 703 228
f 228 703 229
f 705 706 704
f 704 706 707
f 708 593 709
f 709 593 541
f 710 711 545
f 545 711 546
f 596 712 597
f 597 712 713
f 714 242 697
f 697 242 223
f 715 716 653
f 653 716 604
f 628 676 585
f 585 676 675
f 654 603 717
f 717 603 575
f 717 249 718
f 718 249 248
f 587 586 719
f 719 586 720
f 722 655 721
f 721 655 656
f 512 607 508
f 508 607 509
f 723 724 506
f 506 724 507
f 495 725 493
f 493 725 726
f 727 590 668
f 668 590 589
f 585 675 586
f 586 675 694
f 563 728 564
f 564 728 729
f 716 730 604
f 604 730 605
f 724 731 507
f 507 731 511
f 483 486 482
f 482 486 479
f 732 733 632
f 632 733 629
f 735 736 734
f 734 736 737
f 738 739 735
f 735 739 736
f 638 637 634
f 634 637 635
f 715 740 676
f 676 740 677
f 553 272 717
f 717 272 249
f 679 741 699
f 699 741 742
f 591 743 592
f 592 743 744
f 695 696 592
f 592 696 589
f 734 737 630
f 630 737 631
f 489 745 490
f 490 745 746
f 748 749 747
f 747 749 750
f 752 753 751
f 751 753 754
f 480 755 497
f 497 755 756
f 545 669 710
f 710 669 759
f 663 760 664
f 664 760 673
f 694 658 761
f 761 658 657
f 762 559 657
f 657 559 761
f 741 556 763
f 763 556 560
f 610 531 688
f 688 531 680
f 554 681 521
f 521 681 517
f 704 594 705
f 705 594 593
f 550 765 764
f 764 765 766
f 248 300 718
f 718 300 767
f 695 768 563
f 563 768 728
f 653 604 654
f 654 604 603
f 717 718 654
f 654 718 651
f 697 672 714
f 714 672 770
f 672 674 770
f 770 674 771
f 519 306 520
f 520 306 305
f 575 574 554
f 554 574 681
f 586 694 720
f 720 694 761
f 705 593 772
f 772 593 708
f 541 309 709
f 709 309 308
f 520 305 553
f 553 305 272
f 774 775 773
f 773 775 776
f 777 775 314
f 314 775 315
f 778 779 781
f 781 779 780
f 783 780 782
f 782 780 784
f 782 784 786
f 786 784 785
f 786 785 788
f 788 785 787
f 552 789 607
f 607 789 787
f 551 790 552
f 552 790 789
f 727 792 791
f 791 792 793
f 670 794 668
f 668 794 795
f 547 796 548
f 548 796 797
f 338 337 547
f 547 337 796
f 600 798 601
f 601 798 707
f 692 691 799
f 799 691 800
f 692 665 693
f 693 665 756
f 803 804 754
f 754 804 751
f 703 702 601
f 601 702 598
f 805 806 750
f 750 806 747
f 749 807 750
f 750 807 746
f 753 755 754
f 754 755 701
f 753 752 693
f 693 752 690
f 809 810 808
f 808 810 811
f 812 813 801
f 801 813 687
f 800 758 799
f 758 810 799
f 799 810 666
f 809 572 501
f 501 572 498
f 572 569 498
f 498 569 503
f 814 815 817
f 817 815 816
f 773 818 774
f 774 818 819
f 513 820 514
f 514 820 821
f 527 822 528
f 528 822 823
f 824 529 821
f 821 529 514
f 539 825 540
f 540 825 826
f 543 827 544
f 544 827 828
f 570 816 527
f 527 816 822
f 529 824 609
f 609 824 829
f 667 830 543
f 543 830 827
f 528 823 513
f 513 823 820
f 725 831 726
f 726 831 832
f 833 834 571
f 571 834 835
f 836 837 684
f 684 837 838
f 837 819 838
f 838 819 818
f 774 819 378
f 378 819 379
f 836 813 380
f 380 813 381
f 840 689 839
f 839 689 688
f 839 841 840
f 840 841 842
f 506 843 723
f 723 843 844
f 505 845 506
f 506 845 843
f 840 842 515
f 515 842 846
f 568 567 848
f 848 567 847
f 845 505 779
f 779 505 510
f 779 778 845
f 845 778 849
f 850 843 849
f 849 843 845
f 851 841 853
f 853 841 852
f 846 854 847
f 847 854 848
f 841 851 842
f 842 851 855
f 777 857 856
f 856 857 858
f 859 815 781
f 781 815 860
f 566 519 567
f 567 519 522
f 566 404 519
f 519 404 306
f 855 851 861
f 861 851 853
f 854 862 848
f 848 862 863
f 865 866 864
f 864 866 867
f 778 868 849
f 849 868 869
f 864 867 870
f 870 867 871
f 860 872 868
f 868 872 871
f 849 869 850
f 850 869 873
f 521 517 522
f 522 517 516
f 567 522 847
f 847 522 516
f 865 683 875
f 875 683 874
f 683 682 874
f 874 682 876
f 682 422 876
f 876 422 421
f 864 524 865
f 865 524 683
f 524 864 525
f 525 864 870
f 525 870 858
f 858 870 877
f 878 879 856
f 856 879 776
f 834 833 773
f 773 833 818
f 833 880 818
f 818 880 838
f 685 880 808
f 808 880 573
f 684 838 685
f 685 838 880
f 583 611 584
f 584 611 614
f 619 618 620
f 620 618 617
f 615 627 616
f 616 627 588
f 624 621 625
f 625 621 582
f 631 606 632
f 632 606 605
f 629 650 630
f 630 650 649
f 635 579 636
f 636 579 578
f 633 642 634
f 634 642 640
f 581 637 582
f 582 637 625
f 638 639 622
f 616 588 656
f 656 588 587
f 617 655 620
f 721 656 719
f 719 656 587
f 733 769 629
f 629 769 650
f 732 730 615
f 615 730 627
f 736 577 737
f 737 577 576
f 734 646 735
f 735 646 645
f 739 626 736
f 736 626 577
f 738 643 633
f 633 643 642
f 579 635 581
f 581 635 637
f 634 640 638
f 638 640 639
f 737 576 631
f 631 576 606
f 630 649 734
f 734 649 646
f 768 695 744
f 744 695 592
f 673 881 674
f 674 881 882
f 511 731 602
f 602 731 883
f 724 723 884
f 884 723 885
f 728 886 729
f 729 886 887
f 731 724 698
f 698 724 884
f 888 765 883
f 883 765 602
f 743 889 744
f 744 889 660
f 760 890 673
f 673 890 881
f 768 659 728
f 728 659 886
f 674 882 771
f 771 882 767
f 723 844 885
f 885 844 852
f 891 844 850
f 850 844 843
f 892 891 873
f 873 891 850
f 865 875 866
f 866 875 893
f 874 894 875
f 875 894 863
f 876 895 874
f 874 895 894
f 876 421 895
f 895 421 442
f 562 896 696
f 696 896 759
f 710 897 711
f 711 897 898
f 447 446 898
f 898 446 711
f 897 896 898
f 898 896 899
f 717 575 553
f 553 575 554
f 898 899 447
f 447 899 449
f 671 194 450
f 775 777 776
f 776 777 856
f 817 835 879
f 879 835 834
f 820 782 821
f 821 782 786
f 822 859 823
f 823 859 783
f 788 824 786
f 786 824 821
f 825 900 826
f 826 900 901
f 827 902 828
f 828 902 903
f 822 816 859
f 859 816 815
f 824 788 829
f 829 788 904
f 830 905 827
f 827 905 902
f 823 783 820
f 820 783 782
f 831 906 832
f 832 906 907
f 879 834 776
f 776 834 773
f 665 692 666
f 666 692 799
f 686 802 687
f 687 802 801
f 700 803 701
f 701 803 754
f 706 703 707
f 707 703 601
f 745 805 746
f 746 805 750
f 755 753 756
f 756 753 693
f 798 712 707
f 707 712 704
f 665 500 756
f 756 500 497
f 807 485 746
f 746 485 490
f 755 480 701
f 701 480 479
f 811 757 686
f 686 757 802
f 813 836 687
f 687 836 684
f 810 809 666
f 666 809 501
f 857 460 526
f 526 460 459
f 781 780 859
f 859 780 783
f 784 780 510
f 510 780 779
f 509 785 510
f 510 785 784
f 607 787 509
f 509 787 785
f 789 904 787
f 787 904 788
f 790 906 789
f 789 906 904
f 792 900 793
f 793 900 907
f 794 905 795
f 795 905 901
f 796 903 797
f 797 903 902
f 337 461 796
f 796 461 903
f 858 857 525
f 525 857 526
f 781 860 778
f 778 860 868
f 877 872 878
f 878 872 814
f 858 877 856
f 856 877 878
f 462 242 770
f 770 242 714
f 463 462 771
f 771 462 770
f 812 381 813
f 489 488 713
f 713 488 597
f 488 494 597
f 597 494 538
f 539 494 726
f 726 494 493
f 559 558 761
f 761 558 720
f 558 584 720
f 720 584 719
f 591 590 766
f 766 590 764
f 614 613 721
f 721 613 722
f 590 727 764
f 764 727 791
f 743 591 908
f 908 591 766
f 745 489 909
f 909 489 713
f 559 762 560
f 560 762 763
f 792 727 795
f 795 727 668
f 806 805 910
f 910 805 911
f 825 539 832
f 832 539 726
f 584 614 719
f 719 614 721
f 762 889 763
f 763 889 912
f 900 825 907
f 907 825 832
f 805 745 911
f 911 745 909
f 900 792 901
f 901 792 795
f 485 484 490
f 490 484 487
f 495 484 608
f 608 484 483
f 551 550 791
f 791 550 764
f 556 555 560
f 560 555 557
f 621 555 582
f 582 555 533
f 624 623 611
f 611 623 612
f 725 495 609
f 609 495 608
f 888 742 908
f 908 742 912
f 749 748 803
f 803 748 804
f 530 556 679
f 679 556 741
f 765 550 602
f 602 550 549
f 790 551 793
f 793 551 791
f 807 749 700
f 700 749 803
f 831 725 829
f 829 725 609
f 621 624 583
f 583 624 611
f 765 888 766
f 766 888 908
f 906 831 904
f 904 831 829
f 485 807 486
f 486 807 700
f 906 790 907
f 907 790 793
f 659 768 660
f 660 768 744
f 698 699 731
f 731 699 883
f 883 699 888
f 888 699 742
f 300 463 767
f 767 463 771
f 853 852 891
f 891 852 844
f 861 853 892
f 892 853 891
f 862 893 863
f 863 893 875
f 881 652 882
f 882 652 651
f 884 885 688
f 688 885 839
f 886 678 887
f 887 678 677
f 698 884 680
f 680 884 688
f 889 762 660
f 660 762 657
f 890 740 881
f 881 740 652
f 659 658 886
f 886 658 678
f 882 651 767
f 767 651 718
f 885 852 839
f 839 852 841
f 894 568 863
f 863 568 848
f 895 565 894
f 894 565 568
f 442 469 895
f 895 469 565
f 889 743 912
f 912 743 908
f 742 741 912
f 912 741 763
f 515 518 840
f 840 518 689
f 536 681 537
f 537 681 574
f 571 573 833
f 833 573 880
f 626 537 577
f 577 537 574
f 644 643 648
f 648 643 645
f 663 662 564
f 564 662 561
f 662 195 561
f 561 195 194
f 536 535 518
f 518 535 689
f 716 715 628
f 628 715 676
f 730 716 627
f 627 716 628
f 733 732 618
f 618 732 615
f 739 738 636
f 636 738 633
f 740 715 652
f 652 715 653
f 760 663 729
f 729 663 564
f 808 811 685
f 685 811 686
f 814 817 878
f 878 817 879
f 571 835 569
f 569 835 570
f 515 846 516
f 516 846 847
f 854 846 855
f 855 846 842
f 862 854 861
f 861 854 855
f 866 873 867
f 867 873 869
f 867 869 871
f 871 869 868
f 872 877 871
f 871 877 870
f 808 573 809
f 809 573 572
f 769 733 619
f 619 733 618
f 730 732 605
f 605 732 632
f 626 739 578
f 578 739 636
f 643 738 645
f 645 738 735
f 890 760 887
f 887 760 729
f 866 893 873
f 873 893 892
f 835 817 570
f 570 817 816
f 757 811 758
f 758 811 810
f 872 860 814
f 814 860 815
f 893 862 892
f 892 862 861
f 740 890 677
f 677 890 887
f 596 595 594
f 594 595 542
f 600 599 911
f 911 599 910
f 667 595 540
f 540 595 538
f 670 669 548
f 548 669 545
f 712 596 704
f 704 596 594
f 696 759 589
f 589 759 669
f 794 670 797
f 797 670 548
f 798 600 909
f 909 600 911
f 830 667 826
f 826 667 540
f 896 897 759
f 759 897 710
f 671 899 562
f 562 899 896
f 905 830 901
f 901 830 826
f 712 798 713
f 713 798 909
f 905 794 902
f 902 794 797
f 469 404 565
f 565 404 566
f 422 682 470
f 470 682 523
f 472 772 471
f 471 772 708
f 380 473 836
f 836 473 837
f 473 379 837
f 837 379 819
f 474 309 544
f 544 309 541
f 472 475 772
f 772 475 705
f 308 471 709
f 709 471 708
f 314 460 777
f 777 460 857
f 476 474 828
f 828 474 544
f 378 315 774
f 774 315 775
f 461 476 903
f 903 476 828
f 450 449 671
f 671 449 899
f 229 703 477
f 477 703 706
f 477 706 475
f 475 706 705
f 446 478 711
f 711 478 546
f 478 338 546
f 546 338 547
f 470 523 459
f 459 523 526
# 1752 faces, 0 coords texture

# End of File
